<svg version="1.0" xmlns="http://www.w3.org/2000/svg" xmlns:xlink="http://www.w3.org/1999/xlink"
	 viewBox="0 0 100 100" enable-background="new 0 0 100 100" xml:space="preserve">
	
<svg xmlns="http://www.w3.org/2000/svg" xmlns:xlink="http://www.w3.org/1999/xlink" version="1.1" width="100" height="100" viewBox="0 0 2000 2000" x="0" y="0" shape-rendering="crispEdges"><defs/><rect x="0" y="0" width="2000" height="2000" fill="#ffffff"/><rect x="563" y="149" width="46" height="46" fill="#000000"/><rect x="655" y="149" width="46" height="46" fill="#000000"/><rect x="885" y="149" width="46" height="46" fill="#000000"/><rect x="1299" y="149" width="46" height="46" fill="#000000"/><rect x="1345" y="149" width="46" height="46" fill="#000000"/><rect x="1391" y="149" width="46" height="46" fill="#000000"/><rect x="1437" y="149" width="46" height="46" fill="#000000"/><rect x="655" y="195" width="46" height="46" fill="#000000"/><rect x="701" y="195" width="46" height="46" fill="#000000"/><rect x="747" y="195" width="46" height="46" fill="#000000"/><rect x="885" y="195" width="46" height="46" fill="#000000"/><rect x="931" y="195" width="46" height="46" fill="#000000"/><rect x="1115" y="195" width="46" height="46" fill="#000000"/><rect x="1161" y="195" width="46" height="46" fill="#000000"/><rect x="1207" y="195" width="46" height="46" fill="#000000"/><rect x="1253" y="195" width="46" height="46" fill="#000000"/><rect x="1345" y="195" width="46" height="46" fill="#000000"/><rect x="1391" y="195" width="46" height="46" fill="#000000"/><rect x="517" y="241" width="46" height="46" fill="#000000"/><rect x="563" y="241" width="46" height="46" fill="#000000"/><rect x="609" y="241" width="46" height="46" fill="#000000"/><rect x="655" y="241" width="46" height="46" fill="#000000"/><rect x="747" y="241" width="46" height="46" fill="#000000"/><rect x="931" y="241" width="46" height="46" fill="#000000"/><rect x="1023" y="241" width="46" height="46" fill="#000000"/><rect x="1069" y="241" width="46" height="46" fill="#000000"/><rect x="1115" y="241" width="46" height="46" fill="#000000"/><rect x="1161" y="241" width="46" height="46" fill="#000000"/><rect x="1253" y="241" width="46" height="46" fill="#000000"/><rect x="1299" y="241" width="46" height="46" fill="#000000"/><rect x="1437" y="241" width="46" height="46" fill="#000000"/><rect x="563" y="287" width="46" height="46" fill="#000000"/><rect x="609" y="287" width="46" height="46" fill="#000000"/><rect x="977" y="287" width="46" height="46" fill="#000000"/><rect x="1023" y="287" width="46" height="46" fill="#000000"/><rect x="1207" y="287" width="46" height="46" fill="#000000"/><rect x="1253" y="287" width="46" height="46" fill="#000000"/><rect x="1345" y="287" width="46" height="46" fill="#000000"/><rect x="1391" y="287" width="46" height="46" fill="#000000"/><rect x="1437" y="287" width="46" height="46" fill="#000000"/><rect x="517" y="333" width="46" height="46" fill="#000000"/><rect x="609" y="333" width="46" height="46" fill="#000000"/><rect x="655" y="333" width="46" height="46" fill="#000000"/><rect x="701" y="333" width="46" height="46" fill="#000000"/><rect x="839" y="333" width="46" height="46" fill="#000000"/><rect x="977" y="333" width="46" height="46" fill="#000000"/><rect x="1069" y="333" width="46" height="46" fill="#000000"/><rect x="1161" y="333" width="46" height="46" fill="#000000"/><rect x="1253" y="333" width="46" height="46" fill="#000000"/><rect x="1299" y="333" width="46" height="46" fill="#000000"/><rect x="1391" y="333" width="46" height="46" fill="#000000"/><rect x="517" y="379" width="46" height="46" fill="#000000"/><rect x="563" y="379" width="46" height="46" fill="#000000"/><rect x="701" y="379" width="46" height="46" fill="#000000"/><rect x="747" y="379" width="46" height="46" fill="#000000"/><rect x="885" y="379" width="46" height="46" fill="#000000"/><rect x="1115" y="379" width="46" height="46" fill="#000000"/><rect x="1161" y="379" width="46" height="46" fill="#000000"/><rect x="1207" y="379" width="46" height="46" fill="#000000"/><rect x="1253" y="379" width="46" height="46" fill="#000000"/><rect x="1345" y="379" width="46" height="46" fill="#000000"/><rect x="1391" y="379" width="46" height="46" fill="#000000"/><rect x="1437" y="379" width="46" height="46" fill="#000000"/><rect x="517" y="425" width="46" height="46" fill="#000000"/><rect x="609" y="425" width="46" height="46" fill="#000000"/><rect x="701" y="425" width="46" height="46" fill="#000000"/><rect x="793" y="425" width="46" height="46" fill="#000000"/><rect x="885" y="425" width="46" height="46" fill="#000000"/><rect x="977" y="425" width="46" height="46" fill="#000000"/><rect x="1069" y="425" width="46" height="46" fill="#000000"/><rect x="1161" y="425" width="46" height="46" fill="#000000"/><rect x="1253" y="425" width="46" height="46" fill="#000000"/><rect x="1345" y="425" width="46" height="46" fill="#000000"/><rect x="1437" y="425" width="46" height="46" fill="#000000"/><rect x="563" y="471" width="46" height="46" fill="#000000"/><rect x="701" y="471" width="46" height="46" fill="#000000"/><rect x="839" y="471" width="46" height="46" fill="#000000"/><rect x="885" y="471" width="46" height="46" fill="#000000"/><rect x="1069" y="471" width="46" height="46" fill="#000000"/><rect x="1115" y="471" width="46" height="46" fill="#000000"/><rect x="1161" y="471" width="46" height="46" fill="#000000"/><rect x="1253" y="471" width="46" height="46" fill="#000000"/><rect x="1299" y="471" width="46" height="46" fill="#000000"/><rect x="1437" y="471" width="46" height="46" fill="#000000"/><rect x="195" y="517" width="46" height="46" fill="#000000"/><rect x="333" y="517" width="46" height="46" fill="#000000"/><rect x="425" y="517" width="46" height="46" fill="#000000"/><rect x="517" y="517" width="46" height="46" fill="#000000"/><rect x="609" y="517" width="46" height="46" fill="#000000"/><rect x="655" y="517" width="46" height="46" fill="#000000"/><rect x="747" y="517" width="46" height="46" fill="#000000"/><rect x="839" y="517" width="46" height="46" fill="#000000"/><rect x="885" y="517" width="46" height="46" fill="#000000"/><rect x="1069" y="517" width="46" height="46" fill="#000000"/><rect x="1253" y="517" width="46" height="46" fill="#000000"/><rect x="1437" y="517" width="46" height="46" fill="#000000"/><rect x="1483" y="517" width="46" height="46" fill="#000000"/><rect x="1575" y="517" width="46" height="46" fill="#000000"/><rect x="1621" y="517" width="46" height="46" fill="#000000"/><rect x="1713" y="517" width="46" height="46" fill="#000000"/><rect x="241" y="563" width="46" height="46" fill="#000000"/><rect x="287" y="563" width="46" height="46" fill="#000000"/><rect x="379" y="563" width="46" height="46" fill="#000000"/><rect x="517" y="563" width="46" height="46" fill="#000000"/><rect x="609" y="563" width="46" height="46" fill="#000000"/><rect x="655" y="563" width="46" height="46" fill="#000000"/><rect x="747" y="563" width="46" height="46" fill="#000000"/><rect x="793" y="563" width="46" height="46" fill="#000000"/><rect x="885" y="563" width="46" height="46" fill="#000000"/><rect x="931" y="563" width="46" height="46" fill="#000000"/><rect x="1161" y="563" width="46" height="46" fill="#000000"/><rect x="1207" y="563" width="46" height="46" fill="#000000"/><rect x="1299" y="563" width="46" height="46" fill="#000000"/><rect x="1345" y="563" width="46" height="46" fill="#000000"/><rect x="1529" y="563" width="46" height="46" fill="#000000"/><rect x="1575" y="563" width="46" height="46" fill="#000000"/><rect x="1621" y="563" width="46" height="46" fill="#000000"/><rect x="1667" y="563" width="46" height="46" fill="#000000"/><rect x="1759" y="563" width="46" height="46" fill="#000000"/><rect x="287" y="609" width="46" height="46" fill="#000000"/><rect x="425" y="609" width="46" height="46" fill="#000000"/><rect x="471" y="609" width="46" height="46" fill="#000000"/><rect x="563" y="609" width="46" height="46" fill="#000000"/><rect x="609" y="609" width="46" height="46" fill="#000000"/><rect x="977" y="609" width="46" height="46" fill="#000000"/><rect x="1069" y="609" width="46" height="46" fill="#000000"/><rect x="1299" y="609" width="46" height="46" fill="#000000"/><rect x="1575" y="609" width="46" height="46" fill="#000000"/><rect x="1621" y="609" width="46" height="46" fill="#000000"/><rect x="1759" y="609" width="46" height="46" fill="#000000"/><rect x="241" y="655" width="46" height="46" fill="#000000"/><rect x="287" y="655" width="46" height="46" fill="#000000"/><rect x="471" y="655" width="46" height="46" fill="#000000"/><rect x="609" y="655" width="46" height="46" fill="#000000"/><rect x="1529" y="655" width="46" height="46" fill="#000000"/><rect x="1575" y="655" width="46" height="46" fill="#000000"/><rect x="1713" y="655" width="46" height="46" fill="#000000"/><rect x="1805" y="655" width="46" height="46" fill="#000000"/><rect x="149" y="701" width="46" height="46" fill="#000000"/><rect x="195" y="701" width="46" height="46" fill="#000000"/><rect x="287" y="701" width="46" height="46" fill="#000000"/><rect x="333" y="701" width="46" height="46" fill="#000000"/><rect x="379" y="701" width="46" height="46" fill="#000000"/><rect x="425" y="701" width="46" height="46" fill="#000000"/><rect x="1437" y="701" width="46" height="46" fill="#000000"/><rect x="1483" y="701" width="46" height="46" fill="#000000"/><rect x="1529" y="701" width="46" height="46" fill="#000000"/><rect x="1667" y="701" width="46" height="46" fill="#000000"/><rect x="1713" y="701" width="46" height="46" fill="#000000"/><rect x="1759" y="701" width="46" height="46" fill="#000000"/><rect x="1805" y="701" width="46" height="46" fill="#000000"/><rect x="149" y="747" width="46" height="46" fill="#000000"/><rect x="195" y="747" width="46" height="46" fill="#000000"/><rect x="287" y="747" width="46" height="46" fill="#000000"/><rect x="471" y="747" width="46" height="46" fill="#000000"/><rect x="563" y="747" width="46" height="46" fill="#000000"/><rect x="1529" y="747" width="46" height="46" fill="#000000"/><rect x="1575" y="747" width="46" height="46" fill="#000000"/><rect x="1621" y="747" width="46" height="46" fill="#000000"/><rect x="149" y="793" width="46" height="46" fill="#000000"/><rect x="241" y="793" width="46" height="46" fill="#000000"/><rect x="333" y="793" width="46" height="46" fill="#000000"/><rect x="379" y="793" width="46" height="46" fill="#000000"/><rect x="425" y="793" width="46" height="46" fill="#000000"/><rect x="471" y="793" width="46" height="46" fill="#000000"/><rect x="517" y="793" width="46" height="46" fill="#000000"/><rect x="563" y="793" width="46" height="46" fill="#000000"/><rect x="1345" y="793" width="46" height="46" fill="#000000"/><rect x="1575" y="793" width="46" height="46" fill="#000000"/><rect x="1621" y="793" width="46" height="46" fill="#000000"/><rect x="1759" y="793" width="46" height="46" fill="#000000"/><rect x="149" y="839" width="46" height="46" fill="#000000"/><rect x="195" y="839" width="46" height="46" fill="#000000"/><rect x="287" y="839" width="46" height="46" fill="#000000"/><rect x="333" y="839" width="46" height="46" fill="#000000"/><rect x="379" y="839" width="46" height="46" fill="#000000"/><rect x="471" y="839" width="46" height="46" fill="#000000"/><rect x="1529" y="839" width="46" height="46" fill="#000000"/><rect x="1575" y="839" width="46" height="46" fill="#000000"/><rect x="1667" y="839" width="46" height="46" fill="#000000"/><rect x="1805" y="839" width="46" height="46" fill="#000000"/><rect x="149" y="885" width="46" height="46" fill="#000000"/><rect x="287" y="885" width="46" height="46" fill="#000000"/><rect x="333" y="885" width="46" height="46" fill="#000000"/><rect x="425" y="885" width="46" height="46" fill="#000000"/><rect x="517" y="885" width="46" height="46" fill="#000000"/><rect x="563" y="885" width="46" height="46" fill="#000000"/><rect x="609" y="885" width="46" height="46" fill="#000000"/><rect x="1345" y="885" width="46" height="46" fill="#000000"/><rect x="1437" y="885" width="46" height="46" fill="#000000"/><rect x="1529" y="885" width="46" height="46" fill="#000000"/><rect x="1621" y="885" width="46" height="46" fill="#000000"/><rect x="1759" y="885" width="46" height="46" fill="#000000"/><rect x="1805" y="885" width="46" height="46" fill="#000000"/><rect x="149" y="931" width="46" height="46" fill="#000000"/><rect x="195" y="931" width="46" height="46" fill="#000000"/><rect x="241" y="931" width="46" height="46" fill="#000000"/><rect x="333" y="931" width="46" height="46" fill="#000000"/><rect x="379" y="931" width="46" height="46" fill="#000000"/><rect x="471" y="931" width="46" height="46" fill="#000000"/><rect x="517" y="931" width="46" height="46" fill="#000000"/><rect x="563" y="931" width="46" height="46" fill="#000000"/><rect x="1391" y="931" width="46" height="46" fill="#000000"/><rect x="1575" y="931" width="46" height="46" fill="#000000"/><rect x="1621" y="931" width="46" height="46" fill="#000000"/><rect x="1667" y="931" width="46" height="46" fill="#000000"/><rect x="1805" y="931" width="46" height="46" fill="#000000"/><rect x="195" y="977" width="46" height="46" fill="#000000"/><rect x="241" y="977" width="46" height="46" fill="#000000"/><rect x="287" y="977" width="46" height="46" fill="#000000"/><rect x="425" y="977" width="46" height="46" fill="#000000"/><rect x="471" y="977" width="46" height="46" fill="#000000"/><rect x="517" y="977" width="46" height="46" fill="#000000"/><rect x="563" y="977" width="46" height="46" fill="#000000"/><rect x="609" y="977" width="46" height="46" fill="#000000"/><rect x="1345" y="977" width="46" height="46" fill="#000000"/><rect x="1391" y="977" width="46" height="46" fill="#000000"/><rect x="1621" y="977" width="46" height="46" fill="#000000"/><rect x="1667" y="977" width="46" height="46" fill="#000000"/><rect x="149" y="1023" width="46" height="46" fill="#000000"/><rect x="195" y="1023" width="46" height="46" fill="#000000"/><rect x="241" y="1023" width="46" height="46" fill="#000000"/><rect x="287" y="1023" width="46" height="46" fill="#000000"/><rect x="333" y="1023" width="46" height="46" fill="#000000"/><rect x="379" y="1023" width="46" height="46" fill="#000000"/><rect x="517" y="1023" width="46" height="46" fill="#000000"/><rect x="563" y="1023" width="46" height="46" fill="#000000"/><rect x="609" y="1023" width="46" height="46" fill="#000000"/><rect x="1345" y="1023" width="46" height="46" fill="#000000"/><rect x="1483" y="1023" width="46" height="46" fill="#000000"/><rect x="1529" y="1023" width="46" height="46" fill="#000000"/><rect x="1575" y="1023" width="46" height="46" fill="#000000"/><rect x="1667" y="1023" width="46" height="46" fill="#000000"/><rect x="1759" y="1023" width="46" height="46" fill="#000000"/><rect x="1805" y="1023" width="46" height="46" fill="#000000"/><rect x="241" y="1069" width="46" height="46" fill="#000000"/><rect x="333" y="1069" width="46" height="46" fill="#000000"/><rect x="425" y="1069" width="46" height="46" fill="#000000"/><rect x="471" y="1069" width="46" height="46" fill="#000000"/><rect x="609" y="1069" width="46" height="46" fill="#000000"/><rect x="1437" y="1069" width="46" height="46" fill="#000000"/><rect x="1483" y="1069" width="46" height="46" fill="#000000"/><rect x="1575" y="1069" width="46" height="46" fill="#000000"/><rect x="1621" y="1069" width="46" height="46" fill="#000000"/><rect x="149" y="1115" width="46" height="46" fill="#000000"/><rect x="195" y="1115" width="46" height="46" fill="#000000"/><rect x="241" y="1115" width="46" height="46" fill="#000000"/><rect x="287" y="1115" width="46" height="46" fill="#000000"/><rect x="379" y="1115" width="46" height="46" fill="#000000"/><rect x="471" y="1115" width="46" height="46" fill="#000000"/><rect x="517" y="1115" width="46" height="46" fill="#000000"/><rect x="609" y="1115" width="46" height="46" fill="#000000"/><rect x="1345" y="1115" width="46" height="46" fill="#000000"/><rect x="1391" y="1115" width="46" height="46" fill="#000000"/><rect x="1483" y="1115" width="46" height="46" fill="#000000"/><rect x="1621" y="1115" width="46" height="46" fill="#000000"/><rect x="1667" y="1115" width="46" height="46" fill="#000000"/><rect x="1759" y="1115" width="46" height="46" fill="#000000"/><rect x="149" y="1161" width="46" height="46" fill="#000000"/><rect x="195" y="1161" width="46" height="46" fill="#000000"/><rect x="241" y="1161" width="46" height="46" fill="#000000"/><rect x="287" y="1161" width="46" height="46" fill="#000000"/><rect x="333" y="1161" width="46" height="46" fill="#000000"/><rect x="379" y="1161" width="46" height="46" fill="#000000"/><rect x="425" y="1161" width="46" height="46" fill="#000000"/><rect x="609" y="1161" width="46" height="46" fill="#000000"/><rect x="1345" y="1161" width="46" height="46" fill="#000000"/><rect x="1391" y="1161" width="46" height="46" fill="#000000"/><rect x="1575" y="1161" width="46" height="46" fill="#000000"/><rect x="1621" y="1161" width="46" height="46" fill="#000000"/><rect x="1667" y="1161" width="46" height="46" fill="#000000"/><rect x="1805" y="1161" width="46" height="46" fill="#000000"/><rect x="241" y="1207" width="46" height="46" fill="#000000"/><rect x="287" y="1207" width="46" height="46" fill="#000000"/><rect x="379" y="1207" width="46" height="46" fill="#000000"/><rect x="517" y="1207" width="46" height="46" fill="#000000"/><rect x="563" y="1207" width="46" height="46" fill="#000000"/><rect x="1483" y="1207" width="46" height="46" fill="#000000"/><rect x="1529" y="1207" width="46" height="46" fill="#000000"/><rect x="1575" y="1207" width="46" height="46" fill="#000000"/><rect x="1713" y="1207" width="46" height="46" fill="#000000"/><rect x="1759" y="1207" width="46" height="46" fill="#000000"/><rect x="1805" y="1207" width="46" height="46" fill="#000000"/><rect x="195" y="1253" width="46" height="46" fill="#000000"/><rect x="379" y="1253" width="46" height="46" fill="#000000"/><rect x="425" y="1253" width="46" height="46" fill="#000000"/><rect x="471" y="1253" width="46" height="46" fill="#000000"/><rect x="1345" y="1253" width="46" height="46" fill="#000000"/><rect x="1437" y="1253" width="46" height="46" fill="#000000"/><rect x="1483" y="1253" width="46" height="46" fill="#000000"/><rect x="1667" y="1253" width="46" height="46" fill="#000000"/><rect x="1759" y="1253" width="46" height="46" fill="#000000"/><rect x="1805" y="1253" width="46" height="46" fill="#000000"/><rect x="149" y="1299" width="46" height="46" fill="#000000"/><rect x="379" y="1299" width="46" height="46" fill="#000000"/><rect x="517" y="1299" width="46" height="46" fill="#000000"/><rect x="609" y="1299" width="46" height="46" fill="#000000"/><rect x="1345" y="1299" width="46" height="46" fill="#000000"/><rect x="1529" y="1299" width="46" height="46" fill="#000000"/><rect x="1667" y="1299" width="46" height="46" fill="#000000"/><rect x="1759" y="1299" width="46" height="46" fill="#000000"/><rect x="287" y="1345" width="46" height="46" fill="#000000"/><rect x="425" y="1345" width="46" height="46" fill="#000000"/><rect x="563" y="1345" width="46" height="46" fill="#000000"/><rect x="609" y="1345" width="46" height="46" fill="#000000"/><rect x="701" y="1345" width="46" height="46" fill="#000000"/><rect x="747" y="1345" width="46" height="46" fill="#000000"/><rect x="885" y="1345" width="46" height="46" fill="#000000"/><rect x="931" y="1345" width="46" height="46" fill="#000000"/><rect x="977" y="1345" width="46" height="46" fill="#000000"/><rect x="1161" y="1345" width="46" height="46" fill="#000000"/><rect x="1299" y="1345" width="46" height="46" fill="#000000"/><rect x="1391" y="1345" width="46" height="46" fill="#000000"/><rect x="1437" y="1345" width="46" height="46" fill="#000000"/><rect x="1621" y="1345" width="46" height="46" fill="#000000"/><rect x="1805" y="1345" width="46" height="46" fill="#000000"/><rect x="333" y="1391" width="46" height="46" fill="#000000"/><rect x="517" y="1391" width="46" height="46" fill="#000000"/><rect x="609" y="1391" width="46" height="46" fill="#000000"/><rect x="655" y="1391" width="46" height="46" fill="#000000"/><rect x="793" y="1391" width="46" height="46" fill="#000000"/><rect x="885" y="1391" width="46" height="46" fill="#000000"/><rect x="931" y="1391" width="46" height="46" fill="#000000"/><rect x="977" y="1391" width="46" height="46" fill="#000000"/><rect x="1023" y="1391" width="46" height="46" fill="#000000"/><rect x="1069" y="1391" width="46" height="46" fill="#000000"/><rect x="1161" y="1391" width="46" height="46" fill="#000000"/><rect x="1253" y="1391" width="46" height="46" fill="#000000"/><rect x="1299" y="1391" width="46" height="46" fill="#000000"/><rect x="1529" y="1391" width="46" height="46" fill="#000000"/><rect x="1575" y="1391" width="46" height="46" fill="#000000"/><rect x="1713" y="1391" width="46" height="46" fill="#000000"/><rect x="1759" y="1391" width="46" height="46" fill="#000000"/><rect x="1805" y="1391" width="46" height="46" fill="#000000"/><rect x="149" y="1437" width="46" height="46" fill="#000000"/><rect x="195" y="1437" width="46" height="46" fill="#000000"/><rect x="241" y="1437" width="46" height="46" fill="#000000"/><rect x="287" y="1437" width="46" height="46" fill="#000000"/><rect x="425" y="1437" width="46" height="46" fill="#000000"/><rect x="471" y="1437" width="46" height="46" fill="#000000"/><rect x="517" y="1437" width="46" height="46" fill="#000000"/><rect x="563" y="1437" width="46" height="46" fill="#000000"/><rect x="701" y="1437" width="46" height="46" fill="#000000"/><rect x="885" y="1437" width="46" height="46" fill="#000000"/><rect x="931" y="1437" width="46" height="46" fill="#000000"/><rect x="977" y="1437" width="46" height="46" fill="#000000"/><rect x="1023" y="1437" width="46" height="46" fill="#000000"/><rect x="1069" y="1437" width="46" height="46" fill="#000000"/><rect x="1115" y="1437" width="46" height="46" fill="#000000"/><rect x="1161" y="1437" width="46" height="46" fill="#000000"/><rect x="1253" y="1437" width="46" height="46" fill="#000000"/><rect x="1437" y="1437" width="46" height="46" fill="#000000"/><rect x="1483" y="1437" width="46" height="46" fill="#000000"/><rect x="1529" y="1437" width="46" height="46" fill="#000000"/><rect x="1575" y="1437" width="46" height="46" fill="#000000"/><rect x="1621" y="1437" width="46" height="46" fill="#000000"/><rect x="1805" y="1437" width="46" height="46" fill="#000000"/><rect x="517" y="1483" width="46" height="46" fill="#000000"/><rect x="609" y="1483" width="46" height="46" fill="#000000"/><rect x="701" y="1483" width="46" height="46" fill="#000000"/><rect x="1115" y="1483" width="46" height="46" fill="#000000"/><rect x="1161" y="1483" width="46" height="46" fill="#000000"/><rect x="1207" y="1483" width="46" height="46" fill="#000000"/><rect x="1253" y="1483" width="46" height="46" fill="#000000"/><rect x="1299" y="1483" width="46" height="46" fill="#000000"/><rect x="1437" y="1483" width="46" height="46" fill="#000000"/><rect x="1621" y="1483" width="46" height="46" fill="#000000"/><rect x="1667" y="1483" width="46" height="46" fill="#000000"/><rect x="1759" y="1483" width="46" height="46" fill="#000000"/><rect x="1805" y="1483" width="46" height="46" fill="#000000"/><rect x="563" y="1529" width="46" height="46" fill="#000000"/><rect x="701" y="1529" width="46" height="46" fill="#000000"/><rect x="747" y="1529" width="46" height="46" fill="#000000"/><rect x="793" y="1529" width="46" height="46" fill="#000000"/><rect x="885" y="1529" width="46" height="46" fill="#000000"/><rect x="931" y="1529" width="46" height="46" fill="#000000"/><rect x="1069" y="1529" width="46" height="46" fill="#000000"/><rect x="1207" y="1529" width="46" height="46" fill="#000000"/><rect x="1299" y="1529" width="46" height="46" fill="#000000"/><rect x="1345" y="1529" width="46" height="46" fill="#000000"/><rect x="1437" y="1529" width="46" height="46" fill="#000000"/><rect x="1529" y="1529" width="46" height="46" fill="#000000"/><rect x="1621" y="1529" width="46" height="46" fill="#000000"/><rect x="1667" y="1529" width="46" height="46" fill="#000000"/><rect x="563" y="1575" width="46" height="46" fill="#000000"/><rect x="655" y="1575" width="46" height="46" fill="#000000"/><rect x="701" y="1575" width="46" height="46" fill="#000000"/><rect x="747" y="1575" width="46" height="46" fill="#000000"/><rect x="839" y="1575" width="46" height="46" fill="#000000"/><rect x="885" y="1575" width="46" height="46" fill="#000000"/><rect x="977" y="1575" width="46" height="46" fill="#000000"/><rect x="1023" y="1575" width="46" height="46" fill="#000000"/><rect x="1069" y="1575" width="46" height="46" fill="#000000"/><rect x="1161" y="1575" width="46" height="46" fill="#000000"/><rect x="1253" y="1575" width="46" height="46" fill="#000000"/><rect x="1299" y="1575" width="46" height="46" fill="#000000"/><rect x="1391" y="1575" width="46" height="46" fill="#000000"/><rect x="1437" y="1575" width="46" height="46" fill="#000000"/><rect x="1621" y="1575" width="46" height="46" fill="#000000"/><rect x="1667" y="1575" width="46" height="46" fill="#000000"/><rect x="1759" y="1575" width="46" height="46" fill="#000000"/><rect x="1805" y="1575" width="46" height="46" fill="#000000"/><rect x="517" y="1621" width="46" height="46" fill="#000000"/><rect x="793" y="1621" width="46" height="46" fill="#000000"/><rect x="885" y="1621" width="46" height="46" fill="#000000"/><rect x="931" y="1621" width="46" height="46" fill="#000000"/><rect x="977" y="1621" width="46" height="46" fill="#000000"/><rect x="1023" y="1621" width="46" height="46" fill="#000000"/><rect x="1161" y="1621" width="46" height="46" fill="#000000"/><rect x="1253" y="1621" width="46" height="46" fill="#000000"/><rect x="1437" y="1621" width="46" height="46" fill="#000000"/><rect x="1483" y="1621" width="46" height="46" fill="#000000"/><rect x="1529" y="1621" width="46" height="46" fill="#000000"/><rect x="1575" y="1621" width="46" height="46" fill="#000000"/><rect x="1621" y="1621" width="46" height="46" fill="#000000"/><rect x="1759" y="1621" width="46" height="46" fill="#000000"/><rect x="1805" y="1621" width="46" height="46" fill="#000000"/><rect x="563" y="1667" width="46" height="46" fill="#000000"/><rect x="609" y="1667" width="46" height="46" fill="#000000"/><rect x="747" y="1667" width="46" height="46" fill="#000000"/><rect x="839" y="1667" width="46" height="46" fill="#000000"/><rect x="1023" y="1667" width="46" height="46" fill="#000000"/><rect x="1069" y="1667" width="46" height="46" fill="#000000"/><rect x="1299" y="1667" width="46" height="46" fill="#000000"/><rect x="1391" y="1667" width="46" height="46" fill="#000000"/><rect x="1437" y="1667" width="46" height="46" fill="#000000"/><rect x="1529" y="1667" width="46" height="46" fill="#000000"/><rect x="1575" y="1667" width="46" height="46" fill="#000000"/><rect x="1667" y="1667" width="46" height="46" fill="#000000"/><rect x="1759" y="1667" width="46" height="46" fill="#000000"/><rect x="1805" y="1667" width="46" height="46" fill="#000000"/><rect x="563" y="1713" width="46" height="46" fill="#000000"/><rect x="609" y="1713" width="46" height="46" fill="#000000"/><rect x="655" y="1713" width="46" height="46" fill="#000000"/><rect x="793" y="1713" width="46" height="46" fill="#000000"/><rect x="885" y="1713" width="46" height="46" fill="#000000"/><rect x="977" y="1713" width="46" height="46" fill="#000000"/><rect x="1069" y="1713" width="46" height="46" fill="#000000"/><rect x="1207" y="1713" width="46" height="46" fill="#000000"/><rect x="1253" y="1713" width="46" height="46" fill="#000000"/><rect x="1299" y="1713" width="46" height="46" fill="#000000"/><rect x="1345" y="1713" width="46" height="46" fill="#000000"/><rect x="1437" y="1713" width="46" height="46" fill="#000000"/><rect x="1483" y="1713" width="46" height="46" fill="#000000"/><rect x="1575" y="1713" width="46" height="46" fill="#000000"/><rect x="1621" y="1713" width="46" height="46" fill="#000000"/><rect x="1667" y="1713" width="46" height="46" fill="#000000"/><rect x="1759" y="1713" width="46" height="46" fill="#000000"/><rect x="517" y="1759" width="46" height="46" fill="#000000"/><rect x="563" y="1759" width="46" height="46" fill="#000000"/><rect x="655" y="1759" width="46" height="46" fill="#000000"/><rect x="701" y="1759" width="46" height="46" fill="#000000"/><rect x="747" y="1759" width="46" height="46" fill="#000000"/><rect x="793" y="1759" width="46" height="46" fill="#000000"/><rect x="885" y="1759" width="46" height="46" fill="#000000"/><rect x="931" y="1759" width="46" height="46" fill="#000000"/><rect x="1161" y="1759" width="46" height="46" fill="#000000"/><rect x="1253" y="1759" width="46" height="46" fill="#000000"/><rect x="1345" y="1759" width="46" height="46" fill="#000000"/><rect x="1391" y="1759" width="46" height="46" fill="#000000"/><rect x="1437" y="1759" width="46" height="46" fill="#000000"/><rect x="1621" y="1759" width="46" height="46" fill="#000000"/><rect x="1713" y="1759" width="46" height="46" fill="#000000"/><rect x="1805" y="1759" width="46" height="46" fill="#000000"/><rect x="563" y="1805" width="46" height="46" fill="#000000"/><rect x="655" y="1805" width="46" height="46" fill="#000000"/><rect x="701" y="1805" width="46" height="46" fill="#000000"/><rect x="793" y="1805" width="46" height="46" fill="#000000"/><rect x="1023" y="1805" width="46" height="46" fill="#000000"/><rect x="1069" y="1805" width="46" height="46" fill="#000000"/><rect x="1253" y="1805" width="46" height="46" fill="#000000"/><rect x="1345" y="1805" width="46" height="46" fill="#000000"/><rect x="1391" y="1805" width="46" height="46" fill="#000000"/><rect x="1483" y="1805" width="46" height="46" fill="#000000"/><rect x="1621" y="1805" width="46" height="46" fill="#000000"/><rect x="1667" y="1805" width="46" height="46" fill="#000000"/><rect x="1759" y="1805" width="46" height="46" fill="#000000"/><rect x="1805" y="1805" width="46" height="46" fill="#000000"/><svg version="1.1" id="Ebene_1" x="149" y="149" viewBox="0 0 700 700" style="enable-background:new 0 0 700 700;" xml:space="preserve" width="322" height="322" shape-rendering="auto">

<path fill="#000000" d="M21.2-0.1C9.5-0.1-0.1,9.5-0.1,21.2v78.8v100v100v100v100v100v78.8c0,11.7,9.5,21.3,21.3,21.3h657.6  c11.7,0,21.3-9.5,21.3-21.3V600V500V400V300V200v-100V21.2c0-11.7-9.5-21.3-21.3-21.3H21.2z M600,200v100v100v100v87.8  c0,6.8-5.5,12.2-12.2,12.2H112.2c-6.8,0-12.2-5.5-12.2-12.2V500V400V300V200v-87.8c0-6.8,5.5-12.2,12.2-12.2h475.6  c6.8,0,12.2,5.5,12.2,12.2V200z"/>
</svg>
<svg version="1.1" id="Ebene_1" x="149" y="149" viewBox="0 0 700 700" style="enable-background:new 0 0 700 700;" xml:space="preserve" width="322" height="322" shape-rendering="auto">

<path fill="#000000" d="M500,400V300v-78.8c0-11.7-9.5-21.3-21.3-21.3H221.2c-11.7,0-21.3,9.5-21.3,21.3V300v100v78.8    c0,11.7,9.5,21.3,21.3,21.3h257.5c11.7,0,21.3-9.5,21.3-21.3V400z"/>
</svg>
<svg version="1.1" id="Ebene_1" x="1529" y="149" viewBox="0 0 700 700" style="enable-background:new 0 0 700 700;" xml:space="preserve" width="322" height="322" shape-rendering="auto">

<path fill="#000000" d="M21.2-0.1C9.5-0.1-0.1,9.5-0.1,21.2v78.8v100v100v100v100v100v78.8c0,11.7,9.5,21.3,21.3,21.3h657.6  c11.7,0,21.3-9.5,21.3-21.3V600V500V400V300V200v-100V21.2c0-11.7-9.5-21.3-21.3-21.3H21.2z M600,200v100v100v100v87.8  c0,6.8-5.5,12.2-12.2,12.2H112.2c-6.8,0-12.2-5.5-12.2-12.2V500V400V300V200v-87.8c0-6.8,5.5-12.2,12.2-12.2h475.6  c6.8,0,12.2,5.5,12.2,12.2V200z"/>
</svg>
<svg version="1.1" id="Ebene_1" x="1529" y="149" viewBox="0 0 700 700" style="enable-background:new 0 0 700 700;" xml:space="preserve" width="322" height="322" shape-rendering="auto">

<path fill="#000000" d="M500,400V300v-78.8c0-11.7-9.5-21.3-21.3-21.3H221.2c-11.7,0-21.3,9.5-21.3,21.3V300v100v78.8    c0,11.7,9.5,21.3,21.3,21.3h257.5c11.7,0,21.3-9.5,21.3-21.3V400z"/>
</svg>
<svg version="1.1" id="Ebene_1" x="149" y="1529" viewBox="0 0 700 700" style="enable-background:new 0 0 700 700;" xml:space="preserve" width="322" height="322" shape-rendering="auto">

<path fill="#000000" d="M21.2-0.1C9.5-0.1-0.1,9.5-0.1,21.2v78.8v100v100v100v100v100v78.8c0,11.7,9.5,21.3,21.3,21.3h657.6  c11.7,0,21.3-9.5,21.3-21.3V600V500V400V300V200v-100V21.2c0-11.7-9.5-21.3-21.3-21.3H21.2z M600,200v100v100v100v87.8  c0,6.8-5.5,12.2-12.2,12.2H112.2c-6.8,0-12.2-5.5-12.2-12.2V500V400V300V200v-87.8c0-6.8,5.5-12.2,12.2-12.2h475.6  c6.8,0,12.2,5.5,12.2,12.2V200z"/>
</svg>
<svg version="1.1" id="Ebene_1" x="149" y="1529" viewBox="0 0 700 700" style="enable-background:new 0 0 700 700;" xml:space="preserve" width="322" height="322" shape-rendering="auto">

<path fill="#000000" d="M500,400V300v-78.8c0-11.7-9.5-21.3-21.3-21.3H221.2c-11.7,0-21.3,9.5-21.3,21.3V300v100v78.8    c0,11.7,9.5,21.3,21.3,21.3h257.5c11.7,0,21.3-9.5,21.3-21.3V400z"/>
</svg>
<svg version="1.0" id="Layer_1" x="678" y="678" viewBox="0 0 700 700" enable-background="new 0 0 700 700" xml:space="preserve" width="644" height="644" shape-rendering="auto">
<g>
	<g>
		<g>
			<path fill="#000000" d="M172.3,220.5c0-5.7-2-10.3-6.1-13.8c-4-3.5-11.1-6.7-21.3-9.8c-17.7-5.1-31-11.1-40.1-18.1     s-13.6-16.6-13.6-28.7s5.2-22.1,15.6-29.8c10.4-7.7,23.6-11.6,39.7-11.6c16.3,0,29.6,4.3,39.9,13c10.3,8.7,15.2,19.3,14.9,32.1     l-0.2,0.6h-28.8c0-6.9-2.3-12.4-6.9-16.7c-4.6-4.2-11-6.4-19.3-6.4c-8,0-14.1,1.8-18.5,5.3c-4.3,3.5-6.5,8.1-6.5,13.6     c0,5,2.3,9.2,7,12.4c4.7,3.2,12.7,6.6,24.1,10.2c16.4,4.6,28.8,10.6,37.2,18s12.6,17.3,12.6,29.5c0,12.7-5,22.7-15,30.1     c-10,7.3-23.3,11-39.7,11c-16.2,0-30.3-4.2-42.3-12.5c-12-8.3-17.9-20-17.5-35l0.2-0.6h29c0,8.8,2.7,15.3,8.1,19.4     c5.4,4.1,12.9,6.2,22.6,6.2c8.1,0,14.3-1.7,18.6-5C170.2,230.6,172.3,226.1,172.3,220.5z"/>
			<path fill="#000000" d="M336.7,208.7l0.2,0.6c0.3,16-4.6,28.6-14.6,38c-10,9.4-23.9,14.1-41.7,14.1c-17.9,0-32.4-5.7-43.5-17.2     s-16.7-26.3-16.7-44.3v-29.5c0-18,5.4-32.8,16.3-44.3s25-17.3,42.4-17.3c18.3,0,32.7,4.7,43,14.1c10.3,9.4,15.4,22.2,15.1,38.5     l-0.2,0.6h-29c0-9.8-2.3-17.3-7-22.5c-4.7-5.2-12-7.8-21.9-7.8c-8.9,0-16,3.6-21.2,10.8c-5.2,7.2-7.8,16.4-7.8,27.7v29.6     c0,11.3,2.8,20.6,8.3,27.9c5.5,7.2,12.9,10.8,22.3,10.8c9.3,0,16.2-2.5,20.6-7.5c4.4-5,6.7-12.4,6.7-22.3H336.7z"/>
			<path fill="#000000" d="M437.7,227.3h-52.1l-10.1,32h-30.1l51.1-148.4H427l50.9,148.4h-30.1L437.7,227.3z M392.9,203.9h37.4     L412,145.6h-0.6L392.9,203.9z"/>
			<path fill="#000000" d="M611.7,259.3H582l-59.9-101.4l-0.6,0.1v101.3h-29.8V110.9h29.8l59.9,101.3l0.6-0.1V110.9h29.7V259.3z"/>
		</g>
		<g>
			<path fill="#000000" d="M135.3,314.8l88.1,224.6h1.1l88.1-224.6h47.8v276.5h-37.4V481.9l3.8-112.4l-0.9-0.2l-89.6,222h-24.9     l-89.2-221.4l-0.9,0.2l3.6,111.8v109.4H87.5V314.8H135.3z"/>
			<path fill="#000000" d="M593.1,463.1H466.5v98.7h146v29.4H429.1V314.8h181.3v29.4H466.5v89.4h126.6V463.1z"/>
		</g>
	</g>
</g>
</svg>
</svg>

</svg>
