<?xml version="1.0" encoding="utf-8"?>
<!-- Generator: Adobe Illustrator 23.0.4, SVG Export Plug-In . SVG Version: 6.00 Build 0)  -->
<svg version="1.1" id="frame-top-frame" xmlns="http://www.w3.org/2000/svg" xmlns:xlink="http://www.w3.org/1999/xlink" x="0px"
	 y="0px" viewBox="0 0 279.1 355.1" style="enable-background:new 0 0 279.1 355.1;" xml:space="preserve">
<style type="text/css">
	.frame-color{fill:#000000;}
	.background-color{fill:#FFFFFF;}
	.text-color{fill:#FFFFFF;}
</style>
	
<svg xmlns="http://www.w3.org/2000/svg" xmlns:xlink="http://www.w3.org/1999/xlink" version="1.1" width="259.8" height="259.8" viewBox="0 0 2000 2000" x="9.7" y="9.6" shape-rendering="crispEdges"><defs/><rect x="0" y="0" width="2000" height="2000" fill="#ffffff"/><rect x="406" y="118" width="36" height="36" fill="#000000"/><rect x="442" y="118" width="36" height="36" fill="#000000"/><rect x="658" y="118" width="36" height="36" fill="#000000"/><rect x="766" y="118" width="36" height="36" fill="#000000"/><rect x="802" y="118" width="36" height="36" fill="#000000"/><rect x="874" y="118" width="36" height="36" fill="#000000"/><rect x="910" y="118" width="36" height="36" fill="#000000"/><rect x="946" y="118" width="36" height="36" fill="#000000"/><rect x="982" y="118" width="36" height="36" fill="#000000"/><rect x="1090" y="118" width="36" height="36" fill="#000000"/><rect x="1162" y="118" width="36" height="36" fill="#000000"/><rect x="1270" y="118" width="36" height="36" fill="#000000"/><rect x="1378" y="118" width="36" height="36" fill="#000000"/><rect x="1450" y="118" width="36" height="36" fill="#000000"/><rect x="1558" y="118" width="36" height="36" fill="#000000"/><rect x="478" y="154" width="36" height="36" fill="#000000"/><rect x="514" y="154" width="36" height="36" fill="#000000"/><rect x="550" y="154" width="36" height="36" fill="#000000"/><rect x="586" y="154" width="36" height="36" fill="#000000"/><rect x="622" y="154" width="36" height="36" fill="#000000"/><rect x="694" y="154" width="36" height="36" fill="#000000"/><rect x="730" y="154" width="36" height="36" fill="#000000"/><rect x="766" y="154" width="36" height="36" fill="#000000"/><rect x="838" y="154" width="36" height="36" fill="#000000"/><rect x="910" y="154" width="36" height="36" fill="#000000"/><rect x="1054" y="154" width="36" height="36" fill="#000000"/><rect x="1090" y="154" width="36" height="36" fill="#000000"/><rect x="1126" y="154" width="36" height="36" fill="#000000"/><rect x="1234" y="154" width="36" height="36" fill="#000000"/><rect x="1378" y="154" width="36" height="36" fill="#000000"/><rect x="1414" y="154" width="36" height="36" fill="#000000"/><rect x="1486" y="154" width="36" height="36" fill="#000000"/><rect x="1522" y="154" width="36" height="36" fill="#000000"/><rect x="1558" y="154" width="36" height="36" fill="#000000"/><rect x="442" y="190" width="36" height="36" fill="#000000"/><rect x="514" y="190" width="36" height="36" fill="#000000"/><rect x="550" y="190" width="36" height="36" fill="#000000"/><rect x="622" y="190" width="36" height="36" fill="#000000"/><rect x="730" y="190" width="36" height="36" fill="#000000"/><rect x="766" y="190" width="36" height="36" fill="#000000"/><rect x="802" y="190" width="36" height="36" fill="#000000"/><rect x="946" y="190" width="36" height="36" fill="#000000"/><rect x="982" y="190" width="36" height="36" fill="#000000"/><rect x="1018" y="190" width="36" height="36" fill="#000000"/><rect x="1162" y="190" width="36" height="36" fill="#000000"/><rect x="1198" y="190" width="36" height="36" fill="#000000"/><rect x="1234" y="190" width="36" height="36" fill="#000000"/><rect x="1450" y="190" width="36" height="36" fill="#000000"/><rect x="1522" y="190" width="36" height="36" fill="#000000"/><rect x="1558" y="190" width="36" height="36" fill="#000000"/><rect x="478" y="226" width="36" height="36" fill="#000000"/><rect x="586" y="226" width="36" height="36" fill="#000000"/><rect x="730" y="226" width="36" height="36" fill="#000000"/><rect x="802" y="226" width="36" height="36" fill="#000000"/><rect x="838" y="226" width="36" height="36" fill="#000000"/><rect x="874" y="226" width="36" height="36" fill="#000000"/><rect x="1018" y="226" width="36" height="36" fill="#000000"/><rect x="1126" y="226" width="36" height="36" fill="#000000"/><rect x="1234" y="226" width="36" height="36" fill="#000000"/><rect x="1306" y="226" width="36" height="36" fill="#000000"/><rect x="1342" y="226" width="36" height="36" fill="#000000"/><rect x="1414" y="226" width="36" height="36" fill="#000000"/><rect x="1450" y="226" width="36" height="36" fill="#000000"/><rect x="1522" y="226" width="36" height="36" fill="#000000"/><rect x="406" y="262" width="36" height="36" fill="#000000"/><rect x="442" y="262" width="36" height="36" fill="#000000"/><rect x="478" y="262" width="36" height="36" fill="#000000"/><rect x="514" y="262" width="36" height="36" fill="#000000"/><rect x="550" y="262" width="36" height="36" fill="#000000"/><rect x="586" y="262" width="36" height="36" fill="#000000"/><rect x="694" y="262" width="36" height="36" fill="#000000"/><rect x="766" y="262" width="36" height="36" fill="#000000"/><rect x="838" y="262" width="36" height="36" fill="#000000"/><rect x="874" y="262" width="36" height="36" fill="#000000"/><rect x="910" y="262" width="36" height="36" fill="#000000"/><rect x="946" y="262" width="36" height="36" fill="#000000"/><rect x="982" y="262" width="36" height="36" fill="#000000"/><rect x="1018" y="262" width="36" height="36" fill="#000000"/><rect x="1054" y="262" width="36" height="36" fill="#000000"/><rect x="1198" y="262" width="36" height="36" fill="#000000"/><rect x="1270" y="262" width="36" height="36" fill="#000000"/><rect x="1306" y="262" width="36" height="36" fill="#000000"/><rect x="1342" y="262" width="36" height="36" fill="#000000"/><rect x="406" y="298" width="36" height="36" fill="#000000"/><rect x="442" y="298" width="36" height="36" fill="#000000"/><rect x="478" y="298" width="36" height="36" fill="#000000"/><rect x="550" y="298" width="36" height="36" fill="#000000"/><rect x="622" y="298" width="36" height="36" fill="#000000"/><rect x="802" y="298" width="36" height="36" fill="#000000"/><rect x="910" y="298" width="36" height="36" fill="#000000"/><rect x="1054" y="298" width="36" height="36" fill="#000000"/><rect x="1126" y="298" width="36" height="36" fill="#000000"/><rect x="1162" y="298" width="36" height="36" fill="#000000"/><rect x="1234" y="298" width="36" height="36" fill="#000000"/><rect x="1378" y="298" width="36" height="36" fill="#000000"/><rect x="1414" y="298" width="36" height="36" fill="#000000"/><rect x="1486" y="298" width="36" height="36" fill="#000000"/><rect x="406" y="334" width="36" height="36" fill="#000000"/><rect x="478" y="334" width="36" height="36" fill="#000000"/><rect x="550" y="334" width="36" height="36" fill="#000000"/><rect x="622" y="334" width="36" height="36" fill="#000000"/><rect x="694" y="334" width="36" height="36" fill="#000000"/><rect x="766" y="334" width="36" height="36" fill="#000000"/><rect x="838" y="334" width="36" height="36" fill="#000000"/><rect x="910" y="334" width="36" height="36" fill="#000000"/><rect x="982" y="334" width="36" height="36" fill="#000000"/><rect x="1054" y="334" width="36" height="36" fill="#000000"/><rect x="1126" y="334" width="36" height="36" fill="#000000"/><rect x="1198" y="334" width="36" height="36" fill="#000000"/><rect x="1270" y="334" width="36" height="36" fill="#000000"/><rect x="1342" y="334" width="36" height="36" fill="#000000"/><rect x="1414" y="334" width="36" height="36" fill="#000000"/><rect x="1486" y="334" width="36" height="36" fill="#000000"/><rect x="1558" y="334" width="36" height="36" fill="#000000"/><rect x="622" y="370" width="36" height="36" fill="#000000"/><rect x="694" y="370" width="36" height="36" fill="#000000"/><rect x="730" y="370" width="36" height="36" fill="#000000"/><rect x="766" y="370" width="36" height="36" fill="#000000"/><rect x="874" y="370" width="36" height="36" fill="#000000"/><rect x="910" y="370" width="36" height="36" fill="#000000"/><rect x="1054" y="370" width="36" height="36" fill="#000000"/><rect x="1090" y="370" width="36" height="36" fill="#000000"/><rect x="1162" y="370" width="36" height="36" fill="#000000"/><rect x="1198" y="370" width="36" height="36" fill="#000000"/><rect x="1234" y="370" width="36" height="36" fill="#000000"/><rect x="1378" y="370" width="36" height="36" fill="#000000"/><rect x="1414" y="370" width="36" height="36" fill="#000000"/><rect x="154" y="406" width="36" height="36" fill="#000000"/><rect x="190" y="406" width="36" height="36" fill="#000000"/><rect x="226" y="406" width="36" height="36" fill="#000000"/><rect x="262" y="406" width="36" height="36" fill="#000000"/><rect x="298" y="406" width="36" height="36" fill="#000000"/><rect x="334" y="406" width="36" height="36" fill="#000000"/><rect x="370" y="406" width="36" height="36" fill="#000000"/><rect x="514" y="406" width="36" height="36" fill="#000000"/><rect x="586" y="406" width="36" height="36" fill="#000000"/><rect x="622" y="406" width="36" height="36" fill="#000000"/><rect x="766" y="406" width="36" height="36" fill="#000000"/><rect x="802" y="406" width="36" height="36" fill="#000000"/><rect x="838" y="406" width="36" height="36" fill="#000000"/><rect x="910" y="406" width="36" height="36" fill="#000000"/><rect x="946" y="406" width="36" height="36" fill="#000000"/><rect x="982" y="406" width="36" height="36" fill="#000000"/><rect x="1018" y="406" width="36" height="36" fill="#000000"/><rect x="1054" y="406" width="36" height="36" fill="#000000"/><rect x="1126" y="406" width="36" height="36" fill="#000000"/><rect x="1306" y="406" width="36" height="36" fill="#000000"/><rect x="1342" y="406" width="36" height="36" fill="#000000"/><rect x="1414" y="406" width="36" height="36" fill="#000000"/><rect x="1486" y="406" width="36" height="36" fill="#000000"/><rect x="1558" y="406" width="36" height="36" fill="#000000"/><rect x="1666" y="406" width="36" height="36" fill="#000000"/><rect x="1702" y="406" width="36" height="36" fill="#000000"/><rect x="1846" y="406" width="36" height="36" fill="#000000"/><rect x="118" y="442" width="36" height="36" fill="#000000"/><rect x="262" y="442" width="36" height="36" fill="#000000"/><rect x="550" y="442" width="36" height="36" fill="#000000"/><rect x="586" y="442" width="36" height="36" fill="#000000"/><rect x="622" y="442" width="36" height="36" fill="#000000"/><rect x="658" y="442" width="36" height="36" fill="#000000"/><rect x="766" y="442" width="36" height="36" fill="#000000"/><rect x="838" y="442" width="36" height="36" fill="#000000"/><rect x="910" y="442" width="36" height="36" fill="#000000"/><rect x="946" y="442" width="36" height="36" fill="#000000"/><rect x="982" y="442" width="36" height="36" fill="#000000"/><rect x="1090" y="442" width="36" height="36" fill="#000000"/><rect x="1126" y="442" width="36" height="36" fill="#000000"/><rect x="1234" y="442" width="36" height="36" fill="#000000"/><rect x="1342" y="442" width="36" height="36" fill="#000000"/><rect x="1378" y="442" width="36" height="36" fill="#000000"/><rect x="1414" y="442" width="36" height="36" fill="#000000"/><rect x="1450" y="442" width="36" height="36" fill="#000000"/><rect x="1486" y="442" width="36" height="36" fill="#000000"/><rect x="1558" y="442" width="36" height="36" fill="#000000"/><rect x="1702" y="442" width="36" height="36" fill="#000000"/><rect x="1738" y="442" width="36" height="36" fill="#000000"/><rect x="1810" y="442" width="36" height="36" fill="#000000"/><rect x="1846" y="442" width="36" height="36" fill="#000000"/><rect x="118" y="478" width="36" height="36" fill="#000000"/><rect x="190" y="478" width="36" height="36" fill="#000000"/><rect x="334" y="478" width="36" height="36" fill="#000000"/><rect x="406" y="478" width="36" height="36" fill="#000000"/><rect x="478" y="478" width="36" height="36" fill="#000000"/><rect x="514" y="478" width="36" height="36" fill="#000000"/><rect x="550" y="478" width="36" height="36" fill="#000000"/><rect x="586" y="478" width="36" height="36" fill="#000000"/><rect x="622" y="478" width="36" height="36" fill="#000000"/><rect x="658" y="478" width="36" height="36" fill="#000000"/><rect x="694" y="478" width="36" height="36" fill="#000000"/><rect x="730" y="478" width="36" height="36" fill="#000000"/><rect x="802" y="478" width="36" height="36" fill="#000000"/><rect x="910" y="478" width="36" height="36" fill="#000000"/><rect x="1054" y="478" width="36" height="36" fill="#000000"/><rect x="1162" y="478" width="36" height="36" fill="#000000"/><rect x="1198" y="478" width="36" height="36" fill="#000000"/><rect x="1306" y="478" width="36" height="36" fill="#000000"/><rect x="1414" y="478" width="36" height="36" fill="#000000"/><rect x="1486" y="478" width="36" height="36" fill="#000000"/><rect x="1522" y="478" width="36" height="36" fill="#000000"/><rect x="1558" y="478" width="36" height="36" fill="#000000"/><rect x="1594" y="478" width="36" height="36" fill="#000000"/><rect x="1630" y="478" width="36" height="36" fill="#000000"/><rect x="1666" y="478" width="36" height="36" fill="#000000"/><rect x="1774" y="478" width="36" height="36" fill="#000000"/><rect x="1810" y="478" width="36" height="36" fill="#000000"/><rect x="1846" y="478" width="36" height="36" fill="#000000"/><rect x="154" y="514" width="36" height="36" fill="#000000"/><rect x="190" y="514" width="36" height="36" fill="#000000"/><rect x="226" y="514" width="36" height="36" fill="#000000"/><rect x="262" y="514" width="36" height="36" fill="#000000"/><rect x="298" y="514" width="36" height="36" fill="#000000"/><rect x="370" y="514" width="36" height="36" fill="#000000"/><rect x="406" y="514" width="36" height="36" fill="#000000"/><rect x="442" y="514" width="36" height="36" fill="#000000"/><rect x="478" y="514" width="36" height="36" fill="#000000"/><rect x="586" y="514" width="36" height="36" fill="#000000"/><rect x="622" y="514" width="36" height="36" fill="#000000"/><rect x="802" y="514" width="36" height="36" fill="#000000"/><rect x="838" y="514" width="36" height="36" fill="#000000"/><rect x="874" y="514" width="36" height="36" fill="#000000"/><rect x="910" y="514" width="36" height="36" fill="#000000"/><rect x="946" y="514" width="36" height="36" fill="#000000"/><rect x="1054" y="514" width="36" height="36" fill="#000000"/><rect x="1126" y="514" width="36" height="36" fill="#000000"/><rect x="1162" y="514" width="36" height="36" fill="#000000"/><rect x="1198" y="514" width="36" height="36" fill="#000000"/><rect x="1234" y="514" width="36" height="36" fill="#000000"/><rect x="1378" y="514" width="36" height="36" fill="#000000"/><rect x="1414" y="514" width="36" height="36" fill="#000000"/><rect x="1450" y="514" width="36" height="36" fill="#000000"/><rect x="1594" y="514" width="36" height="36" fill="#000000"/><rect x="1630" y="514" width="36" height="36" fill="#000000"/><rect x="1702" y="514" width="36" height="36" fill="#000000"/><rect x="1774" y="514" width="36" height="36" fill="#000000"/><rect x="226" y="550" width="36" height="36" fill="#000000"/><rect x="298" y="550" width="36" height="36" fill="#000000"/><rect x="334" y="550" width="36" height="36" fill="#000000"/><rect x="406" y="550" width="36" height="36" fill="#000000"/><rect x="550" y="550" width="36" height="36" fill="#000000"/><rect x="694" y="550" width="36" height="36" fill="#000000"/><rect x="838" y="550" width="36" height="36" fill="#000000"/><rect x="874" y="550" width="36" height="36" fill="#000000"/><rect x="1018" y="550" width="36" height="36" fill="#000000"/><rect x="1054" y="550" width="36" height="36" fill="#000000"/><rect x="1162" y="550" width="36" height="36" fill="#000000"/><rect x="1270" y="550" width="36" height="36" fill="#000000"/><rect x="1306" y="550" width="36" height="36" fill="#000000"/><rect x="1342" y="550" width="36" height="36" fill="#000000"/><rect x="1414" y="550" width="36" height="36" fill="#000000"/><rect x="1450" y="550" width="36" height="36" fill="#000000"/><rect x="1486" y="550" width="36" height="36" fill="#000000"/><rect x="1558" y="550" width="36" height="36" fill="#000000"/><rect x="1594" y="550" width="36" height="36" fill="#000000"/><rect x="1810" y="550" width="36" height="36" fill="#000000"/><rect x="1846" y="550" width="36" height="36" fill="#000000"/><rect x="118" y="586" width="36" height="36" fill="#000000"/><rect x="226" y="586" width="36" height="36" fill="#000000"/><rect x="442" y="586" width="36" height="36" fill="#000000"/><rect x="478" y="586" width="36" height="36" fill="#000000"/><rect x="730" y="586" width="36" height="36" fill="#000000"/><rect x="802" y="586" width="36" height="36" fill="#000000"/><rect x="838" y="586" width="36" height="36" fill="#000000"/><rect x="874" y="586" width="36" height="36" fill="#000000"/><rect x="982" y="586" width="36" height="36" fill="#000000"/><rect x="1054" y="586" width="36" height="36" fill="#000000"/><rect x="1090" y="586" width="36" height="36" fill="#000000"/><rect x="1126" y="586" width="36" height="36" fill="#000000"/><rect x="1162" y="586" width="36" height="36" fill="#000000"/><rect x="1198" y="586" width="36" height="36" fill="#000000"/><rect x="1270" y="586" width="36" height="36" fill="#000000"/><rect x="1342" y="586" width="36" height="36" fill="#000000"/><rect x="1522" y="586" width="36" height="36" fill="#000000"/><rect x="1594" y="586" width="36" height="36" fill="#000000"/><rect x="1630" y="586" width="36" height="36" fill="#000000"/><rect x="1666" y="586" width="36" height="36" fill="#000000"/><rect x="1702" y="586" width="36" height="36" fill="#000000"/><rect x="1810" y="586" width="36" height="36" fill="#000000"/><rect x="1846" y="586" width="36" height="36" fill="#000000"/><rect x="118" y="622" width="36" height="36" fill="#000000"/><rect x="154" y="622" width="36" height="36" fill="#000000"/><rect x="226" y="622" width="36" height="36" fill="#000000"/><rect x="262" y="622" width="36" height="36" fill="#000000"/><rect x="298" y="622" width="36" height="36" fill="#000000"/><rect x="334" y="622" width="36" height="36" fill="#000000"/><rect x="406" y="622" width="36" height="36" fill="#000000"/><rect x="550" y="622" width="36" height="36" fill="#000000"/><rect x="1378" y="622" width="36" height="36" fill="#000000"/><rect x="1414" y="622" width="36" height="36" fill="#000000"/><rect x="1486" y="622" width="36" height="36" fill="#000000"/><rect x="1558" y="622" width="36" height="36" fill="#000000"/><rect x="1630" y="622" width="36" height="36" fill="#000000"/><rect x="1666" y="622" width="36" height="36" fill="#000000"/><rect x="1774" y="622" width="36" height="36" fill="#000000"/><rect x="154" y="658" width="36" height="36" fill="#000000"/><rect x="226" y="658" width="36" height="36" fill="#000000"/><rect x="262" y="658" width="36" height="36" fill="#000000"/><rect x="370" y="658" width="36" height="36" fill="#000000"/><rect x="550" y="658" width="36" height="36" fill="#000000"/><rect x="1378" y="658" width="36" height="36" fill="#000000"/><rect x="1414" y="658" width="36" height="36" fill="#000000"/><rect x="1450" y="658" width="36" height="36" fill="#000000"/><rect x="1486" y="658" width="36" height="36" fill="#000000"/><rect x="1630" y="658" width="36" height="36" fill="#000000"/><rect x="1666" y="658" width="36" height="36" fill="#000000"/><rect x="1702" y="658" width="36" height="36" fill="#000000"/><rect x="1738" y="658" width="36" height="36" fill="#000000"/><rect x="1774" y="658" width="36" height="36" fill="#000000"/><rect x="1810" y="658" width="36" height="36" fill="#000000"/><rect x="154" y="694" width="36" height="36" fill="#000000"/><rect x="190" y="694" width="36" height="36" fill="#000000"/><rect x="226" y="694" width="36" height="36" fill="#000000"/><rect x="298" y="694" width="36" height="36" fill="#000000"/><rect x="334" y="694" width="36" height="36" fill="#000000"/><rect x="370" y="694" width="36" height="36" fill="#000000"/><rect x="406" y="694" width="36" height="36" fill="#000000"/><rect x="442" y="694" width="36" height="36" fill="#000000"/><rect x="478" y="694" width="36" height="36" fill="#000000"/><rect x="1378" y="694" width="36" height="36" fill="#000000"/><rect x="1486" y="694" width="36" height="36" fill="#000000"/><rect x="1594" y="694" width="36" height="36" fill="#000000"/><rect x="1630" y="694" width="36" height="36" fill="#000000"/><rect x="1810" y="694" width="36" height="36" fill="#000000"/><rect x="1846" y="694" width="36" height="36" fill="#000000"/><rect x="118" y="730" width="36" height="36" fill="#000000"/><rect x="154" y="730" width="36" height="36" fill="#000000"/><rect x="226" y="730" width="36" height="36" fill="#000000"/><rect x="262" y="730" width="36" height="36" fill="#000000"/><rect x="442" y="730" width="36" height="36" fill="#000000"/><rect x="478" y="730" width="36" height="36" fill="#000000"/><rect x="1450" y="730" width="36" height="36" fill="#000000"/><rect x="1486" y="730" width="36" height="36" fill="#000000"/><rect x="1522" y="730" width="36" height="36" fill="#000000"/><rect x="1630" y="730" width="36" height="36" fill="#000000"/><rect x="1666" y="730" width="36" height="36" fill="#000000"/><rect x="1702" y="730" width="36" height="36" fill="#000000"/><rect x="1810" y="730" width="36" height="36" fill="#000000"/><rect x="1846" y="730" width="36" height="36" fill="#000000"/><rect x="154" y="766" width="36" height="36" fill="#000000"/><rect x="190" y="766" width="36" height="36" fill="#000000"/><rect x="226" y="766" width="36" height="36" fill="#000000"/><rect x="262" y="766" width="36" height="36" fill="#000000"/><rect x="334" y="766" width="36" height="36" fill="#000000"/><rect x="370" y="766" width="36" height="36" fill="#000000"/><rect x="406" y="766" width="36" height="36" fill="#000000"/><rect x="1378" y="766" width="36" height="36" fill="#000000"/><rect x="1414" y="766" width="36" height="36" fill="#000000"/><rect x="1594" y="766" width="36" height="36" fill="#000000"/><rect x="1630" y="766" width="36" height="36" fill="#000000"/><rect x="1666" y="766" width="36" height="36" fill="#000000"/><rect x="1846" y="766" width="36" height="36" fill="#000000"/><rect x="118" y="802" width="36" height="36" fill="#000000"/><rect x="298" y="802" width="36" height="36" fill="#000000"/><rect x="406" y="802" width="36" height="36" fill="#000000"/><rect x="442" y="802" width="36" height="36" fill="#000000"/><rect x="478" y="802" width="36" height="36" fill="#000000"/><rect x="514" y="802" width="36" height="36" fill="#000000"/><rect x="586" y="802" width="36" height="36" fill="#000000"/><rect x="1522" y="802" width="36" height="36" fill="#000000"/><rect x="1594" y="802" width="36" height="36" fill="#000000"/><rect x="1630" y="802" width="36" height="36" fill="#000000"/><rect x="1738" y="802" width="36" height="36" fill="#000000"/><rect x="1774" y="802" width="36" height="36" fill="#000000"/><rect x="334" y="838" width="36" height="36" fill="#000000"/><rect x="370" y="838" width="36" height="36" fill="#000000"/><rect x="442" y="838" width="36" height="36" fill="#000000"/><rect x="514" y="838" width="36" height="36" fill="#000000"/><rect x="550" y="838" width="36" height="36" fill="#000000"/><rect x="586" y="838" width="36" height="36" fill="#000000"/><rect x="1378" y="838" width="36" height="36" fill="#000000"/><rect x="1450" y="838" width="36" height="36" fill="#000000"/><rect x="1486" y="838" width="36" height="36" fill="#000000"/><rect x="1594" y="838" width="36" height="36" fill="#000000"/><rect x="1666" y="838" width="36" height="36" fill="#000000"/><rect x="1738" y="838" width="36" height="36" fill="#000000"/><rect x="1774" y="838" width="36" height="36" fill="#000000"/><rect x="1810" y="838" width="36" height="36" fill="#000000"/><rect x="1846" y="838" width="36" height="36" fill="#000000"/><rect x="262" y="874" width="36" height="36" fill="#000000"/><rect x="298" y="874" width="36" height="36" fill="#000000"/><rect x="370" y="874" width="36" height="36" fill="#000000"/><rect x="442" y="874" width="36" height="36" fill="#000000"/><rect x="514" y="874" width="36" height="36" fill="#000000"/><rect x="1486" y="874" width="36" height="36" fill="#000000"/><rect x="1594" y="874" width="36" height="36" fill="#000000"/><rect x="1630" y="874" width="36" height="36" fill="#000000"/><rect x="1666" y="874" width="36" height="36" fill="#000000"/><rect x="1702" y="874" width="36" height="36" fill="#000000"/><rect x="1846" y="874" width="36" height="36" fill="#000000"/><rect x="154" y="910" width="36" height="36" fill="#000000"/><rect x="190" y="910" width="36" height="36" fill="#000000"/><rect x="226" y="910" width="36" height="36" fill="#000000"/><rect x="262" y="910" width="36" height="36" fill="#000000"/><rect x="298" y="910" width="36" height="36" fill="#000000"/><rect x="334" y="910" width="36" height="36" fill="#000000"/><rect x="370" y="910" width="36" height="36" fill="#000000"/><rect x="406" y="910" width="36" height="36" fill="#000000"/><rect x="478" y="910" width="36" height="36" fill="#000000"/><rect x="550" y="910" width="36" height="36" fill="#000000"/><rect x="586" y="910" width="36" height="36" fill="#000000"/><rect x="1378" y="910" width="36" height="36" fill="#000000"/><rect x="1414" y="910" width="36" height="36" fill="#000000"/><rect x="1486" y="910" width="36" height="36" fill="#000000"/><rect x="1522" y="910" width="36" height="36" fill="#000000"/><rect x="1558" y="910" width="36" height="36" fill="#000000"/><rect x="1594" y="910" width="36" height="36" fill="#000000"/><rect x="1630" y="910" width="36" height="36" fill="#000000"/><rect x="1666" y="910" width="36" height="36" fill="#000000"/><rect x="1702" y="910" width="36" height="36" fill="#000000"/><rect x="1774" y="910" width="36" height="36" fill="#000000"/><rect x="1810" y="910" width="36" height="36" fill="#000000"/><rect x="1846" y="910" width="36" height="36" fill="#000000"/><rect x="118" y="946" width="36" height="36" fill="#000000"/><rect x="154" y="946" width="36" height="36" fill="#000000"/><rect x="262" y="946" width="36" height="36" fill="#000000"/><rect x="406" y="946" width="36" height="36" fill="#000000"/><rect x="478" y="946" width="36" height="36" fill="#000000"/><rect x="514" y="946" width="36" height="36" fill="#000000"/><rect x="550" y="946" width="36" height="36" fill="#000000"/><rect x="1378" y="946" width="36" height="36" fill="#000000"/><rect x="1414" y="946" width="36" height="36" fill="#000000"/><rect x="1450" y="946" width="36" height="36" fill="#000000"/><rect x="1558" y="946" width="36" height="36" fill="#000000"/><rect x="1702" y="946" width="36" height="36" fill="#000000"/><rect x="1738" y="946" width="36" height="36" fill="#000000"/><rect x="154" y="982" width="36" height="36" fill="#000000"/><rect x="262" y="982" width="36" height="36" fill="#000000"/><rect x="334" y="982" width="36" height="36" fill="#000000"/><rect x="406" y="982" width="36" height="36" fill="#000000"/><rect x="442" y="982" width="36" height="36" fill="#000000"/><rect x="478" y="982" width="36" height="36" fill="#000000"/><rect x="514" y="982" width="36" height="36" fill="#000000"/><rect x="550" y="982" width="36" height="36" fill="#000000"/><rect x="1414" y="982" width="36" height="36" fill="#000000"/><rect x="1486" y="982" width="36" height="36" fill="#000000"/><rect x="1558" y="982" width="36" height="36" fill="#000000"/><rect x="1630" y="982" width="36" height="36" fill="#000000"/><rect x="1702" y="982" width="36" height="36" fill="#000000"/><rect x="1738" y="982" width="36" height="36" fill="#000000"/><rect x="1774" y="982" width="36" height="36" fill="#000000"/><rect x="154" y="1018" width="36" height="36" fill="#000000"/><rect x="226" y="1018" width="36" height="36" fill="#000000"/><rect x="262" y="1018" width="36" height="36" fill="#000000"/><rect x="406" y="1018" width="36" height="36" fill="#000000"/><rect x="442" y="1018" width="36" height="36" fill="#000000"/><rect x="478" y="1018" width="36" height="36" fill="#000000"/><rect x="586" y="1018" width="36" height="36" fill="#000000"/><rect x="1450" y="1018" width="36" height="36" fill="#000000"/><rect x="1486" y="1018" width="36" height="36" fill="#000000"/><rect x="1522" y="1018" width="36" height="36" fill="#000000"/><rect x="1558" y="1018" width="36" height="36" fill="#000000"/><rect x="1702" y="1018" width="36" height="36" fill="#000000"/><rect x="1738" y="1018" width="36" height="36" fill="#000000"/><rect x="1810" y="1018" width="36" height="36" fill="#000000"/><rect x="1846" y="1018" width="36" height="36" fill="#000000"/><rect x="154" y="1054" width="36" height="36" fill="#000000"/><rect x="190" y="1054" width="36" height="36" fill="#000000"/><rect x="262" y="1054" width="36" height="36" fill="#000000"/><rect x="298" y="1054" width="36" height="36" fill="#000000"/><rect x="334" y="1054" width="36" height="36" fill="#000000"/><rect x="370" y="1054" width="36" height="36" fill="#000000"/><rect x="406" y="1054" width="36" height="36" fill="#000000"/><rect x="442" y="1054" width="36" height="36" fill="#000000"/><rect x="478" y="1054" width="36" height="36" fill="#000000"/><rect x="586" y="1054" width="36" height="36" fill="#000000"/><rect x="1378" y="1054" width="36" height="36" fill="#000000"/><rect x="1414" y="1054" width="36" height="36" fill="#000000"/><rect x="1450" y="1054" width="36" height="36" fill="#000000"/><rect x="1522" y="1054" width="36" height="36" fill="#000000"/><rect x="1558" y="1054" width="36" height="36" fill="#000000"/><rect x="1594" y="1054" width="36" height="36" fill="#000000"/><rect x="1630" y="1054" width="36" height="36" fill="#000000"/><rect x="1666" y="1054" width="36" height="36" fill="#000000"/><rect x="1702" y="1054" width="36" height="36" fill="#000000"/><rect x="1738" y="1054" width="36" height="36" fill="#000000"/><rect x="1774" y="1054" width="36" height="36" fill="#000000"/><rect x="1810" y="1054" width="36" height="36" fill="#000000"/><rect x="1846" y="1054" width="36" height="36" fill="#000000"/><rect x="118" y="1090" width="36" height="36" fill="#000000"/><rect x="154" y="1090" width="36" height="36" fill="#000000"/><rect x="298" y="1090" width="36" height="36" fill="#000000"/><rect x="370" y="1090" width="36" height="36" fill="#000000"/><rect x="514" y="1090" width="36" height="36" fill="#000000"/><rect x="1378" y="1090" width="36" height="36" fill="#000000"/><rect x="1558" y="1090" width="36" height="36" fill="#000000"/><rect x="1630" y="1090" width="36" height="36" fill="#000000"/><rect x="1666" y="1090" width="36" height="36" fill="#000000"/><rect x="1774" y="1090" width="36" height="36" fill="#000000"/><rect x="118" y="1126" width="36" height="36" fill="#000000"/><rect x="226" y="1126" width="36" height="36" fill="#000000"/><rect x="262" y="1126" width="36" height="36" fill="#000000"/><rect x="298" y="1126" width="36" height="36" fill="#000000"/><rect x="334" y="1126" width="36" height="36" fill="#000000"/><rect x="442" y="1126" width="36" height="36" fill="#000000"/><rect x="478" y="1126" width="36" height="36" fill="#000000"/><rect x="514" y="1126" width="36" height="36" fill="#000000"/><rect x="586" y="1126" width="36" height="36" fill="#000000"/><rect x="1378" y="1126" width="36" height="36" fill="#000000"/><rect x="1486" y="1126" width="36" height="36" fill="#000000"/><rect x="1630" y="1126" width="36" height="36" fill="#000000"/><rect x="1810" y="1126" width="36" height="36" fill="#000000"/><rect x="1846" y="1126" width="36" height="36" fill="#000000"/><rect x="118" y="1162" width="36" height="36" fill="#000000"/><rect x="406" y="1162" width="36" height="36" fill="#000000"/><rect x="478" y="1162" width="36" height="36" fill="#000000"/><rect x="514" y="1162" width="36" height="36" fill="#000000"/><rect x="550" y="1162" width="36" height="36" fill="#000000"/><rect x="1450" y="1162" width="36" height="36" fill="#000000"/><rect x="1486" y="1162" width="36" height="36" fill="#000000"/><rect x="1558" y="1162" width="36" height="36" fill="#000000"/><rect x="1666" y="1162" width="36" height="36" fill="#000000"/><rect x="1702" y="1162" width="36" height="36" fill="#000000"/><rect x="1846" y="1162" width="36" height="36" fill="#000000"/><rect x="154" y="1198" width="36" height="36" fill="#000000"/><rect x="190" y="1198" width="36" height="36" fill="#000000"/><rect x="298" y="1198" width="36" height="36" fill="#000000"/><rect x="334" y="1198" width="36" height="36" fill="#000000"/><rect x="550" y="1198" width="36" height="36" fill="#000000"/><rect x="586" y="1198" width="36" height="36" fill="#000000"/><rect x="1414" y="1198" width="36" height="36" fill="#000000"/><rect x="1450" y="1198" width="36" height="36" fill="#000000"/><rect x="1486" y="1198" width="36" height="36" fill="#000000"/><rect x="1522" y="1198" width="36" height="36" fill="#000000"/><rect x="1558" y="1198" width="36" height="36" fill="#000000"/><rect x="1594" y="1198" width="36" height="36" fill="#000000"/><rect x="1702" y="1198" width="36" height="36" fill="#000000"/><rect x="1738" y="1198" width="36" height="36" fill="#000000"/><rect x="1774" y="1198" width="36" height="36" fill="#000000"/><rect x="1810" y="1198" width="36" height="36" fill="#000000"/><rect x="118" y="1234" width="36" height="36" fill="#000000"/><rect x="190" y="1234" width="36" height="36" fill="#000000"/><rect x="226" y="1234" width="36" height="36" fill="#000000"/><rect x="298" y="1234" width="36" height="36" fill="#000000"/><rect x="370" y="1234" width="36" height="36" fill="#000000"/><rect x="406" y="1234" width="36" height="36" fill="#000000"/><rect x="514" y="1234" width="36" height="36" fill="#000000"/><rect x="1414" y="1234" width="36" height="36" fill="#000000"/><rect x="1450" y="1234" width="36" height="36" fill="#000000"/><rect x="1522" y="1234" width="36" height="36" fill="#000000"/><rect x="1666" y="1234" width="36" height="36" fill="#000000"/><rect x="1702" y="1234" width="36" height="36" fill="#000000"/><rect x="1738" y="1234" width="36" height="36" fill="#000000"/><rect x="190" y="1270" width="36" height="36" fill="#000000"/><rect x="226" y="1270" width="36" height="36" fill="#000000"/><rect x="262" y="1270" width="36" height="36" fill="#000000"/><rect x="298" y="1270" width="36" height="36" fill="#000000"/><rect x="334" y="1270" width="36" height="36" fill="#000000"/><rect x="370" y="1270" width="36" height="36" fill="#000000"/><rect x="406" y="1270" width="36" height="36" fill="#000000"/><rect x="550" y="1270" width="36" height="36" fill="#000000"/><rect x="1378" y="1270" width="36" height="36" fill="#000000"/><rect x="1486" y="1270" width="36" height="36" fill="#000000"/><rect x="1594" y="1270" width="36" height="36" fill="#000000"/><rect x="1630" y="1270" width="36" height="36" fill="#000000"/><rect x="1666" y="1270" width="36" height="36" fill="#000000"/><rect x="1702" y="1270" width="36" height="36" fill="#000000"/><rect x="1774" y="1270" width="36" height="36" fill="#000000"/><rect x="1810" y="1270" width="36" height="36" fill="#000000"/><rect x="1846" y="1270" width="36" height="36" fill="#000000"/><rect x="154" y="1306" width="36" height="36" fill="#000000"/><rect x="226" y="1306" width="36" height="36" fill="#000000"/><rect x="370" y="1306" width="36" height="36" fill="#000000"/><rect x="406" y="1306" width="36" height="36" fill="#000000"/><rect x="442" y="1306" width="36" height="36" fill="#000000"/><rect x="586" y="1306" width="36" height="36" fill="#000000"/><rect x="1486" y="1306" width="36" height="36" fill="#000000"/><rect x="1558" y="1306" width="36" height="36" fill="#000000"/><rect x="1666" y="1306" width="36" height="36" fill="#000000"/><rect x="1702" y="1306" width="36" height="36" fill="#000000"/><rect x="1846" y="1306" width="36" height="36" fill="#000000"/><rect x="154" y="1342" width="36" height="36" fill="#000000"/><rect x="190" y="1342" width="36" height="36" fill="#000000"/><rect x="262" y="1342" width="36" height="36" fill="#000000"/><rect x="334" y="1342" width="36" height="36" fill="#000000"/><rect x="586" y="1342" width="36" height="36" fill="#000000"/><rect x="1378" y="1342" width="36" height="36" fill="#000000"/><rect x="1522" y="1342" width="36" height="36" fill="#000000"/><rect x="1558" y="1342" width="36" height="36" fill="#000000"/><rect x="1630" y="1342" width="36" height="36" fill="#000000"/><rect x="1702" y="1342" width="36" height="36" fill="#000000"/><rect x="1738" y="1342" width="36" height="36" fill="#000000"/><rect x="1774" y="1342" width="36" height="36" fill="#000000"/><rect x="1810" y="1342" width="36" height="36" fill="#000000"/><rect x="118" y="1378" width="36" height="36" fill="#000000"/><rect x="154" y="1378" width="36" height="36" fill="#000000"/><rect x="190" y="1378" width="36" height="36" fill="#000000"/><rect x="226" y="1378" width="36" height="36" fill="#000000"/><rect x="298" y="1378" width="36" height="36" fill="#000000"/><rect x="370" y="1378" width="36" height="36" fill="#000000"/><rect x="478" y="1378" width="36" height="36" fill="#000000"/><rect x="514" y="1378" width="36" height="36" fill="#000000"/><rect x="622" y="1378" width="36" height="36" fill="#000000"/><rect x="730" y="1378" width="36" height="36" fill="#000000"/><rect x="766" y="1378" width="36" height="36" fill="#000000"/><rect x="910" y="1378" width="36" height="36" fill="#000000"/><rect x="982" y="1378" width="36" height="36" fill="#000000"/><rect x="1018" y="1378" width="36" height="36" fill="#000000"/><rect x="1090" y="1378" width="36" height="36" fill="#000000"/><rect x="1126" y="1378" width="36" height="36" fill="#000000"/><rect x="1162" y="1378" width="36" height="36" fill="#000000"/><rect x="1198" y="1378" width="36" height="36" fill="#000000"/><rect x="1234" y="1378" width="36" height="36" fill="#000000"/><rect x="1270" y="1378" width="36" height="36" fill="#000000"/><rect x="1378" y="1378" width="36" height="36" fill="#000000"/><rect x="1450" y="1378" width="36" height="36" fill="#000000"/><rect x="1594" y="1378" width="36" height="36" fill="#000000"/><rect x="1630" y="1378" width="36" height="36" fill="#000000"/><rect x="1666" y="1378" width="36" height="36" fill="#000000"/><rect x="1774" y="1378" width="36" height="36" fill="#000000"/><rect x="118" y="1414" width="36" height="36" fill="#000000"/><rect x="154" y="1414" width="36" height="36" fill="#000000"/><rect x="190" y="1414" width="36" height="36" fill="#000000"/><rect x="226" y="1414" width="36" height="36" fill="#000000"/><rect x="262" y="1414" width="36" height="36" fill="#000000"/><rect x="298" y="1414" width="36" height="36" fill="#000000"/><rect x="334" y="1414" width="36" height="36" fill="#000000"/><rect x="370" y="1414" width="36" height="36" fill="#000000"/><rect x="442" y="1414" width="36" height="36" fill="#000000"/><rect x="478" y="1414" width="36" height="36" fill="#000000"/><rect x="514" y="1414" width="36" height="36" fill="#000000"/><rect x="550" y="1414" width="36" height="36" fill="#000000"/><rect x="586" y="1414" width="36" height="36" fill="#000000"/><rect x="622" y="1414" width="36" height="36" fill="#000000"/><rect x="658" y="1414" width="36" height="36" fill="#000000"/><rect x="766" y="1414" width="36" height="36" fill="#000000"/><rect x="874" y="1414" width="36" height="36" fill="#000000"/><rect x="910" y="1414" width="36" height="36" fill="#000000"/><rect x="1018" y="1414" width="36" height="36" fill="#000000"/><rect x="1054" y="1414" width="36" height="36" fill="#000000"/><rect x="1090" y="1414" width="36" height="36" fill="#000000"/><rect x="1126" y="1414" width="36" height="36" fill="#000000"/><rect x="1234" y="1414" width="36" height="36" fill="#000000"/><rect x="1306" y="1414" width="36" height="36" fill="#000000"/><rect x="1342" y="1414" width="36" height="36" fill="#000000"/><rect x="1378" y="1414" width="36" height="36" fill="#000000"/><rect x="1486" y="1414" width="36" height="36" fill="#000000"/><rect x="1522" y="1414" width="36" height="36" fill="#000000"/><rect x="1594" y="1414" width="36" height="36" fill="#000000"/><rect x="1630" y="1414" width="36" height="36" fill="#000000"/><rect x="1810" y="1414" width="36" height="36" fill="#000000"/><rect x="1846" y="1414" width="36" height="36" fill="#000000"/><rect x="154" y="1450" width="36" height="36" fill="#000000"/><rect x="226" y="1450" width="36" height="36" fill="#000000"/><rect x="262" y="1450" width="36" height="36" fill="#000000"/><rect x="370" y="1450" width="36" height="36" fill="#000000"/><rect x="406" y="1450" width="36" height="36" fill="#000000"/><rect x="442" y="1450" width="36" height="36" fill="#000000"/><rect x="514" y="1450" width="36" height="36" fill="#000000"/><rect x="586" y="1450" width="36" height="36" fill="#000000"/><rect x="622" y="1450" width="36" height="36" fill="#000000"/><rect x="658" y="1450" width="36" height="36" fill="#000000"/><rect x="802" y="1450" width="36" height="36" fill="#000000"/><rect x="838" y="1450" width="36" height="36" fill="#000000"/><rect x="910" y="1450" width="36" height="36" fill="#000000"/><rect x="946" y="1450" width="36" height="36" fill="#000000"/><rect x="1018" y="1450" width="36" height="36" fill="#000000"/><rect x="1054" y="1450" width="36" height="36" fill="#000000"/><rect x="1090" y="1450" width="36" height="36" fill="#000000"/><rect x="1126" y="1450" width="36" height="36" fill="#000000"/><rect x="1234" y="1450" width="36" height="36" fill="#000000"/><rect x="1270" y="1450" width="36" height="36" fill="#000000"/><rect x="1306" y="1450" width="36" height="36" fill="#000000"/><rect x="1486" y="1450" width="36" height="36" fill="#000000"/><rect x="1558" y="1450" width="36" height="36" fill="#000000"/><rect x="1666" y="1450" width="36" height="36" fill="#000000"/><rect x="1738" y="1450" width="36" height="36" fill="#000000"/><rect x="154" y="1486" width="36" height="36" fill="#000000"/><rect x="298" y="1486" width="36" height="36" fill="#000000"/><rect x="334" y="1486" width="36" height="36" fill="#000000"/><rect x="370" y="1486" width="36" height="36" fill="#000000"/><rect x="406" y="1486" width="36" height="36" fill="#000000"/><rect x="478" y="1486" width="36" height="36" fill="#000000"/><rect x="550" y="1486" width="36" height="36" fill="#000000"/><rect x="586" y="1486" width="36" height="36" fill="#000000"/><rect x="730" y="1486" width="36" height="36" fill="#000000"/><rect x="766" y="1486" width="36" height="36" fill="#000000"/><rect x="838" y="1486" width="36" height="36" fill="#000000"/><rect x="946" y="1486" width="36" height="36" fill="#000000"/><rect x="1018" y="1486" width="36" height="36" fill="#000000"/><rect x="1054" y="1486" width="36" height="36" fill="#000000"/><rect x="1198" y="1486" width="36" height="36" fill="#000000"/><rect x="1234" y="1486" width="36" height="36" fill="#000000"/><rect x="1378" y="1486" width="36" height="36" fill="#000000"/><rect x="1414" y="1486" width="36" height="36" fill="#000000"/><rect x="1450" y="1486" width="36" height="36" fill="#000000"/><rect x="1486" y="1486" width="36" height="36" fill="#000000"/><rect x="1522" y="1486" width="36" height="36" fill="#000000"/><rect x="1594" y="1486" width="36" height="36" fill="#000000"/><rect x="1666" y="1486" width="36" height="36" fill="#000000"/><rect x="1702" y="1486" width="36" height="36" fill="#000000"/><rect x="1738" y="1486" width="36" height="36" fill="#000000"/><rect x="1846" y="1486" width="36" height="36" fill="#000000"/><rect x="154" y="1522" width="36" height="36" fill="#000000"/><rect x="190" y="1522" width="36" height="36" fill="#000000"/><rect x="226" y="1522" width="36" height="36" fill="#000000"/><rect x="406" y="1522" width="36" height="36" fill="#000000"/><rect x="478" y="1522" width="36" height="36" fill="#000000"/><rect x="550" y="1522" width="36" height="36" fill="#000000"/><rect x="586" y="1522" width="36" height="36" fill="#000000"/><rect x="802" y="1522" width="36" height="36" fill="#000000"/><rect x="874" y="1522" width="36" height="36" fill="#000000"/><rect x="1018" y="1522" width="36" height="36" fill="#000000"/><rect x="1054" y="1522" width="36" height="36" fill="#000000"/><rect x="1198" y="1522" width="36" height="36" fill="#000000"/><rect x="1234" y="1522" width="36" height="36" fill="#000000"/><rect x="1306" y="1522" width="36" height="36" fill="#000000"/><rect x="1414" y="1522" width="36" height="36" fill="#000000"/><rect x="1522" y="1522" width="36" height="36" fill="#000000"/><rect x="1594" y="1522" width="36" height="36" fill="#000000"/><rect x="1666" y="1522" width="36" height="36" fill="#000000"/><rect x="1738" y="1522" width="36" height="36" fill="#000000"/><rect x="1810" y="1522" width="36" height="36" fill="#000000"/><rect x="118" y="1558" width="36" height="36" fill="#000000"/><rect x="154" y="1558" width="36" height="36" fill="#000000"/><rect x="190" y="1558" width="36" height="36" fill="#000000"/><rect x="334" y="1558" width="36" height="36" fill="#000000"/><rect x="406" y="1558" width="36" height="36" fill="#000000"/><rect x="550" y="1558" width="36" height="36" fill="#000000"/><rect x="586" y="1558" width="36" height="36" fill="#000000"/><rect x="622" y="1558" width="36" height="36" fill="#000000"/><rect x="766" y="1558" width="36" height="36" fill="#000000"/><rect x="802" y="1558" width="36" height="36" fill="#000000"/><rect x="838" y="1558" width="36" height="36" fill="#000000"/><rect x="874" y="1558" width="36" height="36" fill="#000000"/><rect x="910" y="1558" width="36" height="36" fill="#000000"/><rect x="946" y="1558" width="36" height="36" fill="#000000"/><rect x="982" y="1558" width="36" height="36" fill="#000000"/><rect x="1018" y="1558" width="36" height="36" fill="#000000"/><rect x="1054" y="1558" width="36" height="36" fill="#000000"/><rect x="1090" y="1558" width="36" height="36" fill="#000000"/><rect x="1162" y="1558" width="36" height="36" fill="#000000"/><rect x="1198" y="1558" width="36" height="36" fill="#000000"/><rect x="1378" y="1558" width="36" height="36" fill="#000000"/><rect x="1414" y="1558" width="36" height="36" fill="#000000"/><rect x="1450" y="1558" width="36" height="36" fill="#000000"/><rect x="1522" y="1558" width="36" height="36" fill="#000000"/><rect x="1558" y="1558" width="36" height="36" fill="#000000"/><rect x="1594" y="1558" width="36" height="36" fill="#000000"/><rect x="1630" y="1558" width="36" height="36" fill="#000000"/><rect x="1666" y="1558" width="36" height="36" fill="#000000"/><rect x="1702" y="1558" width="36" height="36" fill="#000000"/><rect x="1738" y="1558" width="36" height="36" fill="#000000"/><rect x="1810" y="1558" width="36" height="36" fill="#000000"/><rect x="1846" y="1558" width="36" height="36" fill="#000000"/><rect x="406" y="1594" width="36" height="36" fill="#000000"/><rect x="442" y="1594" width="36" height="36" fill="#000000"/><rect x="514" y="1594" width="36" height="36" fill="#000000"/><rect x="694" y="1594" width="36" height="36" fill="#000000"/><rect x="766" y="1594" width="36" height="36" fill="#000000"/><rect x="910" y="1594" width="36" height="36" fill="#000000"/><rect x="1054" y="1594" width="36" height="36" fill="#000000"/><rect x="1090" y="1594" width="36" height="36" fill="#000000"/><rect x="1126" y="1594" width="36" height="36" fill="#000000"/><rect x="1198" y="1594" width="36" height="36" fill="#000000"/><rect x="1270" y="1594" width="36" height="36" fill="#000000"/><rect x="1306" y="1594" width="36" height="36" fill="#000000"/><rect x="1378" y="1594" width="36" height="36" fill="#000000"/><rect x="1558" y="1594" width="36" height="36" fill="#000000"/><rect x="1702" y="1594" width="36" height="36" fill="#000000"/><rect x="1810" y="1594" width="36" height="36" fill="#000000"/><rect x="1846" y="1594" width="36" height="36" fill="#000000"/><rect x="406" y="1630" width="36" height="36" fill="#000000"/><rect x="478" y="1630" width="36" height="36" fill="#000000"/><rect x="514" y="1630" width="36" height="36" fill="#000000"/><rect x="586" y="1630" width="36" height="36" fill="#000000"/><rect x="658" y="1630" width="36" height="36" fill="#000000"/><rect x="694" y="1630" width="36" height="36" fill="#000000"/><rect x="802" y="1630" width="36" height="36" fill="#000000"/><rect x="838" y="1630" width="36" height="36" fill="#000000"/><rect x="874" y="1630" width="36" height="36" fill="#000000"/><rect x="910" y="1630" width="36" height="36" fill="#000000"/><rect x="982" y="1630" width="36" height="36" fill="#000000"/><rect x="1054" y="1630" width="36" height="36" fill="#000000"/><rect x="1162" y="1630" width="36" height="36" fill="#000000"/><rect x="1198" y="1630" width="36" height="36" fill="#000000"/><rect x="1234" y="1630" width="36" height="36" fill="#000000"/><rect x="1378" y="1630" width="36" height="36" fill="#000000"/><rect x="1414" y="1630" width="36" height="36" fill="#000000"/><rect x="1450" y="1630" width="36" height="36" fill="#000000"/><rect x="1558" y="1630" width="36" height="36" fill="#000000"/><rect x="1630" y="1630" width="36" height="36" fill="#000000"/><rect x="1702" y="1630" width="36" height="36" fill="#000000"/><rect x="1738" y="1630" width="36" height="36" fill="#000000"/><rect x="1774" y="1630" width="36" height="36" fill="#000000"/><rect x="1810" y="1630" width="36" height="36" fill="#000000"/><rect x="1846" y="1630" width="36" height="36" fill="#000000"/><rect x="406" y="1666" width="36" height="36" fill="#000000"/><rect x="442" y="1666" width="36" height="36" fill="#000000"/><rect x="478" y="1666" width="36" height="36" fill="#000000"/><rect x="514" y="1666" width="36" height="36" fill="#000000"/><rect x="586" y="1666" width="36" height="36" fill="#000000"/><rect x="622" y="1666" width="36" height="36" fill="#000000"/><rect x="694" y="1666" width="36" height="36" fill="#000000"/><rect x="766" y="1666" width="36" height="36" fill="#000000"/><rect x="874" y="1666" width="36" height="36" fill="#000000"/><rect x="910" y="1666" width="36" height="36" fill="#000000"/><rect x="1054" y="1666" width="36" height="36" fill="#000000"/><rect x="1090" y="1666" width="36" height="36" fill="#000000"/><rect x="1162" y="1666" width="36" height="36" fill="#000000"/><rect x="1198" y="1666" width="36" height="36" fill="#000000"/><rect x="1234" y="1666" width="36" height="36" fill="#000000"/><rect x="1378" y="1666" width="36" height="36" fill="#000000"/><rect x="1414" y="1666" width="36" height="36" fill="#000000"/><rect x="1558" y="1666" width="36" height="36" fill="#000000"/><rect x="1702" y="1666" width="36" height="36" fill="#000000"/><rect x="1738" y="1666" width="36" height="36" fill="#000000"/><rect x="1774" y="1666" width="36" height="36" fill="#000000"/><rect x="406" y="1702" width="36" height="36" fill="#000000"/><rect x="514" y="1702" width="36" height="36" fill="#000000"/><rect x="550" y="1702" width="36" height="36" fill="#000000"/><rect x="586" y="1702" width="36" height="36" fill="#000000"/><rect x="622" y="1702" width="36" height="36" fill="#000000"/><rect x="910" y="1702" width="36" height="36" fill="#000000"/><rect x="946" y="1702" width="36" height="36" fill="#000000"/><rect x="982" y="1702" width="36" height="36" fill="#000000"/><rect x="1018" y="1702" width="36" height="36" fill="#000000"/><rect x="1054" y="1702" width="36" height="36" fill="#000000"/><rect x="1126" y="1702" width="36" height="36" fill="#000000"/><rect x="1306" y="1702" width="36" height="36" fill="#000000"/><rect x="1342" y="1702" width="36" height="36" fill="#000000"/><rect x="1414" y="1702" width="36" height="36" fill="#000000"/><rect x="1486" y="1702" width="36" height="36" fill="#000000"/><rect x="1522" y="1702" width="36" height="36" fill="#000000"/><rect x="1558" y="1702" width="36" height="36" fill="#000000"/><rect x="1594" y="1702" width="36" height="36" fill="#000000"/><rect x="1630" y="1702" width="36" height="36" fill="#000000"/><rect x="1666" y="1702" width="36" height="36" fill="#000000"/><rect x="1702" y="1702" width="36" height="36" fill="#000000"/><rect x="1738" y="1702" width="36" height="36" fill="#000000"/><rect x="1810" y="1702" width="36" height="36" fill="#000000"/><rect x="1846" y="1702" width="36" height="36" fill="#000000"/><rect x="406" y="1738" width="36" height="36" fill="#000000"/><rect x="442" y="1738" width="36" height="36" fill="#000000"/><rect x="514" y="1738" width="36" height="36" fill="#000000"/><rect x="550" y="1738" width="36" height="36" fill="#000000"/><rect x="586" y="1738" width="36" height="36" fill="#000000"/><rect x="622" y="1738" width="36" height="36" fill="#000000"/><rect x="658" y="1738" width="36" height="36" fill="#000000"/><rect x="730" y="1738" width="36" height="36" fill="#000000"/><rect x="838" y="1738" width="36" height="36" fill="#000000"/><rect x="874" y="1738" width="36" height="36" fill="#000000"/><rect x="910" y="1738" width="36" height="36" fill="#000000"/><rect x="982" y="1738" width="36" height="36" fill="#000000"/><rect x="1018" y="1738" width="36" height="36" fill="#000000"/><rect x="1054" y="1738" width="36" height="36" fill="#000000"/><rect x="1090" y="1738" width="36" height="36" fill="#000000"/><rect x="1126" y="1738" width="36" height="36" fill="#000000"/><rect x="1270" y="1738" width="36" height="36" fill="#000000"/><rect x="1450" y="1738" width="36" height="36" fill="#000000"/><rect x="1486" y="1738" width="36" height="36" fill="#000000"/><rect x="1522" y="1738" width="36" height="36" fill="#000000"/><rect x="1594" y="1738" width="36" height="36" fill="#000000"/><rect x="1630" y="1738" width="36" height="36" fill="#000000"/><rect x="1810" y="1738" width="36" height="36" fill="#000000"/><rect x="1846" y="1738" width="36" height="36" fill="#000000"/><rect x="406" y="1774" width="36" height="36" fill="#000000"/><rect x="478" y="1774" width="36" height="36" fill="#000000"/><rect x="550" y="1774" width="36" height="36" fill="#000000"/><rect x="586" y="1774" width="36" height="36" fill="#000000"/><rect x="658" y="1774" width="36" height="36" fill="#000000"/><rect x="694" y="1774" width="36" height="36" fill="#000000"/><rect x="766" y="1774" width="36" height="36" fill="#000000"/><rect x="838" y="1774" width="36" height="36" fill="#000000"/><rect x="910" y="1774" width="36" height="36" fill="#000000"/><rect x="946" y="1774" width="36" height="36" fill="#000000"/><rect x="982" y="1774" width="36" height="36" fill="#000000"/><rect x="1018" y="1774" width="36" height="36" fill="#000000"/><rect x="1198" y="1774" width="36" height="36" fill="#000000"/><rect x="1234" y="1774" width="36" height="36" fill="#000000"/><rect x="1342" y="1774" width="36" height="36" fill="#000000"/><rect x="1378" y="1774" width="36" height="36" fill="#000000"/><rect x="1414" y="1774" width="36" height="36" fill="#000000"/><rect x="1450" y="1774" width="36" height="36" fill="#000000"/><rect x="1486" y="1774" width="36" height="36" fill="#000000"/><rect x="1558" y="1774" width="36" height="36" fill="#000000"/><rect x="1666" y="1774" width="36" height="36" fill="#000000"/><rect x="1774" y="1774" width="36" height="36" fill="#000000"/><rect x="1846" y="1774" width="36" height="36" fill="#000000"/><rect x="406" y="1810" width="36" height="36" fill="#000000"/><rect x="478" y="1810" width="36" height="36" fill="#000000"/><rect x="586" y="1810" width="36" height="36" fill="#000000"/><rect x="622" y="1810" width="36" height="36" fill="#000000"/><rect x="694" y="1810" width="36" height="36" fill="#000000"/><rect x="730" y="1810" width="36" height="36" fill="#000000"/><rect x="802" y="1810" width="36" height="36" fill="#000000"/><rect x="874" y="1810" width="36" height="36" fill="#000000"/><rect x="946" y="1810" width="36" height="36" fill="#000000"/><rect x="1018" y="1810" width="36" height="36" fill="#000000"/><rect x="1126" y="1810" width="36" height="36" fill="#000000"/><rect x="1162" y="1810" width="36" height="36" fill="#000000"/><rect x="1198" y="1810" width="36" height="36" fill="#000000"/><rect x="1234" y="1810" width="36" height="36" fill="#000000"/><rect x="1270" y="1810" width="36" height="36" fill="#000000"/><rect x="1522" y="1810" width="36" height="36" fill="#000000"/><rect x="1558" y="1810" width="36" height="36" fill="#000000"/><rect x="1666" y="1810" width="36" height="36" fill="#000000"/><rect x="1702" y="1810" width="36" height="36" fill="#000000"/><rect x="1810" y="1810" width="36" height="36" fill="#000000"/><rect x="514" y="1846" width="36" height="36" fill="#000000"/><rect x="622" y="1846" width="36" height="36" fill="#000000"/><rect x="658" y="1846" width="36" height="36" fill="#000000"/><rect x="802" y="1846" width="36" height="36" fill="#000000"/><rect x="838" y="1846" width="36" height="36" fill="#000000"/><rect x="946" y="1846" width="36" height="36" fill="#000000"/><rect x="982" y="1846" width="36" height="36" fill="#000000"/><rect x="1018" y="1846" width="36" height="36" fill="#000000"/><rect x="1126" y="1846" width="36" height="36" fill="#000000"/><rect x="1342" y="1846" width="36" height="36" fill="#000000"/><rect x="1378" y="1846" width="36" height="36" fill="#000000"/><rect x="1486" y="1846" width="36" height="36" fill="#000000"/><rect x="1558" y="1846" width="36" height="36" fill="#000000"/><rect x="1630" y="1846" width="36" height="36" fill="#000000"/><rect x="1666" y="1846" width="36" height="36" fill="#000000"/><rect x="1738" y="1846" width="36" height="36" fill="#000000"/><rect x="1810" y="1846" width="36" height="36" fill="#000000"/><rect x="1846" y="1846" width="36" height="36" fill="#000000"/><svg version="1.1" id="Ebene_1" x="118" y="118" viewBox="0 0 700 700" style="enable-background:new 0 0 700 700;" xml:space="preserve" width="252" height="252" shape-rendering="auto">

<path fill="#000000" d="M21.2-0.1C9.5-0.1-0.1,9.5-0.1,21.2v78.8v100v100v100v100v100v78.8c0,11.7,9.5,21.3,21.3,21.3h657.6  c11.7,0,21.3-9.5,21.3-21.3V600V500V400V300V200v-100V21.2c0-11.7-9.5-21.3-21.3-21.3H21.2z M600,200v100v100v100v87.8  c0,6.8-5.5,12.2-12.2,12.2H112.2c-6.8,0-12.2-5.5-12.2-12.2V500V400V300V200v-87.8c0-6.8,5.5-12.2,12.2-12.2h475.6  c6.8,0,12.2,5.5,12.2,12.2V200z"/>
</svg>
<svg version="1.1" id="Ebene_1" x="118" y="118" viewBox="0 0 700 700" style="enable-background:new 0 0 700 700;" xml:space="preserve" width="252" height="252" shape-rendering="auto">

<path fill="#000000" d="M500,400V300v-78.8c0-11.7-9.5-21.3-21.3-21.3H221.2c-11.7,0-21.3,9.5-21.3,21.3V300v100v78.8    c0,11.7,9.5,21.3,21.3,21.3h257.5c11.7,0,21.3-9.5,21.3-21.3V400z"/>
</svg>
<svg version="1.1" id="Ebene_1" x="1630" y="118" viewBox="0 0 700 700" style="enable-background:new 0 0 700 700;" xml:space="preserve" width="252" height="252" shape-rendering="auto">

<path fill="#000000" d="M21.2-0.1C9.5-0.1-0.1,9.5-0.1,21.2v78.8v100v100v100v100v100v78.8c0,11.7,9.5,21.3,21.3,21.3h657.6  c11.7,0,21.3-9.5,21.3-21.3V600V500V400V300V200v-100V21.2c0-11.7-9.5-21.3-21.3-21.3H21.2z M600,200v100v100v100v87.8  c0,6.8-5.5,12.2-12.2,12.2H112.2c-6.8,0-12.2-5.5-12.2-12.2V500V400V300V200v-87.8c0-6.8,5.5-12.2,12.2-12.2h475.6  c6.8,0,12.2,5.5,12.2,12.2V200z"/>
</svg>
<svg version="1.1" id="Ebene_1" x="1630" y="118" viewBox="0 0 700 700" style="enable-background:new 0 0 700 700;" xml:space="preserve" width="252" height="252" shape-rendering="auto">

<path fill="#000000" d="M500,400V300v-78.8c0-11.7-9.5-21.3-21.3-21.3H221.2c-11.7,0-21.3,9.5-21.3,21.3V300v100v78.8    c0,11.7,9.5,21.3,21.3,21.3h257.5c11.7,0,21.3-9.5,21.3-21.3V400z"/>
</svg>
<svg version="1.1" id="Ebene_1" x="118" y="1630" viewBox="0 0 700 700" style="enable-background:new 0 0 700 700;" xml:space="preserve" width="252" height="252" shape-rendering="auto">

<path fill="#000000" d="M21.2-0.1C9.5-0.1-0.1,9.5-0.1,21.2v78.8v100v100v100v100v100v78.8c0,11.7,9.5,21.3,21.3,21.3h657.6  c11.7,0,21.3-9.5,21.3-21.3V600V500V400V300V200v-100V21.2c0-11.7-9.5-21.3-21.3-21.3H21.2z M600,200v100v100v100v87.8  c0,6.8-5.5,12.2-12.2,12.2H112.2c-6.8,0-12.2-5.5-12.2-12.2V500V400V300V200v-87.8c0-6.8,5.5-12.2,12.2-12.2h475.6  c6.8,0,12.2,5.5,12.2,12.2V200z"/>
</svg>
<svg version="1.1" id="Ebene_1" x="118" y="1630" viewBox="0 0 700 700" style="enable-background:new 0 0 700 700;" xml:space="preserve" width="252" height="252" shape-rendering="auto">

<path fill="#000000" d="M500,400V300v-78.8c0-11.7-9.5-21.3-21.3-21.3H221.2c-11.7,0-21.3,9.5-21.3,21.3V300v100v78.8    c0,11.7,9.5,21.3,21.3,21.3h257.5c11.7,0,21.3-9.5,21.3-21.3V400z"/>
</svg>
<svg version="1.0" id="Layer_1" x="640" y="640" viewBox="0 0 700 700" enable-background="new 0 0 700 700" xml:space="preserve" width="720" height="720" shape-rendering="auto">
<g>
	<g>
		<g>
			<path fill="#000000" d="M172.3,220.5c0-5.7-2-10.3-6.1-13.8c-4-3.5-11.1-6.7-21.3-9.8c-17.7-5.1-31-11.1-40.1-18.1     s-13.6-16.6-13.6-28.7s5.2-22.1,15.6-29.8c10.4-7.7,23.6-11.6,39.7-11.6c16.3,0,29.6,4.3,39.9,13c10.3,8.7,15.2,19.3,14.9,32.1     l-0.2,0.6h-28.8c0-6.9-2.3-12.4-6.9-16.7c-4.6-4.2-11-6.4-19.3-6.4c-8,0-14.1,1.8-18.5,5.3c-4.3,3.5-6.5,8.1-6.5,13.6     c0,5,2.3,9.2,7,12.4c4.7,3.2,12.7,6.6,24.1,10.2c16.4,4.6,28.8,10.6,37.2,18s12.6,17.3,12.6,29.5c0,12.7-5,22.7-15,30.1     c-10,7.3-23.3,11-39.7,11c-16.2,0-30.3-4.2-42.3-12.5c-12-8.3-17.9-20-17.5-35l0.2-0.6h29c0,8.8,2.7,15.3,8.1,19.4     c5.4,4.1,12.9,6.2,22.6,6.2c8.1,0,14.3-1.7,18.6-5C170.2,230.6,172.3,226.1,172.3,220.5z"/>
			<path fill="#000000" d="M336.7,208.7l0.2,0.6c0.3,16-4.6,28.6-14.6,38c-10,9.4-23.9,14.1-41.7,14.1c-17.9,0-32.4-5.7-43.5-17.2     s-16.7-26.3-16.7-44.3v-29.5c0-18,5.4-32.8,16.3-44.3s25-17.3,42.4-17.3c18.3,0,32.7,4.7,43,14.1c10.3,9.4,15.4,22.2,15.1,38.5     l-0.2,0.6h-29c0-9.8-2.3-17.3-7-22.5c-4.7-5.2-12-7.8-21.9-7.8c-8.9,0-16,3.6-21.2,10.8c-5.2,7.2-7.8,16.4-7.8,27.7v29.6     c0,11.3,2.8,20.6,8.3,27.9c5.5,7.2,12.9,10.8,22.3,10.8c9.3,0,16.2-2.5,20.6-7.5c4.4-5,6.7-12.4,6.7-22.3H336.7z"/>
			<path fill="#000000" d="M437.7,227.3h-52.1l-10.1,32h-30.1l51.1-148.4H427l50.9,148.4h-30.1L437.7,227.3z M392.9,203.9h37.4     L412,145.6h-0.6L392.9,203.9z"/>
			<path fill="#000000" d="M611.7,259.3H582l-59.9-101.4l-0.6,0.1v101.3h-29.8V110.9h29.8l59.9,101.3l0.6-0.1V110.9h29.7V259.3z"/>
		</g>
		<g>
			<path fill="#000000" d="M135.3,314.8l88.1,224.6h1.1l88.1-224.6h47.8v276.5h-37.4V481.9l3.8-112.4l-0.9-0.2l-89.6,222h-24.9     l-89.2-221.4l-0.9,0.2l3.6,111.8v109.4H87.5V314.8H135.3z"/>
			<path fill="#000000" d="M593.1,463.1H466.5v98.7h146v29.4H429.1V314.8h181.3v29.4H466.5v89.4h126.6V463.1z"/>
		</g>
	</g>
</g>
</svg>
</svg>

	<path id="FrameBody" class="frame-color" d="M265.4,0H13.7C6.1,0,0,6.1,0,13.7v251.6c0,7.6,6.2,13.7,13.7,13.7h251.6c7.6,0,13.7-6.1,13.8-13.6V13.7
	C279.1,6.1,272.9,0,265.4,0z M268.5,261.1c0,4.1-3.3,7.4-7.4,7.4H17.9c-4.1,0-7.4-3.3-7.4-7.4V17.9c0-4.1,3.3-7.4,7.4-7.4h243.2
	c4.1,0,7.4,3.3,7.4,7.4V261.1z"/>
	<svg id="TextArea" x="0" y="275" width="279" height="90" viewBox="0 0 153.79052734375 17.588541666667" preserveAspectRatio="xMidYMid meet">
<svg version="1.1" xmlns="http://www.w3.org/2000/svg"><path class="frame-color" fill="#FFFFFF" d=" M7.390625,13.19140625l-2.5888671875-6.8857421875l-0.04296875,0q0.08056640625,0.859375,0.08056640625,2.12158203125l0,4.76416015625l-0.9130859375,0l0-7.8525390625l1.4609375,0l2.42236328125,6.4345703125l0.04296875,0l2.46533203125-6.4345703125l1.4501953125,0l0,7.8525390625l-0.9775390625,0l0-4.82861328125q0-0.8056640625,0.0751953125-2.04638671875l-0.04296875,0l-2.62109375,6.875l-0.81103515625,0z M18.8955078125,10.23193359375q0,1.44482421875-0.73046875,2.255859375t-2.01953125,0.81103515625q-0.80029296875,0-1.41796875-0.373291015625t-0.95068359375-1.071533203125t-0.3330078125-1.6220703125q0-1.439453125,0.7197265625-2.242431640625t2.01953125-0.802978515625q1.24609375,0,1.979248046875,0.819091796875t0.733154296875,2.226318359375z M14.44287109375,10.23193359375q0,1.11181640625,0.437744140625,1.689208984375t1.291748046875,0.577392578125q0.84326171875,0,1.28369140625-0.577392578125t0.4404296875-1.689208984375t-0.443115234375-1.673095703125t-1.297119140625-0.561279296875q-1.71337890625,0-1.71337890625,2.234375z M22.3974609375,12.50927734375q0.18798828125,0,0.4404296875-0.03759765625t0.38134765625-0.0859375l0,0.7412109375q-0.13427734375,0.05908203125-0.416259765625,0.115478515625t-0.572021484375,0.056396484375q-1.7294921875,0-1.7294921875-1.82080078125l0-3.43212890625l-0.83251953125,0l0-0.4619140625l0.84326171875-0.38671875l0.38671875-1.2568359375l0.57470703125,0l0,1.353515625l1.70263671875,0l0,0.751953125l-1.70263671875,0l0,3.4052734375q0,0.51025390625,0.244384765625,0.7841796875t0.679443359375,0.27392578125z M28.4130859375,13.19140625l0-3.7705078125q0-0.7197265625-0.319580078125-1.071533203125t-1.001708984375-0.351806640625q-0.89697265625,0-1.313232421875,0.49951171875t-0.416259765625,1.64892578125l0,3.04541015625l-0.966796875,0l0-8.357421875l0.966796875,0l0,2.44921875q0,0.4833984375-0.0537109375,0.8271484375l0.064453125,0q0.26318359375-0.4296875,0.74658203125-0.67138671875t1.09033203125-0.24169921875q1.07421875,0,1.61669921875,0.512939453125t0.54248046875,1.640869140625l0,3.84033203125l-0.9560546875,0z M33.70361328125,13.298828125q-1.32666015625,0-2.081298828125-0.802978515625t-0.754638671875-2.210205078125q0-1.41796875,0.70361328125-2.258544921875t1.9013671875-0.840576171875q1.11181640625,0,1.7724609375,0.717041015625t0.66064453125,1.941650390625l0,0.58544921875l-4.0390625,0q0.02685546875,1.00439453125,0.51025390625,1.525390625t1.36962890625,0.52099609375q0.47265625,0,0.89697265625-0.083251953125t0.99365234375-0.324951171875l0,0.8486328125q-0.48876953125,0.20947265625-0.91845703125,0.29541015625t-1.01513671875,0.0859375z M33.4619140625,7.97607421875q-0.69287109375,0-1.095703125,0.44580078125t-0.47802734375,1.24072265625l3.00244140625,0q-0.0107421875-0.8271484375-0.38134765625-1.2568359375t-1.04736328125-0.4296875z M40.14892578125,7.1865234375q0.39208984375,0,0.69287109375,0.064453125l-0.1181640625,0.8916015625q-0.32763671875-0.0751953125-0.63916015625-0.0751953125q-0.46728515625,0-0.867431640625,0.2578125t-0.625732421875,0.711669921875t-0.2255859375,1.007080078125l0,3.1474609375l-0.966796875,0l0-5.8974609375l0.794921875,0l0.107421875,1.07958984375l0.04296875,0q0.33837890625-0.58544921875,0.80029296875-0.88623046875t1.00439453125-0.30078125z  M50.67626953125,13.19140625l-1.16552734375,0l-2.78759765625-3.7490234375l-0.80029296875,0.70361328125l0,3.04541015625l-0.98828125,0l0-7.8525390625l0.98828125,0l0,3.87255859375l0.6767578125-0.74658203125l2.79833984375-3.1259765625l1.15478515625,0l-3.10986328125,3.42138671875z M56.73486328125,10.23193359375q0,1.44482421875-0.73046875,2.255859375t-2.01953125,0.81103515625q-0.80029296875,0-1.41796875-0.373291015625t-0.95068359375-1.071533203125t-0.3330078125-1.6220703125q0-1.439453125,0.7197265625-2.242431640625t2.01953125-0.802978515625q1.24609375,0,1.979248046875,0.819091796875t0.733154296875,2.226318359375z M52.2822265625,10.23193359375q0,1.11181640625,0.437744140625,1.689208984375t1.291748046875,0.577392578125q0.84326171875,0,1.28369140625-0.577392578125t0.4404296875-1.689208984375t-0.443115234375-1.673095703125t-1.297119140625-0.561279296875q-1.71337890625,0-1.71337890625,2.234375z M61.9072265625,13.19140625l-0.18798828125-0.837890625l-0.04296875,0q-0.4404296875,0.55322265625-0.878173828125,0.749267578125t-1.103759765625,0.196044921875q-0.8701171875,0-1.3642578125-0.45654296875t-0.494140625-1.2890625q0-1.7939453125,2.83056640625-1.8798828125l0.9990234375-0.03759765625l0-0.34912109375q0-0.67138671875-0.2900390625-0.990966796875t-0.92919921875-0.319580078125q-0.46728515625,0-0.883544921875,0.1396484375t-0.781494140625,0.3115234375l-0.29541015625-0.72509765625q0.44580078125-0.236328125,0.97216796875-0.37060546875t1.0419921875-0.13427734375q1.06884765625,0,1.58984375,0.47265625t0.52099609375,1.50390625l0,4.017578125l-0.70361328125,0z M59.91455078125,12.52001953125q0.81103515625,0,1.275634765625-0.437744140625t0.464599609375-1.243408203125l0-0.53173828125l-0.8701171875,0.03759765625q-1.01513671875,0.03759765625-1.479736328125,0.322265625t-0.464599609375,0.89697265625q0,0.4619140625,0.281982421875,0.708984375t0.792236328125,0.2470703125z M65.40380859375,13.19140625l-0.966796875,0l0-8.357421875l0.966796875,0l0,8.357421875z M70.91455078125,13.19140625l-0.18798828125-0.837890625l-0.04296875,0q-0.4404296875,0.55322265625-0.878173828125,0.749267578125t-1.103759765625,0.196044921875q-0.8701171875,0-1.3642578125-0.45654296875t-0.494140625-1.2890625q0-1.7939453125,2.83056640625-1.8798828125l0.9990234375-0.03759765625l0-0.34912109375q0-0.67138671875-0.2900390625-0.990966796875t-0.92919921875-0.319580078125q-0.46728515625,0-0.883544921875,0.1396484375t-0.781494140625,0.3115234375l-0.29541015625-0.72509765625q0.44580078125-0.236328125,0.97216796875-0.37060546875t1.0419921875-0.13427734375q1.06884765625,0,1.58984375,0.47265625t0.52099609375,1.50390625l0,4.017578125l-0.70361328125,0z M68.921875,12.52001953125q0.81103515625,0,1.275634765625-0.437744140625t0.464599609375-1.243408203125l0-0.53173828125l-0.8701171875,0.03759765625q-1.01513671875,0.03759765625-1.479736328125,0.322265625t-0.464599609375,0.89697265625q0,0.4619140625,0.281982421875,0.708984375t0.792236328125,0.2470703125z  M79.943359375,13.19140625l-0.18798828125-0.837890625l-0.04296875,0q-0.4404296875,0.55322265625-0.878173828125,0.749267578125t-1.103759765625,0.196044921875q-0.8701171875,0-1.3642578125-0.45654296875t-0.494140625-1.2890625q0-1.7939453125,2.83056640625-1.8798828125l0.9990234375-0.03759765625l0-0.34912109375q0-0.67138671875-0.2900390625-0.990966796875t-0.92919921875-0.319580078125q-0.46728515625,0-0.883544921875,0.1396484375t-0.781494140625,0.3115234375l-0.29541015625-0.72509765625q0.44580078125-0.236328125,0.97216796875-0.37060546875t1.0419921875-0.13427734375q1.06884765625,0,1.58984375,0.47265625t0.52099609375,1.50390625l0,4.017578125l-0.70361328125,0z M77.95068359375,12.52001953125q0.81103515625,0,1.275634765625-0.437744140625t0.464599609375-1.243408203125l0-0.53173828125l-0.8701171875,0.03759765625q-1.01513671875,0.03759765625-1.479736328125,0.322265625t-0.464599609375,0.89697265625q0,0.4619140625,0.281982421875,0.708984375t0.792236328125,0.2470703125z M86.49072265625,13.19140625l0-3.7705078125q0-0.7197265625-0.319580078125-1.071533203125t-1.001708984375-0.351806640625q-0.90771484375,0-1.318603515625,0.502197265625t-0.410888671875,1.635498046875l0,3.05615234375l-0.966796875,0l0-5.8974609375l0.77880859375,0l0.14501953125,0.8056640625l0.0537109375,0q0.27392578125-0.43505859375,0.76806640625-0.674072265625t1.09033203125-0.239013671875q1.0849609375,0,1.611328125,0.5263671875t0.5263671875,1.63818359375l0,3.84033203125l-0.9560546875,0z M91.3623046875,13.298828125q-1.1494140625,0-1.783203125-0.794921875t-0.6337890625-2.25048828125q0-1.44482421875,0.636474609375-2.255859375t1.791259765625-0.81103515625q1.18701171875,0,1.826171875,0.8701171875l0.06982421875,0q-0.01611328125-0.107421875-0.04296875-0.432373046875t-0.02685546875-0.437744140625l0-2.3525390625l0.966796875,0l0,8.357421875l-0.77880859375,0l-0.14501953125-0.78955078125l-0.04296875,0q-0.61767578125,0.89697265625-1.8369140625,0.89697265625z M91.51806640625,12.49853515625q0.880859375,0,1.286376953125-0.480712890625t0.405517578125-1.576416015625l0-0.17724609375q0-1.22998046875-0.410888671875-1.753662109375t-1.291748046875-0.523681640625q-0.74658203125,0-1.15478515625,0.593505859375t-0.408203125,1.694580078125q0,1.095703125,0.405517578125,1.65966796875t1.168212890625,0.56396484375z  M97.92041015625,15.28076171875q-0.5048828125,0-0.81640625-0.14501953125l0-0.83251953125q0.38134765625,0.107421875,0.794921875,0.107421875q0.537109375,0,0.8056640625-0.324951171875t0.2685546875-0.937255859375l0-7.8095703125l0.99365234375,0l0,7.72900390625q0,1.0634765625-0.529052734375,1.63818359375t-1.517333984375,0.57470703125z M107.0244140625,10.23193359375q0,1.44482421875-0.73046875,2.255859375t-2.01953125,0.81103515625q-0.80029296875,0-1.41796875-0.373291015625t-0.95068359375-1.071533203125t-0.3330078125-1.6220703125q0-1.439453125,0.7197265625-2.242431640625t2.01953125-0.802978515625q1.24609375,0,1.979248046875,0.819091796875t0.733154296875,2.226318359375z M102.57177734375,10.23193359375q0,1.11181640625,0.437744140625,1.689208984375t1.291748046875,0.577392578125q0.84326171875,0,1.28369140625-0.577392578125t0.4404296875-1.689208984375t-0.443115234375-1.673095703125t-1.297119140625-0.561279296875q-1.71337890625,0-1.71337890625,2.234375z M111.0634765625,13.298828125q-1.32666015625,0-2.081298828125-0.802978515625t-0.754638671875-2.210205078125q0-1.41796875,0.70361328125-2.258544921875t1.9013671875-0.840576171875q1.11181640625,0,1.7724609375,0.717041015625t0.66064453125,1.941650390625l0,0.58544921875l-4.0390625,0q0.02685546875,1.00439453125,0.51025390625,1.525390625t1.36962890625,0.52099609375q0.47265625,0,0.89697265625-0.083251953125t0.99365234375-0.324951171875l0,0.8486328125q-0.48876953125,0.20947265625-0.91845703125,0.29541015625t-1.01513671875,0.0859375z M110.82177734375,7.97607421875q-0.69287109375,0-1.095703125,0.44580078125t-0.47802734375,1.24072265625l3.00244140625,0q-0.0107421875-0.8271484375-0.38134765625-1.2568359375t-1.04736328125-0.4296875z M113.8349609375,7.2939453125l1.03662109375,0l1.27294921875,3.35693359375q0.40283203125,1.095703125,0.494140625,1.60595703125l0.04296875,0q0.04833984375-0.19873046875,0.22021484375-0.743896484375t0.2900390625-0.872802734375l1.19775390625-3.34619140625l1.0419921875,0l-2.54052734375,6.7138671875q-0.37060546875,0.9775390625-0.880859375,1.40185546875t-1.26220703125,0.42431640625q-0.40283203125,0-0.80029296875-0.09130859375l0-0.76806640625q0.2685546875,0.064453125,0.64453125,0.064453125q0.4619140625,0,0.7841796875-0.255126953125t0.5263671875-0.786865234375l0.30615234375-0.7841796875z  M129.099609375,13.19140625l-1.16552734375,0l-2.78759765625-3.7490234375l-0.80029296875,0.70361328125l0,3.04541015625l-0.98828125,0l0-7.8525390625l0.98828125,0l0,3.87255859375l0.6767578125-0.74658203125l2.79833984375-3.1259765625l1.15478515625,0l-3.10986328125,3.42138671875z M135.158203125,10.23193359375q0,1.44482421875-0.73046875,2.255859375t-2.01953125,0.81103515625q-0.80029296875,0-1.41796875-0.373291015625t-0.95068359375-1.071533203125t-0.3330078125-1.6220703125q0-1.439453125,0.7197265625-2.242431640625t2.01953125-0.802978515625q1.24609375,0,1.979248046875,0.819091796875t0.733154296875,2.226318359375z M130.70556640625,10.23193359375q0,1.11181640625,0.437744140625,1.689208984375t1.291748046875,0.577392578125q0.84326171875,0,1.28369140625-0.577392578125t0.4404296875-1.689208984375t-0.443115234375-1.673095703125t-1.297119140625-0.561279296875q-1.71337890625,0-1.71337890625,2.234375z M140.33056640625,13.19140625l-0.18798828125-0.837890625l-0.04296875,0q-0.4404296875,0.55322265625-0.878173828125,0.749267578125t-1.103759765625,0.196044921875q-0.8701171875,0-1.3642578125-0.45654296875t-0.494140625-1.2890625q0-1.7939453125,2.83056640625-1.8798828125l0.9990234375-0.03759765625l0-0.34912109375q0-0.67138671875-0.2900390625-0.990966796875t-0.92919921875-0.319580078125q-0.46728515625,0-0.883544921875,0.1396484375t-0.781494140625,0.3115234375l-0.29541015625-0.72509765625q0.44580078125-0.236328125,0.97216796875-0.37060546875t1.0419921875-0.13427734375q1.06884765625,0,1.58984375,0.47265625t0.52099609375,1.50390625l0,4.017578125l-0.70361328125,0z M138.337890625,12.52001953125q0.81103515625,0,1.275634765625-0.437744140625t0.464599609375-1.243408203125l0-0.53173828125l-0.8701171875,0.03759765625q-1.01513671875,0.03759765625-1.479736328125,0.322265625t-0.464599609375,0.89697265625q0,0.4619140625,0.281982421875,0.708984375t0.792236328125,0.2470703125z M143.8271484375,13.19140625l-0.966796875,0l0-8.357421875l0.966796875,0l0,8.357421875z M149.337890625,13.19140625l-0.18798828125-0.837890625l-0.04296875,0q-0.4404296875,0.55322265625-0.878173828125,0.749267578125t-1.103759765625,0.196044921875q-0.8701171875,0-1.3642578125-0.45654296875t-0.494140625-1.2890625q0-1.7939453125,2.83056640625-1.8798828125l0.9990234375-0.03759765625l0-0.34912109375q0-0.67138671875-0.2900390625-0.990966796875t-0.92919921875-0.319580078125q-0.46728515625,0-0.883544921875,0.1396484375t-0.781494140625,0.3115234375l-0.29541015625-0.72509765625q0.44580078125-0.236328125,0.97216796875-0.37060546875t1.0419921875-0.13427734375q1.06884765625,0,1.58984375,0.47265625t0.52099609375,1.50390625l0,4.017578125l-0.70361328125,0z M147.34521484375,12.52001953125q0.81103515625,0,1.275634765625-0.437744140625t0.464599609375-1.243408203125l0-0.53173828125l-0.8701171875,0.03759765625q-1.01513671875,0.03759765625-1.479736328125,0.322265625t-0.464599609375,0.89697265625q0,0.4619140625,0.281982421875,0.708984375t0.792236328125,0.2470703125z "/></svg>
</svg>
	
</svg>
