<?xml version="1.0" encoding="utf-8"?>
<!-- Generator: Adobe Illustrator 23.0.4, SVG Export Plug-In . SVG Version: 6.00 Build 0)  -->
<svg version="1.1" id="frame-top-frame" xmlns="http://www.w3.org/2000/svg" xmlns:xlink="http://www.w3.org/1999/xlink" x="0px"
	 y="0px" viewBox="0 0 279.1 355.1" style="enable-background:new 0 0 279.1 355.1;" xml:space="preserve">
<style type="text/css">
	.frame-color{fill:#000000;}
	.background-color{fill:#ffffff;}
	.text-color{fill:#FFFFFF;}
</style>
	
<svg xmlns="http://www.w3.org/2000/svg" xmlns:xlink="http://www.w3.org/1999/xlink" version="1.1" width="259.8" height="259.8" viewBox="0 0 2000 2000" x="9.7" y="9.6" shape-rendering="crispEdges"><defs/><rect x="0" y="0" width="2000" height="2000" fill="#ffffff"/><rect x="406" y="118" width="36" height="36" fill="#000000"/><rect x="442" y="118" width="36" height="36" fill="#000000"/><rect x="658" y="118" width="36" height="36" fill="#000000"/><rect x="766" y="118" width="36" height="36" fill="#000000"/><rect x="802" y="118" width="36" height="36" fill="#000000"/><rect x="910" y="118" width="36" height="36" fill="#000000"/><rect x="1054" y="118" width="36" height="36" fill="#000000"/><rect x="1090" y="118" width="36" height="36" fill="#000000"/><rect x="1126" y="118" width="36" height="36" fill="#000000"/><rect x="1162" y="118" width="36" height="36" fill="#000000"/><rect x="1270" y="118" width="36" height="36" fill="#000000"/><rect x="1378" y="118" width="36" height="36" fill="#000000"/><rect x="1450" y="118" width="36" height="36" fill="#000000"/><rect x="1558" y="118" width="36" height="36" fill="#000000"/><rect x="478" y="154" width="36" height="36" fill="#000000"/><rect x="514" y="154" width="36" height="36" fill="#000000"/><rect x="550" y="154" width="36" height="36" fill="#000000"/><rect x="586" y="154" width="36" height="36" fill="#000000"/><rect x="622" y="154" width="36" height="36" fill="#000000"/><rect x="694" y="154" width="36" height="36" fill="#000000"/><rect x="730" y="154" width="36" height="36" fill="#000000"/><rect x="766" y="154" width="36" height="36" fill="#000000"/><rect x="838" y="154" width="36" height="36" fill="#000000"/><rect x="874" y="154" width="36" height="36" fill="#000000"/><rect x="910" y="154" width="36" height="36" fill="#000000"/><rect x="946" y="154" width="36" height="36" fill="#000000"/><rect x="982" y="154" width="36" height="36" fill="#000000"/><rect x="1090" y="154" width="36" height="36" fill="#000000"/><rect x="1234" y="154" width="36" height="36" fill="#000000"/><rect x="1378" y="154" width="36" height="36" fill="#000000"/><rect x="1414" y="154" width="36" height="36" fill="#000000"/><rect x="1486" y="154" width="36" height="36" fill="#000000"/><rect x="1522" y="154" width="36" height="36" fill="#000000"/><rect x="1558" y="154" width="36" height="36" fill="#000000"/><rect x="442" y="190" width="36" height="36" fill="#000000"/><rect x="514" y="190" width="36" height="36" fill="#000000"/><rect x="550" y="190" width="36" height="36" fill="#000000"/><rect x="622" y="190" width="36" height="36" fill="#000000"/><rect x="730" y="190" width="36" height="36" fill="#000000"/><rect x="766" y="190" width="36" height="36" fill="#000000"/><rect x="802" y="190" width="36" height="36" fill="#000000"/><rect x="874" y="190" width="36" height="36" fill="#000000"/><rect x="946" y="190" width="36" height="36" fill="#000000"/><rect x="982" y="190" width="36" height="36" fill="#000000"/><rect x="1090" y="190" width="36" height="36" fill="#000000"/><rect x="1162" y="190" width="36" height="36" fill="#000000"/><rect x="1198" y="190" width="36" height="36" fill="#000000"/><rect x="1234" y="190" width="36" height="36" fill="#000000"/><rect x="1450" y="190" width="36" height="36" fill="#000000"/><rect x="1522" y="190" width="36" height="36" fill="#000000"/><rect x="1558" y="190" width="36" height="36" fill="#000000"/><rect x="478" y="226" width="36" height="36" fill="#000000"/><rect x="586" y="226" width="36" height="36" fill="#000000"/><rect x="730" y="226" width="36" height="36" fill="#000000"/><rect x="802" y="226" width="36" height="36" fill="#000000"/><rect x="838" y="226" width="36" height="36" fill="#000000"/><rect x="874" y="226" width="36" height="36" fill="#000000"/><rect x="910" y="226" width="36" height="36" fill="#000000"/><rect x="1018" y="226" width="36" height="36" fill="#000000"/><rect x="1090" y="226" width="36" height="36" fill="#000000"/><rect x="1234" y="226" width="36" height="36" fill="#000000"/><rect x="1306" y="226" width="36" height="36" fill="#000000"/><rect x="1342" y="226" width="36" height="36" fill="#000000"/><rect x="1414" y="226" width="36" height="36" fill="#000000"/><rect x="1450" y="226" width="36" height="36" fill="#000000"/><rect x="1522" y="226" width="36" height="36" fill="#000000"/><rect x="406" y="262" width="36" height="36" fill="#000000"/><rect x="442" y="262" width="36" height="36" fill="#000000"/><rect x="478" y="262" width="36" height="36" fill="#000000"/><rect x="514" y="262" width="36" height="36" fill="#000000"/><rect x="550" y="262" width="36" height="36" fill="#000000"/><rect x="586" y="262" width="36" height="36" fill="#000000"/><rect x="694" y="262" width="36" height="36" fill="#000000"/><rect x="766" y="262" width="36" height="36" fill="#000000"/><rect x="838" y="262" width="36" height="36" fill="#000000"/><rect x="874" y="262" width="36" height="36" fill="#000000"/><rect x="910" y="262" width="36" height="36" fill="#000000"/><rect x="946" y="262" width="36" height="36" fill="#000000"/><rect x="982" y="262" width="36" height="36" fill="#000000"/><rect x="1018" y="262" width="36" height="36" fill="#000000"/><rect x="1054" y="262" width="36" height="36" fill="#000000"/><rect x="1090" y="262" width="36" height="36" fill="#000000"/><rect x="1198" y="262" width="36" height="36" fill="#000000"/><rect x="1270" y="262" width="36" height="36" fill="#000000"/><rect x="1306" y="262" width="36" height="36" fill="#000000"/><rect x="1342" y="262" width="36" height="36" fill="#000000"/><rect x="406" y="298" width="36" height="36" fill="#000000"/><rect x="478" y="298" width="36" height="36" fill="#000000"/><rect x="550" y="298" width="36" height="36" fill="#000000"/><rect x="586" y="298" width="36" height="36" fill="#000000"/><rect x="622" y="298" width="36" height="36" fill="#000000"/><rect x="730" y="298" width="36" height="36" fill="#000000"/><rect x="802" y="298" width="36" height="36" fill="#000000"/><rect x="910" y="298" width="36" height="36" fill="#000000"/><rect x="1054" y="298" width="36" height="36" fill="#000000"/><rect x="1090" y="298" width="36" height="36" fill="#000000"/><rect x="1162" y="298" width="36" height="36" fill="#000000"/><rect x="1234" y="298" width="36" height="36" fill="#000000"/><rect x="1378" y="298" width="36" height="36" fill="#000000"/><rect x="1414" y="298" width="36" height="36" fill="#000000"/><rect x="1486" y="298" width="36" height="36" fill="#000000"/><rect x="406" y="334" width="36" height="36" fill="#000000"/><rect x="478" y="334" width="36" height="36" fill="#000000"/><rect x="550" y="334" width="36" height="36" fill="#000000"/><rect x="622" y="334" width="36" height="36" fill="#000000"/><rect x="694" y="334" width="36" height="36" fill="#000000"/><rect x="766" y="334" width="36" height="36" fill="#000000"/><rect x="838" y="334" width="36" height="36" fill="#000000"/><rect x="910" y="334" width="36" height="36" fill="#000000"/><rect x="982" y="334" width="36" height="36" fill="#000000"/><rect x="1054" y="334" width="36" height="36" fill="#000000"/><rect x="1126" y="334" width="36" height="36" fill="#000000"/><rect x="1198" y="334" width="36" height="36" fill="#000000"/><rect x="1270" y="334" width="36" height="36" fill="#000000"/><rect x="1342" y="334" width="36" height="36" fill="#000000"/><rect x="1414" y="334" width="36" height="36" fill="#000000"/><rect x="1486" y="334" width="36" height="36" fill="#000000"/><rect x="1558" y="334" width="36" height="36" fill="#000000"/><rect x="442" y="370" width="36" height="36" fill="#000000"/><rect x="622" y="370" width="36" height="36" fill="#000000"/><rect x="694" y="370" width="36" height="36" fill="#000000"/><rect x="766" y="370" width="36" height="36" fill="#000000"/><rect x="910" y="370" width="36" height="36" fill="#000000"/><rect x="1054" y="370" width="36" height="36" fill="#000000"/><rect x="1090" y="370" width="36" height="36" fill="#000000"/><rect x="1162" y="370" width="36" height="36" fill="#000000"/><rect x="1198" y="370" width="36" height="36" fill="#000000"/><rect x="1414" y="370" width="36" height="36" fill="#000000"/><rect x="154" y="406" width="36" height="36" fill="#000000"/><rect x="190" y="406" width="36" height="36" fill="#000000"/><rect x="226" y="406" width="36" height="36" fill="#000000"/><rect x="262" y="406" width="36" height="36" fill="#000000"/><rect x="298" y="406" width="36" height="36" fill="#000000"/><rect x="334" y="406" width="36" height="36" fill="#000000"/><rect x="370" y="406" width="36" height="36" fill="#000000"/><rect x="442" y="406" width="36" height="36" fill="#000000"/><rect x="550" y="406" width="36" height="36" fill="#000000"/><rect x="658" y="406" width="36" height="36" fill="#000000"/><rect x="694" y="406" width="36" height="36" fill="#000000"/><rect x="766" y="406" width="36" height="36" fill="#000000"/><rect x="838" y="406" width="36" height="36" fill="#000000"/><rect x="910" y="406" width="36" height="36" fill="#000000"/><rect x="946" y="406" width="36" height="36" fill="#000000"/><rect x="982" y="406" width="36" height="36" fill="#000000"/><rect x="1018" y="406" width="36" height="36" fill="#000000"/><rect x="1054" y="406" width="36" height="36" fill="#000000"/><rect x="1126" y="406" width="36" height="36" fill="#000000"/><rect x="1234" y="406" width="36" height="36" fill="#000000"/><rect x="1270" y="406" width="36" height="36" fill="#000000"/><rect x="1306" y="406" width="36" height="36" fill="#000000"/><rect x="1342" y="406" width="36" height="36" fill="#000000"/><rect x="1378" y="406" width="36" height="36" fill="#000000"/><rect x="1486" y="406" width="36" height="36" fill="#000000"/><rect x="1558" y="406" width="36" height="36" fill="#000000"/><rect x="1666" y="406" width="36" height="36" fill="#000000"/><rect x="1702" y="406" width="36" height="36" fill="#000000"/><rect x="1846" y="406" width="36" height="36" fill="#000000"/><rect x="154" y="442" width="36" height="36" fill="#000000"/><rect x="190" y="442" width="36" height="36" fill="#000000"/><rect x="226" y="442" width="36" height="36" fill="#000000"/><rect x="262" y="442" width="36" height="36" fill="#000000"/><rect x="514" y="442" width="36" height="36" fill="#000000"/><rect x="658" y="442" width="36" height="36" fill="#000000"/><rect x="730" y="442" width="36" height="36" fill="#000000"/><rect x="802" y="442" width="36" height="36" fill="#000000"/><rect x="874" y="442" width="36" height="36" fill="#000000"/><rect x="910" y="442" width="36" height="36" fill="#000000"/><rect x="946" y="442" width="36" height="36" fill="#000000"/><rect x="982" y="442" width="36" height="36" fill="#000000"/><rect x="1018" y="442" width="36" height="36" fill="#000000"/><rect x="1090" y="442" width="36" height="36" fill="#000000"/><rect x="1126" y="442" width="36" height="36" fill="#000000"/><rect x="1270" y="442" width="36" height="36" fill="#000000"/><rect x="1342" y="442" width="36" height="36" fill="#000000"/><rect x="1450" y="442" width="36" height="36" fill="#000000"/><rect x="1486" y="442" width="36" height="36" fill="#000000"/><rect x="1558" y="442" width="36" height="36" fill="#000000"/><rect x="1702" y="442" width="36" height="36" fill="#000000"/><rect x="1738" y="442" width="36" height="36" fill="#000000"/><rect x="1810" y="442" width="36" height="36" fill="#000000"/><rect x="1846" y="442" width="36" height="36" fill="#000000"/><rect x="118" y="478" width="36" height="36" fill="#000000"/><rect x="190" y="478" width="36" height="36" fill="#000000"/><rect x="226" y="478" width="36" height="36" fill="#000000"/><rect x="334" y="478" width="36" height="36" fill="#000000"/><rect x="406" y="478" width="36" height="36" fill="#000000"/><rect x="514" y="478" width="36" height="36" fill="#000000"/><rect x="550" y="478" width="36" height="36" fill="#000000"/><rect x="586" y="478" width="36" height="36" fill="#000000"/><rect x="622" y="478" width="36" height="36" fill="#000000"/><rect x="658" y="478" width="36" height="36" fill="#000000"/><rect x="694" y="478" width="36" height="36" fill="#000000"/><rect x="730" y="478" width="36" height="36" fill="#000000"/><rect x="766" y="478" width="36" height="36" fill="#000000"/><rect x="1162" y="478" width="36" height="36" fill="#000000"/><rect x="1198" y="478" width="36" height="36" fill="#000000"/><rect x="1234" y="478" width="36" height="36" fill="#000000"/><rect x="1270" y="478" width="36" height="36" fill="#000000"/><rect x="1306" y="478" width="36" height="36" fill="#000000"/><rect x="1378" y="478" width="36" height="36" fill="#000000"/><rect x="1486" y="478" width="36" height="36" fill="#000000"/><rect x="1522" y="478" width="36" height="36" fill="#000000"/><rect x="1558" y="478" width="36" height="36" fill="#000000"/><rect x="1594" y="478" width="36" height="36" fill="#000000"/><rect x="1630" y="478" width="36" height="36" fill="#000000"/><rect x="1666" y="478" width="36" height="36" fill="#000000"/><rect x="1774" y="478" width="36" height="36" fill="#000000"/><rect x="1810" y="478" width="36" height="36" fill="#000000"/><rect x="1846" y="478" width="36" height="36" fill="#000000"/><rect x="190" y="514" width="36" height="36" fill="#000000"/><rect x="226" y="514" width="36" height="36" fill="#000000"/><rect x="298" y="514" width="36" height="36" fill="#000000"/><rect x="370" y="514" width="36" height="36" fill="#000000"/><rect x="406" y="514" width="36" height="36" fill="#000000"/><rect x="478" y="514" width="36" height="36" fill="#000000"/><rect x="622" y="514" width="36" height="36" fill="#000000"/><rect x="694" y="514" width="36" height="36" fill="#000000"/><rect x="730" y="514" width="36" height="36" fill="#000000"/><rect x="766" y="514" width="36" height="36" fill="#000000"/><rect x="802" y="514" width="36" height="36" fill="#000000"/><rect x="838" y="514" width="36" height="36" fill="#000000"/><rect x="874" y="514" width="36" height="36" fill="#000000"/><rect x="946" y="514" width="36" height="36" fill="#000000"/><rect x="1054" y="514" width="36" height="36" fill="#000000"/><rect x="1126" y="514" width="36" height="36" fill="#000000"/><rect x="1162" y="514" width="36" height="36" fill="#000000"/><rect x="1198" y="514" width="36" height="36" fill="#000000"/><rect x="1234" y="514" width="36" height="36" fill="#000000"/><rect x="1414" y="514" width="36" height="36" fill="#000000"/><rect x="1450" y="514" width="36" height="36" fill="#000000"/><rect x="1594" y="514" width="36" height="36" fill="#000000"/><rect x="1630" y="514" width="36" height="36" fill="#000000"/><rect x="1702" y="514" width="36" height="36" fill="#000000"/><rect x="1774" y="514" width="36" height="36" fill="#000000"/><rect x="118" y="550" width="36" height="36" fill="#000000"/><rect x="226" y="550" width="36" height="36" fill="#000000"/><rect x="298" y="550" width="36" height="36" fill="#000000"/><rect x="334" y="550" width="36" height="36" fill="#000000"/><rect x="406" y="550" width="36" height="36" fill="#000000"/><rect x="442" y="550" width="36" height="36" fill="#000000"/><rect x="478" y="550" width="36" height="36" fill="#000000"/><rect x="514" y="550" width="36" height="36" fill="#000000"/><rect x="586" y="550" width="36" height="36" fill="#000000"/><rect x="658" y="550" width="36" height="36" fill="#000000"/><rect x="694" y="550" width="36" height="36" fill="#000000"/><rect x="730" y="550" width="36" height="36" fill="#000000"/><rect x="802" y="550" width="36" height="36" fill="#000000"/><rect x="838" y="550" width="36" height="36" fill="#000000"/><rect x="910" y="550" width="36" height="36" fill="#000000"/><rect x="1018" y="550" width="36" height="36" fill="#000000"/><rect x="1054" y="550" width="36" height="36" fill="#000000"/><rect x="1306" y="550" width="36" height="36" fill="#000000"/><rect x="1342" y="550" width="36" height="36" fill="#000000"/><rect x="1378" y="550" width="36" height="36" fill="#000000"/><rect x="1414" y="550" width="36" height="36" fill="#000000"/><rect x="1450" y="550" width="36" height="36" fill="#000000"/><rect x="1486" y="550" width="36" height="36" fill="#000000"/><rect x="1558" y="550" width="36" height="36" fill="#000000"/><rect x="1594" y="550" width="36" height="36" fill="#000000"/><rect x="1810" y="550" width="36" height="36" fill="#000000"/><rect x="1846" y="550" width="36" height="36" fill="#000000"/><rect x="154" y="586" width="36" height="36" fill="#000000"/><rect x="226" y="586" width="36" height="36" fill="#000000"/><rect x="298" y="586" width="36" height="36" fill="#000000"/><rect x="442" y="586" width="36" height="36" fill="#000000"/><rect x="478" y="586" width="36" height="36" fill="#000000"/><rect x="514" y="586" width="36" height="36" fill="#000000"/><rect x="550" y="586" width="36" height="36" fill="#000000"/><rect x="586" y="586" width="36" height="36" fill="#000000"/><rect x="622" y="586" width="36" height="36" fill="#000000"/><rect x="730" y="586" width="36" height="36" fill="#000000"/><rect x="802" y="586" width="36" height="36" fill="#000000"/><rect x="874" y="586" width="36" height="36" fill="#000000"/><rect x="982" y="586" width="36" height="36" fill="#000000"/><rect x="1054" y="586" width="36" height="36" fill="#000000"/><rect x="1090" y="586" width="36" height="36" fill="#000000"/><rect x="1126" y="586" width="36" height="36" fill="#000000"/><rect x="1270" y="586" width="36" height="36" fill="#000000"/><rect x="1522" y="586" width="36" height="36" fill="#000000"/><rect x="1630" y="586" width="36" height="36" fill="#000000"/><rect x="1666" y="586" width="36" height="36" fill="#000000"/><rect x="1702" y="586" width="36" height="36" fill="#000000"/><rect x="1810" y="586" width="36" height="36" fill="#000000"/><rect x="1846" y="586" width="36" height="36" fill="#000000"/><rect x="154" y="622" width="36" height="36" fill="#000000"/><rect x="226" y="622" width="36" height="36" fill="#000000"/><rect x="262" y="622" width="36" height="36" fill="#000000"/><rect x="298" y="622" width="36" height="36" fill="#000000"/><rect x="334" y="622" width="36" height="36" fill="#000000"/><rect x="406" y="622" width="36" height="36" fill="#000000"/><rect x="550" y="622" width="36" height="36" fill="#000000"/><rect x="586" y="622" width="36" height="36" fill="#000000"/><rect x="1378" y="622" width="36" height="36" fill="#000000"/><rect x="1414" y="622" width="36" height="36" fill="#000000"/><rect x="1486" y="622" width="36" height="36" fill="#000000"/><rect x="1558" y="622" width="36" height="36" fill="#000000"/><rect x="1594" y="622" width="36" height="36" fill="#000000"/><rect x="1666" y="622" width="36" height="36" fill="#000000"/><rect x="1738" y="622" width="36" height="36" fill="#000000"/><rect x="1774" y="622" width="36" height="36" fill="#000000"/><rect x="226" y="658" width="36" height="36" fill="#000000"/><rect x="298" y="658" width="36" height="36" fill="#000000"/><rect x="370" y="658" width="36" height="36" fill="#000000"/><rect x="478" y="658" width="36" height="36" fill="#000000"/><rect x="586" y="658" width="36" height="36" fill="#000000"/><rect x="1378" y="658" width="36" height="36" fill="#000000"/><rect x="1414" y="658" width="36" height="36" fill="#000000"/><rect x="1594" y="658" width="36" height="36" fill="#000000"/><rect x="1630" y="658" width="36" height="36" fill="#000000"/><rect x="1666" y="658" width="36" height="36" fill="#000000"/><rect x="1702" y="658" width="36" height="36" fill="#000000"/><rect x="1738" y="658" width="36" height="36" fill="#000000"/><rect x="1810" y="658" width="36" height="36" fill="#000000"/><rect x="154" y="694" width="36" height="36" fill="#000000"/><rect x="190" y="694" width="36" height="36" fill="#000000"/><rect x="226" y="694" width="36" height="36" fill="#000000"/><rect x="262" y="694" width="36" height="36" fill="#000000"/><rect x="334" y="694" width="36" height="36" fill="#000000"/><rect x="370" y="694" width="36" height="36" fill="#000000"/><rect x="406" y="694" width="36" height="36" fill="#000000"/><rect x="442" y="694" width="36" height="36" fill="#000000"/><rect x="550" y="694" width="36" height="36" fill="#000000"/><rect x="586" y="694" width="36" height="36" fill="#000000"/><rect x="1378" y="694" width="36" height="36" fill="#000000"/><rect x="1450" y="694" width="36" height="36" fill="#000000"/><rect x="1522" y="694" width="36" height="36" fill="#000000"/><rect x="1810" y="694" width="36" height="36" fill="#000000"/><rect x="1846" y="694" width="36" height="36" fill="#000000"/><rect x="118" y="730" width="36" height="36" fill="#000000"/><rect x="226" y="730" width="36" height="36" fill="#000000"/><rect x="478" y="730" width="36" height="36" fill="#000000"/><rect x="514" y="730" width="36" height="36" fill="#000000"/><rect x="586" y="730" width="36" height="36" fill="#000000"/><rect x="1558" y="730" width="36" height="36" fill="#000000"/><rect x="1594" y="730" width="36" height="36" fill="#000000"/><rect x="1630" y="730" width="36" height="36" fill="#000000"/><rect x="1666" y="730" width="36" height="36" fill="#000000"/><rect x="1702" y="730" width="36" height="36" fill="#000000"/><rect x="1810" y="730" width="36" height="36" fill="#000000"/><rect x="1846" y="730" width="36" height="36" fill="#000000"/><rect x="154" y="766" width="36" height="36" fill="#000000"/><rect x="190" y="766" width="36" height="36" fill="#000000"/><rect x="226" y="766" width="36" height="36" fill="#000000"/><rect x="334" y="766" width="36" height="36" fill="#000000"/><rect x="370" y="766" width="36" height="36" fill="#000000"/><rect x="406" y="766" width="36" height="36" fill="#000000"/><rect x="1378" y="766" width="36" height="36" fill="#000000"/><rect x="1414" y="766" width="36" height="36" fill="#000000"/><rect x="1450" y="766" width="36" height="36" fill="#000000"/><rect x="1522" y="766" width="36" height="36" fill="#000000"/><rect x="1558" y="766" width="36" height="36" fill="#000000"/><rect x="1594" y="766" width="36" height="36" fill="#000000"/><rect x="1630" y="766" width="36" height="36" fill="#000000"/><rect x="1666" y="766" width="36" height="36" fill="#000000"/><rect x="1846" y="766" width="36" height="36" fill="#000000"/><rect x="118" y="802" width="36" height="36" fill="#000000"/><rect x="262" y="802" width="36" height="36" fill="#000000"/><rect x="298" y="802" width="36" height="36" fill="#000000"/><rect x="406" y="802" width="36" height="36" fill="#000000"/><rect x="442" y="802" width="36" height="36" fill="#000000"/><rect x="478" y="802" width="36" height="36" fill="#000000"/><rect x="550" y="802" width="36" height="36" fill="#000000"/><rect x="586" y="802" width="36" height="36" fill="#000000"/><rect x="1558" y="802" width="36" height="36" fill="#000000"/><rect x="1594" y="802" width="36" height="36" fill="#000000"/><rect x="1630" y="802" width="36" height="36" fill="#000000"/><rect x="1774" y="802" width="36" height="36" fill="#000000"/><rect x="262" y="838" width="36" height="36" fill="#000000"/><rect x="298" y="838" width="36" height="36" fill="#000000"/><rect x="334" y="838" width="36" height="36" fill="#000000"/><rect x="370" y="838" width="36" height="36" fill="#000000"/><rect x="406" y="838" width="36" height="36" fill="#000000"/><rect x="442" y="838" width="36" height="36" fill="#000000"/><rect x="514" y="838" width="36" height="36" fill="#000000"/><rect x="550" y="838" width="36" height="36" fill="#000000"/><rect x="586" y="838" width="36" height="36" fill="#000000"/><rect x="1378" y="838" width="36" height="36" fill="#000000"/><rect x="1450" y="838" width="36" height="36" fill="#000000"/><rect x="1486" y="838" width="36" height="36" fill="#000000"/><rect x="1594" y="838" width="36" height="36" fill="#000000"/><rect x="1666" y="838" width="36" height="36" fill="#000000"/><rect x="1810" y="838" width="36" height="36" fill="#000000"/><rect x="1846" y="838" width="36" height="36" fill="#000000"/><rect x="298" y="874" width="36" height="36" fill="#000000"/><rect x="370" y="874" width="36" height="36" fill="#000000"/><rect x="406" y="874" width="36" height="36" fill="#000000"/><rect x="442" y="874" width="36" height="36" fill="#000000"/><rect x="514" y="874" width="36" height="36" fill="#000000"/><rect x="1486" y="874" width="36" height="36" fill="#000000"/><rect x="1594" y="874" width="36" height="36" fill="#000000"/><rect x="1630" y="874" width="36" height="36" fill="#000000"/><rect x="1666" y="874" width="36" height="36" fill="#000000"/><rect x="1702" y="874" width="36" height="36" fill="#000000"/><rect x="1846" y="874" width="36" height="36" fill="#000000"/><rect x="154" y="910" width="36" height="36" fill="#000000"/><rect x="190" y="910" width="36" height="36" fill="#000000"/><rect x="226" y="910" width="36" height="36" fill="#000000"/><rect x="262" y="910" width="36" height="36" fill="#000000"/><rect x="298" y="910" width="36" height="36" fill="#000000"/><rect x="334" y="910" width="36" height="36" fill="#000000"/><rect x="370" y="910" width="36" height="36" fill="#000000"/><rect x="406" y="910" width="36" height="36" fill="#000000"/><rect x="478" y="910" width="36" height="36" fill="#000000"/><rect x="550" y="910" width="36" height="36" fill="#000000"/><rect x="586" y="910" width="36" height="36" fill="#000000"/><rect x="1378" y="910" width="36" height="36" fill="#000000"/><rect x="1414" y="910" width="36" height="36" fill="#000000"/><rect x="1486" y="910" width="36" height="36" fill="#000000"/><rect x="1522" y="910" width="36" height="36" fill="#000000"/><rect x="1558" y="910" width="36" height="36" fill="#000000"/><rect x="1594" y="910" width="36" height="36" fill="#000000"/><rect x="1630" y="910" width="36" height="36" fill="#000000"/><rect x="1666" y="910" width="36" height="36" fill="#000000"/><rect x="1702" y="910" width="36" height="36" fill="#000000"/><rect x="1774" y="910" width="36" height="36" fill="#000000"/><rect x="1810" y="910" width="36" height="36" fill="#000000"/><rect x="1846" y="910" width="36" height="36" fill="#000000"/><rect x="118" y="946" width="36" height="36" fill="#000000"/><rect x="154" y="946" width="36" height="36" fill="#000000"/><rect x="262" y="946" width="36" height="36" fill="#000000"/><rect x="406" y="946" width="36" height="36" fill="#000000"/><rect x="478" y="946" width="36" height="36" fill="#000000"/><rect x="514" y="946" width="36" height="36" fill="#000000"/><rect x="550" y="946" width="36" height="36" fill="#000000"/><rect x="1378" y="946" width="36" height="36" fill="#000000"/><rect x="1414" y="946" width="36" height="36" fill="#000000"/><rect x="1450" y="946" width="36" height="36" fill="#000000"/><rect x="1558" y="946" width="36" height="36" fill="#000000"/><rect x="1702" y="946" width="36" height="36" fill="#000000"/><rect x="1738" y="946" width="36" height="36" fill="#000000"/><rect x="154" y="982" width="36" height="36" fill="#000000"/><rect x="190" y="982" width="36" height="36" fill="#000000"/><rect x="262" y="982" width="36" height="36" fill="#000000"/><rect x="334" y="982" width="36" height="36" fill="#000000"/><rect x="406" y="982" width="36" height="36" fill="#000000"/><rect x="442" y="982" width="36" height="36" fill="#000000"/><rect x="478" y="982" width="36" height="36" fill="#000000"/><rect x="514" y="982" width="36" height="36" fill="#000000"/><rect x="550" y="982" width="36" height="36" fill="#000000"/><rect x="1414" y="982" width="36" height="36" fill="#000000"/><rect x="1486" y="982" width="36" height="36" fill="#000000"/><rect x="1558" y="982" width="36" height="36" fill="#000000"/><rect x="1630" y="982" width="36" height="36" fill="#000000"/><rect x="1702" y="982" width="36" height="36" fill="#000000"/><rect x="1738" y="982" width="36" height="36" fill="#000000"/><rect x="1774" y="982" width="36" height="36" fill="#000000"/><rect x="154" y="1018" width="36" height="36" fill="#000000"/><rect x="226" y="1018" width="36" height="36" fill="#000000"/><rect x="262" y="1018" width="36" height="36" fill="#000000"/><rect x="406" y="1018" width="36" height="36" fill="#000000"/><rect x="442" y="1018" width="36" height="36" fill="#000000"/><rect x="478" y="1018" width="36" height="36" fill="#000000"/><rect x="586" y="1018" width="36" height="36" fill="#000000"/><rect x="1450" y="1018" width="36" height="36" fill="#000000"/><rect x="1486" y="1018" width="36" height="36" fill="#000000"/><rect x="1522" y="1018" width="36" height="36" fill="#000000"/><rect x="1558" y="1018" width="36" height="36" fill="#000000"/><rect x="1702" y="1018" width="36" height="36" fill="#000000"/><rect x="1738" y="1018" width="36" height="36" fill="#000000"/><rect x="1810" y="1018" width="36" height="36" fill="#000000"/><rect x="1846" y="1018" width="36" height="36" fill="#000000"/><rect x="154" y="1054" width="36" height="36" fill="#000000"/><rect x="262" y="1054" width="36" height="36" fill="#000000"/><rect x="298" y="1054" width="36" height="36" fill="#000000"/><rect x="334" y="1054" width="36" height="36" fill="#000000"/><rect x="370" y="1054" width="36" height="36" fill="#000000"/><rect x="406" y="1054" width="36" height="36" fill="#000000"/><rect x="442" y="1054" width="36" height="36" fill="#000000"/><rect x="478" y="1054" width="36" height="36" fill="#000000"/><rect x="586" y="1054" width="36" height="36" fill="#000000"/><rect x="1378" y="1054" width="36" height="36" fill="#000000"/><rect x="1414" y="1054" width="36" height="36" fill="#000000"/><rect x="1450" y="1054" width="36" height="36" fill="#000000"/><rect x="1522" y="1054" width="36" height="36" fill="#000000"/><rect x="1558" y="1054" width="36" height="36" fill="#000000"/><rect x="1594" y="1054" width="36" height="36" fill="#000000"/><rect x="1630" y="1054" width="36" height="36" fill="#000000"/><rect x="1666" y="1054" width="36" height="36" fill="#000000"/><rect x="1702" y="1054" width="36" height="36" fill="#000000"/><rect x="1738" y="1054" width="36" height="36" fill="#000000"/><rect x="1774" y="1054" width="36" height="36" fill="#000000"/><rect x="1810" y="1054" width="36" height="36" fill="#000000"/><rect x="1846" y="1054" width="36" height="36" fill="#000000"/><rect x="118" y="1090" width="36" height="36" fill="#000000"/><rect x="154" y="1090" width="36" height="36" fill="#000000"/><rect x="298" y="1090" width="36" height="36" fill="#000000"/><rect x="406" y="1090" width="36" height="36" fill="#000000"/><rect x="514" y="1090" width="36" height="36" fill="#000000"/><rect x="1378" y="1090" width="36" height="36" fill="#000000"/><rect x="1558" y="1090" width="36" height="36" fill="#000000"/><rect x="1630" y="1090" width="36" height="36" fill="#000000"/><rect x="1666" y="1090" width="36" height="36" fill="#000000"/><rect x="1774" y="1090" width="36" height="36" fill="#000000"/><rect x="118" y="1126" width="36" height="36" fill="#000000"/><rect x="262" y="1126" width="36" height="36" fill="#000000"/><rect x="298" y="1126" width="36" height="36" fill="#000000"/><rect x="334" y="1126" width="36" height="36" fill="#000000"/><rect x="370" y="1126" width="36" height="36" fill="#000000"/><rect x="442" y="1126" width="36" height="36" fill="#000000"/><rect x="478" y="1126" width="36" height="36" fill="#000000"/><rect x="514" y="1126" width="36" height="36" fill="#000000"/><rect x="586" y="1126" width="36" height="36" fill="#000000"/><rect x="1378" y="1126" width="36" height="36" fill="#000000"/><rect x="1486" y="1126" width="36" height="36" fill="#000000"/><rect x="1630" y="1126" width="36" height="36" fill="#000000"/><rect x="1810" y="1126" width="36" height="36" fill="#000000"/><rect x="1846" y="1126" width="36" height="36" fill="#000000"/><rect x="118" y="1162" width="36" height="36" fill="#000000"/><rect x="370" y="1162" width="36" height="36" fill="#000000"/><rect x="478" y="1162" width="36" height="36" fill="#000000"/><rect x="514" y="1162" width="36" height="36" fill="#000000"/><rect x="550" y="1162" width="36" height="36" fill="#000000"/><rect x="1450" y="1162" width="36" height="36" fill="#000000"/><rect x="1486" y="1162" width="36" height="36" fill="#000000"/><rect x="1558" y="1162" width="36" height="36" fill="#000000"/><rect x="1666" y="1162" width="36" height="36" fill="#000000"/><rect x="1702" y="1162" width="36" height="36" fill="#000000"/><rect x="1846" y="1162" width="36" height="36" fill="#000000"/><rect x="190" y="1198" width="36" height="36" fill="#000000"/><rect x="298" y="1198" width="36" height="36" fill="#000000"/><rect x="334" y="1198" width="36" height="36" fill="#000000"/><rect x="406" y="1198" width="36" height="36" fill="#000000"/><rect x="550" y="1198" width="36" height="36" fill="#000000"/><rect x="1414" y="1198" width="36" height="36" fill="#000000"/><rect x="1450" y="1198" width="36" height="36" fill="#000000"/><rect x="1486" y="1198" width="36" height="36" fill="#000000"/><rect x="1522" y="1198" width="36" height="36" fill="#000000"/><rect x="1558" y="1198" width="36" height="36" fill="#000000"/><rect x="1594" y="1198" width="36" height="36" fill="#000000"/><rect x="1702" y="1198" width="36" height="36" fill="#000000"/><rect x="1738" y="1198" width="36" height="36" fill="#000000"/><rect x="1774" y="1198" width="36" height="36" fill="#000000"/><rect x="1810" y="1198" width="36" height="36" fill="#000000"/><rect x="118" y="1234" width="36" height="36" fill="#000000"/><rect x="154" y="1234" width="36" height="36" fill="#000000"/><rect x="298" y="1234" width="36" height="36" fill="#000000"/><rect x="370" y="1234" width="36" height="36" fill="#000000"/><rect x="514" y="1234" width="36" height="36" fill="#000000"/><rect x="1378" y="1234" width="36" height="36" fill="#000000"/><rect x="1414" y="1234" width="36" height="36" fill="#000000"/><rect x="1450" y="1234" width="36" height="36" fill="#000000"/><rect x="1522" y="1234" width="36" height="36" fill="#000000"/><rect x="1666" y="1234" width="36" height="36" fill="#000000"/><rect x="1738" y="1234" width="36" height="36" fill="#000000"/><rect x="190" y="1270" width="36" height="36" fill="#000000"/><rect x="226" y="1270" width="36" height="36" fill="#000000"/><rect x="262" y="1270" width="36" height="36" fill="#000000"/><rect x="298" y="1270" width="36" height="36" fill="#000000"/><rect x="334" y="1270" width="36" height="36" fill="#000000"/><rect x="442" y="1270" width="36" height="36" fill="#000000"/><rect x="514" y="1270" width="36" height="36" fill="#000000"/><rect x="1414" y="1270" width="36" height="36" fill="#000000"/><rect x="1486" y="1270" width="36" height="36" fill="#000000"/><rect x="1594" y="1270" width="36" height="36" fill="#000000"/><rect x="1630" y="1270" width="36" height="36" fill="#000000"/><rect x="1666" y="1270" width="36" height="36" fill="#000000"/><rect x="1774" y="1270" width="36" height="36" fill="#000000"/><rect x="1810" y="1270" width="36" height="36" fill="#000000"/><rect x="1846" y="1270" width="36" height="36" fill="#000000"/><rect x="118" y="1306" width="36" height="36" fill="#000000"/><rect x="154" y="1306" width="36" height="36" fill="#000000"/><rect x="190" y="1306" width="36" height="36" fill="#000000"/><rect x="370" y="1306" width="36" height="36" fill="#000000"/><rect x="406" y="1306" width="36" height="36" fill="#000000"/><rect x="442" y="1306" width="36" height="36" fill="#000000"/><rect x="478" y="1306" width="36" height="36" fill="#000000"/><rect x="514" y="1306" width="36" height="36" fill="#000000"/><rect x="550" y="1306" width="36" height="36" fill="#000000"/><rect x="1378" y="1306" width="36" height="36" fill="#000000"/><rect x="1414" y="1306" width="36" height="36" fill="#000000"/><rect x="1486" y="1306" width="36" height="36" fill="#000000"/><rect x="1558" y="1306" width="36" height="36" fill="#000000"/><rect x="1702" y="1306" width="36" height="36" fill="#000000"/><rect x="1846" y="1306" width="36" height="36" fill="#000000"/><rect x="226" y="1342" width="36" height="36" fill="#000000"/><rect x="262" y="1342" width="36" height="36" fill="#000000"/><rect x="334" y="1342" width="36" height="36" fill="#000000"/><rect x="442" y="1342" width="36" height="36" fill="#000000"/><rect x="550" y="1342" width="36" height="36" fill="#000000"/><rect x="1414" y="1342" width="36" height="36" fill="#000000"/><rect x="1522" y="1342" width="36" height="36" fill="#000000"/><rect x="1558" y="1342" width="36" height="36" fill="#000000"/><rect x="1630" y="1342" width="36" height="36" fill="#000000"/><rect x="1702" y="1342" width="36" height="36" fill="#000000"/><rect x="1774" y="1342" width="36" height="36" fill="#000000"/><rect x="1810" y="1342" width="36" height="36" fill="#000000"/><rect x="118" y="1378" width="36" height="36" fill="#000000"/><rect x="154" y="1378" width="36" height="36" fill="#000000"/><rect x="298" y="1378" width="36" height="36" fill="#000000"/><rect x="406" y="1378" width="36" height="36" fill="#000000"/><rect x="550" y="1378" width="36" height="36" fill="#000000"/><rect x="766" y="1378" width="36" height="36" fill="#000000"/><rect x="802" y="1378" width="36" height="36" fill="#000000"/><rect x="838" y="1378" width="36" height="36" fill="#000000"/><rect x="910" y="1378" width="36" height="36" fill="#000000"/><rect x="982" y="1378" width="36" height="36" fill="#000000"/><rect x="1018" y="1378" width="36" height="36" fill="#000000"/><rect x="1162" y="1378" width="36" height="36" fill="#000000"/><rect x="1198" y="1378" width="36" height="36" fill="#000000"/><rect x="1378" y="1378" width="36" height="36" fill="#000000"/><rect x="1414" y="1378" width="36" height="36" fill="#000000"/><rect x="1450" y="1378" width="36" height="36" fill="#000000"/><rect x="1594" y="1378" width="36" height="36" fill="#000000"/><rect x="1630" y="1378" width="36" height="36" fill="#000000"/><rect x="1666" y="1378" width="36" height="36" fill="#000000"/><rect x="1738" y="1378" width="36" height="36" fill="#000000"/><rect x="154" y="1414" width="36" height="36" fill="#000000"/><rect x="190" y="1414" width="36" height="36" fill="#000000"/><rect x="226" y="1414" width="36" height="36" fill="#000000"/><rect x="262" y="1414" width="36" height="36" fill="#000000"/><rect x="298" y="1414" width="36" height="36" fill="#000000"/><rect x="334" y="1414" width="36" height="36" fill="#000000"/><rect x="370" y="1414" width="36" height="36" fill="#000000"/><rect x="478" y="1414" width="36" height="36" fill="#000000"/><rect x="514" y="1414" width="36" height="36" fill="#000000"/><rect x="802" y="1414" width="36" height="36" fill="#000000"/><rect x="838" y="1414" width="36" height="36" fill="#000000"/><rect x="874" y="1414" width="36" height="36" fill="#000000"/><rect x="910" y="1414" width="36" height="36" fill="#000000"/><rect x="1018" y="1414" width="36" height="36" fill="#000000"/><rect x="1054" y="1414" width="36" height="36" fill="#000000"/><rect x="1234" y="1414" width="36" height="36" fill="#000000"/><rect x="1306" y="1414" width="36" height="36" fill="#000000"/><rect x="1342" y="1414" width="36" height="36" fill="#000000"/><rect x="1378" y="1414" width="36" height="36" fill="#000000"/><rect x="1414" y="1414" width="36" height="36" fill="#000000"/><rect x="1450" y="1414" width="36" height="36" fill="#000000"/><rect x="1486" y="1414" width="36" height="36" fill="#000000"/><rect x="1522" y="1414" width="36" height="36" fill="#000000"/><rect x="1594" y="1414" width="36" height="36" fill="#000000"/><rect x="1630" y="1414" width="36" height="36" fill="#000000"/><rect x="1774" y="1414" width="36" height="36" fill="#000000"/><rect x="1810" y="1414" width="36" height="36" fill="#000000"/><rect x="1846" y="1414" width="36" height="36" fill="#000000"/><rect x="118" y="1450" width="36" height="36" fill="#000000"/><rect x="226" y="1450" width="36" height="36" fill="#000000"/><rect x="262" y="1450" width="36" height="36" fill="#000000"/><rect x="370" y="1450" width="36" height="36" fill="#000000"/><rect x="406" y="1450" width="36" height="36" fill="#000000"/><rect x="442" y="1450" width="36" height="36" fill="#000000"/><rect x="514" y="1450" width="36" height="36" fill="#000000"/><rect x="550" y="1450" width="36" height="36" fill="#000000"/><rect x="694" y="1450" width="36" height="36" fill="#000000"/><rect x="730" y="1450" width="36" height="36" fill="#000000"/><rect x="874" y="1450" width="36" height="36" fill="#000000"/><rect x="910" y="1450" width="36" height="36" fill="#000000"/><rect x="946" y="1450" width="36" height="36" fill="#000000"/><rect x="1090" y="1450" width="36" height="36" fill="#000000"/><rect x="1126" y="1450" width="36" height="36" fill="#000000"/><rect x="1162" y="1450" width="36" height="36" fill="#000000"/><rect x="1234" y="1450" width="36" height="36" fill="#000000"/><rect x="1270" y="1450" width="36" height="36" fill="#000000"/><rect x="1450" y="1450" width="36" height="36" fill="#000000"/><rect x="1558" y="1450" width="36" height="36" fill="#000000"/><rect x="1666" y="1450" width="36" height="36" fill="#000000"/><rect x="154" y="1486" width="36" height="36" fill="#000000"/><rect x="298" y="1486" width="36" height="36" fill="#000000"/><rect x="334" y="1486" width="36" height="36" fill="#000000"/><rect x="370" y="1486" width="36" height="36" fill="#000000"/><rect x="406" y="1486" width="36" height="36" fill="#000000"/><rect x="550" y="1486" width="36" height="36" fill="#000000"/><rect x="658" y="1486" width="36" height="36" fill="#000000"/><rect x="694" y="1486" width="36" height="36" fill="#000000"/><rect x="730" y="1486" width="36" height="36" fill="#000000"/><rect x="766" y="1486" width="36" height="36" fill="#000000"/><rect x="802" y="1486" width="36" height="36" fill="#000000"/><rect x="874" y="1486" width="36" height="36" fill="#000000"/><rect x="946" y="1486" width="36" height="36" fill="#000000"/><rect x="1018" y="1486" width="36" height="36" fill="#000000"/><rect x="1054" y="1486" width="36" height="36" fill="#000000"/><rect x="1198" y="1486" width="36" height="36" fill="#000000"/><rect x="1234" y="1486" width="36" height="36" fill="#000000"/><rect x="1378" y="1486" width="36" height="36" fill="#000000"/><rect x="1414" y="1486" width="36" height="36" fill="#000000"/><rect x="1450" y="1486" width="36" height="36" fill="#000000"/><rect x="1486" y="1486" width="36" height="36" fill="#000000"/><rect x="1522" y="1486" width="36" height="36" fill="#000000"/><rect x="1594" y="1486" width="36" height="36" fill="#000000"/><rect x="1666" y="1486" width="36" height="36" fill="#000000"/><rect x="1702" y="1486" width="36" height="36" fill="#000000"/><rect x="1738" y="1486" width="36" height="36" fill="#000000"/><rect x="1774" y="1486" width="36" height="36" fill="#000000"/><rect x="1846" y="1486" width="36" height="36" fill="#000000"/><rect x="154" y="1522" width="36" height="36" fill="#000000"/><rect x="190" y="1522" width="36" height="36" fill="#000000"/><rect x="226" y="1522" width="36" height="36" fill="#000000"/><rect x="406" y="1522" width="36" height="36" fill="#000000"/><rect x="478" y="1522" width="36" height="36" fill="#000000"/><rect x="514" y="1522" width="36" height="36" fill="#000000"/><rect x="586" y="1522" width="36" height="36" fill="#000000"/><rect x="622" y="1522" width="36" height="36" fill="#000000"/><rect x="694" y="1522" width="36" height="36" fill="#000000"/><rect x="838" y="1522" width="36" height="36" fill="#000000"/><rect x="874" y="1522" width="36" height="36" fill="#000000"/><rect x="1162" y="1522" width="36" height="36" fill="#000000"/><rect x="1234" y="1522" width="36" height="36" fill="#000000"/><rect x="1342" y="1522" width="36" height="36" fill="#000000"/><rect x="1414" y="1522" width="36" height="36" fill="#000000"/><rect x="1450" y="1522" width="36" height="36" fill="#000000"/><rect x="1486" y="1522" width="36" height="36" fill="#000000"/><rect x="1522" y="1522" width="36" height="36" fill="#000000"/><rect x="1594" y="1522" width="36" height="36" fill="#000000"/><rect x="1666" y="1522" width="36" height="36" fill="#000000"/><rect x="1810" y="1522" width="36" height="36" fill="#000000"/><rect x="118" y="1558" width="36" height="36" fill="#000000"/><rect x="154" y="1558" width="36" height="36" fill="#000000"/><rect x="190" y="1558" width="36" height="36" fill="#000000"/><rect x="334" y="1558" width="36" height="36" fill="#000000"/><rect x="406" y="1558" width="36" height="36" fill="#000000"/><rect x="442" y="1558" width="36" height="36" fill="#000000"/><rect x="478" y="1558" width="36" height="36" fill="#000000"/><rect x="622" y="1558" width="36" height="36" fill="#000000"/><rect x="658" y="1558" width="36" height="36" fill="#000000"/><rect x="694" y="1558" width="36" height="36" fill="#000000"/><rect x="802" y="1558" width="36" height="36" fill="#000000"/><rect x="874" y="1558" width="36" height="36" fill="#000000"/><rect x="910" y="1558" width="36" height="36" fill="#000000"/><rect x="946" y="1558" width="36" height="36" fill="#000000"/><rect x="982" y="1558" width="36" height="36" fill="#000000"/><rect x="1018" y="1558" width="36" height="36" fill="#000000"/><rect x="1054" y="1558" width="36" height="36" fill="#000000"/><rect x="1090" y="1558" width="36" height="36" fill="#000000"/><rect x="1306" y="1558" width="36" height="36" fill="#000000"/><rect x="1342" y="1558" width="36" height="36" fill="#000000"/><rect x="1378" y="1558" width="36" height="36" fill="#000000"/><rect x="1414" y="1558" width="36" height="36" fill="#000000"/><rect x="1486" y="1558" width="36" height="36" fill="#000000"/><rect x="1522" y="1558" width="36" height="36" fill="#000000"/><rect x="1558" y="1558" width="36" height="36" fill="#000000"/><rect x="1594" y="1558" width="36" height="36" fill="#000000"/><rect x="1630" y="1558" width="36" height="36" fill="#000000"/><rect x="1666" y="1558" width="36" height="36" fill="#000000"/><rect x="1702" y="1558" width="36" height="36" fill="#000000"/><rect x="1774" y="1558" width="36" height="36" fill="#000000"/><rect x="1810" y="1558" width="36" height="36" fill="#000000"/><rect x="1846" y="1558" width="36" height="36" fill="#000000"/><rect x="406" y="1594" width="36" height="36" fill="#000000"/><rect x="442" y="1594" width="36" height="36" fill="#000000"/><rect x="478" y="1594" width="36" height="36" fill="#000000"/><rect x="586" y="1594" width="36" height="36" fill="#000000"/><rect x="622" y="1594" width="36" height="36" fill="#000000"/><rect x="658" y="1594" width="36" height="36" fill="#000000"/><rect x="694" y="1594" width="36" height="36" fill="#000000"/><rect x="730" y="1594" width="36" height="36" fill="#000000"/><rect x="766" y="1594" width="36" height="36" fill="#000000"/><rect x="802" y="1594" width="36" height="36" fill="#000000"/><rect x="910" y="1594" width="36" height="36" fill="#000000"/><rect x="1054" y="1594" width="36" height="36" fill="#000000"/><rect x="1090" y="1594" width="36" height="36" fill="#000000"/><rect x="1126" y="1594" width="36" height="36" fill="#000000"/><rect x="1162" y="1594" width="36" height="36" fill="#000000"/><rect x="1270" y="1594" width="36" height="36" fill="#000000"/><rect x="1342" y="1594" width="36" height="36" fill="#000000"/><rect x="1378" y="1594" width="36" height="36" fill="#000000"/><rect x="1450" y="1594" width="36" height="36" fill="#000000"/><rect x="1486" y="1594" width="36" height="36" fill="#000000"/><rect x="1558" y="1594" width="36" height="36" fill="#000000"/><rect x="1702" y="1594" width="36" height="36" fill="#000000"/><rect x="1810" y="1594" width="36" height="36" fill="#000000"/><rect x="1846" y="1594" width="36" height="36" fill="#000000"/><rect x="406" y="1630" width="36" height="36" fill="#000000"/><rect x="478" y="1630" width="36" height="36" fill="#000000"/><rect x="586" y="1630" width="36" height="36" fill="#000000"/><rect x="802" y="1630" width="36" height="36" fill="#000000"/><rect x="838" y="1630" width="36" height="36" fill="#000000"/><rect x="874" y="1630" width="36" height="36" fill="#000000"/><rect x="910" y="1630" width="36" height="36" fill="#000000"/><rect x="982" y="1630" width="36" height="36" fill="#000000"/><rect x="1054" y="1630" width="36" height="36" fill="#000000"/><rect x="1198" y="1630" width="36" height="36" fill="#000000"/><rect x="1234" y="1630" width="36" height="36" fill="#000000"/><rect x="1306" y="1630" width="36" height="36" fill="#000000"/><rect x="1378" y="1630" width="36" height="36" fill="#000000"/><rect x="1414" y="1630" width="36" height="36" fill="#000000"/><rect x="1558" y="1630" width="36" height="36" fill="#000000"/><rect x="1630" y="1630" width="36" height="36" fill="#000000"/><rect x="1702" y="1630" width="36" height="36" fill="#000000"/><rect x="1738" y="1630" width="36" height="36" fill="#000000"/><rect x="1774" y="1630" width="36" height="36" fill="#000000"/><rect x="1810" y="1630" width="36" height="36" fill="#000000"/><rect x="1846" y="1630" width="36" height="36" fill="#000000"/><rect x="406" y="1666" width="36" height="36" fill="#000000"/><rect x="442" y="1666" width="36" height="36" fill="#000000"/><rect x="478" y="1666" width="36" height="36" fill="#000000"/><rect x="550" y="1666" width="36" height="36" fill="#000000"/><rect x="586" y="1666" width="36" height="36" fill="#000000"/><rect x="622" y="1666" width="36" height="36" fill="#000000"/><rect x="658" y="1666" width="36" height="36" fill="#000000"/><rect x="694" y="1666" width="36" height="36" fill="#000000"/><rect x="766" y="1666" width="36" height="36" fill="#000000"/><rect x="838" y="1666" width="36" height="36" fill="#000000"/><rect x="874" y="1666" width="36" height="36" fill="#000000"/><rect x="910" y="1666" width="36" height="36" fill="#000000"/><rect x="1054" y="1666" width="36" height="36" fill="#000000"/><rect x="1090" y="1666" width="36" height="36" fill="#000000"/><rect x="1162" y="1666" width="36" height="36" fill="#000000"/><rect x="1198" y="1666" width="36" height="36" fill="#000000"/><rect x="1234" y="1666" width="36" height="36" fill="#000000"/><rect x="1378" y="1666" width="36" height="36" fill="#000000"/><rect x="1414" y="1666" width="36" height="36" fill="#000000"/><rect x="1558" y="1666" width="36" height="36" fill="#000000"/><rect x="1702" y="1666" width="36" height="36" fill="#000000"/><rect x="1738" y="1666" width="36" height="36" fill="#000000"/><rect x="1774" y="1666" width="36" height="36" fill="#000000"/><rect x="406" y="1702" width="36" height="36" fill="#000000"/><rect x="514" y="1702" width="36" height="36" fill="#000000"/><rect x="550" y="1702" width="36" height="36" fill="#000000"/><rect x="586" y="1702" width="36" height="36" fill="#000000"/><rect x="622" y="1702" width="36" height="36" fill="#000000"/><rect x="910" y="1702" width="36" height="36" fill="#000000"/><rect x="946" y="1702" width="36" height="36" fill="#000000"/><rect x="982" y="1702" width="36" height="36" fill="#000000"/><rect x="1018" y="1702" width="36" height="36" fill="#000000"/><rect x="1054" y="1702" width="36" height="36" fill="#000000"/><rect x="1126" y="1702" width="36" height="36" fill="#000000"/><rect x="1306" y="1702" width="36" height="36" fill="#000000"/><rect x="1342" y="1702" width="36" height="36" fill="#000000"/><rect x="1414" y="1702" width="36" height="36" fill="#000000"/><rect x="1486" y="1702" width="36" height="36" fill="#000000"/><rect x="1522" y="1702" width="36" height="36" fill="#000000"/><rect x="1558" y="1702" width="36" height="36" fill="#000000"/><rect x="1594" y="1702" width="36" height="36" fill="#000000"/><rect x="1630" y="1702" width="36" height="36" fill="#000000"/><rect x="1666" y="1702" width="36" height="36" fill="#000000"/><rect x="1702" y="1702" width="36" height="36" fill="#000000"/><rect x="1738" y="1702" width="36" height="36" fill="#000000"/><rect x="1810" y="1702" width="36" height="36" fill="#000000"/><rect x="1846" y="1702" width="36" height="36" fill="#000000"/><rect x="406" y="1738" width="36" height="36" fill="#000000"/><rect x="442" y="1738" width="36" height="36" fill="#000000"/><rect x="514" y="1738" width="36" height="36" fill="#000000"/><rect x="550" y="1738" width="36" height="36" fill="#000000"/><rect x="586" y="1738" width="36" height="36" fill="#000000"/><rect x="622" y="1738" width="36" height="36" fill="#000000"/><rect x="658" y="1738" width="36" height="36" fill="#000000"/><rect x="730" y="1738" width="36" height="36" fill="#000000"/><rect x="838" y="1738" width="36" height="36" fill="#000000"/><rect x="874" y="1738" width="36" height="36" fill="#000000"/><rect x="910" y="1738" width="36" height="36" fill="#000000"/><rect x="982" y="1738" width="36" height="36" fill="#000000"/><rect x="1018" y="1738" width="36" height="36" fill="#000000"/><rect x="1054" y="1738" width="36" height="36" fill="#000000"/><rect x="1090" y="1738" width="36" height="36" fill="#000000"/><rect x="1126" y="1738" width="36" height="36" fill="#000000"/><rect x="1270" y="1738" width="36" height="36" fill="#000000"/><rect x="1450" y="1738" width="36" height="36" fill="#000000"/><rect x="1486" y="1738" width="36" height="36" fill="#000000"/><rect x="1522" y="1738" width="36" height="36" fill="#000000"/><rect x="1594" y="1738" width="36" height="36" fill="#000000"/><rect x="1630" y="1738" width="36" height="36" fill="#000000"/><rect x="1810" y="1738" width="36" height="36" fill="#000000"/><rect x="1846" y="1738" width="36" height="36" fill="#000000"/><rect x="406" y="1774" width="36" height="36" fill="#000000"/><rect x="478" y="1774" width="36" height="36" fill="#000000"/><rect x="550" y="1774" width="36" height="36" fill="#000000"/><rect x="586" y="1774" width="36" height="36" fill="#000000"/><rect x="658" y="1774" width="36" height="36" fill="#000000"/><rect x="694" y="1774" width="36" height="36" fill="#000000"/><rect x="766" y="1774" width="36" height="36" fill="#000000"/><rect x="838" y="1774" width="36" height="36" fill="#000000"/><rect x="910" y="1774" width="36" height="36" fill="#000000"/><rect x="946" y="1774" width="36" height="36" fill="#000000"/><rect x="982" y="1774" width="36" height="36" fill="#000000"/><rect x="1018" y="1774" width="36" height="36" fill="#000000"/><rect x="1198" y="1774" width="36" height="36" fill="#000000"/><rect x="1234" y="1774" width="36" height="36" fill="#000000"/><rect x="1342" y="1774" width="36" height="36" fill="#000000"/><rect x="1378" y="1774" width="36" height="36" fill="#000000"/><rect x="1414" y="1774" width="36" height="36" fill="#000000"/><rect x="1450" y="1774" width="36" height="36" fill="#000000"/><rect x="1486" y="1774" width="36" height="36" fill="#000000"/><rect x="1522" y="1774" width="36" height="36" fill="#000000"/><rect x="1594" y="1774" width="36" height="36" fill="#000000"/><rect x="1666" y="1774" width="36" height="36" fill="#000000"/><rect x="1774" y="1774" width="36" height="36" fill="#000000"/><rect x="1846" y="1774" width="36" height="36" fill="#000000"/><rect x="406" y="1810" width="36" height="36" fill="#000000"/><rect x="478" y="1810" width="36" height="36" fill="#000000"/><rect x="586" y="1810" width="36" height="36" fill="#000000"/><rect x="622" y="1810" width="36" height="36" fill="#000000"/><rect x="694" y="1810" width="36" height="36" fill="#000000"/><rect x="730" y="1810" width="36" height="36" fill="#000000"/><rect x="802" y="1810" width="36" height="36" fill="#000000"/><rect x="874" y="1810" width="36" height="36" fill="#000000"/><rect x="946" y="1810" width="36" height="36" fill="#000000"/><rect x="1018" y="1810" width="36" height="36" fill="#000000"/><rect x="1126" y="1810" width="36" height="36" fill="#000000"/><rect x="1162" y="1810" width="36" height="36" fill="#000000"/><rect x="1198" y="1810" width="36" height="36" fill="#000000"/><rect x="1234" y="1810" width="36" height="36" fill="#000000"/><rect x="1270" y="1810" width="36" height="36" fill="#000000"/><rect x="1522" y="1810" width="36" height="36" fill="#000000"/><rect x="1594" y="1810" width="36" height="36" fill="#000000"/><rect x="1630" y="1810" width="36" height="36" fill="#000000"/><rect x="1666" y="1810" width="36" height="36" fill="#000000"/><rect x="1702" y="1810" width="36" height="36" fill="#000000"/><rect x="1810" y="1810" width="36" height="36" fill="#000000"/><rect x="514" y="1846" width="36" height="36" fill="#000000"/><rect x="622" y="1846" width="36" height="36" fill="#000000"/><rect x="658" y="1846" width="36" height="36" fill="#000000"/><rect x="802" y="1846" width="36" height="36" fill="#000000"/><rect x="838" y="1846" width="36" height="36" fill="#000000"/><rect x="946" y="1846" width="36" height="36" fill="#000000"/><rect x="982" y="1846" width="36" height="36" fill="#000000"/><rect x="1018" y="1846" width="36" height="36" fill="#000000"/><rect x="1126" y="1846" width="36" height="36" fill="#000000"/><rect x="1342" y="1846" width="36" height="36" fill="#000000"/><rect x="1378" y="1846" width="36" height="36" fill="#000000"/><rect x="1486" y="1846" width="36" height="36" fill="#000000"/><rect x="1522" y="1846" width="36" height="36" fill="#000000"/><rect x="1630" y="1846" width="36" height="36" fill="#000000"/><rect x="1666" y="1846" width="36" height="36" fill="#000000"/><rect x="1738" y="1846" width="36" height="36" fill="#000000"/><rect x="1810" y="1846" width="36" height="36" fill="#000000"/><rect x="1846" y="1846" width="36" height="36" fill="#000000"/><svg version="1.1" id="Ebene_1" x="118" y="118" viewBox="0 0 700 700" style="enable-background:new 0 0 700 700;" xml:space="preserve" width="252" height="252" shape-rendering="auto">

<path fill="#000000" d="M21.2-0.1C9.5-0.1-0.1,9.5-0.1,21.2v78.8v100v100v100v100v100v78.8c0,11.7,9.5,21.3,21.3,21.3h657.6  c11.7,0,21.3-9.5,21.3-21.3V600V500V400V300V200v-100V21.2c0-11.7-9.5-21.3-21.3-21.3H21.2z M600,200v100v100v100v87.8  c0,6.8-5.5,12.2-12.2,12.2H112.2c-6.8,0-12.2-5.5-12.2-12.2V500V400V300V200v-87.8c0-6.8,5.5-12.2,12.2-12.2h475.6  c6.8,0,12.2,5.5,12.2,12.2V200z"/>
</svg>
<svg version="1.1" id="Ebene_1" x="118" y="118" viewBox="0 0 700 700" style="enable-background:new 0 0 700 700;" xml:space="preserve" width="252" height="252" shape-rendering="auto">

<path fill="#000000" d="M500,400V300v-78.8c0-11.7-9.5-21.3-21.3-21.3H221.2c-11.7,0-21.3,9.5-21.3,21.3V300v100v78.8    c0,11.7,9.5,21.3,21.3,21.3h257.5c11.7,0,21.3-9.5,21.3-21.3V400z"/>
</svg>
<svg version="1.1" id="Ebene_1" x="1630" y="118" viewBox="0 0 700 700" style="enable-background:new 0 0 700 700;" xml:space="preserve" width="252" height="252" shape-rendering="auto">

<path fill="#000000" d="M21.2-0.1C9.5-0.1-0.1,9.5-0.1,21.2v78.8v100v100v100v100v100v78.8c0,11.7,9.5,21.3,21.3,21.3h657.6  c11.7,0,21.3-9.5,21.3-21.3V600V500V400V300V200v-100V21.2c0-11.7-9.5-21.3-21.3-21.3H21.2z M600,200v100v100v100v87.8  c0,6.8-5.5,12.2-12.2,12.2H112.2c-6.8,0-12.2-5.5-12.2-12.2V500V400V300V200v-87.8c0-6.8,5.5-12.2,12.2-12.2h475.6  c6.8,0,12.2,5.5,12.2,12.2V200z"/>
</svg>
<svg version="1.1" id="Ebene_1" x="1630" y="118" viewBox="0 0 700 700" style="enable-background:new 0 0 700 700;" xml:space="preserve" width="252" height="252" shape-rendering="auto">

<path fill="#000000" d="M500,400V300v-78.8c0-11.7-9.5-21.3-21.3-21.3H221.2c-11.7,0-21.3,9.5-21.3,21.3V300v100v78.8    c0,11.7,9.5,21.3,21.3,21.3h257.5c11.7,0,21.3-9.5,21.3-21.3V400z"/>
</svg>
<svg version="1.1" id="Ebene_1" x="118" y="1630" viewBox="0 0 700 700" style="enable-background:new 0 0 700 700;" xml:space="preserve" width="252" height="252" shape-rendering="auto">

<path fill="#000000" d="M21.2-0.1C9.5-0.1-0.1,9.5-0.1,21.2v78.8v100v100v100v100v100v78.8c0,11.7,9.5,21.3,21.3,21.3h657.6  c11.7,0,21.3-9.5,21.3-21.3V600V500V400V300V200v-100V21.2c0-11.7-9.5-21.3-21.3-21.3H21.2z M600,200v100v100v100v87.8  c0,6.8-5.5,12.2-12.2,12.2H112.2c-6.8,0-12.2-5.5-12.2-12.2V500V400V300V200v-87.8c0-6.8,5.5-12.2,12.2-12.2h475.6  c6.8,0,12.2,5.5,12.2,12.2V200z"/>
</svg>
<svg version="1.1" id="Ebene_1" x="118" y="1630" viewBox="0 0 700 700" style="enable-background:new 0 0 700 700;" xml:space="preserve" width="252" height="252" shape-rendering="auto">

<path fill="#000000" d="M500,400V300v-78.8c0-11.7-9.5-21.3-21.3-21.3H221.2c-11.7,0-21.3,9.5-21.3,21.3V300v100v78.8    c0,11.7,9.5,21.3,21.3,21.3h257.5c11.7,0,21.3-9.5,21.3-21.3V400z"/>
</svg>
<svg version="1.0" id="Layer_1" x="640" y="640" viewBox="0 0 700 700" enable-background="new 0 0 700 700" xml:space="preserve" width="720" height="720" shape-rendering="auto">
<g>
	<g>
		<g>
			<path fill="#000000" d="M172.3,220.5c0-5.7-2-10.3-6.1-13.8c-4-3.5-11.1-6.7-21.3-9.8c-17.7-5.1-31-11.1-40.1-18.1     s-13.6-16.6-13.6-28.7s5.2-22.1,15.6-29.8c10.4-7.7,23.6-11.6,39.7-11.6c16.3,0,29.6,4.3,39.9,13c10.3,8.7,15.2,19.3,14.9,32.1     l-0.2,0.6h-28.8c0-6.9-2.3-12.4-6.9-16.7c-4.6-4.2-11-6.4-19.3-6.4c-8,0-14.1,1.8-18.5,5.3c-4.3,3.5-6.5,8.1-6.5,13.6     c0,5,2.3,9.2,7,12.4c4.7,3.2,12.7,6.6,24.1,10.2c16.4,4.6,28.8,10.6,37.2,18s12.6,17.3,12.6,29.5c0,12.7-5,22.7-15,30.1     c-10,7.3-23.3,11-39.7,11c-16.2,0-30.3-4.2-42.3-12.5c-12-8.3-17.9-20-17.5-35l0.2-0.6h29c0,8.8,2.7,15.3,8.1,19.4     c5.4,4.1,12.9,6.2,22.6,6.2c8.1,0,14.3-1.7,18.6-5C170.2,230.6,172.3,226.1,172.3,220.5z"/>
			<path fill="#000000" d="M336.7,208.7l0.2,0.6c0.3,16-4.6,28.6-14.6,38c-10,9.4-23.9,14.1-41.7,14.1c-17.9,0-32.4-5.7-43.5-17.2     s-16.7-26.3-16.7-44.3v-29.5c0-18,5.4-32.8,16.3-44.3s25-17.3,42.4-17.3c18.3,0,32.7,4.7,43,14.1c10.3,9.4,15.4,22.2,15.1,38.5     l-0.2,0.6h-29c0-9.8-2.3-17.3-7-22.5c-4.7-5.2-12-7.8-21.9-7.8c-8.9,0-16,3.6-21.2,10.8c-5.2,7.2-7.8,16.4-7.8,27.7v29.6     c0,11.3,2.8,20.6,8.3,27.9c5.5,7.2,12.9,10.8,22.3,10.8c9.3,0,16.2-2.5,20.6-7.5c4.4-5,6.7-12.4,6.7-22.3H336.7z"/>
			<path fill="#000000" d="M437.7,227.3h-52.1l-10.1,32h-30.1l51.1-148.4H427l50.9,148.4h-30.1L437.7,227.3z M392.9,203.9h37.4     L412,145.6h-0.6L392.9,203.9z"/>
			<path fill="#000000" d="M611.7,259.3H582l-59.9-101.4l-0.6,0.1v101.3h-29.8V110.9h29.8l59.9,101.3l0.6-0.1V110.9h29.7V259.3z"/>
		</g>
		<g>
			<path fill="#000000" d="M135.3,314.8l88.1,224.6h1.1l88.1-224.6h47.8v276.5h-37.4V481.9l3.8-112.4l-0.9-0.2l-89.6,222h-24.9     l-89.2-221.4l-0.9,0.2l3.6,111.8v109.4H87.5V314.8H135.3z"/>
			<path fill="#000000" d="M593.1,463.1H466.5v98.7h146v29.4H429.1V314.8h181.3v29.4H466.5v89.4h126.6V463.1z"/>
		</g>
	</g>
</g>
</svg>
</svg>

	<path id="FrameBody" class="frame-color" d="M265.4,0H13.7C6.1,0,0,6.1,0,13.7v251.6c0,7.6,6.2,13.7,13.7,13.7h251.6c7.6,0,13.7-6.1,13.8-13.6V13.7
	C279.1,6.1,272.9,0,265.4,0z M268.5,261.1c0,4.1-3.3,7.4-7.4,7.4H17.9c-4.1,0-7.4-3.3-7.4-7.4V17.9c0-4.1,3.3-7.4,7.4-7.4h243.2
	c4.1,0,7.4,3.3,7.4,7.4V261.1z"/>
	<svg id="TextArea" x="0" y="275" width="279" height="90" viewBox="0 0 139.2294921875 17.588541666667" preserveAspectRatio="xMidYMid meet">
<svg version="1.1" xmlns="http://www.w3.org/2000/svg"><path class="frame-color" fill="#FFFFFF" d=" M8.37890625,11.09130859375q0,1.02587890625-0.7412109375,1.61669921875t-2.0625,0.5908203125q-1.396484375,0-2.1591796875-0.37060546875l0-0.9453125q0.49951171875,0.21484375,1.093017578125,0.33837890625t1.109130859375,0.12353515625q0.880859375,0,1.32666015625-0.33837890625t0.44580078125-0.92919921875q0-0.39208984375-0.1611328125-0.64453125t-0.539794921875-0.47265625t-1.146728515625-0.49951171875q-1.09033203125-0.3974609375-1.5576171875-0.937255859375t-0.46728515625-1.393798828125q0-0.91845703125,0.690185546875-1.4609375t1.818115234375-0.54248046875q1.17626953125,0,2.16455078125,0.4404296875l-0.30615234375,0.8486328125q-1.009765625-0.4189453125-1.8798828125-0.4189453125q-0.6982421875,0-1.093017578125,0.30078125t-0.394775390625,0.84326171875q0,0.38671875,0.153076171875,0.641845703125t0.494140625,0.464599609375t1.071533203125,0.47802734375q0.87548828125,0.322265625,1.30517578125,0.625732421875t0.6337890625,0.6982421875t0.2041015625,0.942626953125z M10.7958984375,13.19140625l-0.966796875,0l0-5.8974609375l0.966796875,0l0,5.8974609375z M9.75390625,5.69873046875q0-0.322265625,0.163818359375-0.46728515625t0.405517578125-0.14501953125q0.2255859375,0,0.394775390625,0.14501953125t0.169189453125,0.46728515625q0,0.31689453125-0.169189453125,0.46728515625t-0.394775390625,0.150390625q-0.24169921875,0-0.405517578125-0.150390625t-0.163818359375-0.46728515625z M16.50537109375,11.56396484375q0,0.8271484375-0.61767578125,1.281005859375t-1.73486328125,0.453857421875q-1.16552734375,0-1.85302734375-0.37060546875l0-0.880859375q0.97216796875,0.47265625,1.87451171875,0.47265625q0.73046875,0,1.0634765625-0.236328125t0.3330078125-0.6337890625q0-0.34912109375-0.319580078125-0.5908203125t-1.135986328125-0.55322265625q-0.83251953125-0.322265625-1.1708984375-0.550537109375t-0.496826171875-0.512939453125t-0.158447265625-0.69287109375q0-0.72509765625,0.5908203125-1.14404296875t1.6220703125-0.4189453125q1.00439453125,0,1.8798828125,0.3974609375l-0.32763671875,0.76806640625q-0.89697265625-0.3759765625-1.61669921875-0.3759765625q-0.6015625,0-0.9130859375,0.190673828125t-0.3115234375,0.523681640625q0,0.322265625,0.2685546875,0.534423828125t1.25146484375,0.588134765625q0.73583984375,0.27392578125,1.087646484375,0.51025390625t0.518310546875,0.53173828125t0.16650390625,0.708984375z M19.9052734375,12.50927734375q0.18798828125,0,0.4404296875-0.03759765625t0.38134765625-0.0859375l0,0.7412109375q-0.13427734375,0.05908203125-0.416259765625,0.115478515625t-0.572021484375,0.056396484375q-1.7294921875,0-1.7294921875-1.82080078125l0-3.43212890625l-0.83251953125,0l0-0.4619140625l0.84326171875-0.38671875l0.38671875-1.2568359375l0.57470703125,0l0,1.353515625l1.70263671875,0l0,0.751953125l-1.70263671875,0l0,3.4052734375q0,0.51025390625,0.244384765625,0.7841796875t0.679443359375,0.27392578125z M24.41162109375,13.298828125q-1.32666015625,0-2.081298828125-0.802978515625t-0.754638671875-2.210205078125q0-1.41796875,0.70361328125-2.258544921875t1.9013671875-0.840576171875q1.11181640625,0,1.7724609375,0.717041015625t0.66064453125,1.941650390625l0,0.58544921875l-4.0390625,0q0.02685546875,1.00439453125,0.51025390625,1.525390625t1.36962890625,0.52099609375q0.47265625,0,0.89697265625-0.083251953125t0.99365234375-0.324951171875l0,0.8486328125q-0.48876953125,0.20947265625-0.91845703125,0.29541015625t-1.01513671875,0.0859375z M24.169921875,7.97607421875q-0.69287109375,0-1.095703125,0.44580078125t-0.47802734375,1.24072265625l3.00244140625,0q-0.0107421875-0.8271484375-0.38134765625-1.2568359375t-1.04736328125-0.4296875z M30.85693359375,7.1865234375q0.39208984375,0,0.69287109375,0.064453125l-0.1181640625,0.8916015625q-0.32763671875-0.0751953125-0.63916015625-0.0751953125q-0.46728515625,0-0.867431640625,0.2578125t-0.625732421875,0.711669921875t-0.2255859375,1.007080078125l0,3.1474609375l-0.966796875,0l0-5.8974609375l0.794921875,0l0.107421875,1.07958984375l0.04296875,0q0.33837890625-0.58544921875,0.80029296875-0.88623046875t1.00439453125-0.30078125z  M42.5712890625,13.19140625l-0.9990234375,0l-1.53076171875-5.1455078125q-0.33837890625-1.1494140625-0.3974609375-1.55224609375q-0.0859375,0.61767578125-0.3759765625,1.58447265625l-1.482421875,5.11328125l-0.9990234375,0l-2.07861328125-7.8525390625l1.03125,0l1.21923828125,4.79638671875q0.2470703125,0.93994140625,0.3759765625,1.869140625q0.1181640625-0.880859375,0.4189453125-1.92822265625l1.3857421875-4.7373046875l1.0205078125,0l1.44482421875,4.77490234375q0.279296875,0.92919921875,0.4296875,1.890625q0.0859375-0.7412109375,0.38134765625-1.8798828125l1.2138671875-4.78564453125l1.03125,0z M48.24853515625,13.298828125q-1.32666015625,0-2.081298828125-0.802978515625t-0.754638671875-2.210205078125q0-1.41796875,0.70361328125-2.258544921875t1.9013671875-0.840576171875q1.11181640625,0,1.7724609375,0.717041015625t0.66064453125,1.941650390625l0,0.58544921875l-4.0390625,0q0.02685546875,1.00439453125,0.51025390625,1.525390625t1.36962890625,0.52099609375q0.47265625,0,0.89697265625-0.083251953125t0.99365234375-0.324951171875l0,0.8486328125q-0.48876953125,0.20947265625-0.91845703125,0.29541015625t-1.01513671875,0.0859375z M48.0068359375,7.97607421875q-0.69287109375,0-1.095703125,0.44580078125t-0.47802734375,1.24072265625l3.00244140625,0q-0.0107421875-0.8271484375-0.38134765625-1.2568359375t-1.04736328125-0.4296875z M54.033203125,13.298828125q-1.1494140625,0-1.783203125-0.794921875t-0.6337890625-2.25048828125q0-1.44482421875,0.636474609375-2.255859375t1.791259765625-0.81103515625q1.18701171875,0,1.826171875,0.8701171875l0.06982421875,0q-0.01611328125-0.107421875-0.04296875-0.432373046875t-0.02685546875-0.437744140625l0-2.3525390625l0.966796875,0l0,8.357421875l-0.77880859375,0l-0.14501953125-0.78955078125l-0.04296875,0q-0.61767578125,0.89697265625-1.8369140625,0.89697265625z M54.18896484375,12.49853515625q0.880859375,0,1.286376953125-0.480712890625t0.405517578125-1.576416015625l0-0.17724609375q0-1.22998046875-0.410888671875-1.753662109375t-1.291748046875-0.523681640625q-0.74658203125,0-1.15478515625,0.593505859375t-0.408203125,1.694580078125q0,1.095703125,0.405517578125,1.65966796875t1.168212890625,0.56396484375z M60.95654296875,12.50927734375q0.8916015625,0,1.297119140625-0.480712890625t0.405517578125-1.544189453125l0-0.23095703125q0-1.181640625-0.408203125-1.71875t-1.31591796875-0.537109375q-0.7412109375,0-1.146728515625,0.588134765625t-0.405517578125,1.678466796875q0,1.095703125,0.394775390625,1.67041015625t1.178955078125,0.57470703125z M62.6484375,13.1376953125l0.0322265625-0.72509765625l-0.04296875,0q-0.59619140625,0.88623046875-1.826171875,0.88623046875q-1.14404296875,0-1.785888671875-0.797607421875t-0.641845703125-2.247802734375q0-1.42333984375,0.647216796875-2.2451171875t1.769775390625-0.82177734375q1.19775390625,0,1.84765625,0.8916015625l0.05908203125,0l0.12890625-0.7841796875l0.76806640625,0l0,5.994140625q0,1.267578125-0.641845703125,1.90673828125t-1.995361328125,0.63916015625q-1.2890625,0-2.12158203125-0.3759765625l0-0.8916015625q0.859375,0.4619140625,2.17529296875,0.4619140625q0.751953125,0,1.189697265625-0.4404296875t0.437744140625-1.21923828125l0-0.23095703125z M67.9873046875,13.298828125q-1.32666015625,0-2.081298828125-0.802978515625t-0.754638671875-2.210205078125q0-1.41796875,0.70361328125-2.258544921875t1.9013671875-0.840576171875q1.11181640625,0,1.7724609375,0.717041015625t0.66064453125,1.941650390625l0,0.58544921875l-4.0390625,0q0.02685546875,1.00439453125,0.51025390625,1.525390625t1.36962890625,0.52099609375q0.47265625,0,0.89697265625-0.083251953125t0.99365234375-0.324951171875l0,0.8486328125q-0.48876953125,0.20947265625-0.91845703125,0.29541015625t-1.01513671875,0.0859375z M67.74560546875,7.97607421875q-0.69287109375,0-1.095703125,0.44580078125t-0.47802734375,1.24072265625l3.00244140625,0q-0.0107421875-0.8271484375-0.38134765625-1.2568359375t-1.04736328125-0.4296875z M71.28515625,10.376953125l0-0.90234375l2.6640625,0l0,0.90234375l-2.6640625,0z M73.18115234375,6.3486328125z M78.0419921875,13.19140625l-0.99365234375,0l0-6.982421875l-2.45458984375,0l0-0.8701171875l5.88671875,0l0,0.8701171875l-2.4384765625,0l0,6.982421875z M85.18017578125,13.19140625l-0.18798828125-0.837890625l-0.04296875,0q-0.4404296875,0.55322265625-0.878173828125,0.749267578125t-1.103759765625,0.196044921875q-0.8701171875,0-1.3642578125-0.45654296875t-0.494140625-1.2890625q0-1.7939453125,2.83056640625-1.8798828125l0.9990234375-0.03759765625l0-0.34912109375q0-0.67138671875-0.2900390625-0.990966796875t-0.92919921875-0.319580078125q-0.46728515625,0-0.883544921875,0.1396484375t-0.781494140625,0.3115234375l-0.29541015625-0.72509765625q0.44580078125-0.236328125,0.97216796875-0.37060546875t1.0419921875-0.13427734375q1.06884765625,0,1.58984375,0.47265625t0.52099609375,1.50390625l0,4.017578125l-0.70361328125,0z M83.1875,12.52001953125q0.81103515625,0,1.275634765625-0.437744140625t0.464599609375-1.243408203125l0-0.53173828125l-0.8701171875,0.03759765625q-1.01513671875,0.03759765625-1.479736328125,0.322265625t-0.464599609375,0.89697265625q0,0.4619140625,0.281982421875,0.708984375t0.792236328125,0.2470703125z M88.6767578125,13.19140625l-0.966796875,0l0-5.8974609375l0.966796875,0l0,5.8974609375z M87.634765625,5.69873046875q0-0.322265625,0.163818359375-0.46728515625t0.405517578125-0.14501953125q0.2255859375,0,0.394775390625,0.14501953125t0.169189453125,0.46728515625q0,0.31689453125-0.169189453125,0.46728515625t-0.394775390625,0.150390625q-0.24169921875,0-0.405517578125-0.150390625t-0.163818359375-0.46728515625z M91.5126953125,13.19140625l-0.966796875,0l0-8.357421875l0.966796875,0l0,8.357421875z M95.89013671875,13.298828125q-1.32666015625,0-2.081298828125-0.802978515625t-0.754638671875-2.210205078125q0-1.41796875,0.70361328125-2.258544921875t1.9013671875-0.840576171875q1.11181640625,0,1.7724609375,0.717041015625t0.66064453125,1.941650390625l0,0.58544921875l-4.0390625,0q0.02685546875,1.00439453125,0.51025390625,1.525390625t1.36962890625,0.52099609375q0.47265625,0,0.89697265625-0.083251953125t0.99365234375-0.324951171875l0,0.8486328125q-0.48876953125,0.20947265625-0.91845703125,0.29541015625t-1.01513671875,0.0859375z M95.6484375,7.97607421875q-0.69287109375,0-1.095703125,0.44580078125t-0.47802734375,1.24072265625l3.00244140625,0q-0.0107421875-0.8271484375-0.38134765625-1.2568359375t-1.04736328125-0.4296875z M101.6748046875,13.298828125q-1.1494140625,0-1.783203125-0.794921875t-0.6337890625-2.25048828125q0-1.44482421875,0.636474609375-2.255859375t1.791259765625-0.81103515625q1.18701171875,0,1.826171875,0.8701171875l0.06982421875,0q-0.01611328125-0.107421875-0.04296875-0.432373046875t-0.02685546875-0.437744140625l0-2.3525390625l0.966796875,0l0,8.357421875l-0.77880859375,0l-0.14501953125-0.78955078125l-0.04296875,0q-0.61767578125,0.89697265625-1.8369140625,0.89697265625z M101.83056640625,12.49853515625q0.880859375,0,1.286376953125-0.480712890625t0.405517578125-1.576416015625l0-0.17724609375q0-1.22998046875-0.410888671875-1.753662109375t-1.291748046875-0.523681640625q-0.74658203125,0-1.15478515625,0.593505859375t-0.408203125,1.694580078125q0,1.095703125,0.405517578125,1.65966796875t1.168212890625,0.56396484375z  M113.73291015625,13.19140625l-4.38818359375,0l0-7.8525390625l4.38818359375,0l0,0.8701171875l-3.39990234375,0l0,2.44921875l3.201171875,0l0,0.859375l-3.201171875,0l0,2.8037109375l3.39990234375,0l0,0.8701171875z M118.9697265625,13.19140625l-0.18798828125-0.837890625l-0.04296875,0q-0.4404296875,0.55322265625-0.878173828125,0.749267578125t-1.103759765625,0.196044921875q-0.8701171875,0-1.3642578125-0.45654296875t-0.494140625-1.2890625q0-1.7939453125,2.83056640625-1.8798828125l0.9990234375-0.03759765625l0-0.34912109375q0-0.67138671875-0.2900390625-0.990966796875t-0.92919921875-0.319580078125q-0.46728515625,0-0.883544921875,0.1396484375t-0.781494140625,0.3115234375l-0.29541015625-0.72509765625q0.44580078125-0.236328125,0.97216796875-0.37060546875t1.0419921875-0.13427734375q1.06884765625,0,1.58984375,0.47265625t0.52099609375,1.50390625l0,4.017578125l-0.70361328125,0z M116.97705078125,12.52001953125q0.81103515625,0,1.275634765625-0.437744140625t0.464599609375-1.243408203125l0-0.53173828125l-0.8701171875,0.03759765625q-1.01513671875,0.03759765625-1.479736328125,0.322265625t-0.464599609375,0.89697265625q0,0.4619140625,0.281982421875,0.708984375t0.792236328125,0.2470703125z M123.74462890625,12.50927734375q0.8916015625,0,1.297119140625-0.480712890625t0.405517578125-1.544189453125l0-0.23095703125q0-1.181640625-0.408203125-1.71875t-1.31591796875-0.537109375q-0.7412109375,0-1.146728515625,0.588134765625t-0.405517578125,1.678466796875q0,1.095703125,0.394775390625,1.67041015625t1.178955078125,0.57470703125z M125.4365234375,13.1376953125l0.0322265625-0.72509765625l-0.04296875,0q-0.59619140625,0.88623046875-1.826171875,0.88623046875q-1.14404296875,0-1.785888671875-0.797607421875t-0.641845703125-2.247802734375q0-1.42333984375,0.647216796875-2.2451171875t1.769775390625-0.82177734375q1.19775390625,0,1.84765625,0.8916015625l0.05908203125,0l0.12890625-0.7841796875l0.76806640625,0l0,5.994140625q0,1.267578125-0.641845703125,1.90673828125t-1.995361328125,0.63916015625q-1.2890625,0-2.12158203125-0.3759765625l0-0.8916015625q0.859375,0.4619140625,2.17529296875,0.4619140625q0.751953125,0,1.189697265625-0.4404296875t0.437744140625-1.21923828125l0-0.23095703125z M129.23388671875,13.19140625l-0.966796875,0l0-8.357421875l0.966796875,0l0,8.357421875z M133.611328125,13.298828125q-1.32666015625,0-2.081298828125-0.802978515625t-0.754638671875-2.210205078125q0-1.41796875,0.70361328125-2.258544921875t1.9013671875-0.840576171875q1.11181640625,0,1.7724609375,0.717041015625t0.66064453125,1.941650390625l0,0.58544921875l-4.0390625,0q0.02685546875,1.00439453125,0.51025390625,1.525390625t1.36962890625,0.52099609375q0.47265625,0,0.89697265625-0.083251953125t0.99365234375-0.324951171875l0,0.8486328125q-0.48876953125,0.20947265625-0.91845703125,0.29541015625t-1.01513671875,0.0859375z M133.36962890625,7.97607421875q-0.69287109375,0-1.095703125,0.44580078125t-0.47802734375,1.24072265625l3.00244140625,0q-0.0107421875-0.8271484375-0.38134765625-1.2568359375t-1.04736328125-0.4296875z "/></svg>
</svg>
	
</svg>
