<?xml version="1.0" encoding="UTF-8"?>
<!-- Created with Inkscape (http://www.inkscape.org/) -->
<svg width="18.761mm" height="9.3745mm" version="1.1" viewBox="0 0 18.761 9.3745" xmlns="http://www.w3.org/2000/svg">
 <defs>
  <clipPath id="clipPath183-0">
   <path d="m0 0h850.39v425.2h-850.39z"/>
  </clipPath>
  <clipPath id="clipPath187-1">
   <path d="m0 0h851v426h-851z"/>
  </clipPath>
 </defs>
 <g transform="translate(-45.648 -169.21)">
  <path d="m53.478 172.6c0 1.8027-1.4616 3.2642-3.2643 3.2642-1.8027 0-3.2639-1.4616-3.2639-3.2642s1.4612-3.2642 3.2639-3.2642c1.8027 0 3.2643 1.4616 3.2643 3.2642" fill="#61a489"/>
  <g transform="matrix(.35278 0 0 -.35278 53.478 172.6)">
   <path d="m0 0c0-5.11-4.143-9.253-9.253-9.253s-9.252 4.143-9.252 9.253 4.142 9.253 9.252 9.253 9.253-4.143 9.253-9.253z" fill="none" stroke="#fff" stroke-miterlimit="10" stroke-width=".707"/>
  </g>
  <g transform="matrix(.35278 0 0 -.35278 49.468 174.12)">
   <path d="m0 0h-3.558v9.386h11.276v-9.386h-3.516" fill="none" stroke="#fff" stroke-linecap="round" stroke-linejoin="round" stroke-miterlimit="10" stroke-width="1.058"/>
  </g>
  <path d="m50.187 173.27-0.06244 0.12065s0.30339 0.2614 0.28575 1.0915l0.09066 0.0829s3.53e-4 -1.046 0.16651-1.4139l-0.01729-0.11853s-0.09666 0.21237-0.1972 0.94615c0 0-0.06879-0.5073-0.266-0.70873" fill="#fff"/>
  <g transform="matrix(.35278 0 0 -.35278 50.187 173.27)">
   <path d="m0 0-0.177-0.342s0.86-0.741 0.81-3.094l0.257-0.235s1e-3 2.965 0.472 4.008l-0.049 0.336s-0.274-0.602-0.559-2.682c0 0-0.195 1.438-0.754 2.009z" fill="none" stroke="#fff" stroke-miterlimit="10" stroke-width=".163"/>
  </g>
  <path d="m50.344 173.6c0.02857-0.41416-0.08573-0.514-0.37112-0.8569-0.28575-0.34254-1.3423-0.67098-1.3423-0.67098s-0.10019 0.64241 0.37112 1.2566c0.47131 0.61383 1.1853 0.35701 1.1853 0.35701-0.02857-0.20003-1.3709-1.4422-1.3709-1.4422 0.18768 0.0843 0.78881 0.64417 1.179 1.0178 0 0 0.21308 0.20708 0.2861 0.37958 0.07303 0.17287 0 0 0 0z" fill="#fff"/>
  <path d="m50.558 172.92s-0.28575-0.94227 0.44274-1.3709c0.72813-0.42828 0.67098-0.2854 0.67098-0.2854s0.02858 1.0421-0.27129 1.4848c-0.29986 0.44274-0.68933 0.46143-0.78952 0.40428 0 0 0.23283-0.84702 0.51823-1.3324 0.28575-0.48542-0.44274 0.57115-0.57115 1.0996" fill="#fff"/>
  <g transform="matrix(.35278 0 0 -.35278 54.539 173.2)">
   <path d="m0 0h27.974" fill="none" stroke="#d99746" stroke-miterlimit="10" stroke-width="7"/>
  </g>
  <g transform="matrix(.35278 0 0 -.35278 54.539 173.2)">
   <path d="m0 0h27.974" fill="none" stroke="#61a489" stroke-miterlimit="10" stroke-width="3"/>
  </g>
  <g transform="matrix(.35278 0 0 -.35278 -202.4 193.32)">
   <g clip-path="url(#clipPath183-0)">
    <path d="m713.08 46.906c0-2.648-2.146-4.794-4.794-4.794s-4.795 2.146-4.795 4.794 2.147 4.794 4.795 4.794 4.794-2.146 4.794-4.794" fill="#61a489"/>
    <g transform="translate(713.08 46.906)">
     <path d="m0 0c0-2.648-2.146-4.794-4.794-4.794s-4.795 2.146-4.795 4.794 2.147 4.794 4.795 4.794 4.794-2.146 4.794-4.794z" fill="none" stroke="#fff" stroke-miterlimit="10" stroke-width=".707"/>
    </g>
   </g>
  </g>
  <g transform="matrix(.35278 0 0 -.35278 -202.4 193.32)">
   <g clip-path="url(#clipPath187-1)">
    <text transform="matrix(.97 0 0 -1 706.72 44.697)" fill="#ffffff" font-family="FrutigerLT" font-size="6px" font-weight="bold"><tspan x="0" y="0">4</tspan></text>
   </g>
  </g>
 </g>
</svg>
