<?xml version="1.0" encoding="UTF-8"?>
<!-- Created with Inkscape (http://www.inkscape.org/) -->
<svg width="4.8426mm" height="4.8429mm" version="1.1" viewBox="0 0 4.8426 4.8429" xmlns="http://www.w3.org/2000/svg">
 <g transform="translate(-43.847 -154.75)" fill-rule="evenodd">
  <path d="m44.443 159.6c-0.16157 0-0.30762-0.0603-0.42192-0.17463-0.11395-0.1143-0.17427-0.25999-0.17427-0.42192v-3.6498c0-0.16157 0.06033-0.30762 0.17427-0.42192 0.1143-0.1143 0.26035-0.17463 0.42192-0.17463h3.6498c0.16192 0 0.30762 0.0603 0.42192 0.17463 0.1143 0.1143 0.17462 0.26035 0.17462 0.42192v3.6498c0 0.16193-0.06032 0.30762-0.17462 0.42192-0.1143 0.1143-0.26 0.17463-0.42192 0.17463z" fill="#fff"/>
  <path d="m48.346 155.1c0.06985 0.0699 0.10478 0.15416 0.10478 0.25329v3.6498c0 0.0988-0.03493 0.18345-0.10478 0.2533-0.06985 0.0699-0.15416 0.10477-0.25294 0.10477h-3.6502c-0.09878 0-0.18309-0.0349-0.2533-0.10477-0.06985-0.0699-0.10478-0.15452-0.10478-0.2533v-3.6498c0-0.0991 0.03493-0.18344 0.10478-0.25329 0.0702-0.0699 0.15452-0.10478 0.2533-0.10478h3.6502c0.09878 0 0.18309 0.0349 0.25294 0.10478m-0.21378 2.698c0-0.0233-0.08608-0.0988-0.25753-0.22683l0.0042-0.13124c0-9e-3 -0.01023-0.0145-0.03069-0.0173-0.02046 0-0.04092 6e-3 -0.06103 0.0173-0.03493 0.0526-0.05962 0.0977-0.07408 0.13547-0.04375 0.0293-0.08749 0.0568-0.13123 0.0829-0.04939 0.0642-0.08431 0.1136-0.10478 0.14852-0.34643-0.0582-0.69427-0.23883-1.0435-0.54151 0.03528-0.0667 0.02646-0.12489-0.02611-0.17463l-0.35313-0.32702-0.14041-0.52846c-0.02328-0.0847-0.09172-0.14993-0.20496-0.1965-0.09596-0.0378-0.19509-0.0568-0.29669-0.0568-0.14852 0-0.27376 0.0335-0.37571 0.10019-0.0321 0.0205-0.05539 0.0395-0.06985 0.0568-0.22684 0.19826-0.34184 0.29986-0.34466 0.30586-0.0321 0.0261-0.04833 0.0536-0.04833 0.0829l-0.12206 0.6417c-0.0088 0.0466 0.0014 0.0875 0.03034 0.12206 0.02893 0.0353 0.06668 0.0526 0.11324 0.0526 0.08114 0 0.12876-0.0392 0.14323-0.11818l0.11324-0.59408 0.17498-0.14923-0.09102 0.61807-0.06914 0.91017-0.44097 0.73554c-0.01764 0.0289-0.02646 0.0624-0.02646 0.10019 0 0.055 0.01905 0.1016 0.0568 0.13935 0.03775 0.0377 0.08431 0.0564 0.1397 0.0564 0.07585 0 0.13264-0.0318 0.17039-0.096l0.45402-0.76835c0.01764-0.0289 0.02752-0.061 0.03069-0.0959l0.04798-0.60713 0.24871 0.57644v0.79904c0 0.0522 0.01975 0.0974 0.05891 0.13511 0.03951 0.0381 0.08537 0.0568 0.13758 0.0568 0.05539 0 0.10195-0.019 0.1397-0.0568 0.03775-0.0381 0.0568-0.0847 0.0568-0.14005v-0.8322c0-0.0381-0.0074-0.0734-0.02222-0.10513l-0.26176-0.58491 0.03951-0.76094 0.08749 0.31891c0.0053 0.0268 0.01834 0.0508 0.03775 0.0713l0.38594 0.35172c0.02893 0.0265 0.06244 0.0399 0.10019 0.0399 0.03493 0 0.06526-0.0102 0.09137-0.0303 0.33902 0.29668 0.68262 0.47872 1.0305 0.54575-0.06068 0.0639-0.17392 0.0815-0.33937 0.0522-0.24624-0.0377-0.41734-0.048-0.51294-0.0307-0.1016-0.0293-0.20461-0.15593-0.30903-0.37959-0.01446 0.1979 0.04375 0.36653 0.17462 0.50659-0.03775 0.0695-0.05539 0.13511-0.05221 0.19614 0.0056 0.0787 0.01023 0.13406 0.01305 0.16581l-0.14852 0.26211c-0.01164 0.0145-0.01588 0.0321-0.01305 0.0526v0.27482c0 0.0642 0.0321 0.0959 0.09596 0.0959 0.06703 0 0.10054-0.0317 0.10054-0.0959v-0.25294l0.02857-0.0395 0.0039-3.5e-4 0.03986 0.30127c0.0056 0.0586 0.03704 0.0875 0.09454 0.0875 0.07796 0 0.11112-0.0392 0.09948-0.11783l-0.04798-0.32737c0.09878-0.0639 0.1644-0.13088 0.19614-0.20073 0.14852 0.049 0.26952 0.0794 0.36266 0.091l-0.03493 0.45085c-6e-3 0.0667 0.02752 0.10125 0.10054 0.10407 0.06103 0 0.09278-0.0303 0.0956-0.0907l0.03069-0.44168c0.02046 3e-3 0.03634 3e-3 0.04833 0l-0.02646 0.42757c-0.0028 0.067 0.02928 0.10195 0.09596 0.10477 0.06138 0 0.09313-0.0303 0.09631-0.0914l0.03916-0.57644c0.01729-0.0494 0.02893-0.11042 0.03493-0.18344 0.01446-0.16016 0.03775-0.25612 0.06985-0.28822 0.15134 0.0349 0.24306 0.0409 0.27517 0.0176 0.06385-0.0466 0.09454-0.0815 0.09172-0.10478zm-2.8183-2.4144c-0.05962 0.0586-0.08925 0.12982-0.08925 0.21414 0 0.0843 0.02963 0.15557 0.08925 0.21378 0.05962 0.0582 0.13159 0.0875 0.21625 0.0875 0.08714 0 0.16087-0.0286 0.22049-0.085 0.05962-0.0572 0.08925-0.12912 0.08925-0.21625 0-0.0843-0.03034-0.15558-0.09137-0.21414-0.06138-0.0582-0.13406-0.0871-0.21837-0.0871-0.08467 0-0.15663 0.0289-0.21625 0.0871" fill="#2c5135"/>
 </g>
</svg>
