<?xml version="1.0" encoding="UTF-8"?>
<!-- Created with Inkscape (http://www.inkscape.org/) -->
<svg width="3.7934mm" height="3.7931mm" version="1.1" viewBox="0 0 3.7934 3.7931" xmlns="http://www.w3.org/2000/svg">
 <g transform="translate(-87.568 -174.67)" fill-rule="evenodd">
  <path d="m91.287 176.56c0-1.0061-0.81562-1.8221-1.8221-1.8221-1.0061 0-1.8217 0.81597-1.8217 1.8221 0 1.0061 0.81562 1.8221 1.8217 1.8221 1.0065 0 1.8221-0.81597 1.8221-1.8221" fill="#2c5135"/>
  <g fill="#fff">
   <path d="m89.22 177.78h0.50059v-1.6842h-0.50059z"/>
   <path d="m89.659 175.81c0.05397-0.054 0.08114-0.11854 0.08114-0.19403 0-0.0751-0.02716-0.1397-0.08114-0.19403-0.05398-0.054-0.11853-0.0808-0.19368-0.0808-0.0755 0-0.14005 0.0268-0.19438 0.0808-0.05397 0.0543-0.08079 0.11889-0.08079 0.19403 0 0.0787 0.02611 0.14428 0.07867 0.1965 0.05221 0.0522 0.11783 0.0783 0.1965 0.0783 0.07514 0 0.1397-0.0268 0.19368-0.0808"/>
   <path d="m91.172 176.56c0-0.94263-0.76412-1.7064-1.7064-1.7064-0.94263 0-1.7067 0.76376-1.7067 1.7064 0 0.94262 0.76412 1.7067 1.7067 1.7067 0.94226 0 1.7064-0.76412 1.7064-1.7067m0.19015 0c0-1.0474-0.84913-1.8965-1.8965-1.8965-1.0478 0-1.8969 0.84914-1.8969 1.8965 0 1.0474 0.84914 1.8965 1.8969 1.8965 1.0474 0 1.8965-0.84914 1.8965-1.8965"/>
  </g>
 </g>
</svg>
