<?xml version="1.0" encoding="UTF-8"?>
<!-- Created with Inkscape (http://www.inkscape.org/) -->
<svg width="4.8426mm" height="4.8429mm" version="1.1" viewBox="0 0 4.8426 4.8429" xmlns="http://www.w3.org/2000/svg">
 <g transform="translate(-100.79 -177.61)">
  <path d="m105.39 181.86c0 0.1965-0.16086 0.35737-0.35736 0.35737h-3.6509c-0.1965 0-0.35736-0.16087-0.35736-0.35737v-3.6505c0-0.19685 0.16086-0.35772 0.35736-0.35772h3.6506c0.0233 0 0.0459 2e-3 0.0677 6e-3 7e-3 1e-3 0.0145 3e-3 0.0215 5e-3 0.15381 0.0399 0.26846 0.18027 0.26846 0.34643zm-0.26529-4.2467h-3.835c-0.27799 0-0.50377 0.22614-0.50377 0.50377v3.8354c0 0.27764 0.22578 0.50377 0.50377 0.50377h3.835c0.27764 0 0.50377-0.22613 0.50377-0.50377v-3.8354c0-0.27763-0.22613-0.50377-0.50377-0.50377" fill="#fff"/>
  <path d="m105.13 177.86c-7e-3 -2e-3 -0.0145-4e-3 -0.0215-5e-3 -0.0219-4e-3 -0.0444-6e-3 -0.0674-6e-3h-3.6509c-0.1965 0-0.35736 0.16086-0.35736 0.35736v3.6509c0 0.1965 0.16086 0.35736 0.35736 0.35736h3.6509c0.1965 0 0.35736-0.16086 0.35736-0.35736v-3.6509c0-0.1658-0.11465-0.30621-0.26846-0.34607" fill="#2c5135"/>
  <g fill="#fff" fill-rule="evenodd">
   <path d="m104.4 181.02c0.10125 0.10019 0.15205 0.2226 0.15205 0.36618 0 0.14394-0.0508 0.2667-0.15205 0.3683-0.10124 0.1016-0.22436 0.15205-0.36794 0.15205-0.0169 0-0.0335-7e-4 -0.0498-2e-3 -0.35912-0.0321-0.47237-0.37183-0.4706-0.52282 1e-3 -0.14182 0.0529-0.26317 0.15593-0.36371l-0.0176-0.0176-0.43886 0.43533c2e-3 0.0116 3e-3 0.0226 3e-3 0.0317 0 0.0804-0.0388 0.12029-0.11642 0.12029-0.0593 0-0.0967-0.0282-0.11324-0.0847l-0.0991-0.0106c-0.024 0.1203-0.0843 0.21908-0.18098 0.29704-0.0963 0.078-0.20602 0.11677-0.32914 0.11677-0.14393 0-0.26635-0.0504-0.36759-0.15205-0.1016-0.1016-0.15276-0.22436-0.15276-0.3683 0-0.14358 0.0512-0.26599 0.15276-0.36618 0.10124-0.10019 0.22366-0.15028 0.36759-0.15028 0.0921 0 0.1771 0.0222 0.25471 0.067l0.121-0.16969-0.0533-0.12771h-0.0815c-0.0378 0-0.0568-0.0187-0.0568-0.0564s0.019-0.0568 0.0568-0.0568h0.32573c0.0374 0 0.0564 0.019 0.0564 0.0568 0 0.012-3e-3 0.0226-0.0106 0.0321l-0.12629 0.0952h0.7246v-0.17674h-0.20178c-0.0378 0-0.0568-0.019-0.0568-0.0568 0-0.0377 0.019-0.0564 0.0568-0.0564h0.26176c0.0381 0 0.0564 0.0187 0.0564 0.0564v0.40005l0.0533 0.0706c0.085-0.0519 0.1771-0.0776 0.27623-0.0776 0.14358 0 0.2667 0.0501 0.36794 0.15028m-1.7699 0.68474c0.0737-0.0589 0.121-0.13546 0.14217-0.23001l-0.33655-0.0423c-0.0141 0.0191-0.0342 0.0282-0.0603 0.0282-0.0494 0-0.0741-0.0247-0.0741-0.0744 0-0.0399 0.0201-0.0635 0.0603-0.0706l0.20532-0.28681c-0.0614-0.0307-0.12524-0.0459-0.19156-0.0459-0.11042 0-0.20567 0.0395-0.28469 0.11853-0.079 0.079-0.11853 0.17392-0.11853 0.28469 0 0.1136 0.0388 0.20955 0.11641 0.28858 0.0783 0.079 0.17357 0.11853 0.28681 0.11853 0.097 0 0.18168-0.0293 0.25471-0.0885m-0.13406-0.37853 0.28328 0.0353c-7e-3 -0.10372-0.0473-0.19226-0.1203-0.26529zm0.50977 0.0674 3e-3 -4e-3 -0.20532-0.49883-0.0808 0.11325c0.11253 0.0991 0.17039 0.22295 0.17286 0.37147zm0.58031-0.49212v-0.0744h-0.68685l0.23001 0.5274zm0.73237 0.77329c0.0783-0.079 0.11712-0.17498 0.11712-0.28858 0-0.11077-0.0399-0.20566-0.11888-0.28469-0.079-0.079-0.17392-0.11853-0.28469-0.11853-0.0734 0-0.14182 0.0187-0.20532 0.0564l0.21943 0.27623c0.0402 0.01 0.0603 0.0328 0.0603 0.0706 0 0.0497-0.025 0.0744-0.0744 0.0744-0.0498 0-0.0741-0.0247-0.0741-0.0744l-0.21978-0.27587c-0.0751 0.078-0.11324 0.16969-0.11324 0.27587 0 0.1136 0.0399 0.20955 0.11889 0.28858 0.0787 0.079 0.17462 0.11853 0.28822 0.11853 0.11324 0 0.20884-0.0395 0.28645-0.11853"/>
   <path d="m103.16 178.29c-0.0289 0.0282-0.0437 0.0635-0.0437 0.10583 0 0.0427 0.0148 0.0783 0.0437 0.10725 0.0289 0.0289 0.0646 0.0434 0.1069 0.0434 0.0413 0 0.0762-0.0148 0.10512-0.0445 0.0289-0.0296 0.043-0.0649 0.043-0.10619 0-0.0409-0.0141-0.0758-0.043-0.10477-0.0289-0.0289-0.0639-0.0434-0.10512-0.0434-0.0423 0-0.078 0.0141-0.1069 0.0423"/>
   <path d="m103.7 179.24c0.0409 0 0.0614-0.0219 0.0614-0.0656 0-0.0268-0.0127-0.0494-0.0381-0.0677l-0.21202-0.14852-0.1524-0.30727c-0.0339-0.0452-0.0741-0.0699-0.12065-0.0741-0.0423-4e-3 -0.0783 6e-3 -0.10831 0.0296l-0.31361 0.25012c-0.0124 0.0141-0.0194 0.0254-0.0212 0.0339-0.0141 0.0536-0.0282 0.10724-0.0423 0.16122-0.0198 0.0804-0.0296 0.13547-0.0296 0.1651 0 0.0452 0.0226 0.0677 0.0677 0.0677 0.0413 0 0.0656-0.0212 0.0744-0.0635l0.055-0.26317 0.1076-0.0829-0.16263 0.72778-0.19791 0.33196c-8e-3 0.0155-0.0127 0.031-0.0141 0.0466-4e-3 0.0737 0.0282 0.11183 0.0974 0.115 0.0423 3e-3 0.0748-0.0155 0.0977-0.055l0.21166-0.3563c0.0113-0.0183 0.0169-0.0339 0.0169-0.0466l0.0547-0.23283 0.21978 0.23812 0.0699 0.36583c0.0102 0.0536 0.0423 0.0825 0.096 0.0868 0.0737 7e-3 0.11042-0.0265 0.11042-0.0998l-0.0716-0.4131c-3e-3 -0.0127-7e-3 -0.0226-0.013-0.0296l-0.27552-0.31997 0.0744-0.30727 0.0557 0.11289c8e-3 0.0113 0.0131 0.0183 0.0159 0.0212l0.23318 0.16087c0.0187 0.0123 0.036 0.0187 0.0533 0.0187"/>
  </g>
 </g>
</svg>
