<?xml version="1.0" encoding="UTF-8"?>
<!-- Created with Inkscape (http://www.inkscape.org/) -->
<svg width="5.2961mm" height="5.2962mm" version="1.1" viewBox="0 0 5.2961 5.2962" xmlns="http://www.w3.org/2000/svg">
 <defs>
  <clipPath id="clipPath307-46">
   <path d="m0 0h851v426h-851z"/>
  </clipPath>
 </defs>
 <g transform="translate(-281.08 -252.17)">
  <path d="m286.25 254.81c0 1.3885-1.1257 2.5142-2.5142 2.5142s-2.5142-1.1257-2.5142-2.5142 1.1257-2.5142 2.5142-2.5142 2.5142 1.1257 2.5142 2.5142" fill="#fff" fill-rule="evenodd"/>
  <path d="m286.38 254.81c-0.0176 0.42968-0.0956 0.80292-0.26212 1.1451-0.17145 0.35208-0.43603 0.67134-0.75741 0.92428-0.32173 0.25259-0.69956 0.43886-1.0968 0.52388-0.72742 0.15557-1.5194-0.0275-2.1135-0.47378-0.61877-0.46461-1.0227-1.215-1.0629-1.9837-0.0385-0.73237 0.25365-1.482 0.77435-2.0052s1.27-0.82056 2.0059-0.77435c0.42933 0.0272 0.85372 0.1711 1.2245 0.39546 0.37077 0.22437 0.68827 0.52917 0.90311 0.87842 0.24024 0.38982 0.35242 0.83467 0.38488 1.3698m-0.31362-0.0127c-0.0159 0.38241-0.0826 0.71543-0.23107 1.0206-0.15099 0.31045-0.38559 0.59196-0.66922 0.81492-0.28363 0.22295-0.61701 0.38841-0.96802 0.4632-0.63994 0.13723-1.3367-0.0251-1.8595-0.41769-0.5454-0.40958-0.90241-1.0707-0.93769-1.7491-0.0339-0.64559 0.22437-1.306 0.68333-1.7674 0.45791-0.46002 1.1162-0.72284 1.7635-0.68227 0.37924 0.024 0.75389 0.1524 1.0816 0.35066 0.32737 0.19826 0.60854 0.46602 0.79833 0.77434 0.21449 0.3482 0.31009 0.74719 0.33867 1.1928" fill="#ef3742" fill-rule="evenodd"/>
  <g transform="matrix(.35278 0 0 -.35278 129.34 263.38)">
   <g clip-path="url(#clipPath307-46)">
    <text transform="scale(1,-1)" x="434.73511" y="-20.755066" fill="#231f20" font-family="FrutigerLTStd" font-size="10.2px" font-weight="bold"><tspan x="434.73511" y="-20.755066">5</tspan></text>
   </g>
  </g>
 </g>
</svg>
