<?xml version="1.0" encoding="UTF-8"?>
<!-- Created with Inkscape (http://www.inkscape.org/) -->
<svg width="18.564mm" height="9.3845mm" version="1.1" viewBox="0 0 18.564 9.3845" xmlns="http://www.w3.org/2000/svg">
 <defs>
  <clipPath id="clipPath175-0">
   <path d="m0 0h850.39v425.2h-850.39z"/>
  </clipPath>
  <clipPath id="clipPath179-5">
   <path d="m0 0h851v426h-851z"/>
  </clipPath>
 </defs>
 <g transform="translate(-54.435 -173.11)">
  <path d="m62.055 176.48c0 1.7921-1.4527 3.2452-3.2452 3.2452-1.7921 0-3.2448-1.4531-3.2448-3.2452s1.4527-3.2452 3.2448-3.2452c1.7925 0 3.2452 1.4531 3.2452 3.2452" fill="#7b5e36"/>
  <g transform="matrix(.35278 0 0 -.35278 62.055 176.48)">
   <path d="m0 0c0-5.08-4.118-9.199-9.199-9.199-5.08 0-9.198 4.119-9.198 9.199s4.118 9.199 9.198 9.199c5.081 0 9.199-4.119 9.199-9.199z" fill="none" stroke="#fff" stroke-miterlimit="10" stroke-width=".707"/>
  </g>
  <path d="m58.878 177.86s0.266 0.48189 0.32914 0.21166c0 0 0.17992 0.27588 0.24448 0.073 0 0 0.21237 0.25329 0.25188-7e-3 0 0 0.18098 0.28786 0.23389 0.018 0 0 0.21555 0.21555 0.24165-0.0342 0 0 0.26599 0.21237 0.23918-0.0409 0 0 0.34537 0.21237 0.57997 4e-3 0 0 0.04692-0.0215-0.23389-0.12665 0 0 0.45473 0.0377 0.66746-0.23706 0 0 0.05398-0.0487-0.03281-0.0413-0.08643 7e-3 -0.98637 0.0208-1.0851-0.0307 0 0 0.32879-0.15064 0.14217-0.16193-0.18662-0.0113-0.72566-0.0988-1.106-0.36759 0 0-0.26247 0.53516-0.16933 0.2346 0.09313-0.30022 0.30586-0.6477 0.53022-0.63747 0 0 0.04974-0.23213-0.242-0.139 0 0 0.0067-0.18097-0.46884 0.0938 0 0-0.33726 0.13194-0.64805-0.43885-0.31044-0.5708-0.53658-1.4549-0.63606-1.6175 0 0-0.13159 0.1718 0.08996 0.70908l-0.3937-1.1271s-0.09278 0.25823 0.14781 0.7941l0.11712 0.31045-0.60043-1.2033s-0.12277 0.27905 0.11959 0.70309c0.24236 0.42368 0.30233 0.51505 0.30233 0.51505s-0.52493-0.65087-0.71649-1.0238c0 0-0.03281 0.28258 0.21096 0.6089 0.24377 0.32667 0.32385 0.50517 0.32385 0.50517s-0.42122-0.5274-0.641-0.72354c0 0-0.02117 0.31397 0.28998 0.617 0.31115 0.30339 0.28469 0.30057 0.28469 0.30057l-0.65969-0.40358s0.01058 0.31433 0.37747 0.49566c0 0-0.40993-0.0896-0.13406 0.28398 0.07796 0.10548 0.21308 0.17745 0.21308 0.17745s-0.12524 5e-3 -0.0095 0.16016c0 0 0.10724 0.1591 0.24765 0.27623 0 0-0.11007 0.0462-0.0088 0.14075 0.10125 0.0949 0.26211 0.2025 0.26211 0.2025s-0.08643 0.0353-0.01411 0.0991c0.07232 0.0635 0.24095 0.11889 0.24095 0.11889s0.24059 0.1972 0.4579 0.2988l-0.36512 0.066s-0.25682 0.90346-0.06597 0.84419z" fill="#fff"/>
  <g transform="matrix(.35278 0 0 -.35278 63.13 177.07)">
   <path d="m0 0h27.974" fill="none" stroke="#d99746" stroke-miterlimit="10" stroke-width="7"/>
  </g>
  <g transform="matrix(.35278 0 0 -.35278 63.13 177.07)">
   <path d="m0 0h27.974" fill="none" stroke="#8a5f3d" stroke-miterlimit="10" stroke-width="3"/>
  </g>
  <g transform="matrix(.35278 0 0 -.35278 -169.09 197.23)">
   <g clip-path="url(#clipPath175-0)">
    <path d="m643.56 46.906c0-2.648-2.146-4.794-4.794-4.794s-4.795 2.146-4.795 4.794 2.147 4.794 4.795 4.794 4.794-2.146 4.794-4.794" fill="#7b5e36"/>
    <g transform="translate(643.56 46.906)">
     <path d="m0 0c0-2.648-2.146-4.794-4.794-4.794s-4.795 2.146-4.795 4.794 2.147 4.794 4.795 4.794 4.794-2.146 4.794-4.794z" fill="none" stroke="#fff" stroke-miterlimit="10" stroke-width=".707"/>
    </g>
   </g>
  </g>
  <g transform="matrix(.35278 0 0 -.35278 -169.09 197.23)">
   <g clip-path="url(#clipPath179-5)">
    <text transform="matrix(.97 0 0 -1 637.2 44.697)" fill="#ffffff" font-family="FrutigerLT" font-size="6px" font-weight="bold"><tspan x="0" y="0">3</tspan></text>
   </g>
  </g>
 </g>
</svg>
