<?xml version="1.0" encoding="UTF-8"?>
<!-- Created with Inkscape (http://www.inkscape.org/) -->
<svg width="4.8429mm" height="4.8429mm" version="1.1" viewBox="0 0 4.8429 4.8429" xmlns="http://www.w3.org/2000/svg">
 <g transform="translate(-76.023 -162.53)" fill-rule="evenodd">
  <path d="m76.62 167.37c-0.16192 0-0.30762-0.0603-0.42192-0.17463-0.11395-0.1143-0.17462-0.25999-0.17462-0.42192v-3.6498c0-0.16192 0.06068-0.30762 0.17462-0.42192 0.1143-0.1143 0.26-0.17463 0.42192-0.17463h3.6495c0.16228 0 0.30762 0.0603 0.42228 0.17463 0.11395 0.1143 0.17462 0.26 0.17462 0.42192v3.6498c0 0.16193-0.06068 0.30762-0.17462 0.42192-0.11465 0.1143-0.26 0.17463-0.42228 0.17463z" fill="#fff"/>
  <path d="m80.522 162.87c0.0695 0.0698 0.10513 0.15416 0.10513 0.25329v3.6498c0 0.0991-0.03563 0.18344-0.10513 0.25329-0.0695 0.0699-0.15452 0.10478-0.25294 0.10478h-3.6498c-0.09878 0-0.18344-0.0349-0.25294-0.10478-0.0702-0.0699-0.10513-0.15416-0.10513-0.25329v-3.6498c0-0.0991 0.03493-0.18344 0.10513-0.25329 0.0695-0.0699 0.15416-0.10478 0.25294-0.10478h3.6498c0.09843 0 0.18344 0.0349 0.25294 0.10478" fill="#2c5135"/>
  <g fill="#fff">
   <path d="m77.97 164.46c0.03563-0.0709 0.07091-0.14217 0.10619-0.21307 0.03563-0.0709 0.07161-0.14288 0.10689-0.21414 0.03528-0.0706 0.07126-0.14005 0.10513-0.21237 0.0025-5e-3 0.0092-8e-3 0.0095-0.0152 3.53e-4 -8e-3 -0.0049-0.0138-0.0078-0.0201-0.02399-0.0572-0.05151-0.11712-0.0822-0.17321-0.03387-0.061-0.07338-0.11924-0.12453-0.16934-0.02858-0.0282-0.05962-0.0487-0.09137-0.0695-0.02611-0.0169-0.05574-0.0268-0.08431-0.0367-0.02646-0.01-0.05221-0.0194-0.08149-0.0222-0.0053-3.5e-4 -0.0056-0.01-0.01341-6e-3 -0.0046 2e-3 -0.0056-1e-3 -0.0095 0-0.0078 2e-3 -0.01164-6e-3 -0.01905-5e-3 -0.01588 3e-3 -0.02787-5e-3 -0.04233-5e-3 -0.01623-7.1e-4 -0.03422 5e-3 -0.04762-4e-3 -0.0074-5e-3 -0.01517 6e-3 -0.02364 5e-3 -6e-3 -3.5e-4 -0.01341-2e-3 -0.01905-3.5e-4 -0.01341 4e-3 -0.02752 4e-3 -0.04233 6e-3 -0.01517 2e-3 -0.02928 4e-3 -0.04339 8e-3 -0.02787 7e-3 -0.05997 7e-3 -0.08537 0.0243-0.02646 0.0187-0.05256 0.0342-0.07937 0.0505-0.02681 0.0166-0.04798 0.0423-0.0702 0.0663-0.02081 0.0222-0.04445 0.042-0.06068 0.0677-0.01658 0.0254-0.03598 0.0476-0.04939 0.0744-0.01446 0.0286-0.03034 0.0586-0.04621 0.0854-0.01658 0.0279-0.03069 0.0596-0.04798 0.0889-0.01623 0.0279-0.03034 0.0543-0.04551 0.084-0.01588 0.0314-0.03493 0.0586-0.05045 0.0896-0.01446 0.0289-0.02963 0.0554-0.04621 0.0843-0.0095 0.0169-0.01552 0.0303-0.02752 0.0497-0.01058 0.0173 0.01023 0.025 0.02222 0.0342 0.01164 9e-3 0.02752 0.0145 0.03916 0.0236 0.01129 9e-3 0.02328 0.0173 0.03598 0.025 0.05256 0.0325 0.10301 0.0667 0.15452 0.0998 0.1076 0.0695 0.21237 0.13829 0.32032 0.20814 0.05574 0.036 0.10971 0.072 0.16545 0.10724 0.05503 0.0353 0.10971 0.073 0.16475 0.10689 0.03704-0.0762 0.07373-0.14958 0.11077-0.22331"/>
   <path d="m78.394 164.67c0.35066 0 0.69991-3.5e-4 1.0509 0 0.04022-0.0536 0.0635-0.11818 0.09807-0.17497 0.01482-0.024 0.0254-0.049 0.03881-0.0737 0.01588-0.03 0.03351-0.0579 0.04763-0.09 0.0028-6e-3 0.0067-0.0109 0.0095-0.0169 0.02258-0.0441 0.04762-0.0854 0.06879-0.13194 0.0021-5e-3 6e-3 -6e-3 0.0081-0.0106 0.02928-0.0621 0.06421-0.11888 0.09454-0.17992 0.0021-4e-3 0.0049-7e-3 0.0071-0.0116 0.0194-0.0402 0.04233-0.0758 0.05997-0.115 0.0078-0.0169 0.0187-0.0321 0.02681-0.049 0.0099-0.0215 0.0254-0.0395 0.03069-0.0642-0.0067 0-0.0088 7e-4 -0.01058 5e-3 -0.0028 7e-3 -0.0095 7e-3 -0.01446 0.0102-0.07444 0.0526-0.14887 0.10689-0.22472 0.15875-0.01517-0.0152-0.01976-0.0335-0.03069-0.0512-0.01058-0.0166-0.01799-0.0321-0.02716-0.049-0.02011-0.0381-0.04198-0.0713-0.06103-0.10936-0.0021-4e-3 -0.0039-8e-3 -0.0063-0.0123-0.03104-0.0526-0.05821-0.1083-0.09102-0.15875-0.0039-6e-3 -0.0088-0.01-0.01305-0.0159-0.04269-0.0589-0.08608-0.11394-0.13194-0.17109-0.0095-0.0117-0.01976-0.0198-0.03387-0.0222-0.0321-6e-3 -0.05927-0.0183-0.09137-0.0233-6e-3 -1e-3 -0.01129-7.1e-4 -0.01517-7e-3 -0.0028-4e-3 -0.0092 3.6e-4 -0.01305-7e-4 -0.05151-0.0134-0.10407-0.0247-0.16051-0.0222-0.05292 2e-3 -0.10442 0-0.15628 3.6e-4 -0.10619 7e-4 -0.21167 0-0.3175 3.5e-4 -0.21308 0-0.42616-3.5e-4 -0.63923 0 0.02505 0.01 0.04692 0.0166 0.07091 0.0247 0.02822 9e-3 0.04833 0.0314 0.07373 0.0455 0.02258 0.0127 0.04022 0.0325 0.05927 0.0526 0.01976 0.0212 0.04022 0.0406 0.05856 0.0624 0.0194 0.0229 0.03034 0.0494 0.04762 0.0737 0.0194 0.0268 0.0321 0.0572 0.04798 0.085 0.02928 0.0504 0.05539 0.10336 0.08467 0.15381 0.01588 0.0272 0.02893 0.0572 0.04516 0.084 0.01552 0.0254 0.02963 0.0543 0.0441 0.0808 0.03034 0.055 0.06138 0.11112 0.09137 0.16686 0.02822 0.0522 0.05645 0.10231 0.08396 0.15416 0.0046 8e-3 0.0085 0.0173 0.01376 0.0243 0.0042 6e-3 0.0042 0.0148 0.0095 0.0197 0.01023 0.01 0.01482 0.0272 0.02258 0.0402 0.01517 0.025 0.02822 0.0519 0.04233 0.0776 0.0021 4e-3 0.0074 6e-3 0.0081 0.0109 0.0032 0.0173 0.01799 0.0265 0.0194 0.0452-0.04762 0.0233-0.09384 0.0512-0.14252 0.0744-0.02434 0.0116-0.0441 0.0286-0.06914 0.0399-0.02505 0.0116-0.04692 0.0243-0.07197 0.0367-0.0088 5e-3 -0.01693 7e-3 -0.02399 0.0138-0.0053 5e-3 -0.01129 5e-3 -0.0194 8e-3 -0.0078 3e-3 -0.0056 0.0113 0.0011 0.0113"/>
   <path d="m79.845 166.31h-0.23001v-0.17215h0.23001zm-0.69109 0.30621v-0.43003h0.28011v0.43003h0.58702v-0.68403h0.18909l-0.69885-0.54716-0.40746 0.31891v-0.11465h-0.15416v0.2353l-0.13758 0.1076h0.18909v0.68403z"/>
   <path d="m76.944 166.61c0.03951-0.0102 0.0381-0.0727-3.53e-4 -0.055-0.02681 0.0123-0.04339 8e-3 -0.05115-0.0159-0.01482-0.0476-0.04198-0.0832-0.08749-0.0967-0.02575-8e-3 -0.05045-4e-3 -0.07479 4e-3 -0.02258 7e-3 -0.04304 0.0416-0.01764 0.0505 0.02822 0.01 0.04833-0.0229 0.07655-0.0127 0.02787 0.01 0.04621 0.0272 0.05468 0.0536 0.01482 0.0462 0.04586 0.0868 0.10019 0.0727"/>
   <path d="m77.688 166.57c0.07761-0.0582 0.17145-0.0607 0.26529-0.0325 0.04727 0.0145 0.06738-0.0755 0.0095-0.0864-0.02681-5e-3 -0.01799 0.0413-0.04127 0.0335-0.02258-8e-3 -0.04269-0.0141-0.06244-0.0123-0.03845 3e-3 -0.08749 0.0116-0.12065 0.0176-0.03881 7e-3 -0.10548 0.0811-0.10901 0.0233-0.0032-0.0533-0.02152-0.0963-0.0762-0.0794-0.03175 0.01-0.03881 0.0261-0.06562 0.0434-0.02646 0.0173-0.02963-0.03-0.04974-0.043-0.03528-0.0233-0.08643-0.0257-0.12876-0.0169-0.04127 9e-3 -0.08925 3e-3 -0.121 0.0332-0.03175 0.0293-0.08537 0.0113-0.12171 0.0293-0.02223 0.0109-0.06103 0.0243-0.03528 0.0483 0.02258 0.0208 0.04127-6e-3 0.06385-0.0106 0.04127-9e-3 0.08678-2e-3 0.12206-0.0286 0.03563-0.0272 0.0762-0.0212 0.12418-0.0314 0.04939-0.0102 0.07373 0.0226 0.10724 0.0632 0.03669 0.0444 0.09137-0.0413 0.1203-0.0349 0.01976 4e-3 0.0078 0.0649 0.0321 0.0864 0.02434 0.0212 0.05962 0.0187 0.08714-2e-3"/>
   <path d="m77.936 166.38c0.08855-1e-3 0.16969-5e-3 0.26106-1e-3 0.09454 4e-3 0.14676-0.11219 0.12171-0.19509-0.01376-0.0459-0.0575-0.097-0.10795-0.0727-0.04445 0.0212-0.08326-8e-3 -0.12171-0.0279-0.04022-0.0215-0.08043-0.0466-0.12241-0.0621-0.01905-7e-3 -0.04304-7e-3 -0.06068-3.5e-4 -0.01023 4e-3 -0.02787 1e-3 -0.03034 0.0166-0.0028 0.0152-0.03775-5e-3 -0.02787-8e-3 0.04339-0.0145 0.03704-0.12348 0.07408-0.11007 0.0314 0.0113 0.0829 0.0289 0.12171 0.0444 0.0762 0.0307 0.16616 0.0727 0.24377 0.0169 0.04727-0.0339 0.08149-0.0681 0.13723-0.0741 0.0441-5e-3 0.07867-0.0138 0.12277-0.0212 0.04551-8e-3 0.07691-0.0254 0.10266-0.0656 0.02963-0.0462 0.0321-0.0963-0.02646-0.1136-0.06421-0.0187-0.0635 0.10019-0.121 0.0635-0.0448-0.0289-0.07902-0.0272-0.12347-0.0324-0.09137-0.0109-0.15699 0.0575-0.24589 0.0737-0.05539 0.01-0.09454-0.0377-0.12241-0.0833-0.02575-0.042-0.05715-0.0794-0.08184-0.12594-0.02716-0.0519 0.05821 0.0289 0.08749 0.0642 0.02646 0.0314 0.07303 0.0656 0.11853 0.025 0.02681-0.024 0.04904-0.0226 0.06279-0.0564 0.01094-0.0272 0.04269 0.0169 0.06174 2e-3 0.01905-0.0148 0.01976-0.0399 0.02505-0.0628 0.0049-0.0208 0.01129-0.0388 0.01199-0.0617 3.53e-4 -0.0219-0.02187-0.0307-0.03986-0.0388-0.01729-8e-3 -0.01023-0.0342 7.06e-4 -0.0515 0.02434-0.0385 0.02081-0.0861-0.01446-0.11536-0.03704-0.0303-0.06279-0.0663-0.0949-0.0963-0.01764-0.0162-0.03739-0.0469-0.05468-0.0332-0.01729 0.0134-0.03704 0.0649-0.03845 0.031-0.0053-0.11889-0.1404-0.0303-0.18838 0.0134-0.01587 0.0145-0.04974-0.0159-0.07056-0.0289-0.01764-0.0113-0.03598-0.0279-0.05962-0.0377-0.04868-0.0205-0.09384 0.0265-0.11395 0.067-0.0095 0.0194-0.01482 0.054-0.03845 0.0469-0.02152-6e-3 -0.04127-9e-3 -0.06068-0.0159-0.03916-0.0127-0.08114-9e-3 -0.12206-0.0127-0.16757-0.0162-0.33549-0.0293-0.50412-0.0427-0.04974-4e-3 -0.09208 0.0385-0.13511 0.0571-0.03916 0.0169-0.0956 0.0427-0.08008 0.0885 0.01376 0.0416 0.0018 0.0864 0.01199 0.12206 0.01058 0.0367-0.01235 0.10336 0.02258 0.12065 0.07197 0.036 0.17568-0.0176 0.25823 8e-3 0.07832 0.0243 0.16369 0.0392 0.24377 0.0621 0.08573 0.0243 0.17745 0.054 0.25894 3.6e-4 0.0194-0.0127 0.04374 0.0229 0.05786 0.0282 0.01693 6e-3 0.06103 0.018 0.05468 0.042-0.01164 0.0455-0.0695 0.0617-0.11218 0.0765-0.04375 0.0152-0.09384 0.0254-0.13794 0.0448-0.04198 0.0187-0.06385 0.0737-0.10478 0.0861-0.03951 0.012-0.10548 7e-3 -0.11183 0.0515-0.0032 0.0236 0.03528 0.0332 0.05151 0.0452 0.01517 0.0117 0.03739 0.024 0.06032 0.0314 0.05256 0.0169-0.01129 0.0907 0.04304 0.12136 0.04551 0.0257 0.0769 0.0406 0.12206 0.0416 0.09102 1e-3 0.16087-0.0547 0.24589-0.0751 0.02187-5e-3 0.04022-0.0183 0.06068-0.0257 0.02152-8e-3 0.04163-0.0212 0.06209-0.0293 0.02222-9e-3 0.03739-0.0409 0.06138-0.0392 0.02469 2e-3 -0.0071 0.0339-0.01658 0.0561-0.0321 0.0755-0.03034 0.17604 0.0314 0.24095 0.02399 0.025 0.05715 0.0275 0.09102 0.0272m0.0028-1.0118c0.03563-2e-3 0.05186-0.0116 0.0822-0.0208-0.0071-0.0406-0.01587-0.079-0.02011-0.11924-0.0194-3e-3 -0.03528 0.0109-0.05009 0.0155-0.03034 0.01-0.06597 0.0455-0.07303 0.0695-0.0021 7e-3 0.01446 2e-3 0.02928-4e-3 0.04269-0.0183 0.02646 0.0399 0.03175 0.0589m-0.5528-0.0148c0.01094-8e-3 0.01552-0.019 0.02752-0.0272 0.0194-0.0138 0.0321-0.0367 0.0053-0.037-0.0321-3.5e-4 -0.05186-3e-3 -0.07796-7e-3 -0.05186-8e-3 -0.10266-4e-3 -0.15346-0.0109-0.0508-7e-3 -0.1016-0.0113-0.15275-0.0123-0.05115-1e-3 -0.1016-0.0173-0.15205-0.0117-0.01658 2e-3 -0.03175 0.0162-0.04339 0.0222-0.0067 4e-3 -0.03034 9e-3 -0.02505 0.0145 0.0127 0.0123 0.0448 6e-3 0.06844 7e-3 0.04939 1e-3 0.10195-3e-3 0.15205 7e-3 0.10125 0.0205 0.20355 0.0399 0.3055 0.0568 0.01588 2e-3 0.0321 0.01 0.04586-1e-3m0.09384 0.23954c0.0081-0.084 0.0063-0.17004 0.0127-0.25365-0.03104-0.0131-0.03775 0.0243-0.05927 0.0381-0.01976 0.012-0.02752 0.036-0.02611 0.0589 0.0032 0.0469-0.0085 0.0921-0.0039 0.139 0.02752 8e-3 0.04551 0.0162 0.07655 0.0176m0.17321-0.12912c7.06e-4 -0.0236-0.01305-0.0247-0.01305 0 3.52e-4 0.0632-0.0067 0.10583 0.0014 0.16439 0.01764-0.0519 0.0099-0.1023 0.01164-0.16439m-0.24941 0.16016c3.53e-4 5e-3 0.0247 3e-3 0.02328-5e-3 -0.0014-0.0102-0.02364-1e-3 -0.02328 5e-3m-0.09278 4e-3c0.02611 5e-3 0.04198-6e-3 0.04092-0.036-0.0025-0.0674 0.01235-0.11289 0.0078-0.18133-0.20602-0.0416-0.41134-0.0885-0.62442-0.0684 0.0011 0.0684 3.52e-4 0.13229 0.02046 0.20849 0.19332-0.0423 0.3683 0.0384 0.55527 0.0773m0.77893 5e-3c0.02152 0.01 0.05221-0.0272 0.06032-0.042 0.0078-0.0141 0.01693-0.06 0.04551-0.0413 0.03034 0.0201 0.05045-0.0109 0.01799-0.0205-0.02646-8e-3 -0.03845-0.0261-0.03634-0.0452 0.0042-0.0455 0.05962-0.10054 0.01658-0.13511-0.03034-0.0247-0.04516-0.0554-0.07585-0.0744-0.0187-0.0116-0.02858 0.0236-0.03739 0.0413-0.02117 0.042-0.03598 0.0928-0.05786 0.13688-0.01129 0.0236 0.01799 0.0554 0.03634 0.0667 0.01446 9e-3 0.04833-0.0152 0.05503 9e-3 0.0078 0.0293-0.03528 0.0303-0.05644 0.0282-0.01799-1e-3 -0.04057-0.0222-0.04692-0.0402-0.0078-0.0236-0.03528-0.0526-0.01764-0.0787 0.01517-0.0222 0.01376-0.048-0.01764-0.0395-0.02434 6e-3 -0.03493 0.012-0.05433 0.0159-0.02752 5e-3 -0.03986-0.0317-0.06385-0.0257-0.01905 5e-3 -0.04233-0.0282-0.03175-0.043 0.0127-0.0176 0.01023-0.0519-0.01058-0.061-0.04374-0.0187-0.08855-0.0861-0.13088-0.0473-0.01482 0.0138-0.02505 0.0349-0.02152 0.0476 0.0032 0.0109 0.02434 0.018 0.02752 0.0335 0.0049 0.0208 0.02046 0.036 0.02152 0.0579 0.0014 0.0286-0.0056 0.0508-0.0056 0.0815-3.53e-4 0.0219-0.0049 0.0272-0.0053 0.0586-7.05e-4 0.0473 0.02223-1e-3 0.05151 3e-3 0.02046 3e-3 0.04269-7e-3 0.06103 7e-3 0.04939 0.0388 0.09419-0.0656 0.13547-0.0166 0.04727 0.0557 0.0882 0.0991 0.14111 0.12311m-0.48648 0.0212c0.0018-0.10795 0.02187-0.21378 0.0194-0.32208-0.03704-0.0109-0.06385-0.0201-0.1016-0.0215-0.0085 0.0889-0.0039 0.17638-0.0134 0.26423-0.0025 0.0229 0.0078 0.0444 0.03069 0.0533 0.02328 8e-3 0.03493 0.0257 0.06491 0.0261m0.86889 0.19121c0.02328 4e-3 0.02752-0.0145 0.0046-0.0268-0.13758-0.0734-0.24271 0.0497-0.37289 0.0522-0.03739 7e-4 -0.0702-0.0212-0.09525-0.0483-0.06562-0.0713-0.0956-0.16898-0.17992-0.22508-0.02046-0.0141-0.04904-6e-3 -0.03105 0.0205 0.02681 0.0395 0.04375 0.049 0.05151 0.0921 0.02646 0.15452 0.16087 0.17921 0.28681 0.23072 0.1203 0.0494 0.20426-0.11748 0.3362-0.0952m-1.0897 0.21696c0.0085-0.0152 0.04233-0.0127 0.06421-0.0293 0.02152-0.0166 0.04127-0.0272 0.06597-0.043 0.0187-0.0116 0.0254-0.0307-0.0039-0.0226-0.01552 5e-3 -0.0187 0.01-0.03034 0.01-0.03739-3.5e-4 -0.0702 0.0176-0.07867 0.054-0.0046 0.0191-0.03316 0.0226-0.03951 0.0335-0.0032 6e-3 0.01905 3e-3 0.02223-2e-3m0.24624 0.0296c0.06879-0.0187 0.13335-0.0557 0.18203-0.10795 0.02611-0.0275 0.04374-0.066 0.02752-0.10407-0.0042-0.0102 0.0018-0.0198-0.0032-0.03-0.01517-0.0321-0.01023-0.0621 0.0028-0.0924 0.0049-0.0106-0.0078-0.019-0.0092-0.0321-0.0049-0.0384-0.02399-0.0557-0.0441-0.0931-0.01729-0.0328-0.04339-0.0233-0.06491-3.5e-4 -0.05256 0.0554-0.06209 0.13194-0.11994 0.17744-0.05327 0.0416-0.12065 0.054-0.1845 0.072-0.04727 0.013-0.0889 0.043-0.10901 0.0875-0.01094 0.024-0.06315 5e-3 -0.06526 0.0335-0.0011 0.0106 0.0127 5e-3 0.02258 0.0106 0.04798 0.0261 0.08819-0.0155 0.11112-0.0526 0.01199-0.0183 0.03563-0.0321 0.05962-0.0339 0.09313-6e-3 0.16369-0.0759 0.23107-0.13088 0.03422 0.0265 0.02963 0.0519 0.03281 0.0847 0.0046 0.0444-0.02963 0.0737-0.06526 0.0938-0.07126 0.0409-0.12382 0.10336-0.20673 0.13194-0.02681 0.01-0.02293 0.0473 0.0039 0.049 0.07161 4e-3 0.13123-0.0448 0.19861-0.0632m-0.27587 0.0892c0.0018-7e-4 -0.02716-0.0374-0.03175-0.0183-0.0039 0.0169 0.02999 0.019 0.03175 0.0183m0.52846 0.12841c0.03634-0.0265 0.05821-0.0423 0.09843-0.0466 0.04374-5e-3 0.02928-0.0741 0.02822-0.10937-7.06e-4 -0.036-0.02575-0.0889-0.07267-0.0942-0.09419 0.0251-0.13829 0.19227-0.05398 0.25012m0.05468 0.0201c0.01693 6e-3 0.02328-0.025 0.0078-0.0197-0.01094 4e-3 -0.02011 0.0155-0.0078 0.0197m0.25964 5e-3c0.02928 2e-3 0.05821-4e-3 0.07373-0.0286 0.02611-0.0423 0.03246-0.0949 0.0032-0.13758-0.03104-0.0452-0.09984 0.024-0.1397-9e-3 -0.02222-0.0183-0.0575-0.0363-0.07408-0.031-0.01235 4e-3 -6e-3 0.0388-0.0035 0.0593 0.0053 0.0505-0.02822 0.10336-0.03563 0.14922 0.06385-3.5e-4 0.11642-7e-3 0.17604-2e-3"/>
  </g>
 </g>
</svg>
