<?xml version="1.0" encoding="UTF-8"?>
<!-- Created with Inkscape (http://www.inkscape.org/) -->
<svg width="5.2716mm" height="5.2719mm" version="1.1" viewBox="0 0 5.2716 5.2719" xmlns="http://www.w3.org/2000/svg">
 <g transform="translate(-88.546 -108.77)">
  <path d="m93.721 111.4c0 1.4023-1.1366 2.5389-2.5389 2.5389-1.4019 0-2.5386-1.1366-2.5386-2.5389s1.1366-2.5389 2.5386-2.5389c1.4023 0 2.5389 1.1366 2.5389 2.5389" fill="#fecd10"/>
  <path d="m93.721 111.4c0 1.4023-1.1366 2.5389-2.5389 2.5389-1.4019 0-2.5386-1.1366-2.5386-2.5389s1.1366-2.5389 2.5386-2.5389c1.4023 0 2.5389 1.1366 2.5389 2.5389" fill="#fcb918"/>
  <g transform="matrix(.35278 0 0 -.35278 93.721 111.4)">
   <path d="m0 0c0-3.975-3.222-7.197-7.197-7.197-3.974 0-7.196 3.222-7.196 7.197s3.222 7.197 7.196 7.197c3.975 0 7.197-3.222 7.197-7.197z" fill="none" stroke="#fff" stroke-miterlimit="10" stroke-width=".55"/>
  </g>
  <g fill="#fff">
   <path d="m91.115 112.83c0.66781 0 1.3536 0 1.6182 3.5e-4 0.02011 0 0.03528-6e-3 0.04727-0.018 0.01235-0.0123 0.01799-0.0282 0.01764-0.0494-3.52e-4 -0.0519-3.52e-4 -0.10371-3.52e-4 -0.15522l3.52e-4 -0.0614c0-0.0466-0.02293-0.0706-0.06809-0.0706h-3.0593c-0.02293-2e-3 -0.03845 8e-3 -0.04551 0.0138-0.01376 0.012-0.02081 0.0289-0.02046 0.0508 3.53e-4 0.0706 3.53e-4 0.1464-3.53e-4 0.22225 0 0.0208 0.0056 0.037 0.01799 0.0497 0.01199 0.012 0.02787 0.018 0.04798 0.018 0.24977-3.5e-4 0.83996-3.5e-4 1.4446-3.5e-4"/>
   <path d="m91.206 109.42c-0.01058 0-0.02081 2e-3 -0.03105 7e-3 -0.04833 0.0233-0.09666 0.0462-0.14534 0.0692l-0.04692 0.0219c-0.31609 0.14993-1.1839 0.56021-1.3123 0.62089-0.03528 0.0141-0.04339 0.0423-0.04022 0.0646 3.53e-4 7e-3 7.06e-4 0.0106 0.0011 0.0145l0.0074 0.0603c6e-3 0.0487 0.01164 0.0974 0.01729 0.1464 0.0035 0.0325 0.01834 0.0445 0.02928 0.0505 0.01023 6e-3 0.03351 0.0106 0.05644-7.1e-4 0.07161-0.0339 0.48472-0.2293 0.88441-0.41804l0.58208-0.27517 0.70168 0.31362c0.34996 0.15664 0.69497 0.31115 0.77646 0.34784 0.01905 8e-3 0.03598 9e-3 0.05186 2e-3 0.01623-7e-3 0.02787-0.0201 0.03457-0.0392 0.02011-0.0554 0.04092-0.11042 0.06174-0.16545 0.02117-0.0554-0.02328-0.079-0.0321-0.0833-0.22119-0.10301-1.2749-0.59513-1.5607-0.72919-0.01235-6e-3 -0.02434-8e-3 -0.03563-8e-3"/>
   <path d="m90.902 112.49c-0.0194-0.0187-0.01411-0.0444-0.01446-0.0681-3.53e-4 -0.28787 0-0.57574 0-0.8636 0-9e-3 -7.06e-4 2e-3 0-7e-3 0.0021-0.0208-0.0071-0.0511 0.01834-0.0561 0.0194-4e-3 0.02505 0.0229 0.03281 0.0409 0.02223 0.054 0.04233 0.10901 0.06315 0.16369 0.03175 0.0829 0.07479 0.11113 0.15275 0.0935 0.03845-9e-3 0.04939-0.0356 0.03775-0.0787-0.0314-0.11359-0.06773-0.22543-0.10336-0.33726-0.04515-0.14322-0.09031-0.2861-0.13723-0.42862-0.01341-0.0402-0.02258-0.0864-0.06879-0.0991-0.0067-1e-3 -0.01341-3e-3 -0.02011-5e-3 -0.1591-3e-3 -0.31821-3.5e-4 -0.47696-1e-3 -0.05574-4e-3 -0.08643 0.0318-0.10407 0.0861-0.04904 0.14993-0.09596 0.30057-0.14217 0.45155-0.01976 0.0639-0.05009 0.12348-0.05927 0.19156-0.02081 0.0444-0.03281 0.0928-0.04692 0.14006-0.01446 0.0494 0.0074 0.0755 0.05327 0.0818 0.06703 9e-3 0.11254-0.0166 0.13511-0.0903 0.02117-0.0617 0.04551-0.12206 0.06985-0.18203 0.0049-0.0123 0.01094-0.0279 0.02364-0.0261 0.02011 2e-3 0.01305 0.0236 0.01305 0.0374 3.53e-4 0.30516 0 0.61066 7.06e-4 0.91582 0 0.031-0.0039 0.049-0.03775 0.0487"/>
  </g>
  <path d="m90.58 112.15c0-0.11077-3.52e-4 -0.22154 3.53e-4 -0.33196 0-0.0257-0.0056-0.0571 0.03246-0.055 0.03245 2e-3 0.02928 0.0293 0.02928 0.0533v0.66393c0 0.0268 0.0032 0.0557-0.03351 0.0543-0.03422-1e-3 -0.02822-0.0293-0.02858-0.0526-3.52e-4 -0.11042 0-0.2212 0-0.33197" fill="#fbcd15"/>
  <g fill="#fff">
   <path d="m91.725 111.03c-0.09878 6e-3 -0.14499 0.0582-0.139 0.15593l0.02646 0.46426c0.0071 0.0956 0.05891 0.14146 0.15558 0.13723h0.49706l0.22049 0.37042c0.02963 0.0522 0.0702 0.0631 0.12171 0.0321 0.04939-0.0275 0.06033-0.0688 0.03245-0.12312l-0.27904-0.4692c-0.01552-0.0268-0.04057-0.0409-0.07585-0.043h-0.381l-0.0046-0.0878h0.27764c0.04621-3e-3 0.0695-0.0265 0.0695-0.0695 0-0.0434-0.02328-0.066-0.0695-0.0681h-0.28362l-0.01235-0.16192c-0.0063-0.0967-0.05821-0.14217-0.15593-0.13724"/>
   <path d="m91.247 111.86c0 0.16052 0.05609 0.29634 0.16828 0.40817 0.11183 0.11148 0.2473 0.16722 0.4057 0.16722 0.12136 0 0.23072-0.0339 0.32773-0.1016 0.09737-0.0681 0.16616-0.15558 0.20743-0.26247l-0.08467-0.14499c-0.01658 0.11112-0.06738 0.20355-0.15205 0.27763-0.08502 0.0741-0.1845 0.11113-0.29845 0.11113-0.12559 0-0.23283-0.0441-0.32173-0.13265-0.0889-0.0885-0.13335-0.19579-0.13335-0.32244 0-0.14393 0.0575-0.26281 0.17286-0.3563l-0.0063-0.14041c-0.08643 0.0504-0.15558 0.1196-0.20743 0.20744-0.05186 0.0878-0.07796 0.1845-0.07796 0.28927"/>
   <path d="m90.619 110.78c0.11677 0 0.21167-0.0949 0.21167-0.21167s-0.0949-0.21131-0.21167-0.21131c-0.11677 0-0.21167 0.0945-0.21167 0.21131 0 0.11677 0.0949 0.21167 0.21167 0.21167"/>
   <path d="m91.724 110.97c0.08784 0 0.15875-0.0713 0.15875-0.1591 0-0.0875-0.07091-0.15875-0.15875-0.15875s-0.1591 0.0713-0.1591 0.15875c0 0.0878 0.07126 0.1591 0.1591 0.1591"/>
  </g>
 </g>
</svg>
