<?xml version="1.0" encoding="UTF-8"?>
<!-- Created with Inkscape (http://www.inkscape.org/) -->
<svg width="17.246mm" height="17.247mm" version="1.1" viewBox="0 0 17.246 17.247" xmlns="http://www.w3.org/2000/svg">
 <g transform="translate(3.1803 -105.69)">
  <path d="m14.066 114.31c0 4.7625-3.8612 8.6236-8.6237 8.6236s-8.6226-3.8612-8.6226-8.6236 3.8601-8.6236 8.6226-8.6236 8.6237 3.8612 8.6237 8.6236" fill="#a05ea6"/>
  <g transform="matrix(.35278 0 0 -.35278 5.3395 108.45)">
   <path d="m0 0c0.814 0.631 1.675 1.086 2.7 1.231 2.766 0.391 5.535-1.537 6.084-4.282 0.404-2.013-0.169-3.807-1.284-5.464-1.173-1.743-2.721-3.104-4.462-4.253-0.785-0.521-1.585-1.02-2.386-1.519-0.406-0.254-0.834-0.296-1.262-0.04-2.04 1.208-4.029 2.489-5.656 4.246-1.266 1.368-2.249 2.89-2.579 4.771-0.399 2.277 0.557 4.512 2.478 5.733 1.968 1.247 4.143 1.165 6.1-0.233 0.074-0.053 0.145-0.103 0.267-0.19z" fill="none" stroke="#fff" stroke-miterlimit="10" stroke-width="1.382"/>
  </g>
  <path d="m2.0971 118.29c0.22542 0.20038 0.37077 0.42969 0.36548 0.74754l-0.051506 2.4006h0.57044l-0.040217-2.2853c0.031044-0.56092-0.23001-0.97473-0.64206-1.3261-0.46955-0.40182-0.93486-0.80892-1.385-1.233-0.65864-0.62159-1.0492-1.3737-1.0485-2.3022 0.001058-0.45826-0.014817-0.91793-0.004586-1.3765 0.009525-0.44167 0.040217-0.88335 0.067028-1.325 0.010231-0.17533 0.081139-0.21449 0.23389-0.13229 0.15593 0.0829 0.26952 0.20038 0.29281 0.38947 0.047625 0.39052 0.095956 0.78105 0.15275 1.1716 0.018697 0.12665-0.002822 0.21414-0.121 0.2861-0.076553 0.0466-0.13794 0.12559-0.19015 0.20109-0.24694 0.35419-0.17074 0.81844 0.18909 1.1885 0.2854 0.29352 0.57044 0.58809 0.85478 0.8816 0.38029 0.39229 0.75953 0.78563 1.1416 1.1762 0.11007 0.11289 0.25082 0.11747 0.3496 0.0222 0.097719-0.0949 0.10513-0.22648 7.056e-4 -0.33549-0.48436-0.50412-0.97296-1.0026-1.4577-1.5071-0.22613-0.23565-0.46037-0.46672-0.66428-0.72213-0.15558-0.19403-0.1083-0.40076 0.078317-0.54716 0.20955-0.16475 0.4893-0.17321 0.63923-6e-3 0.13899 0.15381 0.26952 0.31574 0.39793 0.47801 0.28787 0.36266 0.60678 0.69251 1.0216 0.90946 0.22154 0.11572 0.45473 0.20991 0.67733 0.3235 0.66746 0.33937 1.0224 0.90982 1.1409 1.6256 0.081845 0.4946 0.11536 0.99907 0.16686 1.4993 0.020461 0.20425 0.028928 0.40922 0.043745 0.61877l0.20779 2.3273h0.48084l-0.18521-2.1597c-0.077611-0.76129-0.14358-1.5247-0.24165-2.2835-0.088547-0.68756-0.37253-1.2933-0.92146-1.7342-0.248-0.19932-0.5334-0.36901-0.82691-0.49037-0.43251-0.17991-0.79128-0.43603-1.0848-0.79304-0.13899-0.16863-0.27587-0.33902-0.41099-0.51082-0.20426-0.25612-0.45014-0.42757-0.8322-0.39405-0.053269-0.46144-0.088547-0.90312-0.15663-1.3402-0.0635-0.39899-0.32138-0.65158-0.70556-0.75776-0.37571-0.10513-0.70097 0.11183-0.72954 0.5154-0.071967 1.0178-0.12982 2.0384-0.058914 3.0596 0.069144 0.98601 0.52387 1.7784 1.234 2.4373 0.47731 0.44167 0.96555 0.87136 1.452 1.3028" fill="#fff"/>
  <path d="m11.34 111.49c-0.02893-0.40358-0.35419-0.62054-0.7299-0.51541-0.38382 0.10619-0.64206 0.35983-0.7045 0.75882-0.068792 0.43604-0.10442 0.87772-0.15734 1.3392-0.38206-0.0335-0.6283 0.13794-0.8322 0.39405-0.13547 0.17145-0.27129 0.3422-0.41028 0.51082-0.29457 0.35702-0.65334 0.61419-1.0858 0.79305-0.29351 0.12206-0.57856 0.29104-0.82656 0.49036-0.54786 0.44097-0.83326 1.0474-0.92181 1.7353-0.097719 0.75883-0.16404 1.5212-0.2413 2.2825l-0.18556 2.1594h0.48084l0.20814-2.3273c0.014817-0.20955 0.023283-0.41451 0.043744-0.61877 0.051153-0.50024 0.084667-1.0036 0.16686-1.4997 0.11818-0.71543 0.47343-1.2859 1.1405-1.6252 0.22296-0.1136 0.45579-0.20673 0.67769-0.3235 0.41487-0.21696 0.73342-0.5461 1.0213-0.9084 0.12876-0.16334 0.25929-0.32527 0.39793-0.47908 0.15099-0.16615 0.42968-0.15839 0.63959 6e-3 0.18627 0.14641 0.23389 0.35313 0.07832 0.54822-0.20426 0.25435-0.43815 0.48542-0.66463 0.72214-0.48472 0.50341-0.97296 1.0029-1.4566 1.506-0.10548 0.10901-0.098072 0.2406 7.056e-4 0.3355 0.098072 0.0952 0.23883 0.0907 0.34854-0.0222 0.38241-0.39052 0.76165-0.78387 1.1419-1.1762 0.28434-0.29351 0.56938-0.58808 0.85443-0.88089 0.35983-0.36971 0.43639-0.83502 0.18944-1.1892-0.05221-0.0755-0.11395-0.15452-0.19015-0.20038-0.11853-0.0727-0.14005-0.16016-0.12136-0.28681 0.0568-0.38982 0.10548-0.78105 0.15311-1.1716 0.02328-0.18909 0.13688-0.30656 0.29245-0.38947 0.15275-0.0811 0.22366-0.043 0.23389 0.13229 0.02716 0.44168 0.05786 0.88336 0.06703 1.3261 0.01023 0.45861-0.0046 0.91722-0.0046 1.3765 0.0011 0.92746-0.38947 1.6803-1.0485 2.3019-0.45014 0.42333-0.91511 0.83044-1.385 1.2322-0.41169 0.35137-0.67275 0.76518-0.64206 1.3261l-0.039864 2.2853h0.57009l-0.051153-2.4c-0.00564-0.31856 0.1397-0.54786 0.36548-0.74824 0.48648-0.43145 0.97578-0.86113 1.452-1.3028 0.71014-0.65899 1.1649-1.4513 1.2337-2.4373 0.07197-1.0213 0.01305-2.0408-0.05856-3.0596" fill="#fff"/>
 </g>
</svg>
