<?xml version="1.0" encoding="UTF-8"?>
<!-- Created with Inkscape (http://www.inkscape.org/) -->
<svg width="18.713mm" height="9.4064mm" version="1.1" viewBox="0 0 18.713 9.4064" xmlns="http://www.w3.org/2000/svg">
 <defs>
  <clipPath id="clipPath159-0">
   <path d="m0 0h850.39v425.2h-850.39z"/>
  </clipPath>
  <clipPath id="clipPath163-2">
   <path d="m0 0h851v426h-851z"/>
  </clipPath>
  <clipPath id="clipPath199-4">
   <path d="m0 0h850.39v425.2h-850.39z"/>
  </clipPath>
 </defs>
 <g transform="translate(-77.191 -168.08)">
  <path d="m80.698 175.67c0 0.93415-0.75706 1.6912-1.6912 1.6912-0.93416 0-1.6916-0.75706-1.6916-1.6912 0-0.93416 0.75741-1.6912 1.6916-1.6912 0.93416 0 1.6912 0.75706 1.6912 1.6912" fill="#a05ea6"/>
  <g transform="matrix(.35278 0 0 -.35278 80.698 175.67)">
   <path d="m0 0c0-2.648-2.146-4.794-4.794-4.794s-4.795 2.146-4.795 4.794 2.147 4.794 4.795 4.794 4.794-2.146 4.794-4.794z" fill="none" stroke="#fff" stroke-miterlimit="10" stroke-width=".707"/>
  </g>
  <g transform="matrix(.35278 0 0 -.35278 86.035 172.08)">
   <path d="m0 0h27.974" fill="none" stroke="#d99746" stroke-miterlimit="10" stroke-width="7"/>
  </g>
  <g transform="matrix(.35278 0 0 -.35278 86.035 172.08)">
   <path d="m0 0h27.974" fill="none" stroke="#a05ea6" stroke-miterlimit="10" stroke-width="3"/>
  </g>
  <g transform="matrix(.35278 0 0 -.35278 -97.091 192.21)">
   <g clip-path="url(#clipPath159-0)">
    <path d="m516.08 58.816c0-5.11-4.143-9.253-9.253-9.253s-9.252 4.143-9.252 9.253 4.142 9.253 9.252 9.253 9.253-4.143 9.253-9.253" fill="#a05ea6"/>
    <g transform="translate(516.08 58.816)">
     <path d="m0 0c0-5.11-4.143-9.253-9.253-9.253s-9.252 4.143-9.252 9.253 4.142 9.253 9.252 9.253 9.253-4.143 9.253-9.253z" fill="none" stroke="#fff" stroke-miterlimit="10" stroke-width=".707"/>
    </g>
   </g>
  </g>
  <g transform="matrix(.35278 0 0 -.35278 -97.091 192.21)">
   <g clip-path="url(#clipPath163-2)">
    <text transform="matrix(.97 0 0 -1 497.4 44.697)" fill="#ffffff" font-family="FrutigerLT" font-size="6px" font-weight="bold"><tspan x="0" y="0">1</tspan></text>
   </g>
  </g>
  <g transform="matrix(.35278 0 0 -.35278 -97.091 192.21)" clip-path="url(#clipPath199-4)">
   <g transform="translate(506.72 65.105)">
    <path d="m0 0c0.308 0.239 0.634 0.411 1.022 0.466 1.047 0.148 2.095-0.582 2.303-1.621 0.153-0.762-0.064-1.441-0.486-2.068-0.444-0.66-1.03-1.175-1.689-1.61-0.297-0.197-0.6-0.386-0.903-0.575-0.154-0.096-0.316-0.112-0.478-0.015-0.772 0.457-1.525 0.942-2.141 1.607-0.479 0.518-0.851 1.094-0.976 1.806-0.151 0.862 0.211 1.708 0.938 2.17 0.745 0.472 1.568 0.441 2.309-0.088 0.028-0.02 0.055-0.039 0.101-0.072z" fill="none" stroke="#fff" stroke-miterlimit="10" stroke-width=".523"/>
   </g>
   <path d="m503.24 54.547c0.242-0.215 0.398-0.461 0.392-0.802l-0.055-2.576h0.612l-0.043 2.452c0.033 0.602-0.247 1.046-0.689 1.423-0.504 0.431-1.003 0.868-1.486 1.323-0.707 0.667-1.126 1.474-1.125 2.47 1e-3 0.492-0.016 0.985-5e-3 1.477 0.01 0.474 0.043 0.948 0.072 1.422 0.011 0.188 0.087 0.23 0.251 0.142 0.167-0.089 0.289-0.215 0.314-0.418 0.051-0.419 0.103-0.838 0.164-1.257 0.02-0.136-3e-3 -0.23-0.13-0.307-0.082-0.05-0.148-0.135-0.204-0.216-0.265-0.38-0.183-0.878 0.203-1.275 0.306-0.315 0.612-0.631 0.917-0.946 0.408-0.421 0.815-0.843 1.225-1.262 0.118-0.121 0.269-0.126 0.375-0.024 0.105 0.102 0.113 0.243 1e-3 0.36-0.52 0.541-1.044 1.076-1.564 1.617-0.243 0.253-0.494 0.501-0.713 0.775-0.167 0.208-0.116 0.43 0.084 0.587 0.225 0.177 0.525 0.186 0.686 7e-3 0.149-0.165 0.289-0.339 0.427-0.513 0.309-0.389 0.651-0.743 1.096-0.976 0.238-0.124 0.488-0.225 0.727-0.347 0.716-0.364 1.097-0.976 1.224-1.744 0.088-0.531 0.124-1.072 0.179-1.609 0.022-0.219 0.031-0.439 0.047-0.664l0.223-2.497h0.516l-0.199 2.317c-0.083 0.817-0.154 1.636-0.259 2.45-0.095 0.738-0.4 1.388-0.989 1.861-0.266 0.214-0.572 0.396-0.887 0.526-0.464 0.193-0.849 0.468-1.164 0.851-0.149 0.181-0.296 0.364-0.441 0.548-0.219 0.275-0.483 0.459-0.893 0.423-0.057 0.495-0.095 0.969-0.168 1.438-0.068 0.428-0.345 0.699-0.757 0.813-0.403 0.113-0.752-0.12-0.783-0.553-0.077-1.092-0.139-2.187-0.063-3.283 0.074-1.058 0.562-1.908 1.324-2.615 0.512-0.474 1.036-0.935 1.558-1.398" fill="#fff"/>
   <path d="m513.16 61.843c-0.031 0.433-0.38 0.666-0.783 0.553-0.412-0.114-0.689-0.386-0.756-0.814-0.074-0.468-0.112-0.942-0.169-1.437-0.41 0.036-0.674-0.148-0.893-0.423-0.145-0.184-0.291-0.367-0.44-0.548-0.316-0.383-0.701-0.659-1.165-0.851-0.315-0.131-0.621-0.312-0.887-0.526-0.588-0.473-0.894-1.124-0.989-1.862-0.105-0.814-0.176-1.632-0.259-2.449l-0.199-2.317h0.516l0.223 2.497c0.016 0.225 0.025 0.445 0.047 0.664 0.055 0.537 0.091 1.077 0.179 1.609 0.127 0.768 0.508 1.38 1.224 1.744 0.239 0.122 0.489 0.222 0.727 0.347 0.445 0.233 0.787 0.586 1.096 0.975 0.138 0.175 0.278 0.349 0.427 0.514 0.162 0.178 0.461 0.17 0.686-7e-3 0.2-0.157 0.251-0.379 0.084-0.588-0.219-0.273-0.47-0.521-0.713-0.775-0.52-0.54-1.044-1.076-1.563-1.616-0.113-0.117-0.105-0.258 1e-3 -0.36 0.105-0.102 0.256-0.097 0.374 0.024 0.41 0.419 0.817 0.841 1.225 1.262 0.305 0.315 0.611 0.631 0.917 0.945 0.386 0.397 0.468 0.896 0.203 1.276-0.056 0.081-0.122 0.166-0.204 0.215-0.127 0.078-0.15 0.172-0.13 0.308 0.061 0.418 0.113 0.838 0.164 1.257 0.025 0.203 0.147 0.329 0.314 0.418 0.164 0.087 0.24 0.046 0.251-0.142 0.029-0.474 0.062-0.948 0.072-1.423 0.011-0.492-5e-3 -0.984-5e-3 -1.477 1e-3 -0.995-0.418-1.803-1.125-2.47-0.483-0.454-0.982-0.891-1.486-1.322-0.442-0.377-0.722-0.821-0.689-1.423l-0.043-2.452h0.612l-0.055 2.575c-6e-3 0.342 0.15 0.588 0.392 0.803 0.522 0.463 1.047 0.924 1.558 1.398 0.762 0.707 1.25 1.557 1.324 2.615 0.077 1.096 0.014 2.19-0.063 3.283" fill="#fff"/>
  </g>
 </g>
</svg>
