<?xml version="1.0" encoding="UTF-8"?>
<!-- Created with Inkscape (http://www.inkscape.org/) -->
<svg width="18.807mm" height="9.3746mm" version="1.1" viewBox="0 0 18.807 9.3746" xmlns="http://www.w3.org/2000/svg">
 <defs>
  <clipPath id="clipPath191-6">
   <path d="m0 0h850.39v425.2h-850.39z"/>
  </clipPath>
 </defs>
 <g transform="translate(-45.337 -168.88)">
  <path d="m53.227 172.26c0 1.8027-1.4616 3.2642-3.2643 3.2642-1.8027 0-3.2639-1.4616-3.2639-3.2642 0-1.8027 1.4612-3.2642 3.2639-3.2642 1.8027 0 3.2643 1.4616 3.2643 3.2642" fill="#054f90"/>
  <g transform="matrix(.35278 0 0 -.35278 53.227 172.26)">
   <path d="m0 0c0-5.11-4.143-9.253-9.253-9.253s-9.252 4.143-9.252 9.253 4.142 9.253 9.252 9.253 9.253-4.143 9.253-9.253z" fill="none" stroke="#fff" stroke-miterlimit="10" stroke-width=".707"/>
  </g>
  <path d="m51.784 172.04c-0.05468-0.0416-0.15169-0.0586-0.23883-0.0646-0.0046-0.2734-0.10901-0.53869-0.48507-0.57396-0.80539-0.0748-1.0396 0.64276-1.0396 0.64276l-0.01693 8e-3s-0.27552 3e-3 -0.55668 0.0942c-0.02399-0.20425-0.20496-1.7272-0.23142-1.9717-0.02787-0.26247-0.16828-0.36548-0.39299-0.36548-0.22472 0-0.26247 0.31856-0.26247 0.31856l0.49918 2.2274c-0.09172 0.0822-0.16157 0.18662-0.19015 0.31926-7.06e-4 4e-3 -0.0014 8e-3 -0.0025 0.0127-0.21237 0.19121-0.3616 0.44133-0.37712 0.48154-0.02011 0.0512 0.06244 0.0568 0.25576 8e-3 0.03104-8e-3 0.06597-0.0134 0.10336-0.0176 0.02046 0.12206 0.06315 0.23037 0.127 0.32421 0.09172 0.28292 0.28363 0.8837 0.28716 0.96519 0.0046 0.1069-0.0092 0.0607-0.16263 0.12101-0.15346 0.0603-0.02787 0.0557-0.02787 0.0557s0.55351 0.01 0.6791-9e-3c0.12559-0.0187 0.06491-0.0141 0.06491-0.0141s0.0187-0.0138-0.2092-0.0416c-0.22789-0.0279-0.24201-0.0931-0.24201-0.0931l-0.25118-0.81421 0.0018-0.0148c0.20144 0.1704 0.50694 0.26212 0.90452 0.26282-0.0194 0.11113 0.04727 0.14746 0.04727 0.14746s0.53975 0.3489 0.68404 0.42334c0.14429 0.0744-0.01411 0.0836-0.01411 0.0836-0.16263 0.0515 0.03246 0.0561 0.03246 0.0561l0.3676 0.0138s0.33514 0.01 0.25118-0.0325c-0.08361-0.042-0.18133-0.0324-0.26494-0.0374-0.08396-5e-3 -0.20496-0.0557-0.20496-0.0557s-0.65582-0.41381-0.72072-0.44662c-0.06526-0.0324-0.06068-0.11606-0.06068-0.11606l0.0071-0.0388c0.0688-3e-3 0.14006-8e-3 0.21343-0.0162 1.1144-0.1217 1.0675-1.2735 1.0675-1.2735s0.09596-0.2466 0.11642-0.51753c0.26776 3e-3 0.24236-0.0519 0.24236-0.0519" fill="#fff"/>
  <g transform="matrix(.35278 0 0 -.35278 54.276 172.89)">
   <path d="m0 0h27.974" fill="none" stroke="#d99746" stroke-miterlimit="10" stroke-width="7"/>
  </g>
  <g transform="matrix(.35278 0 0 -.35278 54.276 172.89)">
   <path d="m0 0h27.974" fill="none" stroke="#054f90" stroke-miterlimit="10" stroke-width="3"/>
  </g>
  <g transform="matrix(.35278 0 0 -.35278 -227.39 192.98)">
   <g clip-path="url(#clipPath191-6)">
    <path d="m783.03 46.906c0-2.648-2.146-4.794-4.794-4.794s-4.795 2.146-4.795 4.794 2.147 4.794 4.795 4.794 4.794-2.146 4.794-4.794" fill="#054f90"/>
    <g transform="translate(783.03 46.906)">
     <path d="m0 0c0-2.648-2.146-4.794-4.794-4.794s-4.795 2.146-4.795 4.794 2.147 4.794 4.795 4.794 4.794-2.146 4.794-4.794z" fill="none" stroke="#fff" stroke-miterlimit="10" stroke-width=".707"/>
    </g>
   </g>
  </g>
  <text transform="scale(.98489 1.0153)" x="47.197701" y="174.52969" fill="#ffffff" font-family="FrutigerLT" font-size="2.0847px" font-weight="bold" stroke-width=".34745"><tspan x="47.197701" y="174.52969" stroke-width=".34745">5</tspan></text>
 </g>
</svg>
