<?xml version="1.0" encoding="UTF-8"?>
<!-- Created with Inkscape (http://www.inkscape.org/) -->
<svg width="4.8426mm" height="4.8429mm" version="1.1" viewBox="0 0 4.8426 4.8429" xmlns="http://www.w3.org/2000/svg">
 <defs>
  <clipPath id="clipPath143-2">
   <path d="m0 0h850.39v425.2h-850.39z"/>
  </clipPath>
 </defs>
 <g transform="translate(-106.77 -169.55)">
  <g transform="matrix(.35278 0 0 -.35278 -.1585 193.84)">
   <g clip-path="url(#clipPath143-2)">
    <path d="m316.16 56.802c0-0.557-0.456-1.013-1.013-1.013h-10.349c-0.557 0-1.013 0.456-1.013 1.013v10.348c0 0.558 0.456 1.014 1.013 1.014h10.348c0.066 0 0.13-6e-3 0.192-0.018 0.02-4e-3 0.041-9e-3 0.061-0.014 0.436-0.113 0.761-0.511 0.761-0.982zm-0.752 12.038h-10.871c-0.788 0-1.428-0.641-1.428-1.428v-10.872c0-0.787 0.64-1.428 1.428-1.428h10.871c0.787 0 1.428 0.641 1.428 1.428v10.872c0 0.787-0.641 1.428-1.428 1.428" fill="#fff"/>
    <path d="m315.5 57.668h-1e-3c-1.045-0.287-1.782-0.348-2.366-0.37-0.547-0.02-1.808-0.048-2.62-0.048-0.425 0-0.827 0.029-1.252 0.06-0.497 0.036-1.011 0.074-1.573 0.061-0.308-8e-3 -0.65-0.027-1.013-0.047-0.182-0.01-2.091-0.101-2.183-0.106-0.103-8e-3 -0.205 0.074-0.213 0.184s0.074 0.207 0.184 0.214c0.104 6e-3 2.01 0.097 2.19 0.107 0.366 0.02 0.711 0.04 1.026 0.047 0.579 0.013 1.104-0.025 1.611-0.062 0.418-0.03 0.812-0.059 1.223-0.059 0.734 0 2.003 0.026 2.605 0.048 0.561 0.021 1.271 0.08 2.276 0.356 0.107 0.029 0.216-0.033 0.246-0.14 0.029-0.106-0.034-0.216-0.14-0.245m-10.565 0.8c0 0.067 0.024 0.139 0.072 0.215l0.935 1.582 0.776 3.465-0.517-0.402-0.259-1.251c-0.097-0.457-0.76-0.389-0.662 0.13 0.019 0.081 0.331 1.438 0.331 1.438 0.01 0.047 0.043 0.1 0.101 0.158l1.481 1.193c0.153 0.115 0.326 0.163 0.517 0.144 0.221-0.02 0.412-0.139 0.576-0.36l0.719-1.452 1.006-0.705c0.406-0.26 0.119-0.829-0.359-0.546l-1.107 0.762c-0.01 9e-3 -0.034 0.043-0.073 0.101l-0.273 0.532-0.345-1.453 1.309-1.524c0.037-0.052 0.051-0.111 0.057-0.143l0.345-1.87v-0.086c-0.019-0.335-0.196-0.494-0.532-0.475-0.24 0.029-0.388 0.168-0.446 0.417l-0.33 1.726-1.05 1.136s-0.244-1.029-0.258-1.107c-0.015-0.078-0.062-0.176-0.087-0.216l-1.006-1.697c-0.106-0.172-0.259-0.259-0.461-0.259-0.325 0.029-0.479 0.211-0.46 0.547m2.922 8.269c0.391 0 0.708-0.317 0.708-0.709 0-0.391-0.317-0.708-0.708-0.708s-0.708 0.317-0.708 0.708c0 0.392 0.317 0.709 0.708 0.709m2.958-4.506 0.025-0.57c-0.469-0.381-0.702-0.863-0.702-1.449 0-0.514 0.18-0.95 0.542-1.31 0.361-0.359 0.797-0.539 1.307-0.539 0.464 0 0.868 0.15 1.213 0.451s0.551 0.677 0.618 1.129l0.344-0.59c-0.167-0.434-0.448-0.789-0.843-1.065s-0.839-0.414-1.332-0.414c-0.644 0-1.193 0.227-1.649 0.68-0.455 0.454-0.683 1.006-0.683 1.658 0 0.427 0.105 0.818 0.316 1.176 0.212 0.357 0.492 0.638 0.844 0.843m0.777 2.881c0.357 0 0.646-0.289 0.646-0.646 0-0.356-0.289-0.645-0.646-0.645s-0.646 0.289-0.646 0.645c0 0.357 0.289 0.646 0.646 0.646m1.843-2.743c0.188-9e-3 0.282-0.1 0.282-0.276 0-0.175-0.094-0.269-0.282-0.282h-1.128l0.019-0.357h1.548c0.142-9e-3 0.245-0.067 0.307-0.176l1.135-1.906c0.113-0.221 0.069-0.388-0.132-0.501-0.209-0.126-0.374-0.082-0.495 0.131l-0.896 1.505h-2.019c-0.393-0.017-0.604 0.169-0.633 0.558l-0.107 1.887c-0.025 0.397 0.163 0.608 0.564 0.633 0.397 0.021 0.608-0.165 0.634-0.558l0.05-0.658zm1.954 5.764c-0.02 5e-3 -0.04 9e-3 -0.061 0.013-0.062 0.012-0.126 0.019-0.191 0.019h-10.349c-0.557 0-1.013-0.456-1.013-1.014v-10.348c0-0.558 0.456-1.014 1.013-1.014h10.349c0.557 0 1.013 0.456 1.013 1.014v10.348c0 0.47-0.324 0.869-0.761 0.982" fill="#2c5135"/>
    <g fill="#fff">
     <path d="m311.6 63.585c-0.401-0.025-0.589-0.236-0.564-0.633l0.107-1.887c0.029-0.389 0.24-0.575 0.633-0.558h2.018l0.897-1.505c0.121-0.213 0.286-0.257 0.495-0.132 0.201 0.113 0.245 0.28 0.132 0.502l-1.135 1.906c-0.063 0.109-0.165 0.167-0.307 0.175h-1.549l-0.018 0.358h1.128c0.188 0.012 0.282 0.106 0.282 0.282 0 0.175-0.094 0.267-0.282 0.276h-1.153l-0.051 0.658c-0.025 0.393-0.236 0.579-0.633 0.558"/>
     <path d="m309.66 60.212c0-0.652 0.228-1.205 0.684-1.658 0.455-0.454 1.005-0.68 1.648-0.68 0.493 0 0.938 0.137 1.333 0.413s0.675 0.631 0.843 1.066l-0.345 0.589c-0.067-0.451-0.273-0.827-0.618-1.128-0.344-0.301-0.749-0.452-1.213-0.452-0.51 0-0.945 0.18-1.307 0.54-0.362 0.359-0.542 0.796-0.542 1.31 0 0.585 0.234 1.068 0.702 1.448l-0.025 0.571c-0.351-0.205-0.632-0.486-0.843-0.844-0.212-0.357-0.317-0.749-0.317-1.175"/>
     <path d="m305.4 57.921c0.201 0 0.355 0.086 0.46 0.259l1.007 1.696c0.025 0.041 0.071 0.138 0.086 0.217 0.015 0.078 0.259 1.107 0.259 1.107l1.049-1.136 0.331-1.726c0.058-0.249 0.206-0.388 0.446-0.417 0.336-0.019 0.513 0.139 0.532 0.475v0.086l-0.345 1.869c-7e-3 0.032-0.02 0.091-0.058 0.144l-1.308 1.524 0.345 1.452 0.273-0.532c0.038-0.057 0.062-0.091 0.072-0.1l1.107-0.762c0.479-0.284 0.765 0.286 0.36 0.546l-1.007 0.705-0.719 1.452c-0.163 0.22-0.354 0.34-0.575 0.359-0.192 0.02-0.364-0.028-0.518-0.143l-1.481-1.194c-0.057-0.057-0.091-0.11-0.1-0.158 0 0-0.312-1.356-0.331-1.438-0.098-0.518 0.564-0.586 0.662-0.129l0.258 1.251 0.518 0.402-0.776-3.465-0.935-1.582c-0.048-0.076-0.072-0.149-0.072-0.216-0.019-0.335 0.134-0.517 0.46-0.546"/>
     <path d="m315.4 58.053c-1.005-0.277-1.715-0.335-2.276-0.356-0.602-0.022-1.871-0.048-2.605-0.048-0.411 0-0.805 0.029-1.223 0.059-0.507 0.037-1.032 0.075-1.611 0.062-0.315-7e-3 -0.66-0.027-1.026-0.047-0.18-0.01-2.086-0.102-2.19-0.108-0.11-6e-3 -0.192-0.103-0.184-0.213 7e-3 -0.11 0.11-0.192 0.213-0.184 0.092 4e-3 2.001 0.096 2.183 0.106 0.363 0.02 0.705 0.039 1.013 0.047 0.562 0.013 1.076-0.025 1.573-0.061 0.425-0.031 0.827-0.06 1.252-0.06 0.812 0 2.073 0.028 2.619 0.048 0.585 0.022 1.322 0.083 2.367 0.37h1e-3c0.106 0.029 0.169 0.139 0.14 0.245-0.03 0.107-0.14 0.169-0.246 0.14"/>
     <path d="m307.86 65.32c0.391 0 0.708 0.317 0.708 0.708s-0.317 0.708-0.708 0.708-0.708-0.317-0.708-0.708 0.317-0.708 0.708-0.708"/>
     <path d="m311.6 63.82c0.357 0 0.646 0.289 0.646 0.646s-0.289 0.646-0.646 0.646-0.646-0.289-0.646-0.646 0.289-0.646 0.646-0.646"/>
    </g>
   </g>
  </g>
 </g>
</svg>
