<?xml version="1.0" encoding="UTF-8"?>
<svg width="87.47" height="57.979" data-name="Layer 1" version="1.1" viewBox="0 0 87.47 57.979" xmlns="http://www.w3.org/2000/svg">
 <defs>
  <style>.cls-1{fill:#6fd2f8;stroke:#000;stroke-linecap:round;stroke-linejoin:round;stroke-width:3.19px;}</style>
 </defs>
 <path class="cls-1" d="m62.285 55.494 6.2-15.67a11.21 11.21 0 0 0-2.32-1 13.44 13.44 0 0 0-1.42-0.37l-1-0.12-1.95-0.22c-0.06 0-0.64-0.07-1.69-0.11h-0.82-0.85-1.1-2.27c-9 0.38-25.64 2.84-43.48 14.31l-1.41 0.93-0.69 0.46 2.84-17.07-10.73-12.98a96 96 0 0 1 27-5 92.57 92.57 0 0 1 28 3.08l1.64 0.46c0.61 0.17 1.21 0.36 1.82 0.55l5 1.56 1.2 0.4h0.08c1 0.33 1.88 0.68 2.69 1l-7.28-20.11-1.44-4 25.57 33.26c-7.78 6.43-17.71 15-23.94 21.53v-0.4z"/>
</svg>
