<?xml version="1.0" encoding="UTF-8"?>
<!-- Created with Inkscape (http://www.inkscape.org/) -->
<svg width="193.13mm" height="70.905mm" version="1.1" viewBox="0 0 193.13 70.905" xmlns="http://www.w3.org/2000/svg">
 <defs>
  <clipPath id="clipPath49">
   <path d="m0 0h615.12v240.94h-615.12z"/>
  </clipPath>
  <clipPath id="clipPath169">
   <path d="m334.28 150.24h96.211v-91.361h-96.211z"/>
  </clipPath>
  <clipPath id="clipPath189">
   <path d="m138.33 186.66h109.09v-103.59h-109.09z"/>
  </clipPath>
  <clipPath id="clipPath205">
   <path d="m207.83 165.32h132.24v-125.57h-132.24z"/>
  </clipPath>
  <clipPath id="clipPath221">
   <path d="m83.326 159.58h94.102v-89.358h-94.102z"/>
  </clipPath>
  <clipPath id="clipPath261">
   <path d="m294.72 200.14h119.2v-113.19h-119.2z"/>
  </clipPath>
  <clipPath id="clipPath285">
   <path d="m398.72 173.58h107.42v-102h-107.42z"/>
  </clipPath>
 </defs>
 <g transform="translate(-6.7328 -110.84)">
  <g transform="translate(31.995 6.9763)">
   <g transform="matrix(.35278 0 0 -.35278 -38.449 180.89)">
    <g clip-path="url(#clipPath49)">
     <g transform="translate(63.914 114)">
      <path d="m0 0c-4.792 0-5.808-2.468-5.808-2.468h-5e-3s-1.016 2.468-5.808 2.468-7.913-3.34-7.913-8.64 9.441-14.738 13.725-17.424h0.044c4.284 2.686 13.679 12.124 13.679 17.424s-3.122 8.64-7.914 8.64" fill="#fff"/>
      <path d="m0 0c-4.792 0-5.808-2.468-5.808-2.468h-5e-3s-1.016 2.468-5.808 2.468-7.913-3.34-7.913-8.64 9.441-14.738 13.725-17.424h0.044c4.284 2.686 13.679 12.124 13.679 17.424s-3.122 8.64-7.914 8.64z" fill="none" stroke="#fff" stroke-linecap="round" stroke-linejoin="round" stroke-miterlimit="10" stroke-width="13.998"/>
     </g>
     <g transform="translate(271.07 174.12)">
      <path d="m0 0h0.064c6.116 3.836 19.532 17.313 19.532 24.881s-4.458 12.337-11.301 12.337c-6.842 0-8.293-3.525-8.293-3.525h-6e-3s-1.452 3.525-8.294 3.525c-6.843 0-11.3-4.769-11.3-12.337s13.481-21.045 19.598-24.881" fill="#fff"/>
      <path d="m0 0h0.064c6.116 3.836 19.532 17.313 19.532 24.881s-4.458 12.337-11.301 12.337c-6.842 0-8.293-3.525-8.293-3.525h-6e-3s-1.452 3.525-8.294 3.525c-6.843 0-11.3-4.769-11.3-12.337s13.481-21.045 19.598-24.881z" fill="none" stroke="#fff" stroke-linecap="round" stroke-linejoin="round" stroke-miterlimit="10" stroke-width="13.998"/>
     </g>
     <g transform="translate(351.07 50.407)">
      <path d="m0 0c-4.792 0-5.808-2.468-5.808-2.468h-4e-3s-1.017 2.468-5.809 2.468c-4.791 0-7.913-3.34-7.913-8.64s9.441-14.738 13.725-17.424h0.044c4.284 2.686 13.679 12.124 13.679 17.424s-3.122 8.64-7.914 8.64" fill="#fff"/>
      <path d="m0 0c-4.792 0-5.808-2.468-5.808-2.468h-4e-3s-1.017 2.468-5.809 2.468c-4.791 0-7.913-3.34-7.913-8.64s9.441-14.738 13.725-17.424h0.044c4.284 2.686 13.679 12.124 13.679 17.424s-3.122 8.64-7.914 8.64z" fill="none" stroke="#fff" stroke-linecap="round" stroke-linejoin="round" stroke-miterlimit="10" stroke-width="13.998"/>
     </g>
     <g transform="translate(214.33 100.72)">
      <path d="m0 0c0.309 0.302 0.619 0.608 0.928 0.915 0.195-0.343 0.398-0.688 0.6-1.033-0.523 0.019-1.032 0.06-1.528 0.118m352.62 40.66c-6.591 0-7.989-3.396-7.989-3.396h-6e-3s-1.398 3.396-7.99 3.396c-3.558 0-6.444-1.341-8.35-3.719-4.544 8.256-12.79 13.022-23.423 13.022-6.296 0-10.704-1.234-13.752-2.763-2.815 15.961-14.122 25.67-30.284 25.67-18.752 0-22.73-9.66-22.73-9.66h-0.017s-1.877 4.559-9.132 7.413c0.525 1.12 0.834 2.172 0.834 3.088 0 4.838-2.85 7.886-7.223 7.886-4.374 0-5.302-2.253-5.302-2.253h-4e-3s-0.928 2.253-5.302 2.253-7.223-3.048-7.223-7.886c0-0.691 0.181-1.461 0.493-2.278-2.168-0.659-4.196-1.537-6.07-2.624-2.468 18.975-15.289 30.617-33.933 30.617-20.81 0-25.224-10.72-25.224-10.72h-0.019s-4.414 10.72-25.224 10.72c-20.117 0-33.456-13.554-34.323-35.248-16.949-2.124-20.798-11.466-20.798-11.466h-0.021s-4.897 11.893-27.982 11.893c-0.125 0-0.248-3e-3 -0.372-4e-3 -4.107 13.378-14.874 21.343-29.624 21.343-19.045 0-23.084-9.811-23.084-9.811h-0.018s-4.039 9.811-23.084 9.811c-17.367 0-29.213-11.041-31.165-28.961-6.544-2.493-8.23-6.582-8.23-6.582h-0.015s-3.484 8.463-19.913 8.463c-16.428 0-27.131-11.45-27.131-29.62s32.369-50.529 47.055-59.738h0.153c9.219 5.781 25.344 20.686 36.071 35.477 5.396-5.616 10.915-10.749 15.912-14.916-0.558 0.051-1.153 0.08-1.793 0.08-7.642 0-12.621-5.326-12.621-13.779 0-8.452 15.058-23.505 21.889-27.789h0.071c6.832 4.284 21.816 19.337 21.816 27.789 0 7.004-3.421 11.858-8.94 13.317 2.381 1.975 4.886 4.175 7.444 6.55 1.896-0.494 3.985-0.754 5.966-0.754 0.71 0 1.436 0.031 2.165 0.097 14.732-22.817 41.095-47.546 55.445-56.546h0.215c6.808 4.27 16.296 12.08 25.955 21.546 4.308-4.617 8.938-8.593 11.999-10.512h0.075c7.186 4.506 22.947 20.34 22.947 29.232 0 6.577-2.868 11.352-7.614 13.393 2.341 3.444 4.442 6.86 6.226 10.192 5.284-4.985 10.414-9.346 14.876-12.7 10.822-13.648 25.214-26.666 33.757-32.023h0.156c10.186 6.388 28.617 23.67 39.418 39.925 3.58-3.979 7.305-7.796 10.968-11.297-1.719-2.28-2.679-5.348-2.679-9.02 0-8.284 14.758-23.037 21.454-27.236h0.069c6.696 4.199 21.382 18.952 21.382 27.236 0 2.459-0.433 4.644-1.233 6.507 9.532-10.65 20.299-20.042 27.196-24.367h0.154c13.934 8.738 43.519 38.154 46.933 56.849 4.182-5.128 9.529-9.929 12.752-11.95h0.061c5.893 3.695 18.816 16.678 18.816 23.968 0 7.291-4.294 11.885-10.886 11.885" fill="#fff"/>
      <path d="m0 0c0.309 0.302 0.619 0.608 0.928 0.915 0.195-0.343 0.398-0.688 0.6-1.033-0.523 0.019-1.032 0.06-1.528 0.118zm352.62 40.66c-6.591 0-7.989-3.396-7.989-3.396h-6e-3s-1.398 3.396-7.99 3.396c-3.558 0-6.444-1.341-8.35-3.719-4.544 8.256-12.79 13.022-23.423 13.022-6.296 0-10.704-1.234-13.752-2.763-2.815 15.961-14.122 25.67-30.284 25.67-18.752 0-22.73-9.66-22.73-9.66h-0.017s-1.877 4.559-9.132 7.413c0.525 1.12 0.834 2.172 0.834 3.088 0 4.838-2.85 7.886-7.223 7.886-4.374 0-5.302-2.253-5.302-2.253h-4e-3s-0.928 2.253-5.302 2.253-7.223-3.048-7.223-7.886c0-0.691 0.181-1.461 0.493-2.278-2.168-0.659-4.196-1.537-6.07-2.624-2.468 18.975-15.289 30.617-33.933 30.617-20.81 0-25.224-10.72-25.224-10.72h-0.019s-4.414 10.72-25.224 10.72c-20.117 0-33.456-13.554-34.323-35.248-16.949-2.124-20.798-11.466-20.798-11.466h-0.021s-4.897 11.893-27.982 11.893c-0.125 0-0.248-3e-3 -0.372-4e-3 -4.107 13.378-14.874 21.343-29.624 21.343-19.045 0-23.084-9.811-23.084-9.811h-0.018s-4.039 9.811-23.084 9.811c-17.367 0-29.213-11.041-31.165-28.961-6.544-2.493-8.23-6.582-8.23-6.582h-0.015s-3.484 8.463-19.913 8.463c-16.428 0-27.131-11.45-27.131-29.62s32.369-50.529 47.055-59.738h0.153c9.219 5.781 25.344 20.686 36.071 35.477 5.396-5.616 10.915-10.749 15.912-14.916-0.558 0.051-1.153 0.08-1.793 0.08-7.642 0-12.621-5.326-12.621-13.779 0-8.452 15.058-23.505 21.889-27.789h0.071c6.832 4.284 21.816 19.337 21.816 27.789 0 7.004-3.421 11.858-8.94 13.317 2.381 1.975 4.886 4.175 7.444 6.55 1.896-0.494 3.985-0.754 5.966-0.754 0.71 0 1.436 0.031 2.165 0.097 14.732-22.817 41.095-47.546 55.445-56.546h0.215c6.808 4.27 16.296 12.08 25.955 21.546 4.308-4.617 8.938-8.593 11.999-10.512h0.075c7.186 4.506 22.947 20.34 22.947 29.232 0 6.577-2.868 11.352-7.614 13.393 2.341 3.444 4.442 6.86 6.226 10.192 5.284-4.985 10.414-9.346 14.876-12.7 10.822-13.648 25.214-26.666 33.757-32.023h0.156c10.186 6.388 28.617 23.67 39.418 39.925 3.58-3.979 7.305-7.796 10.968-11.297-1.719-2.28-2.679-5.348-2.679-9.02 0-8.284 14.758-23.037 21.454-27.236h0.069c6.696 4.199 21.382 18.952 21.382 27.236 0 2.459-0.433 4.644-1.233 6.507 9.532-10.65 20.299-20.042 27.196-24.367h0.154c13.934 8.738 43.519 38.154 46.933 56.849 4.182-5.128 9.529-9.929 12.752-11.95h0.061c5.893 3.695 18.816 16.678 18.816 23.968 0 7.291-4.294 11.885-10.886 11.885z" fill="none" stroke="#fff" stroke-linecap="round" stroke-linejoin="round" stroke-miterlimit="10" stroke-width="13.998"/>
     </g>
     <g clip-path="url(#clipPath169)">
      <g transform="translate(382.39 58.875)">
       <path d="m0 0c-15.015 9.416-48.109 42.499-48.109 61.077 0 18.577 10.943 30.283 27.739 30.283s20.359-8.652 20.359-8.652h0.015s3.563 8.652 20.359 8.652 27.739-11.706 27.739-30.283c0-18.578-32.931-51.661-47.946-61.077z" fill="#ec7d63"/>
      </g>
     </g>
     <g transform="translate(499.12 60.623)">
      <path d="m0 0c-14.8 9.281-47.421 41.892-47.421 60.204s10.786 29.851 27.342 29.851 20.068-8.529 20.068-8.529h0.015s3.512 8.529 20.068 8.529 27.343-11.539 27.343-29.851-32.461-50.923-47.261-60.204z" fill="#ee5148"/>
     </g>
     <g clip-path="url(#clipPath189)">
      <g transform="translate(192.88 83.069)">
       <path d="m0 0c-17.024 10.676-54.548 48.188-54.548 69.252s12.407 34.338 31.452 34.338c19.044 0 23.084-9.811 23.084-9.811h0.017s4.039 9.811 23.084 9.811c19.044 0 31.452-13.274 31.452-34.338s-37.339-58.576-54.364-69.252z" fill="#ef6356"/>
      </g>
     </g>
     <g clip-path="url(#clipPath205)">
      <g transform="translate(273.96 39.747)">
       <path d="m0 0c-20.637 12.942-66.124 58.414-66.124 83.948 0 25.535 15.041 41.625 38.126 41.625 23.086 0 27.983-11.893 27.983-11.893h0.021s4.897 11.893 27.983 11.893c23.085 0 38.126-16.09 38.126-41.625 0-25.534-45.263-71.006-65.9-83.948z" fill="#ee5148"/>
      </g>
     </g>
     <g clip-path="url(#clipPath221)">
      <g transform="translate(130.38 70.221)">
       <path d="m0 0c-14.686 9.21-47.055 41.568-47.055 59.738 0 18.171 10.704 29.621 27.132 29.621s19.912-8.463 19.912-8.463h0.015s3.485 8.463 19.913 8.463 27.131-11.45 27.131-29.621c0-18.17-32.21-50.528-46.895-59.738z" fill="#f14a4b"/>
      </g>
     </g>
     <g transform="translate(58.105 87.934)">
      <path d="m0 0c-4.284 2.686-13.725 12.125-13.725 17.425s3.122 8.639 7.914 8.639c4.791 0 5.808-2.468 5.808-2.468h4e-3s1.017 2.468 5.808 2.468c4.792 0 7.914-3.339 7.914-8.639s-9.395-14.739-13.678-17.425z" fill="#ea3133"/>
     </g>
     <g transform="translate(189.99 49.294)">
      <path d="m0 0c-6.832 4.284-21.889 19.337-21.889 27.79s4.979 13.779 12.621 13.779 9.263-3.937 9.263-3.937h7e-3s1.621 3.937 9.263 3.937 12.621-5.326 12.621-13.779-14.983-23.506-21.815-27.79z" fill="#bf2331"/>
     </g>
     <g transform="translate(271.07 174.12)">
      <path d="m0 0c-6.117 3.836-19.598 17.313-19.598 24.881s4.457 12.337 11.3 12.337c6.842 0 8.294-3.525 8.294-3.525h6e-3s1.451 3.525 8.293 3.525c6.843 0 11.301-4.769 11.301-12.337s-13.416-21.045-19.532-24.881z" fill="#e33435"/>
     </g>
     <g transform="translate(312.13 50.781)">
      <path d="m0 0c-7.186 4.507-23.025 20.34-23.025 29.232 0 8.891 5.237 14.494 13.276 14.494s9.744-4.141 9.744-4.141h7e-3s1.705 4.141 9.744 4.141 13.276-5.603 13.276-14.494c0-8.892-15.761-24.725-22.947-29.232z" fill="#e33435"/>
     </g>
     <g transform="translate(345.26 24.343)">
      <path d="m0 0c-4.284 2.686-13.725 12.125-13.725 17.425s3.122 8.639 7.914 8.639c4.791 0 5.808-2.468 5.808-2.468h4e-3s1.017 2.468 5.808 2.468c4.792 0 7.914-3.339 7.914-8.639s-9.395-14.739-13.678-17.425z" fill="#dd3b2c"/>
     </g>
     <g transform="translate(101.66 114.78)">
      <path d="m0 0c-3.611 2.264-11.569 10.22-11.569 14.688s2.631 7.283 6.67 7.283c4.04 0 4.896-2.081 4.896-2.081h4e-3s0.857 2.081 4.896 2.081 6.671-2.815 6.671-7.283-7.92-12.424-11.53-14.688z" fill="#fff"/>
     </g>
     <g clip-path="url(#clipPath261)">
      <g transform="translate(354.32 86.946)">
       <path d="m0 0c-18.603 11.666-59.607 52.656-59.607 75.674 0 23.017 13.559 37.521 34.369 37.521s25.225-10.72 25.225-10.72h0.018s4.414 10.72 25.225 10.72c20.81 0 34.368-14.504 34.368-37.521 0-23.018-40.801-64.008-59.405-75.674z" fill="#ee5148"/>
      </g>
     </g>
     <g transform="translate(380.79 166.73)">
      <path d="m0 0c-3.91 2.452-12.528 11.067-12.528 15.905s2.85 7.886 7.223 7.886c4.374 0 5.302-2.253 5.302-2.253h4e-3s0.928 2.253 5.302 2.253 7.223-3.048 7.223-7.886-8.575-13.453-12.485-15.905z" fill="#fff"/>
     </g>
     <g transform="translate(431.59 158.52)">
      <path d="m0 0c-3.91 2.452-12.528 11.067-12.528 15.905s2.85 7.886 7.223 7.886c4.374 0 5.302-2.253 5.302-2.253h4e-3s0.928 2.253 5.302 2.253 7.223-3.048 7.223-7.886-8.575-13.453-12.485-15.905z" fill="#f47264"/>
     </g>
     <g clip-path="url(#clipPath285)">
      <g transform="translate(452.43 71.584)">
       <path d="m0 0c-16.763 10.513-53.712 47.449-53.712 68.19s12.218 33.811 30.97 33.811 22.73-9.66 22.73-9.66h0.017s3.977 9.66 22.73 9.66c18.752 0 30.969-13.07 30.969-33.811s-36.766-57.677-53.53-68.19z" fill="#ee5148"/>
      </g>
     </g>
     <path d="m141.19 125.7 1.208 9.221h-6.614l-1.208-9.221zm-12.655-16.216 1.653 12.464h-5.214v3.752h5.787l1.208 9.221h-5.469v3.752h6.042l1.653 12.147h3.688l-1.59-12.147h6.614l1.654 12.147h3.751l-1.589-12.147h5.214v-3.752h-5.787l-1.144-9.221h5.469v-3.752h-6.042l-1.653-12.464h-3.815l1.653 12.464h-6.614l-1.653-12.464z" fill="#fff"/>
     <g transform="translate(163.32 113.68)">
      <path d="m0 0c1.081-0.191 2.671-0.254 4.642-0.254 5.723 0 11.002 2.098 11.002 8.331 0 5.85-5.024 8.267-11.065 8.267h-4.579zm0 20.541h5.024c5.85 0 9.284 3.052 9.284 7.186 0 5.024-3.815 6.995-9.411 6.995-2.544 0-4.007-0.19-4.897-0.381zm-5.533 17.552c2.417 0.508 6.232 0.89 10.112 0.89 5.532 0 9.094-0.954 11.764-3.116 2.226-1.654 3.562-4.197 3.562-7.568 0-4.133-2.735-7.758-7.25-9.412v-0.127c4.07-1.017 8.84-4.388 8.84-10.747 0-3.689-1.463-6.487-3.625-8.585-2.989-2.735-7.822-4.007-14.818-4.007-3.815 0-6.741 0.255-8.585 0.509z" fill="#fff"/>
     </g>
     <path d="m192.06 140.27h5.596v-30.779h-5.596zm6.233 8.649c0.063-1.908-1.336-3.435-3.561-3.435-1.972 0-3.371 1.527-3.371 3.435 0 1.971 1.463 3.497 3.498 3.497 2.098 0 3.434-1.526 3.434-3.497" fill="#fff"/>
     <g transform="translate(224.4 128.12)">
      <path d="m0 0c0 0.954-0.063 1.781-0.318 2.544-1.017 3.243-3.752 5.914-7.822 5.914-5.342 0-9.157-4.515-9.157-11.638 0-6.041 3.052-11.065 9.094-11.065 3.434 0 6.55 2.162 7.758 5.723 0.318 0.954 0.445 2.035 0.445 2.989zm5.787 12.146c-0.127-2.225-0.254-4.705-0.254-8.458v-17.87c0-7.058-1.399-11.383-4.388-14.054-2.989-2.798-7.313-3.688-11.192-3.688-3.689 0-7.759 0.89-10.239 2.544l1.399 4.261c2.035-1.273 5.215-2.417 9.03-2.417 5.724 0 9.921 2.989 9.921 10.747v3.434h-0.127c-1.717-2.862-5.024-5.151-9.794-5.151-7.631 0-13.1 6.487-13.1 15.008 0 10.43 6.805 16.344 13.863 16.344 5.342 0 8.267-2.798 9.603-5.342h0.127l0.254 4.642z" fill="#fff"/>
     </g>
     <g transform="translate(260.67 128.12)">
      <path d="m0 0c0 0.954-0.064 1.781-0.318 2.544-1.017 3.243-3.752 5.914-7.822 5.914-5.341 0-9.157-4.515-9.157-11.638 0-6.041 3.052-11.065 9.093-11.065 3.435 0 6.551 2.162 7.759 5.723 0.318 0.954 0.445 2.035 0.445 2.989zm5.787 12.146c-0.127-2.225-0.254-4.705-0.254-8.458v-17.87c0-7.058-1.399-11.383-4.388-14.054-2.989-2.798-7.314-3.688-11.192-3.688-3.689 0-7.759 0.89-10.239 2.544l1.399 4.261c2.035-1.273 5.214-2.417 9.03-2.417 5.723 0 9.921 2.989 9.921 10.747v3.434h-0.128c-1.717-2.862-5.023-5.151-9.793-5.151-7.631 0-13.1 6.487-13.1 15.008 0 10.43 6.805 16.344 13.863 16.344 5.342 0 8.267-2.798 9.603-5.342h0.127l0.254 4.642z" fill="#fff"/>
     </g>
     <g transform="translate(295.01 127.87)">
      <path d="m0 0c0.064 3.561-1.463 9.094-7.758 9.094-5.66 0-8.14-5.215-8.586-9.094zm-16.407-4.007c0.127-7.567 4.96-10.683 10.556-10.683 4.007 0 6.423 0.699 8.522 1.59l0.953-4.007c-1.971-0.89-5.341-1.908-10.237-1.908-9.476 0-15.136 6.232-15.136 15.517s5.469 16.598 14.436 16.598c10.047 0 12.718-8.84 12.718-14.499 0-1.145-0.127-2.035-0.19-2.608z" fill="#fff"/>
     </g>
     <g transform="translate(306.07 130.66)">
      <path d="m0 0c0 3.625-0.064 6.741-0.254 9.603h4.896l0.191-6.042h0.255c1.399 4.134 4.769 6.741 8.521 6.741 0.636 0 1.082-0.063 1.59-0.19v-5.279c-0.572 0.127-1.145 0.191-1.908 0.191-3.943 0-6.74-2.989-7.504-7.186-0.127-0.763-0.254-1.653-0.254-2.607v-16.407h-5.533z" fill="#fff"/>
     </g>
     <g transform="translate(332.59 152.35)">
      <path d="m0 0v-17.933h20.732v17.933h5.596v-42.862h-5.596v20.096h-20.732v-20.096h-5.533v42.862z" fill="#fff"/>
     </g>
     <g transform="translate(386.57 127.87)">
      <path d="m0 0c0.064 3.561-1.463 9.094-7.758 9.094-5.66 0-8.14-5.215-8.586-9.094zm-16.407-4.007c0.127-7.567 4.96-10.683 10.556-10.683 4.007 0 6.423 0.699 8.522 1.59l0.953-4.007c-1.971-0.89-5.341-1.908-10.238-1.908-9.475 0-15.135 6.232-15.135 15.517s5.469 16.598 14.436 16.598c10.047 0 12.718-8.84 12.718-14.499 0-1.145-0.127-2.035-0.19-2.608z" fill="#fff"/>
     </g>
     <g transform="translate(413.85 125.2)">
      <path d="m0 0c-6.105 0.127-13.037-0.954-13.037-6.932 0-3.624 2.417-5.342 5.279-5.342 4.006 0 6.55 2.544 7.44 5.152 0.191 0.572 0.318 1.208 0.318 1.78zm0.827-15.708-0.445 3.879h-0.191c-1.717-2.416-5.024-4.578-9.412-4.578-6.232 0-9.412 4.388-9.412 8.839 0 7.441 6.614 11.511 18.506 11.447v0.636c0 2.544-0.7 7.123-6.995 7.123-2.862 0-5.851-0.891-8.013-2.29l-1.272 3.689c2.544 1.653 6.232 2.734 10.112 2.734 9.412 0 11.701-6.423 11.701-12.591v-11.511c0-2.671 0.127-5.278 0.508-7.377z" fill="#fff"/>
     </g>
     <g transform="translate(427.01 130.66)">
      <path d="m0 0c0 3.625-0.064 6.741-0.254 9.603h4.896l0.191-6.042h0.255c1.399 4.134 4.769 6.741 8.521 6.741 0.636 0 1.082-0.063 1.59-0.19v-5.279c-0.572 0.127-1.145 0.191-1.908 0.191-3.943 0-6.74-2.989-7.504-7.186-0.127-0.763-0.254-1.653-0.254-2.607v-16.407h-5.533z" fill="#fff"/>
     </g>
     <g transform="translate(456.07 149.11)">
      <path d="m0 0v-8.839h8.012v-4.261h-8.012v-16.598c0-3.816 1.081-5.978 4.197-5.978 1.462 0 2.544 0.191 3.243 0.382l0.254-4.197c-1.081-0.446-2.797-0.764-4.96-0.764-2.607 0-4.705 0.827-6.041 2.353-1.59 1.654-2.162 4.388-2.162 8.013v16.789h-4.77v4.261h4.77v7.376z" fill="#fff"/>
     </g>
     <g transform="translate(469.62 115.21)">
      <path d="m0 0c1.653-1.081 4.579-2.226 7.376-2.226 4.07 0 5.979 2.035 5.979 4.579 0 2.671-1.591 4.133-5.724 5.659-5.533 1.972-8.14 5.025-8.14 8.713 0 4.96 4.007 9.03 10.62 9.03 3.116 0 5.851-0.89 7.568-1.907l-1.399-4.07c-1.208 0.762-3.435 1.78-6.296 1.78-3.307 0-5.151-1.908-5.151-4.197 0-2.544 1.844-3.688 5.851-5.215 5.342-2.035 8.076-4.706 8.076-9.284 0-5.406-4.197-9.222-11.51-9.222-3.371 0-6.487 0.827-8.65 2.099z" fill="#fff"/>
     </g>
     <g transform="translate(451.71 51.247)">
      <path d="m0 0c-6.696 4.199-21.454 18.952-21.454 27.237 0 8.284 4.88 13.505 12.37 13.505s9.079-3.859 9.079-3.859h7e-3s1.589 3.859 9.079 3.859 12.37-5.221 12.37-13.505c0-8.285-14.686-23.038-21.381-27.237z" fill="#bf2331"/>
     </g>
     <g transform="translate(558.96 105.52)">
      <path d="m0 0c-5.892 3.695-18.88 16.678-18.88 23.969 0 7.29 4.295 11.884 10.886 11.884 6.592 0 7.99-3.395 7.99-3.395h6e-3s1.398 3.395 7.989 3.395c6.592 0 10.886-4.594 10.886-11.884 0-7.291-12.923-20.274-18.816-23.969z" fill="#b2272e"/>
     </g>
    </g>
   </g>
  </g>
 </g>
</svg>
