<?xml version="1.0" encoding="UTF-8"?>
<svg width="221.84" height="209.35" data-name="Layer 1" version="1.1" viewBox="0 0 221.84 209.35" xmlns="http://www.w3.org/2000/svg">
 <defs>
  <style>.cls-1{fill:#5689a5;}.cls-1,.cls-2,.cls-5{stroke:#000;}.cls-1,.cls-2,.cls-4,.cls-5{stroke-linecap:round;stroke-linejoin:round;stroke-width:7.75px;}.cls-2{fill:#6896b5;}.cls-3{fill:#fff;}.cls-4,.cls-5{fill:none;}.cls-4{stroke:#fff;}</style>
 </defs>
 <path class="cls-1" d="m69.41 54.06 5.61-9.11a11.36 11.36 0 0 1 9.64-5.41h41.15a11.37 11.37 0 0 1 10 6l4.42 8.21a11.35 11.35 0 0 0 10 6h28.38a11.37 11.37 0 0 1 11.36 11.36v84.23a11.36 11.36 0 0 1-11.36 11.36h-143.2a11.36 11.36 0 0 1-11.37-11.36v-85.4a11.36 11.36 0 0 1 11.78-11.35l23.47 0.87a11.35 11.35 0 0 0 10.12-5.4z"/>
 <circle class="cls-2" cx="105.07" cy="111.27" r="40.71"/>
 <path class="cls-3" d="m189.97 122.54v32.8a11.36 11.36 0 0 1-11.37 11.36h-18l-3.94-2.32s23.26 0 26.36-10.86 3.1-34.11 3.1-34.11z"/>
 <line class="cls-4" x1="146.92" x2="146.92" y1="59.21" y2="59.19"/>
 <path class="cls-4" d="m135.34 44.71a10.77 10.77 0 0 0-3.32-0.51h-41.16a11.37 11.37 0 0 0-9.68 5.41l-5.59 9.1a11.36 11.36 0 0 1-10.1 5.4l-23.46-0.87a11.37 11.37 0 0 0-11.79 11.35v85.4a11.22 11.22 0 0 0 1.86 6.22"/>
 <line class="cls-5" x1="41.1" x2="41.1" y1="73.66" y2="148.1"/>
 <path class="cls-4" d="m98.3 71.12a40.71 40.71 0 0 0 13 79.3 39.62 39.62 0 0 0 6.76-0.56"/>
 <circle class="cls-3" cx="54.28" cy="142.67" r="6.2"/>
 <circle class="cls-3" cx="149.65" cy="141.89" r="3.88"/>
 <circle class="cls-3" cx="109.92" cy="130.52" r="4.72"/>
 <circle class="cls-3" cx="125.21" cy="122.79" r="2.21"/>
 <circle class="cls-3" cx="156.86" cy="97.95" r=".92"/>
 <circle class="cls-3" cx="148.1" cy="75.21" r="3.88"/>
 <circle cx="165.93" cy="77.54" r="7.75"/>
 <path d="m161.28 31.02a22 22 0 0 1 1.36-8.22 30.33 30.33 0 0 1 3.7-7.29 26.56 26.56 0 0 1 5.71-6 15.54 15.54 0 0 1 7.84-3.27l-4.31 6.64c-1.38 2.07-2.7 4.17-4.14 6.21s-2.91 4.09-4.55 6.09a45.17 45.17 0 0 1-5.61 5.84z"/>
 <path d="m0 192.29a12.65 12.65 0 0 1 3.25-6.55 17.68 17.68 0 0 1 5.85-4.31 17.13 17.13 0 0 1 7.07-1.66 13.59 13.59 0 0 1 7.09 1.67 31.08 31.08 0 0 1-3.15 1.7c-1 0.53-2 0.91-2.92 1.39-1.9 0.84-3.68 1.71-5.48 2.52l-5.49 2.54c-1.91 0.88-3.81 1.76-6.22 2.7z"/>
 <path d="m38.77 23.26a8.26 8.26 0 0 1 2-0.67 11.85 11.85 0 0 1 2.05-0.26 16.09 16.09 0 0 1 2.08 0.09 16.54 16.54 0 0 1 2.07 0.43 14.07 14.07 0 0 1 7.13 4.76 17.08 17.08 0 0 1 1.23 1.82c0.18 0.31 0.38 0.62 0.54 1s0.28 0.66 0.4 1a15 15 0 0 1 0.68 2c0.14 0.69 0.24 1.38 0.34 2.07a9.48 9.48 0 0 1 0 2.06c0 0.69-0.09 1.36-0.17 2a15.57 15.57 0 0 1-0.54 2 14.63 14.63 0 0 1-0.76 1.89 27.55 27.55 0 0 1-1.73-3.5c-0.29-0.55-0.56-1.09-0.8-1.61a13 13 0 0 0-0.76-1.54c-0.27-0.49-0.53-1-0.76-1.45s-0.56-0.9-0.82-1.34c-0.15-0.22-0.26-0.45-0.39-0.67s-0.31-0.4-0.46-0.61a11.55 11.55 0 0 0-0.88-1.2 24 24 0 0 0-4.38-4.26 58.47 58.47 0 0 0-6.07-4.01z"/>
 <path d="m107 0a22.85 22.85 0 0 1 0.74 5.68 41.3 41.3 0 0 1-0.26 5c-0.16 1.57-0.41 3.06-0.6 4.52a20.39 20.39 0 0 0-0.21 2.26 8.59 8.59 0 0 0 0.33 2.74 4.52 4.52 0 0 1-3-1.33 7.88 7.88 0 0 1-1.88-2.77 12.26 12.26 0 0 1-0.77-6.09 14.87 14.87 0 0 1 1.72-5.5 12.07 12.07 0 0 1 3.93-4.51z"/>
 <path d="m102.35 181.44a37.82 37.82 0 0 1 4 6.75c1.08 2.25 2 4.52 2.8 6.8s1.52 4.56 2.19 6.9 1.29 4.69 1.87 7.46a16.21 16.21 0 0 1-6.22-5.27 27 27 0 0 1-3.68-7 30.33 30.33 0 0 1-1.66-7.64 21.68 21.68 0 0 1 0.7-8z"/>
 <path d="m205.48 162.05a10.31 10.31 0 0 1 6.33-0.74 12.89 12.89 0 0 1 5.85 2.7 11.17 11.17 0 0 1 3.75 5.53 8.69 8.69 0 0 1-0.43 6.49c-1.61-1.67-2.62-3.05-3.85-4.15a43.67 43.67 0 0 0-3.4-3.06c-1.18-0.95-2.42-1.93-3.79-3s-2.81-2.23-4.46-3.77z"/>
 <circle class="cls-5" cx="105.07" cy="111.27" r="40.71"/>
 <path class="cls-5" d="m189.97 71.07v84.27a11.36 11.36 0 0 1-11.37 11.36h-143.19a11.36 11.36 0 0 1-11.37-11.36v-85.4a11.36 11.36 0 0 1 11.79-11.35l23.46 0.87a11.35 11.35 0 0 0 10.12-5.4l5.6-9.1a11.38 11.38 0 0 1 9.65-5.42h41.14a11.35 11.35 0 0 1 10 6l4.44 8.22a11.33 11.33 0 0 0 10 6h28.36a11.37 11.37 0 0 1 11.37 11.31z"/>
</svg>
