<?xml version="1.0" encoding="UTF-8"?>
<!-- Created with Inkscape (http://www.inkscape.org/) -->
<svg width="6.7541mm" height="8.092mm" version="1.1" viewBox="0 0 6.7541 8.092" xmlns="http://www.w3.org/2000/svg">
 <defs>
  <clipPath id="clipPath311-9">
   <path d="m0 0h850.39v425.2h-850.39z"/>
  </clipPath>
  <clipPath id="clipPath315-1">
   <path d="m0 0h851v426h-851z"/>
  </clipPath>
 </defs>
 <g transform="translate(-88.326 -173.17)">
  <path d="m90.834 178.02c-0.16157 0-0.30762-0.0603-0.42192-0.17463-0.11395-0.1143-0.17462-0.26-0.17462-0.42192v-3.6498c0-0.16192 0.06068-0.30762 0.17462-0.42192 0.1143-0.1143 0.26035-0.17463 0.42192-0.17463h3.6502c0.16157 0 0.30762 0.0603 0.42192 0.17463 0.11395 0.1143 0.17427 0.26 0.17427 0.42192v3.6498c0 0.16192-0.06032 0.30762-0.17462 0.42192-0.11395 0.1143-0.26 0.17463-0.42157 0.17463z" fill="#fff" fill-rule="evenodd"/>
  <path d="m94.737 173.52c0.06985 0.0699 0.10478 0.15416 0.10478 0.2533v3.6498c0 0.0991-0.03493 0.18345-0.10478 0.2533-0.06985 0.0699-0.15416 0.10477-0.2533 0.10477h-3.6498c-0.09913 0-0.18344-0.0349-0.25329-0.10477-0.06985-0.0699-0.10478-0.15417-0.10478-0.2533v-3.6498c0-0.0991 0.03492-0.18345 0.10478-0.2533 0.06985-0.0699 0.15416-0.10477 0.25329-0.10477h3.6498c0.09913 0 0.18344 0.0349 0.2533 0.10477m-1.1656 2.3336c0.20955-0.19368 0.31432-0.44027 0.31432-0.74013 0-0.20955-0.07161-0.41346-0.21414-0.61101-0.20073-0.27658-0.49354-0.41487-0.87736-0.41487h-1.2707v3.1129h0.63324v-1.0566h0.6417c0.3055 0 0.56303-0.0967 0.77294-0.29033m-0.49565-1.1024c0.10054 0.10478 0.15064 0.23143 0.15064 0.37995 0 0.10759-0.03634 0.21237-0.10936 0.31432-0.09878 0.13688-0.23707 0.20532-0.41451 0.20532h-0.54575v-1.0566h0.54575c0.14817 0 0.2727 0.0522 0.37324 0.15698" fill="#2c5135" fill-rule="evenodd"/>
  <g transform="matrix(.35278 0 0 -.35278 -37.44 183.8)">
   <g clip-path="url(#clipPath311-9)">
    <path d="m374.96 7.4852-12.644 2e-3 -5.318 3.775 5.319 4.117 12.644-2e-3z" fill="#0356a1"/>
    <g transform="translate(374.96 7.4852)">
     <path d="m0 0-12.644 2e-3 -5.318 3.775 5.319 4.117 12.644-2e-3z" fill="none" stroke="#fff" stroke-miterlimit="10" stroke-width=".595"/>
    </g>
   </g>
  </g>
  <g transform="matrix(.35278 0 0 -.35278 -37.44 183.8)">
   <g clip-path="url(#clipPath315-1)">
    <text transform="matrix(1 -.00016 -.00016 -1 365.92 9.9264)" fill="#ffffff" font-family="FrutigerLTStd" font-size="5px" font-weight="bold"><tspan x="0" y="0">m</tspan></text>
   </g>
  </g>
 </g>
</svg>
