<?xml version="1.0" encoding="UTF-8"?>
<svg width="240" height="213.2" version="1.1" viewBox="0 0 240 213.2" xml:space="preserve" xmlns="http://www.w3.org/2000/svg" xmlns:cc="http://creativecommons.org/ns#" xmlns:dc="http://purl.org/dc/elements/1.1/" xmlns:rdf="http://www.w3.org/1999/02/22-rdf-syntax-ns#"><metadata><rdf:RDF><cc:Work rdf:about=""><dc:format>image/svg+xml</dc:format><dc:type rdf:resource="http://purl.org/dc/dcmitype/StillImage"/></cc:Work></rdf:RDF></metadata><defs><clipPath id="clipPath86"><path d="m0 3e3h3e3v-3e3h-3e3z"/></clipPath></defs><g transform="matrix(.064359 0 0 .064359 -8.9803 -12.198)"><g stroke-linecap="round"><g stroke-width="12.537"><path d="m3519.8 2532.5c20.708-14.991 50.989-32.396 52.718-60.34 0.3193-5.1622-7.7944-22.781-8.9467-25.368-21.422-48.093 6.1245 17.324-15.506-38.333-2.7958-7.1936-15.157-33.735-16.103-41.434-3.2586-26.52 22.404-46.657 33.646-67.946" fill="#89a02c" stroke="#445016"/><path d="m3519.9 2530.6c8.7785-20.482 21.451-39.832 26.335-61.445 6.1556-27.236-12.413-47.872-25.932-68.5-5.9174-9.0292-8.1248-14.463-14.89-23.462-5.7922-7.7049-13.072-14.344-18.837-22.067-4.821-6.4575-5.3218-13.473-8.1126-20.539-1.6374-4.1454-7.4413-15.137-5.4016-19.369" fill="#abc837" stroke="#677821"/><path d="m3519.9 2528.8c18.211-68.918-11.971 39.932 25.172-65.492 11.828-33.571 8.4459-48.388 25.172-77.399 38.382-66.576 108.26-114.33 163.62-166.71" fill="#677821" stroke="#445016"/></g><path d="m3519.9 2528.8c-14.103-59.067 9.2707 34.224-19.494-56.13-9.1596-28.772-6.5408-41.472-19.494-66.336-29.724-57.06-83.837-97.988-126.71-142.88" fill="#677821" stroke="#445016" stroke-width="10.214"/></g><path d="m174.16 2745.5c-12.213 129.4-27.193 261.05-19.06 391.18 2.7946 44.713 21.197 86.472 33.887 128.77 13.942 46.474 9.7128 60.694 60.997 94.884 37.503 25.002 80.265 20.69 121.99 27.11 18.413 2.8327 35.807 10.722 54.219 13.555 39.533 6.0819 82.09 2.787 121.99 6.7774 21.274-0.3881 40.296 11.255 60.997 13.555 90.652 10.072 181.27-7.9405 271.1-13.555 27.057-1.6911 54.33 2.4544 81.329 0 30.85-2.8046 73.264-15.008 101.66-20.332 15.701-2.9439 31.546-5.1879 47.442-6.7774 6.7438-0.6744 14.693 3.7594 20.332 0 22.591-15.061-6.7774-13.931-6.7774-13.555 0 2.2591 4.5183 0 6.7774 0 24.85 0 49.724 1.0794 74.551 0 110.29-4.7951 52.91-6.6138 162.66-20.332 40.413-5.0516 81.419-3.2492 121.99-6.7774 63.092-5.4862 127.08-11.973 189.77-20.332 15.834-2.1112 31.591-4.796 47.442-6.7774 2.2417-0.2802 6.7774 2.2591 6.7774 0 0-54.193-252.85 7.1247 115.22-54.219 7.429-1.2381 111.66 0.9005 128.77 0 58.83-3.0962 117.49-8.8569 176.21-13.555 211.37-16.909-93.372-2.2598 149.1-33.887 36.564-4.7693 91.57 4.2923 128.77 0 110.29-12.726 143.49-31.409 257.54-54.219 158.52-31.704 321.19-2.8876 481.2-13.555 77.608-5.1738 153.55-31.054 230.43-40.664 45.862-5.7327 95.927 0 142.33 0 78.266 0 159.43 10.61 237.21 20.332 18.793 2.3491 47.606 13.5 67.774 6.7774 16.094-5.3646 10.829-75.952 6.7774-88.106-15.711-47.133-63.439-172.86-74.551-223.65-9.9679-45.568-8.2005-197.97-47.442-237.21-6.5864-6.5865-18.778-2.6118-27.11-6.7774-66.623-33.312-125.25-72.922-203.32-33.887-18.092 9.0461-260.92 0-304.98 0-226.21 0-453.75 12.982-677.74 47.442-59.151 9.1001-116.65 35.701-176.21 40.664-18.011 1.5008-36.305-2.3886-54.219 0-30.458 4.061-57.531 24.052-88.106 27.11-76.054 7.6055-154.16-5.4478-230.43 0-105.31 7.5224-213.86 8.0764-318.54 27.11-31.571 5.7403-90.447 28.531-121.99 40.664-11.355 4.3673-23.006 8.1141-33.887 13.555-2.8576 1.4288-3.5895 6.5649-6.7774 6.7774-26.206 1.7471-173.15-1.8718-196.54 0-50.355 4.0284-99.205 19.231-149.1 27.11-55.994 8.8412-113.87 9.7491-169.43 20.332-27.45 5.2286-54.978 11.032-81.329 20.332-12.422 4.3842-20.86 18.378-33.887 20.332-98.365 14.755-200.25-20.113-298.21-27.11-69.226-4.9448-141.28 8.6029-210.1 0-16.32-2.04-31.314-10.329-47.442-13.555-70.811-14.162-76.3 17.163-130.04-45.538z" fill="#53676c" opacity=".8" stroke="#000" stroke-width="1px"/><path d="m3839.8 3127.3c-599.85-59.365-1187.6 78.907-1781.4 138.77-114.47 11.539-229.97 8.2212-344.14 23.128-122.34 15.974-242.2 51.935-364.38 69.384-223.49 31.916-379.77 23.128-607.3 23.128-101.4 0-478.74 31.244-546.57-46.256" fill="none" stroke="#374845" stroke-linecap="round" stroke-width="57.627"/><path d="m3709.7 2549.9c-583.01-59.79-1154.3 79.472-1731.4 139.76-111.25 11.622-223.51 8.28-334.48 23.294-118.9 16.088-235.4 52.307-354.15 69.881-217.21 32.145-369.11 23.294-590.25 23.294-98.548 0-465.3 31.468-531.23-46.588" fill="none" stroke="#374845" stroke-linecap="round" stroke-width="57.015"/><g transform="matrix(1.3333 0 0 -1.3333 0 4e3)" fill="#d38d5f" stroke="#ffb380"><g fill="#d38d5f" stroke="#ffb380"><g fill="#d38d5f" stroke="#ffb380"><path d="m1885.5 1790.4-46.944-32.87c-9.145-6.409-15.802-15.772-18.84-26.517l-1.741-6.136c-1.281-4.539-4.03-8.512-7.818-11.314-13.009-9.634-43.877-32.677-51.591-40.258-9.853-9.677-21.426-18.108-21.426-18.108l-39.095-34.176c-4.589-5.431-11.569-11.766-17.372-16.716l-0.288-0.245c-1.308-1.113-2.553-2.155-3.691-3.093-0.206-0.171-0.393-0.353-0.57-0.543l-16.443-14.029-2.52-4.378 3.988-60.862 61.791 56.357c1.352 1.148 2.748 2.342 4.19 3.587 8.897 7.691 19.423 17.162 30.466 27.282 15.333 14.072 31.649 29.399 45.953 42.967 0.975 0.82 1.936 1.723 2.877 2.726 21.441 20.357 37.7 36.118 38.057 36.468l0.01 0.01c2.91 2.171 5.459 4.012 7.385 5.383 2.144 1.523 4.52 2.693 7.026 3.482 10.929 3.461 13.372 10.765 13.904 14.418 0.192 1.365 1.029 2.553 2.263 3.168 12.208 6.116 6.013 11.968 2.893 14.146-0.701 0.485-0.769 1.493-0.166 2.091 6.719 6.723 1.357 8.92-1.907 9.607-0.892 0.191-1.329 1.191-0.901 1.997 2.65 4.939-1.526 8.767-7.333 6.767-1.296-0.441-2.434-0.689-3.435-0.798-2.511-0.277-3.88 2.836-1.974 4.491l30.187 26.224c1.06 0.921 1.701 2.164 1.885 3.477 0.181 1.288-0.083 2.637-0.824 3.805-1.075 1.698-2.899 2.616-4.76 2.615-1.116 0-2.246-0.33-3.234-1.021"/><path d="m1674.9 1175.6-9.47-48.891c7.061-1.878 11.385-6.849 13.885-11.113 2.026-3.461 1.331-7.865-1.573-10.641-3.776-3.612-6.492-7.852-8.262-11.155-1.935-3.639-4.758-6.728-8.151-9.061-8.275-5.697-24.051-18.671-36.203-41.357-12.388-23.11-29.635-38.292-38.392-45.025-0.242-0.183-0.484-0.365-0.725-0.535-2.477-1.838-5.121-3.423-7.838-4.872-9.221-4.895-15.556-13.227-18.922-18.597-1.98-3.155-2.354-7.086-0.884-10.509 6.084-14.119 18.417-26.504 25.189-32.601 2.918-2.635 5.385-5.725 7.314-9.147 8.337-14.809 23.981-31.289 31.823-39.111 1.993-1.986 5.397-0.784 5.712 2.014 2.014 17.952-0.646 36.494-3.727 50.316 0 0-0.01 0.034-0.025 0.101-1.157 5.178-2.368 9.687-3.417 13.254-0.292 1-0.518 2.009-0.684 3.023-0.124 0.753-0.208 1.513-0.259 2.274 1e-3 7e-3 0 0.028-0.01 0.042-0.364 5.596 1.173 11.216 4.487 15.878 8.612 12.114 23.076 24.531 29.591 28.722 8.845 5.683 62.947 61.992 89.717 95.108 26.774 33.11 5.126 56.812-4.56 64.21-9.687 7.393-17.508 17.28-17.508 17.28l-27.007 9.417-20.105-9.024z" fill="#d38d5f" stroke="#ffb380"/><path d="m1480.3 1757.2-13.988-20.491-24.143-8.793-14.277-15.757-0.837-27.476-22.517-6.002-0.882-31.717 20.118-23.047 17.124-3.743 13.903-2.852 19.578-8.558 13.96-5.715s9.669-8.603 9.389-29.292c-0.189-14.018-9.532-21.182-15.538-24.345-2.17-1.144-2.248-4.194-0.14-5.449 8.74-5.199 20.367-7.702 45.462-11.505 23.542-3.569 34.886 4.981 38.664 8.804 0.848 0.858 0.745 2.265-0.22 2.99-11.518 8.659-16.997 16.946-19.309 23.976-2.477 7.515-1.341 13.591-0.108 17.14 0.769 2.209 1.572 3.442 1.572 3.442 57.629-14.13 60.69 63.87 56.318 73.313-4.371 9.442-7.788 20.305-7.788 20.305l-2.325 7.147-0.687 16.57 8.626 12.481-10.56 27.456-21.252 13.374-28.231 0.616z"/></g></g></g><g transform="matrix(1.3333,0,0,-1.3333,2014.3,1746.7)"><path d="m0 0c1.363 3.147 5.602 3.754 7.896 1.205 2.671-2.968 5.757-8.067 4.247-14.855-0.526-2.357-1.302-4.105-2.201-5.396-2.887-4.146-9.286-3.035-10.684 1.82-0.629 2.185-1.107 5.015-0.94 8.366 0.191 3.814 0.767 6.746 1.682 8.86" fill="#5b321e"/></g><g transform="matrix(1.0516,0,0,-1.072,2110.7,1758.8)"><path d="m0 0c-1.091-2.105-3.592-2.994-5.775-2.069-3.443 1.459-8.112 4.854-8.642 12.606-0.852 12.437 1.427 15.133 7.228 15.073 5.624-0.058 13.037-14.326 7.189-25.61" fill="#5b321e"/></g><g transform="matrix(1.3333,0,0,-1.3333,1937,1829.2)"><path d="m0 0c0.382-0.498-0.053-1.199-0.668-1.075-3.044 0.614-8.911 2.823-8.055 10.696 1.148 10.564-1.843 15.118-8.769 15.922-5.331 0.62-4.238-4.164-3.452-6.399 0.222-0.633-0.306-1.277-0.97-1.183-1.517 0.215-3.615 1.535-2.861 7.432 1.049 8.199 10.022 6.978 13.944 1.987 0.672-0.855 1.565-1.503 2.615-1.786 2.71-0.729 7.685-2.939 7.081-9.274-0.765-8.044-3.105-10.8 1.135-16.32" fill="#935645"/></g><g transform="matrix(1.3333,0,0,-1.3333,1988.6,1859.2)"><path d="m0 0c2.793-6.585 16.557-33.684 55.174-37.453-2.477 7.516-1.341 13.592-0.108 17.14-3.478 0.63-36.919 4.372-54.527 20.691-0.266 0.246-0.681-0.044-0.539-0.378" fill="#935645"/></g><g transform="matrix(1.3333,0,0,-1.3333,2094.5,1774)"><path d="m0 0c-0.343 0.279-0.108 0.831 0.33 0.774 2.233-0.292 6.132-1.571 7.44-6.846 1.725-6.962-11.167-10.021-19.689-8.101-0.472 0.107-0.437 0.793 0.041 0.861 4.469 0.643 14.52 2.554 14.72 6.759 0.164 3.459-1.57 5.518-2.842 6.553" fill="#935645"/></g><g transform="matrix(1.3333,0,0,-1.3333,2045.5,1813.3)"><path d="m0 0c3.765-5.911 17.584-25.947 32.843-27.085 16.868-1.266 23.933 29.845 22.395 41.003-0.07 0.528-0.799 0.624-1.012 0.129-0.75-1.746-2.243-4.614-4.903-7.523-6.182-6.779-18.645-13.778-42.59-7.325-1.904 0.51-3.88 1.11-5.936 1.805-0.608 0.21-1.142-0.463-0.797-1.004" fill="#b3482a"/></g><g transform="matrix(1.3333,0,0,-1.3333,2054.5,1814.4)"><path d="m0 0c2.11-3.151 8.352-10.125 22.462-10.465 13.05-0.316 18.23 11.197 20.128 17.79-6.183-6.779-18.646-13.778-42.59-7.325" fill="#fff"/></g><g transform="matrix(1.3333,0,0,-1.3333,2105.3,1828.7)"><path d="m0 0c-2.322-2.286-9.018-6.403-25.054-2.068-0.385 0.105-0.684-0.335-0.441-0.652 1.841-2.39 7.24-8.357 15.121-8.122 7.505 0.224 10.206 7.159 11.066 10.444 0.108 0.409-0.39 0.694-0.692 0.398" fill="#ea6643"/></g><g transform="matrix(1.3333,0,0,-1.3333,2032.5,1706.5)"><path d="m0 0c-5.168 0.275-21.705-0.376-30.999-18.595-0.187-0.367-0.74-0.234-0.734 0.178 0.06 3.978 0.981 14.317 8.515 20.639 7.642 6.412 16.331 5.918 23.665-1.193 0.397-0.384 0.104-1.058-0.447-1.029" fill="#88421e"/></g><g transform="matrix(1.3333,0,0,-1.3333,2113.3,1711.3)"><path d="m0 0c-1.376 3.806-6.393 14.348-20.649 18.073-3.003 0.785-6.253-0.305-8.025-2.854-0.025-0.037-0.051-0.074-0.075-0.111-1.31-1.964-0.096-4.623 2.239-4.965 4.486-0.657 15.148-2.883 20.482-9.632 0.883-1.117 2.086-1.969 3.473-2.291 0.408-0.094 0.834-0.15 1.26-0.138 0.971 0.026 1.626 1.005 1.295 1.918" fill="#8a451f"/></g><g transform="matrix(1.3333 0 0 -1.3333 0 4e3)" fill="#d38d5f" stroke="#ffb380"><g fill="#d38d5f" stroke="#ffb380"><g fill="#d38d5f" stroke="#ffb380"><g fill="#d38d5f" stroke="#ffb380"><path d="m1284.3 1640.6-8.831-2.029-2.96-8.55 0.13-19.961s18.891-57.62 46.35-95.998c11.935-16.681 23.255-27.02 32.246-33.389h-1e-3s0.021-0.013 0.05-0.031c6.282-4.443 11.417-6.946 14.822-8.308 10.839-5.496 25.441-11.641 36.158-11.389 19.247 0.451 20.354 21.005 20.354 21.005l-1.971 27.59-24.627 29.992s-19.912 2.002-25.588 5.039c-3.387 1.774-6.248 4.472-8.22 7.831l-44.602 75.982-15.016 13.001-9.641 2.359-8.653-3.141z"/><path d="m1456.9 1117.6-17.639 7.281 1.274-5.567s-12.153-114.6-120.86-230.21c-0.579-0.621-1.171-1.24-1.757-1.86l-12.524-13.739c-4.764-5.232-4.681-13.245 0.198-18.374 14.558-15.289 46.395-46.027 83.825-65.447 3.371-1.753 7.205 1.384 6.136 5.034-0.796 2.703-1.771 5.899-2.932 9.462-0.165 0.503-0.329 1.018-0.506 1.535-0.231 0.695-0.466 1.404-0.713 2.121-0.12 0.365-0.246 0.724-0.372 1.089-0.517 1.504-1.061 3.057-1.632 4.647-0.266 0.726-0.536 1.467-0.812 2.207 0 0.015-0.01 0.021-0.01 0.029-0.242 0.657-0.484 1.314-0.738 1.987-1.483 3.93-3.13 8.047-4.931 12.232-0.46 1.075-0.933 2.152-1.418 3.231-0.384 0.862-0.775 1.724-1.179 2.587-0.049 0.112-0.105 0.231-0.155 0.344-0.348 0.751-0.696 1.496-1.056 2.249-0.168 0.352-0.34 0.71-0.513 1.069-0.258 0.543-0.529 1.092-0.795 1.635-0.525 1.071-1.065 2.138-1.611 3.206v7e-3c-0.01 0.014-0.015 0.036-0.036 0.071-1.185 2.306-2.414 4.592-3.705 6.854-1.424 2.524-2.919 5.011-4.477 7.429-0.258 0.404-0.517 0.807-0.781 1.213-0.784 1.191-1.583 2.374-2.4 3.526-0.273 0.386-0.548 0.772-0.822 1.152-0.313 0.445-0.631 0.883-0.958 1.317-1.667 2.249-1.276 5.403 0.884 7.181 20.165 16.604 111.64 97.071 154.38 223.64l-36.494 30.112-24.869-9.249z"/></g></g></g></g><g transform="matrix(1.3333,0,0,-1.3333,577.77,1843.1)"><path d="m0 0s-38.245 240.63 129.73 109.23" fill="none" stroke="#221f1f" stroke-linecap="round" stroke-linejoin="round" stroke-miterlimit="10" stroke-width="11.7"/></g><g transform="matrix(1.3333 0 0 -1.3333 0 4e3)"><g clip-path="url(#clipPath86)"><g transform="translate(867.92,2391.6)"><path d="m0 0 1.599-29.601 22.399-73.97 15.957-4.492 107.33-30.231s65.364 39.858 75.036 56.596c1.164 2.008 1.528 3.685 0.878 4.92 0 7e-3 -7e-3 7e-3 -7e-3 0.013-6.129 11.505-48.327 34.041-48.327 34.041l-7.085 1.553s-55.217 25.662-75.848 42.77c-7.294 6.045-21.009 9.516-35.705 11.466-0.026 7e-3 -0.045 7e-3 -0.072 0.013-0.045 6e-3 -0.097 0.013-0.155 0.02-2.919 0.286-14.723 0.968-33.365-4.512-1.768-0.513-3.601-1.091-5.492-1.729-5.259-1.774-10.986-4.016-17.141-6.857" fill="#fff"/></g></g></g><g transform="matrix(1.3333,0,0,-1.3333,1160.6,2921.6)" fill="#deaa87"><path d="m0 0c49.049-15.906 155.62-7.515 185.19-4.778 3.368 0.312 4.973 4.336 2.705 6.844-10.953 12.129-25.721 22.315-41.191 30.577h-6e-3c-28.945 15.469-60.321 24.212-73.691 26.396-16.809 2.749-16.731 9.347-15.853 12.175 0.858 2.742 1.761 5.466 2.548 8.235l24.368 85.807c68.373 170.6 59.91 365.5 59.91 365.5l-8.462 29.146-76.012-10.621-33.501-41.366c14.034-68.335-3.613-188.83-10.094-228.23-1.554-9.464-2.814-18.974-3.77-28.516l-21.3-213.34-2.061-20.65c-0.76-7.658 3.907-14.807 11.219-17.179" fill="#deaa87"/></g><g transform="matrix(1.3333,0,0,-1.3333,863.6,2895.1)" fill="#deaa87"><path d="m0 0c0-10.342 7.176-19.454 17.439-21.69 14.034-3.068 36.355-6.286 68.523-6.403 61.952-0.22 115.28-3.094 118.38 8.191 1.521 5.544-15.665 19.109-41.047 32.31h-7e-3c-23.393 12.175-53.748 24.025-82.842 29.017-5.512 0.949-8.834 6.637-7.02 11.928 18.616 54.215 102.6 306.62 97.285 433.42l-20.579 36.504-51.278 13.611-40.138-34.652s6.123-123.84-40.768-369.88c-7.215-37.862-12.681-76.037-16.412-114.39-0.52-5.356-1.001-10.718-1.456-16.081-0.052-0.63-0.078-1.261-0.078-1.885" fill="#deaa87"/></g><g transform="matrix(1.3333,0,0,-1.3333,1350,1900.4)" fill="#d45500"><path d="m0 0s0.552-126.54 9.913-215.05c0.903-8.548-2.971-16.939-10.125-21.702-11.814-7.866-35.522-17.287-82.337-19.692-72.33-3.717-175.69-6.941-222.9 12.386-10.936 4.477-18.23 14.946-18.667 26.754-1.809 48.857-6.862 197.18-2.417 219.66l84.331 30.628 98.91-20.246 64.724 15.932s35.183-11.617 37.174-11.949c1.992-0.332 41.392-16.718 41.392-16.718" fill="#d45500"/></g><g transform="matrix(1.3333,0,0,-1.3333,1240.1,795.18)" fill="#fccca9"><path d="m0 0s3.594-37.505 33.689-59.858c30.095-22.348 60.405-15.269 78.995 5.089 0 0-4.94 37.316-0.163 63.577 1.924 10.627 5.447 19.441 11.525 23.243 6e-3 7e-3 0.019 0.013 0.026 0.02 0 0 35.08-22.223 55.88-2.756 20.8 19.474 49.862 39.695 54.86 154.72 4.992 115.02-56.66 146.39-56.66 146.39l-98.657-12.948-47.801-56.258-31.694-36.257-5.642-45.486 18.915-51.084 14.664-28.178 11.31-14.826s3.568-34.268-39.247-85.384" fill="#fccca9"/></g><g transform="matrix(1.3333,0,0,-1.3333,792.87,1285.5)" fill="#f95"><path d="m0 0c3.646 1.358 7.273 2.75 10.887 4.167 13 5.102 25.78 10.582 38.038 16.444 5.577 2.665 11.051 5.408 16.38 8.236 1.983 1.053 3.406 2.931 3.9 5.122 0.364 1.605 1.21 3.003 2.373 4.049 1.164 1.053 2.646 1.749 4.277 1.944l4.101 0.487c1.06 0.131 2.081 0.468 2.997 1.008 3.666 2.145 14.17 8.502 28.281 18.811 13.852 10.114 31.201 24.044 48.945 41.535 0.572 0.565 1.43 0.423 1.86-0.117 0.175-0.215 0.279-0.494 0.266-0.819l-0.559-15.698-0.312-8.807-0.292-8.119-15.932-44.252-11.063-32.974-5.727-15.405-1.852-5.174-4.381-11.752c-0.033-0.091-0.065-0.176-0.098-0.267l-0.058-0.169c-0.156-0.442-0.286-0.89-0.397-1.339-3.737-15.073-51.863-212.95-49.341-403.28 0.052-4.238 2.853-7.95 6.922-9.139 33.202-9.685 183.63-47.795 357.27-0.93 6.11 1.645 9.965 7.664 8.886 13.897-10.303 59.527-56.524 347.25-7.846 458.2 0.396 0.91 1.729 0.767 1.924-0.202 0.377-1.878 0.943-4.569 1.703-8.014 9.919-44.857 53.482-216.48 164.46-350.64 1.547-1.865 4.108-2.541 6.383-1.69 9.861 3.699 36.602 15.86 57.571 44.941 1.307 1.814 1.417 4.225 0.305 6.156-13.422 23.374-97.987 172.57-129.28 276.08-1.417 4.673-2.502 9.432-3.263 14.261-4.4 27.898-20.403 133.22-17.822 172.37 2.983 45.305-14.606 95.752-20.248 105.88-0.501 0.89-1.053 1.768-1.658 2.613-0.11 0.162-0.227 0.325-0.351 0.487-0.24 0.338-0.493 0.67-0.76 0.995-6e-3 0.013-0.013 0.019-0.02 0.032-0.318 0.403-0.65 0.794-0.981 1.183v7e-3c-3.166 3.672-6.929 6.721-9.874 8.833-2.151 1.547-5.173 0.26-5.564-2.366-1.703-11.277-7.845-36.127-29.256-40.885-26.104-5.798-39.793 5.857-46.696 32.253-0.637 2.418-3.621 3.29-5.48 1.619-11.518-10.322-44.486-35.334-67.756-7.761-11.83 14.027-20.357 29.861-26.045 46.039-7e-3 0.026-0.013 0.052-0.026 0.078-4.686 13.364-7.43 26.956-8.489 39.936-0.176 2.158-0.305 4.297-0.39 6.416-1.768-0.514-3.601-1.092-5.492-1.729-5.259-1.775-10.986-4.017-17.141-6.858-10.66-4.914-22.607-11.615-35.627-20.735-14.352-11.68-30.835-27.02-49.621-47.105l-1.176 1.423-8.06-11.479c-20.014-22.178-42.471-49.53-67.561-83.232-3.165-4.245-6.364-8.593-9.607-13.039-0.195-0.267-0.39-0.533-0.592-0.806-14.306-19.643-29.432-41.288-45.402-65.13-0.059-0.085-0.11-0.163-0.169-0.247-4.537-6.558-8.775-12.818-12.435-18.395-4.153-6.338-7.559-11.804-9.782-15.853-4.44-8.087-17.472-40.496-33.241-81.101" fill="#f95"/></g><g transform="matrix(1.3333,0,0,-1.3333,1425,664.53)"><path d="m0 0c1.866-8.827 9.88-39.422 31.323-39.065 20.664 0.338 22.712 18.902 22.796 25.409 0.013 1.02-1.001 1.755-1.97 1.41-0.838-0.299-1.93-0.624-3.256-0.89-5.369-1.093-14.547-1.203-25.701 5.68-5.655 3.491-10.094 5.766-13.513 7.228h-7e-3c-3.484 1.496-5.922 2.152-7.527 2.432-1.3 0.227-2.418-0.911-2.145-2.204" fill="#b3482a"/></g><g transform="matrix(1.3333,0,0,-1.3333,1475.9,703.23)"><path d="m0 0c-4.078 0.816-11.939 3.438-21.518 11.845-0.629 0.552-1.597 1e-3 -1.433-0.82 0.596-2.986 2.159-8.058 6.167-11.393 5.175-4.306 12.33-6.791 17.534-2.516 1.066 0.877 0.604 2.613-0.75 2.884" fill="#ea6643"/></g><g transform="matrix(1.3333,0,0,-1.3333,1437.7,664.85)"><path d="m0 0c-3.123-0.247-3.845-4.528-1.005-5.851 1.974-0.92 4.839-2.474 7.598-4.768 4.901-4.069 14.69-8.548 26.553-9.711 11.869-1.157 6.201 7.43 6.201 7.43-5.369-1.093-14.547-1.203-25.701 5.68-5.655 3.491-10.095 5.766-13.514 7.228h-7e-3c-0.042-2e-3 -0.083-5e-3 -0.125-8e-3" fill="#fff"/></g><g fill="#deaa87"><g transform="matrix(1.3333,0,0,-1.3333,1390.2,783.43)"><path d="m0 0c1.924 10.627 5.447 19.441 11.524 23.244-0.032 0.026-0.071 0.039-0.11 0.046-8.242 1.494-47.918 11.667-73.983 71.792 0 0-10.328-66.794 62.569-95.082" fill="#deaa87"/></g><g transform="matrix(1.3333,0,0,-1.3333,1404,639.11)"><path d="m0 0c-6.258-0.487-36.022-1.054-39.353 31.807-0.017 0.163-0.247 0.181-0.275 0.019-0.74-4.172-3.247-20.563 1.51-28.061 5.372-8.464 19.561-10.542 38.169-4.043 0.156 0.054 0.114 0.291-0.051 0.278" fill="#deaa87"/></g><g transform="matrix(1.3333,0,0,-1.3333,1267.9,591.46)"><path d="m0 0c1.869-0.306 3.578 1.06 3.722 2.948 0.233 3.047 1.643 7.805 6.952 13.43 8.055 8.534 9.128 17.151 4.086 22.25-1.707 1.726-2.993 3.811-3.703 6.133-1.32 4.316-4.22 10.277-9.898 8.238-7.783-2.794-12.687-17.198-10.733-23.568 0.241-0.783 1.314-0.879 1.704-0.16 1.714 3.162 5.947 9.918 11.02 10.341 6.639 0.553 6.86-9.847-0.774-16.154-6.879-5.682-6.571-14.419-4.986-21.03 0.303-1.261 1.33-2.219 2.61-2.428" fill="#deaa87"/></g><g transform="matrix(1.3333,0,0,-1.3333,1438,638.68)"><path d="m0 0c-10.448-4.375-33.568-17.775-33.407-50.661 3e-3 -0.632 0.907-0.744 1.065-0.132 2.539 9.858 10.955 35.278 32.85 49.845 0.543 0.362 0.094 1.2-0.508 0.948" fill="#deaa87"/></g><g transform="matrix(1.3333,0,0,-1.3333,1501.3,661.64)"><path d="m0 0c3.806-5.601 13.458-24.393-4.614-51.74-0.269-0.406-0.898-0.07-0.708 0.379 3.636 8.566 10.523 29.083 4.604 51.03-0.118 0.439 0.463 0.707 0.718 0.331" fill="#deaa87"/></g><g transform="matrix(1.3333,0,0,-1.3333,1506.1,614.59)"><path d="m0 0 8.243-17.18c1.63-3.395 0.359-7.492-2.935-9.319-3.973-2.204-10.139-4.501-18.614-4.535-1.202-5e-3 -1.544 1.652-0.433 2.113 3.71 1.539 8.858 3.899 12.748 6.56 2.147 1.469 3.3 4.007 3.034 6.596-0.422 4.116-1.23 10.718-2.46 15.618-0.066 0.261 0.301 0.39 0.417 0.147" fill="#deaa87"/></g></g><g transform="matrix(1.3333,0,0,-1.3333,1478,515.92)"><path d="m0 0c0.939 1.175 0.787 2.878-0.349 3.864-3.707 3.215-12.882 9.601-28.819 11.399-14.346 1.618-23.115-4.785-27.381-9.259-1.685-1.767-0.911-4.687 1.429-5.385 1.044-0.311 2.17-0.08 3.011 0.611 2.963 2.437 10.717 7.997 19.953 8.169 9.469 0.177 23.398-7.149 28.593-10.088 1.197-0.678 2.704-0.385 3.563 0.689" fill="#bcb2ad"/></g><g transform="matrix(1.3333,0,0,-1.3333,1531.2,536.54)"><path d="m0 0c8.011-1.377 25.958-8.017 21.542-39.969 0 0 5.975 17.924 2.157 32.694-3.137 12.141-14.461 15.648-22.632 16.143-2.576 0.156-4.751-1.886-4.751-4.466 0-2.167 1.549-4.035 3.684-4.402" fill="#bcb2ad"/></g><g transform="matrix(1.3333,0,0,-1.3333,1592.2,601.56)"><path d="m0 0-8.409-25.226c-0.858-2.575-3.628-3.982-6.214-3.155l-44.51 14.233c-2.302 0.735-3.791 2.961-3.594 5.37 0.281 3.432 3.766 5.645 6.992 4.44l37.849-14.133c2.496-0.931 5.261 0.439 6.03 2.991l6.085 20.188c0.878 2.911-0.689 5.998-3.558 7.004-9.046 3.173-28.165 9.783-41.688 13.77-3.691 1.089-7.648-0.603-9.381-4.038-1.662-3.295-3.414-7.715-3.946-12.447-0.206-1.825-1.858-3.136-3.686-2.96-1.47 0.141-2.671 1.218-2.99 2.661-0.265 1.2-0.478 2.781-0.395 4.608 0.109 2.387-1.647 4.45-4.027 4.671l-1.128 0.105c-2.076 0.193-4.013-1.078-4.646-3.065-1.236-3.883-3.572-10.318-6.764-15.147-1.728-2.614-5.104-3.556-7.969-2.287-4.855 2.151-14.308 5.324-29.973 6.787-12.705 1.187-22.557 5.403-29.158 9.245-5.863 3.413-8.527 10.469-6.409 16.914l3.55 10.804c0.47 1.432-0.185 2.989-1.539 3.648-4.689 2.286-15.07 7.778-19.442 13.551l-3.147 8.57h5.449l24.048-11.064c2.188 4.752 7.655 7.032 12.571 5.243l57.412-20.893c3.645-1.326 5.872-5.016 5.346-8.859l-0.611-4.473c-0.327-2.389 1.338-4.594 3.726-4.933l2.238-0.318c1.616-0.23 3.225 0.457 4.177 1.782l5.849 8.141c2.101 2.924 5.895 4.089 9.275 2.847l52.542-19.305c3.039-1.117 4.533-4.543 3.283-7.53z"/></g><g transform="matrix(1.3333,0,0,-1.3333,1479.2,558.42)" fill="#fccca9"><path d="m0 0c0.281-4.892-0.203-15.074-7.294-25.187-0.912-1.3-2.606-1.79-4.07-1.176-4.8 2.012-16.57 6.252-32.692 7.338-10.438 0.703-17.492 3.653-21.976 6.485-3.93 2.483-5.328 7.534-3.237 11.686 2.179 4.324 4.885 10.692 6.356 17.946 0.573 2.824 3.502 4.489 6.246 3.61 2.949-0.945 7.397-2.793 14.049-6.314 13.551-7.175 32.505-10.165 39.527-11.073 1.695-0.219 2.993-1.609 3.091-3.315" fill="#fccca9"/></g><g transform="matrix(1.3333,0,0,-1.3333,1200.7,308.81)"><path d="m0 0c3.094-25.408 16.809-36.082 27.709-40.566 0 0 4.966 1.539 11.634 0.867 3.199-0.322 6.353 0.929 8.492 3.329 10.506 11.784 42.631 45.459 81.165 63.048 0.465 0.212 0.288 0.912-0.222 0.875-11.032-0.817-55.303-5.23-81.594-24.732 0 0-8.795-4.81-17.869 0.501-9.067 5.31-17.934 42.139-14.053 54.255l-0.013-0.013c-11.05-15.801-17.862-36.121-15.249-57.564" fill="#a19e9d"/></g><g transform="matrix(1.3333,0,0,-1.3333,1433.7,552.44)"><path d="m0 0c1.363 3.147 5.602 3.754 7.896 1.205 2.671-2.968 5.757-8.067 4.247-14.855-0.526-2.357-1.302-4.105-2.201-5.396-2.887-4.146-9.286-3.035-10.684 1.82-0.629 2.185-1.107 5.015-0.94 8.366 0.191 3.814 0.767 6.746 1.682 8.86" fill="#5b321e"/></g><g transform="matrix(1.3333,0,0,-1.3333,1200.7,308.81)"><path d="m0 0c3.094-25.408 16.809-36.082 27.709-40.566 4.004-1.645 7.625-2.457 10.206-2.86 1.943-0.3 3.094-2.341 2.32-4.147-67.632-157.35 21.86-238.15 28.606-231.82 3.289 3.088 3.966 7.56 3.64 11.733-0.409 5.161-2.561 9.984-5.746 14.059-4.699 6.013-3.743 12.325-2.677 15.692 0.377 1.189-0.495 2.398-1.743 2.45-39.409 1.625-31.849 85.501-15.294 88.582 9.36 1.742 17.335-0.825 22.594-3.471 4.101-2.067 6.74-6.207 7.007-10.79 1.957-33.878 10.926-59.15 14.215-67.418 0.183-0.462 0.865-0.28 0.807 0.208-4.381 37.902 10.276 74.594 14.183 83.551 0.104 0.234 0.448 0.117 0.389-0.13-6.031-25.558-1.832-52.468-0.097-61.418 0.097-0.533 0.871-0.494 0.923 0.045 7.781 82.914 43.816 126.56 53.729 137.13 1.456 1.554 3.783 1.924 5.636 0.872 51.447-29.166 64.649-95.856 67.034-111.11 0.072-0.429 0.696-0.397 0.728 0.032 2.021 27.443-7.182 50.96-10.543 58.513-0.344 0.767 0.526 1.521 1.242 1.072 23.081-14.553 38.356-42.828 42.835-51.915 0.474-0.962 1.911-0.774 2.106 0.28 1.299 7.091 0.383 14.04-0.365 17.868-0.077 0.39 0.469 0.566 0.631 0.202 5.973-13.364 7.131-26.644 7.306-33.111 0.046-1.515 1.885-2.23 2.945-1.144 38.889 40.228 26.481 106.4 22.509 123.21-0.318 1.346-2.158 1.528-2.736 0.273l-1.482-3.204c-0.52-1.118-2.237-1.176-2.639-6e-3 -31.89 92.891-139.48 91.812-159.52 90.636-2.009-0.117-3.751 1.384-3.9 3.386-3.946 53.593-46.898 67.229-75.244 61.601-14.723-2.919-30.648-14.404-42.049-30.713l-0.013-0.013c-11.05-15.801-17.862-36.121-15.249-57.564" fill="#c3bab5"/></g><g transform="matrix(1.3333,0,0,-1.3333,1160.6,2921.6)"><path d="m0 0c49.049-15.906 155.62-7.515 185.19-4.778 3.368 0.312 4.973 4.336 2.705 6.844-10.953 12.129-25.721 22.315-41.191 30.577h-6e-3c-0.858-0.462-62.537-33.021-155.86 5.186l-2.061-20.65c-0.76-7.658 3.907-14.807 11.219-17.179" fill="#26150e"/></g><g transform="matrix(1.3333,0,0,-1.3333,863.6,2895.1)"><path d="m0 0c0-10.342 7.176-19.454 17.439-21.69 14.034-3.068 36.355-6.286 68.523-6.403 61.952-0.22 115.28-3.094 118.38 8.191 1.521 5.544-15.665 19.109-41.047 32.31h-7e-3c-0.864-0.299-81.972-28.306-161.75 5.558-0.52-5.356-1.001-10.718-1.456-16.081-0.052-0.63-0.078-1.261-0.078-1.885" fill="#26150e"/></g><g transform="matrix(1.3333,0,0,-1.3333,2130.3,1755.4)"><path d="m0 0c0.228-0.824-0.77-1.433-1.39-0.845-4.126 3.918-12.314 13.758-10.222 28.661 2.152 15.325 2.294 23.511 2.25 26.399-8e-3 0.499-0.588 0.768-0.973 0.45l-1.105-0.915c-0.409-0.339-1.023-0.015-0.969 0.514 0.291 2.872 0.27 8.717-5.141 6.66-7.081-2.693-10.851-8.364-14.596-3.104-2.924 4.108-0.096 6.412 1.283 7.224 0.051 0.031 0.012 0.109-0.044 0.088-2.477-0.944-10.732-4.646-12.192-12.512-7e-3 -0.011-8.704-13.015-20.672-5.792-7.089 4.278-8.94 7.375-9.269 9.19-0.182 1.001-1.193 1.616-2.183 1.377-4.126-0.995-12.474-3.582-17.191-9.005-0.274-0.315-0.785-0.122-0.775 0.295 0.055 2.532-0.381 7.884-4.733 10.473-0.288 0.172-0.655-0.035-0.649-0.371 0.082-4.057-1.017-23.288-29.625-18.879-0.614 0.094-1.005-0.628-0.59-1.091 2.058-2.292 5.438-7.084 3.892-12.553-1.441-5.097-5.282-6.924-7.689-7.575-0.535-0.145-0.577-0.887-0.063-1.093 5.214-2.093 18.657-8.673 15.719-19.934-2.358-9.034-7.43-13.724-10.695-15.901-1.648-1.1-2.633-2.956-2.637-4.937-7e-3 -3.315-1.216-7.713-7.973-6.169-5.985 1.367-7.444 4.369-7.596 6.692-0.178 2.733-1.32 5.331-3.439 7.068-4.083 3.346-11.233 7.385-20.967 5.983-15.907-2.292-12.945-23.571-3.727-36.094 8.375-11.375 25.21-19.115 41.03-13.33 2.769 1.012 5.865-0.101 7.36-2.641 3.083-5.24 8.669-13.475 15.543-18.011 0.964-0.635 1.199-1.96 0.549-2.914-3.16-4.642-12.184-15.585-21.239-5.038-11.235 13.085-11.972 20.562-22.324 17.658-8.611-2.416-12.446-0.553-14.265 2.887-0.719 1.362-2.161 2.181-3.7 2.226-10.271 0.296-44.467 5.059-33.202 56.21 0.417 1.895-0.7 3.81-2.562 4.356-4.483 1.316-11.76 4.563-11.375 11.725 0.317 5.892 2.096 8.953 3.563 10.494 0.768 0.806 0.624 2.097-0.326 2.678-4.885 2.987-15.56 12.093-14.037 34.039 1.373 19.792 9.787 28.34 14.732 31.695 1.707 1.158 2.136 3.505 0.92 5.17-2.811 3.846-6.515 10.56-4.282 17.065 2.281 6.644 8.359 8.162 12.12 8.441 1.521 0.113 2.647 1.478 2.433 2.987-0.621 4.361-0.101 12.159 10.741 14.428 1.564 0.327 2.976 1.139 4.13 2.244 3.087 2.956 10.642 7.658 22.76-0.404 0.67-0.446 1.585-0.074 1.726 0.719 0.775 4.341 4.065 14.422 17.421 3.536 0.647-0.527 1.624-0.155 1.76 0.668 1.005 6.097 5.983 24.493 29.634 27.031 23.082 2.477 30.545-10.99 32.534-16.131 0.198-0.511 0.932-0.488 1.095 0.035 1.038 3.324 4.182 9.621 13.008 8.878 9.299-0.783 10.75-10.042 10.939-14.083 0.025-0.551 0.72-0.768 1.052-0.327 2.785 3.694 11.144 12.432 25.42 7.928 13.577-4.283 16.461-14.421 17.064-19.042 0.094-0.731 1.051-0.939 1.445-0.314l3.124 4.961c0.509 0.809 1.741 0.55 1.892-0.393 0.626-3.936 1.032-12.219-3.49-22.909-0.205-0.483 0.354-0.935 0.773-0.618 2.6 1.969 7.77 4.86 12.561 1.454 6.194-4.403 7.439-12.947-1.065-16.608-1.044-0.45-1.274-1.819-0.405-2.551 6.259-5.274 22.98-22.499 6.679-45.083-3.617-5.011-2.556-12.082 2.594-15.498 0.23-0.152 0.468-0.3 0.715-0.444 6.134-3.577 1.14-14.549-8.432-18.445-2.267-0.923-3.9-2.969-4.099-5.409-0.257-3.148-0.152-7.847 1.447-13.624" fill="#8a451f"/></g><g transform="matrix(1.3333,0,0,-1.3333,1686.2,1701.8)" fill="#fccca9"><path d="m0 0 37.341-43.317c9.153-10.618 12.221-25.343 7.559-38.562-2.181-6.184-6.097-12.291-12.848-17.077-19.164-13.586-40.423-14.849-61.122 0.674-6.134 4.6-9.642 11.895-9.544 19.56 0.152 11.826-0.35 30.999-4.391 45.079l1.04 34.759 17.591 8.132 21.409-5.643z" fill="#fccca9"/></g><g transform="matrix(1.3333,0,0,-1.3333,1909,2495.1)"><path d="m0 0c-0.375-1.969 0.419-3.983 2.046-5.157 2.325-1.672 4.95-3.268 7.814-4.793 2.345-1.248 4.856-2.441 7.484-3.591 25.831-11.247 63.325-17.594 76.605-19.59 2.726-0.409 5.282 1.392 5.839 4.09 11.403 55.228 31.061 82.897 31.061 82.897l5.55 4.991 5.211 4.296 9.43-2.079 5.808-5.757s12.713-11.506 14.101-13.539c1.394-2.04 16.43-19.071 16.43-19.071l1.487-4.927 4.988-7.626 9.87-13.109c4.33-5.76 12.077-7.714 18.637-4.743 35.565 16.097 60.699 44.854 70.709 57.719 2.547 3.278 2.129 8.01-1.022 10.718-7.634 6.545-11.82 14.543-11.82 14.543-8.614 19.812-30.643 35.979-30.643 35.979-15.439 11.777-40.864 55.878-40.864 55.878l-30.504 9.947-83.772-5.836-49.149-9.77-5.104-1.01-10.156-2.021z" fill="#509cb3"/></g><g transform="matrix(1.3333,0,0,-1.3333,1922.2,2508.4)"><path d="m0 0c2.345-1.248 4.856-2.44 7.484-3.591 2.288 13.634 13.733 82.903 16.869 120.62 0 0 39.107 5.477 40.346 38.228l-1.149 7.439-2.156-7.088s-5.926-26.636-35.211-29.896c0 0 1.54 28.92 4.481 34.303 2.058 3.767 3.876 8.763 4.772 11.408 0.389 1.133 0.606 1.838 0.606 1.838l-4.078-0.432-1.632-2.416-5.71-8.46s-14.896-110.31-24.622-161.95" fill="#206069"/></g><g transform="matrix(1.3333,0,0,-1.3333,2177.3,2491.8)"><path d="m0 0-13.251 29.812c-1.124 2.53-2.846 4.749-5.016 6.466l-16.001 12.664s12.192 8.457 26.664 12.666c1.162 0.338 1.097 2.006-0.092 2.23-5.386 1.012-15.413 1.717-28.056-2.788 0 0 38.824 30.378 50.688 43.815 0.641 0.727-0.201 1.802-1.064 1.361l-79.377-40.583c-2.957-1.512-5.178-4.154-6.157-7.327l-1.317-4.261c-0.499-1.616 0.972-3.149 2.606-2.718l9.205 2.425c5.298 1.395 10.932-0.278 14.609-4.337l45.436-50.156c0.518-0.573 1.436 0.026 1.123 0.731" fill="#206069"/></g><g transform="matrix(1.3333,0,0,-1.3333,1381.1,1275.6)" fill="#ff7f2a"><path d="m0 0c9.918-44.856 53.482-216.48 164.46-350.64 1.547-1.865 4.108-2.541 6.383-1.69 9.861 3.699 36.602 15.86 57.571 44.941 1.306 1.814 1.417 4.225 0.305 6.156-13.422 23.374-97.987 172.57-129.28 276.08-1.417 4.674-2.502 9.431-3.263 14.261-4.4 27.898-20.403 133.22-17.823 172.37 2.984 45.305-14.605 95.752-20.247 105.88-1.047 1.878-2.347 3.66-3.77 5.31l3.182-178.17c0.101-5.671 0.296-11.34 0.467-17.009 0.208-6.895-1.41-25.494-23.279-36.166-27.216-13.273-35.867-29.042-34.697-41.32" fill="#ff7f2a"/></g><g transform="matrix(1.3333,0,0,-1.3333,1274.9,1176.7)" fill="#ff7f2a"><path d="m0 0c2.608-2.63 1.642-7.091-1.837-8.364-11.82-4.326-41.561-11.886-80.188 2.345-29.469 10.857-39.837 22.696-43.365 30.665-3.153 7.125 2.125 15.196 9.917 15.088 4.666-0.065 11.163-1.522 20.172-5.702 27.33-12.681 22.255-17.801 57.351-20.269 0.804-0.057 1.319-0.933 0.917-1.631-0.364-0.634-1.062-1.382-2.382-2.08-0.825-0.437-0.752-1.652 0.111-2.008 2.603-1.073 8.337-2.417 20.454-2.003 10.008 0.341 15.69-2.854 18.85-6.041" fill="#ff7f2a"/></g><g transform="matrix(1.3333,0,0,-1.3333,1116.8,987.38)"><path d="m0 0c-5.291-9.992-37.911-70.263-78.727-116.04-0.968-1.086-1.607-2.418-1.831-3.855-1.718-11.013-10.858-63.382-40.504-145.86l58.044 149.06c0.238 0.612 0.661 1.133 1.211 1.489 4.908 3.168 30.131 20.472 42.358 48.788 0.115 0.265-0.229 0.491-0.425 0.279-2.796-3.045-11.065-11.166-22.928-15.126-0.453-0.151-0.841 0.356-0.564 0.744 5.196 7.292 32.616 46.661 43.625 80.412 0.053 0.162-0.179 0.26-0.259 0.109" fill="#84a962"/></g><g transform="matrix(1.3333,0,0,-1.3333,1841.1,2033.5)"><path d="m0 0c0.956-7.217 6.837-12.781 14.104-13.244 13.278-0.84 35.387-2.835 46.322-7.186 2.456-0.968 4.351-2.061 5.452-3.286 3.533-3.922 7.217-23.54 10.081-49.613 3.64-33.212 5.929-76.893 4.804-111.88-0.165-5.149 3.471-9.638 8.539-10.565 28.118-5.15 116.07-18.109 165.36 10.343 3.364 1.944 5.46 5.516 5.501 9.403 0.201 19.669-0.15 84.962-11.835 155.3-0.803 4.799 0.445 9.717 3.45 13.542 6.353 8.081 18.442 23.03 32.135 37.805 9.466 10.21 19.704 20.338 29.346 28.055 6.856 5.49 9.431 14.683 6.541 22.981-5.001 14.36-16.215 35.106-41.74 40.897-3.888 0.882-7.966 0.206-11.074-2.298l-21.106-17.043c-1.895-1.532-1.05-4.585 1.364-4.924 0.224-0.031 0.346-0.239 0.32-0.425-0.014-0.097-0.066-0.195-0.161-0.26l-40.086-27.591c-1.358-0.932-3.035-1.281-4.65-0.962l-0.391 0.074c-3.672 0.726-7.124-1.985-7.295-5.723-8e-3 -0.196-0.028-0.39-0.056-0.583-0.273-1.95-1.471-3.659-3.242-4.579-13.106-6.771-64.369-29.63-99.646 6.252-1.763 1.79-4.475 2.25-6.712 1.093-6.104-3.133-19.648-8.249-39.392-5.398l-33.671 4.82c-4.402 0.631-8.501-2.391-9.197-6.789-2.07-13.06-5.526-39.539-3.062-58.224" fill="#cfb9a2"/></g><g transform="matrix(1.3333,0,0,-1.3333,2172.2,2061.1)"><path d="m0 0c-0.803 4.799 0.445 9.717 3.45 13.542 6.354 8.081 18.443 23.029 32.135 37.805 0 0-21.231-6.922-30.125-20.475-0.253-0.387-0.853-0.172-0.785 0.285 1.035 7.094 4.868 30.495 11.461 39.258-3.596-4.394-15.387-20.063-17.443-39.071-0.051-0.483-0.742-0.518-0.84-0.043-1.869 8.96-8.618 34.675-26.524 47.639-0.254 0.183-0.576-0.118-0.402-0.378 4.135-6.193 21.946-34.834 29.073-78.562" fill="#c3ab93"/></g><g transform="matrix(1.3333,0,0,-1.3333,1871.9,2012.7)"><path d="m0 0c-0.327 0.249-0.746-0.158-0.505-0.491 4.088-5.644 17.226-22.391 37.843-35.548 1.766-1.128 3.581-2.223 5.453-3.286 3.532-3.922 7.217-23.54 10.081-49.613 0.155 0.641 5.349 22.767 1.204 54.395-3.486 26.573-1.211 47.515-0.326 53.936 0.056 0.404-0.499 0.571-0.675 0.203-2.063-4.292-6.509-16.101-4.756-35.46 0.076-0.835-0.824-1.41-1.548-0.986-4.806 2.826-18.703 11.562-31.18 24.895-0.273 0.291-0.745-5e-3 -0.593-0.374 1.639-3.989 6.411-14.087 15.618-22.603 0.851-0.787-0.025-2.165-1.093-1.714-7.049 2.972-19.016 8.64-29.523 16.646" fill="#c3ab93"/></g><g transform="matrix(1.3333,0,0,-1.3333,1740.8,2859.9)"><path d="m0 0c14.561-15.294 46.401-46.033 83.826-65.453 3.374-1.751 7.205 1.39 6.136 5.037-4.823 16.469-16.523 51.248-34.974 74.338-0.464 0.581-1.047 1.054-1.71 1.391-3.58 1.825-15.999 7.531-28.904 6.165-2.019-0.213-3.841 1.188-4.239 3.178-0.605 3.025-2.145 7.101-6.049 9.314-0.579-0.621-1.171-1.241-1.757-1.861l-12.522-13.741c-4.763-5.227-4.683-13.245 0.193-18.368" fill="#29474c"/></g><g transform="matrix(1.3333,0,0,-1.3333,1787.5,2856.8)"><path d="m0 0c25.343 3.274 34.42-11.035 35.479-12.884 0.017-0.029 0.032-0.057 0.042-0.078 0.011-0.015 0.022-0.029 0.027-0.043-1.186 2.306-2.414 4.592-3.704 6.854-1.425 2.523-2.92 5.011-4.478 7.428-0.258 0.405-0.516 0.808-0.781 1.213l-0.013 2e-3c-17.966 5.791-25.001 2.571-27.697-0.221-0.877-0.914-0.132-2.436 1.125-2.271" fill="#bde4e7"/></g><g transform="matrix(1.3333,0,0,-1.3333,2077.9,2714.9)"><path d="m0 0c6.084-14.119 18.418-26.504 25.189-32.601 2.918-2.634 5.386-5.724 7.315-9.146 8.337-14.81 23.981-31.289 31.823-39.111 1.992-1.987 5.397-0.785 5.711 2.013 2.015 17.952-0.645 36.494-3.726 50.317 0 0-8e-3 0.034-0.025 0.101-1.157 5.178-2.369 9.687-3.417 13.253-0.293 1-0.518 2.009-0.684 3.024-0.124 0.753-0.208 1.512-0.259 2.274 1e-3 7e-3 -3e-3 0.027-7e-3 0.041-0.316 1.206-5.963 21.44-32.711 23.352-1.969 0.138-3.331 2.03-2.783 3.921 1.106 3.816 2.343 10.049 1.219 16.541-2.477-1.838-5.122-3.423-7.838-4.873-9.221-4.895-15.556-13.227-18.922-18.596-1.98-3.156-2.355-7.087-0.885-10.51" fill="#29474c"/></g><g transform="matrix(1.3333,0,0,-1.3333,2123.4,2721.4)"><path d="m0 0c-0.336-2.391 1.438-4.547 3.847-4.709 23.138-1.564 27.921-17.479 28.303-18.894-1.157 5.178-2.369 9.687-3.417 13.253-0.293 1-0.518 2.009-0.684 3.024-8.584 8.403-18.32 10.435-23.61 10.882-2.188 0.184-4.134-1.38-4.439-3.556" fill="#bde4e7"/></g><g transform="matrix(1.3333,0,0,-1.3333,837.19,1211.2)"><path d="m0 0c0-13.124 5.493-26.02 15.685-35.113 1.787-1.599 3.724-3.081 5.798-4.427 17.413-11.271 39.519-9.594 54.925 2.711 3.679 2.925 6.981 6.474 9.743 10.588l42.354 55.686 25.103 33.013 67.808 89.154-66.631 80.522-1.177 1.424-8.06-11.479-65.221-92.924-73.164-104.25c-2.067-3.309-3.679-6.78-4.836-10.329-1.566-4.771-2.327-9.691-2.327-14.579" fill="#f48869"/></g><g transform="matrix(1.3333,0,0,-1.3333,734.2,1604.6)" fill="#fccca9"><path d="m0 0s45.265-30.454 45.883-65.89c0.127-7.299-7.787-11.955-14.074-8.244l-17.325 10.226-9.683-27.021c-2.84-9.926-8.14-19.166-16.074-25.773-3.713-3.094-7.875-5.471-12.006-5.645-11.108-0.466-111.43 12.086-6.018 140.2z" fill="#fccca9"/></g><g transform="matrix(1.3333,0,0,-1.3333,928.36,1043.5)" fill="#ff7f2a"><path d="m0 0 0.819-0.734 5.064-4.563 65.227-58.773 8.054-7.255 1.313-1.182 15.788-14.222s57.46 57.986 111.67 146.52c1.307 2.138 2.529 4.245 3.672 6.318 5.922 10.738 9.718 20.677 11.889 29.809-9.476 11.557-15.931 26.312-20.306 40.411-6e-3 0.026-0.013 0.051-0.026 0.077-4.933 15.945-7.215 31.032-8.209 39.677-0.091 0.09-0.189 0.175-0.28 0.259-1.904 1.788-3.867 3.342-5.882 4.687-5.259-1.775-10.985-4.017-17.141-6.858-10.66-4.914-22.607-11.615-35.626-20.734-35.425-24.766-78.871-67.36-126.42-140.39-3.165-4.245-6.363-8.593-9.607-13.039" fill="#ff7f2a"/></g><g transform="matrix(1.3333,0,0,-1.3333,747.97,1615.2)"><path d="m0 0 164.02 304.6-94.216 14.501-109.43-293.26z" fill="#fce6d2"/></g><g transform="matrix(1.3333,0,0,-1.3333,684.2,1572.6)" fill="#ff7f2a"><path d="m0 0s12.395-10.062 27.807-18.915c6.883-3.952 14.365-7.657 21.612-10.12 4.667-1.587 9.237-2.659 13.488-2.945 0 0 126.81 239.67 134.86 261.45 4.315 11.68 25.987 39.181 45.168 62.192 16.595 19.902 31.324 36.445 31.324 36.445l-5.908 5.375-73.282 66.697-4.849 4.413s-30.192-40.598-53.092-73.696c-0.058-0.085-0.11-0.163-0.169-0.248-4.537-6.558-8.775-12.817-12.434-18.395-4.154-6.337-7.56-11.803-9.783-15.853-4.439-8.086-17.472-40.495-33.241-81.1-34.281-88.277-81.503-215.3-81.503-215.3" fill="#ff7f2a"/></g><g transform="matrix(1.3333,0,0,-1.3333,1042,899.79)"><path d="m0 0-8.06-11.479c3.146 3.478 6.22 6.832 9.236 10.056z" fill="#9fc681"/></g><g transform="matrix(1.3333,0,0,-1.3333,850.23,1156.2)"><path d="M 0,0 C 4.088,5.993 8.235,12.123 12.435,18.395 7.897,11.837 3.659,5.577 0,0" fill="#9fc681"/></g><g transform="matrix(1.3333,0,0,-1.3333,3009.8,2450.5)"><path d="m0 0s-533.16 24.419-991.27 205.58c-458.11 181.16-703.06 359.19-703.06 359.19" fill="none" stroke="#221f1f" stroke-miterlimit="10" stroke-width="11.7"/></g><g transform="matrix(1.3333,0,0,-1.3333,3155.4,2213.7)"><path d="m0 0c8.035-1.974 15.756-4.106 23.175-7.96 15.582-8.12 19.393-27.653 14.45-43.451-4.901-15.691-17.659-27.809-28.231-40.337-10.372-12.287-16.555-28.344-28.006-39.584-13.045-12.823-25.305 3.59-30.629 16.197-6.244 14.783-4.797 29.364-5.794 45.374-0.93 14.971-0.624 30.323 3.835 44.396 2.137 6.748 4.379 13.622 8.481 19.36 1.974 2.763 5.042 6.941 8.167 8.443 10.323 4.963 23.651 0.241 34.552-2.438" fill="#965439"/></g><g transform="matrix(1.3333,0,0,-1.3333,3323.5,2433.9)"><path d="m0 0c3.581-4.051 7.876-29.811 13.477-25.196 6.49 5.338 1.654 24.35 0.545 28.617-1.918 7.401-3.44 14.275-10.92 16.117 0 0-14.022 6.73-42.028-6.08 0 0 32.958 6.63 38.926-13.458" fill="#eb524f"/></g><g transform="matrix(1.3333,0,0,-1.3333,2544.9,2530)"><path d="m0 0c-26.677-4.056-37.066 17.551-53.536 33.255-12.711 12.128-11.597 14.482-24.393 3.937-9.223-7.588 3.393-24.942 8.012-36.826 5.361-13.809 21.216-37.004 34.087-41.76 25.905-9.557 35.026 21.752 46.67 38.683z" fill="#af6a46"/></g><g transform="matrix(1.3333,0,0,-1.3333,2825.1,2786.7)"><path d="m0 0c-12.663-16.822-49.278-59.842-107.26-82.627 0 0-25.228-42.653-7.833-84.413 0 0 41.77-4.352 23.504-33.063h-33.945s-20.21 13.628-25.77 55.393v56.867s-2.137 19.144 6.185 27.846c0 0 9.219 4.389 16.381 15.769 0 0 8.829 28.228-13.205 69.978l2.322 44.072 119.47-13.053z" fill="#b59d94"/></g><g transform="matrix(1.3333,0,0,-1.3333,3153.7,2496.9)"><path d="m0 0s10.981-103.54-4.681-181.51c0 0-12.151-96.385 39.74-208.2 0 0 29.477-3.13 21.122-22.663l-23.989-5.038c-15.906-0.432-27.963 31.229-27.963 31.229-10.653 17.909-16.743 19.835-16.743 19.835l-32.667 89.648c-25.186 17.4-37.207 35.223-37.207 35.223s-111.37 223.76 82.388 241.48" fill="#b59d94"/></g><g transform="matrix(1.3333,0,0,-1.3333,2585.7,2864)"><path d="m0 0c-9.342-5.854-23.27-7.771-30.788-16.01-0.141-0.136-46.698-51.326-29.317-93.044 0 0 41.769-4.346 23.495-33.057h-33.946s-20.196 13.617-25.755 55.401v56.857s-2.152 19.139 6.179 27.837c0 0 32.78 15.84 22.194 67.013-6.871 33.212-15.385 99.468 1.315 143.77 9.051 24.003 25.483 41.554 53.578 43.931 75.71 6.405 211.88 24.61 287.34 34.284 0 0 41.031 15.995 71.358 75.118l102.1-24.298s-4.788-71.655-15.488-126.28c0 0 5.277-154.5-127.67-158.98 0 0-119.9-6.25-227.54 41.624 0 0-1.936-83.746-77.063-94.173" fill="#ddc4bc"/></g><g transform="matrix(1.3333,0,0,-1.3333,2633.6,2554.5)"><path d="m0 0c3.928-19.773-8.031-33.785-26.677-38.17-10.346-2.434-33.828-2.438-33.631-18.096 0.17-12.875 8.501-22.569 12.402-34.302 5.169-15.549-5.532-21.836-17.392-29.487-6.188-3.989-12.762-7.442-18.448-12.165-7.504-6.212-14.449-13.223-23.33-17.203-5.691 35.605-9.581 88.628 4.529 126.06 9.051 24.003 25.484 41.553 53.578 43.93 11.485 0.964 24.407 2.219 38.255 3.666 4.873-7.622 9.022-15.69 10.714-24.233" fill="#af6a46"/></g><path d="m3115.9 2598.1s-23.363 109.16-74.601 141.13c0 0-66.932 110.89-64.145 275.22 0 0 34.228 19.76 13.484 39.045l-31.96-6.836c-19.623-8.0693-17.197-53.167-17.197-53.167-3.2893-27.612-9.6733-33.239-9.6733-33.239l8.6586-126.92c-21.284-34.829-26.303-63.043-26.303-63.043s-33.744-110.39 19.919-211.12c0 0 137.55-68.995 181.82 38.92" fill="#ddc4bc"/><g transform="matrix(1.3333,0,0,-1.3333,2681.2,2660.2)"><path d="m0 0c3.909-12.974 6.602-29.819 6.606-47.657-4e-3 -20.676-3.618-42.704-13.458-61.42-9.801-18.712-26.055-34.077-50.664-40.76-1.597-0.432-3.247 0.513-3.679 2.106-0.438 1.602 0.503 3.252 2.1 3.688 22.978 6.292 37.686 20.243 46.934 37.762 9.223 17.508 12.776 38.639 12.766 58.624 5e-3 17.226-2.63 33.593-6.347 45.924-0.48 1.587 0.423 3.265 2.006 3.74 1.589 0.478 3.261-0.423 3.736-2.007" fill="#192040"/></g><g transform="matrix(1.3333,0,0,-1.3333,2921.1,2797.9)"><path d="m0 0c-23.312 0.883-44.556 3.491-68.559 7.771-1.592 0.288-2.682 1.8-2.438 3.398 0.24 1.607 1.72 2.73 3.332 2.533 1.555-0.188 3.266-0.259 5.098-0.423 0.803-0.07 1.527-0.456 2.04-1.071 0.511-0.616 0.752-1.395 0.676-2.19-0.075-0.803-0.456-1.527-1.071-2.035-0.616-0.512-1.396-0.752-2.199-0.681-18.077 1.706-39.256 6.611-56.586 11.588-19.481 5.596-38.625 12.771-56.317 23.124-1.428 0.84-1.913 2.677-1.072 4.111 0.832 1.429 2.669 1.908 4.103 1.071 17.104-10.013 35.764-17.029 54.945-22.541 17.071-4.906 38.033-9.741 55.49-11.376 1.65-0.15 2.862-1.616 2.707-3.261-0.155-1.654-1.612-2.867-3.261-2.716-1.617 0.15-3.388 0.217-5.282 0.446l0.362 2.975 0.531 2.956c23.819-4.243 44.73-6.805 67.731-7.684 1.655-0.065 2.947-1.461 2.885-3.11-0.06-1.658-1.456-2.955-3.115-2.89z" fill="#192040"/></g><g transform="matrix(1.3333,0,0,-1.3333,3232.2,2399)"><path d="m0 0c13.265-11.446 35.698-7.743 51.628-12.532 22.437-6.739 23.476-26.94-2.692-30.276-16.575-2.114-37.832 9.187-57.417 7.735-19.304-1.433-36.648-8.562-57.371-7.551-35.313 1.72-75.211 9.407-97.377 39.946-21.108 29.091-23.758 70.847-3.054 100.44 30.971 44.269 83.092 49.001 127.84 21.916 19.327-11.695 34.754-29.937 54.437-40.637 11.767-6.386 41.009-11.343 57.606-17.17 18.067-6.344 22.743-14.223 14.688-38.832-9.055-27.673-66.209-42.085-88.284-23.035" fill="#ddc4bc"/></g><g transform="matrix(1.3333,0,0,-1.3333,3096.6,2255.8)"><path d="m0 0c14.092 6.123 37.296 4.85 50.716-2.829 18.65-10.666 60.64-26.535 44.796-50.763-6.663-10.179-15.465-19.195-24.483-27.292-8.11-7.288-18.749-18.171-29.894-20.544-14.967-3.176-29.58 16.832-36.098 27.518-6.884 11.282-12.843 23.387-16.545 36.121-4.041 13.894-3.914 31.088 11.508 37.789" fill="#af6a46"/></g><g transform="matrix(1.3333,0,0,-1.3333,3247.2,2407.1)"><path d="m0 0 1.104-0.324z" fill="#ddc4bc"/></g><g transform="matrix(1.3333,0,0,-1.3333,3237.6,2402.8)"><path d="M 0,0 C -1.419,0.855 -2.786,1.771 -4.008,2.819 -2.753,1.734 -1.4,0.832 0,0" fill="#ddc4bc"/></g><g transform="matrix(1.3333,0,0,-1.3333,3244,2405.9)"><path d="M 0,0 C -1.325,0.531 -2.627,1.114 -3.839,1.786 -2.604,1.114 -1.32,0.522 0,0" fill="#ddc4bc"/></g><g transform="matrix(1.3333,0,0,-1.3333,3347.2,2374.6)"><path d="m0 0c-11.809 6.645-26.395 15.197-22.146 29.651 1.541 5.24 3.947 10.098 6.066 15.028 1.208-0.381 2.378-0.771 3.482-1.157 18.068-6.343 22.744-14.223 14.689-38.832-0.53-1.621-1.25-3.171-2.091-4.69" fill="#120000"/></g><g transform="matrix(1.3333,0,0,-1.3333,3144.9,2315.7)"><path d="m0 0c0-5.982 4.844-10.827 10.816-10.827 5.983 0 10.828 4.845 10.828 10.827 0 5.973-4.845 10.821-10.828 10.821-5.972 0-10.816-4.848-10.816-10.821" fill="#120000"/></g><g transform="matrix(1.3333,0,0,-1.3333,3345.4,2384.1)"><path d="m0 0c-10.188-9.191-22.625-14.698-32.939-17.974-5.156-1.644-9.789-2.711-13.36-3.379-3.623-0.667-5.986-0.934-7.236-0.949l-0.137 5e-3 0.104 2.594 0.043-2.599-0.147 5e-3 0.104 2.594 0.043-2.599-0.048 2.886 0.606-2.814-0.558-0.072-0.048 2.886 0.606-2.814-0.695-0.072c-2.97 0.072-5.953 0.551-8.632 1.048-5.127 0.959-10.174 2.341-14.882 4.121-5.267 2.017-9.3 5.019-13.59 7.298-2.109 1.142-4.891 2.542-6.79 3.055-0.404 0.112-0.986 0.169-1.705 0.164-0.823 5e-3 -1.791-0.071-2.857-0.071-0.785 0-1.64 0.042-2.575 0.259-1.612 0.385-2.608 1.997-2.223 3.609 0.386 1.616 2.002 2.612 3.614 2.227 0.211-0.052 0.634-0.094 1.184-0.094 0.757 0 1.738 0.071 2.857 0.071 0.987 0 2.1-0.057 3.294-0.381 2.88-0.804 5.818-2.373 8.035-3.553 4.774-2.57 8.594-5.361 12.885-6.968 4.337-1.645 9.055-2.942 13.853-3.835 2.555-0.479 5.267-0.902 7.659-0.949l-0.062-2.998-0.629 2.938 0.714 0.06h0.08l-0.103-2.598v2.598h0.103l-0.103-2.598v2.598c0.366-0.01 2.829 0.221 6.132 0.846 10.079 1.865 29.533 7.35 43.381 19.91 1.226 1.113 3.129 1.015 4.239-0.217 1.108-1.23 1.014-3.124-0.217-4.238" fill="#192040"/></g><g transform="matrix(1.3333,0,0,-1.3333,2913.5,2703.5)"><path d="m0 0c-1.368-2.636-2.092-7.26-2.072-12.663-0.015-13.623 4.148-32.01 6.409-40.807 1.912-7.47 5.216-15.746 8.735-22.902 3.501-7.152 7.307-13.251 9.887-16.17 0.526-0.605 0.794-1.396 0.737-2.194l-4.801-67.177c-0.119-1.649-1.551-2.899-3.206-2.781-1.654 0.117-2.899 1.554-2.782 3.204l4.803 67.181 2.988-0.215-2.255-1.974c-3.223 3.693-7.067 9.999-10.756 17.476-3.669 7.466-7.105 16.038-9.163 24.068-2.302 9.045-6.579 27.568-6.597 42.291 0.018 5.883 0.635 11.192 2.72 15.375 0.748 1.479 2.556 2.072 4.037 1.32 1.475-0.752 2.067-2.556 1.316-4.036z" fill="#192040"/></g><g transform="matrix(1.3333,0,0,-1.3333,3177.6,2527.2)"><path d="m0 0c-7.058-36.102-8.017-75.07-19.06-110.06-10.906-34.533-31.938-54.246-57.783-77.256-1.236-1.105-3.13-0.992-4.233 0.24-1.105 1.24-0.992 3.134 0.244 4.238 25.872 23.063 45.627 41.671 56.054 74.587 10.732 33.857 11.748 72.628 18.89 109.41 0.315 1.631 1.889 2.689 3.515 2.373 1.631-0.314 2.687-1.893 2.373-3.524" fill="#192040"/></g><g transform="matrix(1.3333,0,0,-1.3333,3041.4,2804.2)"><path d="m0 0c10.271-13.711 19.802-23.302 28.171-32.724 8.354-9.407 15.567-18.72 20.694-31.562 8.439-21.244 10.568-42.813 20.516-62.083 0.756-1.476 0.174-3.28-1.297-4.037-1.476-0.756-3.285-0.183-4.041 1.292-10.545 20.62-12.641 42.432-20.751 62.6-4.779 11.95-11.404 20.553-19.609 29.801-8.195 9.238-17.951 19.055-28.486 33.114-0.996 1.325-0.723 3.209 0.602 4.205 1.325 0.988 3.205 0.719 4.196-0.606z" fill="#192040"/></g><g transform="matrix(1.3333,0,0,-1.3333,2966.6,2473.1)"><path d="m0 0c2.081-0.939 4.182-1.823 6.339-2.556 13.669-4.685 26.554-5.028 40.849-5 16.934 0.037 37.446-3.636 46.862-19.755 7.64-13.082 9.178-32.131-6.814-39.682-18.669-8.811-41.078-7.19-58.309-19.449-19.073-13.571-24.266-39.171-45.905-50.731-11.596-6.193-25.186-14.609-38.832-14.148-21.653 0.732-19.661 18.481-21.878 34.316-3.271 23.397-26.277 26.324-41.53 39.669-9.107 7.98-18.627 15.615-29.496 21.104-9.506 4.793-22.447 5.582-30.985 11.671-6.466 4.606-7.965 10.367-6.738 16.212 62.764 7.546 129.8 16.413 175.03 22.212 0 0 4.435 1.772 11.404 6.137" fill="#af6a46"/></g><g transform="matrix(1.3333,0,0,-1.3333,3075.3,2247.5)"><path d="m0 0c7.396-3.703 14.454-7.49 20.836-12.885 13.401-11.371 12.795-31.258 4.482-45.575-8.246-14.21-23.377-23.213-36.459-33.091-12.833-9.689-22.414-23.973-36.065-32.404-15.558-9.618-23.885 9.102-26.286 22.569-2.82 15.798 1.814 29.698 4.389 45.538 2.401 14.802 6.099 29.712 13.557 42.447 3.58 6.108 7.288 12.311 12.556 17.001 2.542 2.264 6.456 5.657 9.835 6.422 11.169 2.562 23.118-4.99 33.155-10.022" fill="#965439"/></g><g transform="matrix(1.3333,0,0,-1.3333,3322.2,2439)"><path d="m0 0 0.428 0.123-0.423-0.132-5e-3 9e-3 0.428 0.123-0.423-0.132c-0.085 0.263-1.669 5.193-7.627 10.056-5.968 4.858-16.39 9.83-34.777 9.845-0.639 0-1.274-5e-3 -1.908-0.024-1.659-0.033-3.036 1.274-3.078 2.932-0.037 1.654 1.274 3.031 2.928 3.068 0.709 0.02 1.395 0.024 2.058 0.024 20.084 0.019 32.23-5.728 39.246-11.762 7.015-6.019 8.825-12.118 8.932-12.499 0.447-1.593-0.478-3.252-2.072-3.703-1.598-0.447-3.256 0.479-3.707 2.072" fill="#192040"/></g><g transform="matrix(1.3333,0,0,-1.3333,3218.2,2450.7)"><path d="m0 0c-16.226-5.01-35.473-5.545-52.389-5.555-23.998-0.018-30.773 1.636-49.292 5.485-1.622 0.333-2.665 1.921-2.331 3.547 0.338 1.622 1.927 2.665 3.548 2.326 18.716-3.858 24.271-5.333 48.075-5.357 16.766-9e-3 35.558 0.611 50.614 5.286 1.583 0.494 3.265-0.394 3.754-1.973 0.493-1.588-0.395-3.266-1.979-3.759" fill="#192040"/></g><g transform="matrix(1.3333,0,0,-1.3333,3176.9,2477.9)"><path d="m0 0c0.062 0.605-82.152-3.825-121.34 36.37 0 0-7.565 7.236-14.793 0l-10.385-15.544s-3.2-4.892 0-9.445c0 0 51.12-41.36 142.56-44.551 0 0 8.316-1.847 11.028 5.845 0 0 4.065 12.645 2.711 22.584 0 0-1.954 7.673-9.783 4.741" fill="#00b8c4"/></g><g transform="matrix(1.0516,0,0,-1.072,1539.9,599.83)"><path d="m0 0c-1.091-2.105-3.592-2.994-5.775-2.069-3.443 1.459-8.112 4.854-8.642 12.606-0.852 12.437 1.427 15.133 7.228 15.073 5.624-0.058 13.037-14.326 7.189-25.61" fill="#5b321e"/></g><g transform="translate(676.82,-1562.2)" stroke-linecap="round"><path d="m-195.17 5054.4c-32.132-24.587-79.119-53.131-81.801-98.962-0.49541-8.4663 12.095-37.362 13.883-41.605 33.24-78.876-9.5033 28.412 24.06-62.869 4.3382-11.798 23.519-55.328 24.986-67.954 5.0563-43.494-34.764-76.521-52.208-111.44" fill="#89a02c" stroke="#445016" stroke-width="20"/><path d="m-195.3 5051.3c-13.621-33.592-33.285-65.328-40.864-100.77-9.5515-44.669 19.262-78.514 40.239-112.35 9.1819-14.808 12.607-23.72 23.105-38.48 8.9878-12.636 20.283-23.525 29.229-36.191 7.4806-10.591 8.2578-22.097 12.588-33.685 2.5407-6.7987 11.546-24.825 8.3815-31.767" fill="#abc837" stroke="#677821" stroke-width="20"/><g stroke="#445016"><path d="m-195.29 5048.3c-28.258-113.03 18.575 65.491-39.058-107.41-18.353-55.058-13.105-79.36-39.058-126.94-59.558-109.19-167.98-187.51-253.88-273.41" fill="#677821" stroke-width="20"/><path d="m-195.29 5048.3c21.884-96.874-14.385 56.13 30.248-92.058 14.213-47.188 10.149-68.016 30.248-108.8 46.123-93.582 130.09-160.71 196.61-234.33" fill="#677821" stroke-width="16.294"/><path d="m-195.29 5048.3c-1.3509-40.437 2.7054-95.265-33.045-124.07-6.604-5.3208-37.438-11.856-41.931-12.865-83.513-18.756 28.648 8.7666-65.151-16.931-12.124-3.3213-58.698-12.992-69.829-19.13-38.342-21.147-42.098-72.745-60.387-107.22" fill="#89a02c" stroke-width="20"/></g></g></g></svg>
