<?xml version="1.0" encoding="UTF-8"?>
<!-- Created with Inkscape (http://www.inkscape.org/) -->
<svg width="58.968mm" height="65.88mm" version="1.1" viewBox="0 0 58.968 65.88" xmlns="http://www.w3.org/2000/svg">
 <defs>
  <style>.cls-1,.cls-3{fill:#fa0;}.cls-1,.cls-2,.cls-3{stroke:#000;stroke-linecap:round;stroke-linejoin:round;}.cls-1,.cls-2{stroke-width:5.37px;}.cls-11,.cls-2{fill:#fff;}.cls-3{stroke-width:4.84px;}.cls-4{fill:#c68e5e;}.cls-5{fill:#b47f53;}.cls-6{fill:#56422e;}.cls-7{fill:#926a46;}.cls-8{fill:none;stroke-width:1.7px;}.cls-8,.cls-9{stroke:#56422e;stroke-miterlimit:10;}.cls-9{fill:#dadad5;stroke-width:2.56px;}.cls-10{fill:#48311f;}.cls-12{fill:#6295cc;}.cls-13{fill:#00070b;}</style>
 </defs>
 <g transform="translate(-75.33 -34.736)">
  <g transform="matrix(.26458 0 0 .26458 -33.621 -4.2316)">
   <path class="cls-4" d="m577.8 322c-1.45 7.89-5.18 24.69-12.07 32.93l-18.83 22.64h-0.21c-0.29 0.33-0.61 0.66-0.93 1a15.88 15.88 0 0 1-3.36 2.46c-0.29 0.16-0.59 0.31-0.89 0.45l-0.41 0.08c-0.73 0.17-1.44 0.3-2.13 0.42-0.83 0.15-1.62 0.26-2.39 0.37-1.52 0.19-2.94 0.32-4.24 0.4a45.17 45.17 0 0 1-7.89-0.14h-0.3a11.44 11.44 0 0 1-1.25 0.29c-0.41 0.08-0.84 0.15-1.28 0.2l-0.7 0.07c-0.43 0-0.87 0.06-1.31 0.07h-0.61a34.39 34.39 0 0 1-5.12-0.32c-0.74-0.1-1.51-0.21-2.28-0.36a56.27 56.27 0 0 1-6.6-1.56l-0.63-0.19a14.67 14.67 0 0 1-2.19-1.55c-0.39-0.33-0.78-0.68-1.14-1.05a19.38 19.38 0 0 1-1.88-2.24l-15-17.84-1.62-1.94-2.36-2.81a35.6 35.6 0 0 1-3.9-7.38c-4.4-11-5.28-24.3-5.28-24.3h-0.17v-11.12c0-1.08 0.07-2.14 0.11-3.2s0.1-2.38 0.16-3.55 0.15-2.62 0.23-3.89q0.09-1.44 0.18-2.82c0-0.47 0.07-0.92 0.1-1.37 0.07-0.91 0.13-1.8 0.21-2.66l0.05-0.56c0-0.29 0-0.58 0.08-0.86s0.05-0.56 0.08-0.84 0-0.38 0.05-0.57c0-0.36 0.07-0.71 0.09-1.06 0.31-3.12 0.62-5.86 0.91-8.07a41.55 41.55 0 0 0 0.44-4.71 9.77 9.77 0 0 0-1.49-4.35c-3.54-6.42-12.94-16.37-22.69-25.64-6.45-6.11-13-11.94-18.23-16.28-15.21-12.71-24.82-72.61-13.62-79.87 6.38-4.13 26.74 8.77 44.29 23.84 13.31 11.42 25 24.09 27.76 31.52 6.4 17.24 38.43 55.37 52 28.13 7.28-14.54 20.93-33 34.4-48.35 11.75-13.43 23.36-24.55 30.44-28.79 24-14.52 31.22-15.42 25.61 35.4-2 18.62-9.16 31.64-17.61 41.55-14.39 16.88-32.7 24.76-36.65 36l-0.16 0.52c-1.33 4.26-1.31 10.1-0.7 16.81 0 0.54 0.09 1.07 0.14 1.63 0.62 6.84 1.38 14.4 1.78 22.1"/>
   <path class="cls-5" d="m577.8 322c-1.45 7.89-5.18 24.69-12.07 32.93l-18.83 22.64-0.15-0.07-6.25-2.8-13.65-6.12-1.6-0.7-1.57-0.71h-0.08l-27.69-12.4-19.63-8.77c-4.4-11-5.28-24.3-5.28-24.3h-0.17v-11.13c0-1.08 0.07-2.14 0.11-3.2s0.1-2.38 0.16-3.55 0.15-2.62 0.23-3.89q0.09-1.44 0.18-2.82c0-0.47 0.07-0.92 0.1-1.37 0.07-0.91 0.13-1.8 0.21-2.66 0.39-4.75 0.82-8.87 1.22-12 7.05-1.1 14.61-0.84 19.36 3.47 0 0 14.23 22.69-8.68 40.83a14.52 14.52 0 0 0-4.81 9.47v0.56c-0.41 9.2 8.38 18.13 18.73 16.36l0.45-0.08a15.88 15.88 0 0 0 3-0.91 26.25 26.25 0 0 1 3.24-1.09l0.31-0.09h0.1l0.35-0.08c6.35-1.36 6 3 4.81 6.51l-0.13 0.37a24.62 24.62 0 0 1-1.54 3.43v0.05h0.07l4.38-1 0.42-0.11 3.88-0.9 0.49-0.11 1.24-0.3 0.51-0.12 9.41-2.22 0.92-0.22 2.35-0.55 1-0.23 6.34-1.49h0.15l0.95-0.22 2.59-0.6a26.13 26.13 0 0 0 4.64-0.15l0.88-0.11c6.26-0.87 15.88-4.25 17.82-16.51a0.13 0.13 0 0 0 0-0.06c0-0.14 0-0.28 0.07-0.44a7.89 7.89 0 0 0-0.41-4.13c-1.54-4.13-6.27-7.25-10.15-11.57l-0.05-0.06c-4.13-4.62-7.29-10.64-4.6-20.71 3.58-13.34 15.32-13.33 24.29-11.11 1.12 10.49 2.47 22.97 2.38 35.04z"/>
   <path class="cls-5" d="m498.05 275.05s10.4 25.41 12.8 33.58 5.61 35.4 9.61 38.12 7.2 4.54 10.41-14.52 6.4-28.14 12-39 5.61-19.06 5.61-19.06-2.41 18.16-5.61 29.05 2.4 32.67-3.2 52.64-33.62 2.72-33.62 2.72-3.2-33-2-38.75-4.88-28.2-5.44-31.93-0.56-12.85-0.56-12.85z"/>
   <path class="cls-6" d="m504 300.06a28.48 28.48 0 0 1-3.38-5 32.09 32.09 0 0 1-2.32-5.65c-0.33-1-0.54-2-0.79-3a15.07 15.07 0 0 1-0.3-3.07 15.77 15.77 0 0 1 1.17-6h0.17c0.16 2.05 0.12 4 0.36 5.92a47.66 47.66 0 0 0 0.71 5.79 31.67 31.67 0 0 0 1.77 5.63 30.81 30.81 0 0 0 2.75 5.28z"/>
   <path class="cls-6" d="m542.41 299.05a33.52 33.52 0 0 0 2.61-4.87 32.1 32.1 0 0 0 1.8-5.15 49.18 49.18 0 0 0 0.8-5.32c0.26-1.78 0.24-3.55 0.37-5.46h0.17c0.2 0.43 0.36 0.88 0.53 1.34l0.22 0.68 0.14 0.71c0.09 0.47 0.17 0.95 0.22 1.43l0.05 1.44a17.07 17.07 0 0 1-1.2 5.61 32.77 32.77 0 0 1-2.34 5.15 30.14 30.14 0 0 1-3.24 4.59z"/>
   <path class="cls-6" d="m504.05 307.27c0.28 3.35 0.43 6.68 0.54 10s0.17 6.67 0.24 10l0.15 10v2.49c0 0.83 0 1.67 0.09 2.49s0.06 1.67 0.16 2.49c0 0.41 0.05 0.83 0.13 1.24l0.24 1.22-0.49-1.16c-0.15-0.4-0.23-0.81-0.35-1.22-0.24-0.82-0.36-1.65-0.52-2.47-0.28-1.66-0.5-3.33-0.64-5-0.33-3.34-0.45-6.69-0.52-10s0-6.69 0.14-10 0.41-6.75 0.83-10.08z"/>
   <path class="cls-6" d="m542.47 306.36c0.5 3.47 0.8 7 1 10.45s0.33 7 0.36 10.47c0 1.75 0 3.5-0.05 5.25s-0.11 3.49-0.26 5.24-0.3 3.5-0.55 5.24c-0.15 0.87-0.25 1.74-0.48 2.6-0.11 0.42-0.2 0.86-0.33 1.28l-0.5 1.22 0.25-1.28c0.06-0.43 0.07-0.87 0.11-1.3 0.09-0.85 0.09-1.73 0.12-2.6 0.05-1.73 0.05-3.47 0.05-5.2l-0.07-10.44c0-6.96-0.04-13.93 0.35-20.93z"/>
   <path class="cls-5" d="m632.13 192c-2 18.62-9.16 31.64-17.62 41.55-14.39 16.88-32.7 24.76-36.65 36a90.77 90.77 0 0 0-8.57-15.36c-8.81-11.8-26.42-20.88-32-12.71s-5.29 39.92-9.63 39.92c-4 0-3.2-10.89-6.4-29.95s-15.21-14.52-28-5.44c-9.35 6.63-17.43 19.57-21.11 26.05-3.53-6.43-12.92-16.37-22.68-25.64-6.43-6.12-13-11.95-18.22-16.28-15.21-12.71-24.82-72.61-13.61-79.87 6.37-4.13 26.73 8.77 44.28 23.84 13.3 11.42 25 24.09 27.76 31.52 6.4 17.25 38.42 55.36 52 28.14 7.27-14.54 20.93-33 34.4-48.37 11.75-13.42 23.36-24.55 30.44-28.78 24-14.53 31.21-15.44 25.61 35.38z"/>
   <path class="cls-7" d="m474.43 252.82c-3.54 4-13.65 0.11-25-6.4-6.43-6.12-13-11.95-18.22-16.28-15.21-12.71-24.82-72.61-13.61-79.87 6.37-4.13 26.73 8.77 44.28 23.84 12.7 21.07 26.12 52.89 12.55 78.71z"/>
   <path class="cls-7" d="m632.13 192c-2 18.62-9.16 31.64-17.62 41.55-17.29 12.26-39.16 25.59-44.75 19.26-11.32-21.55-3.86-47.25 6.31-67.43 11.75-13.42 23.36-24.55 30.44-28.78 24.01-14.51 31.22-15.42 25.62 35.4z"/>
   <path class="cls-6" d="m567.29 337.22a13.72 13.72 0 0 0-1.76-9.68 15.32 15.32 0 0 0-3.24-3.67c-0.64-0.53-1.32-1-2-1.48s-1.48-1-2.15-1.59a22.25 22.25 0 0 1-3.7-3.87 19.67 19.67 0 0 1-2.54-4.71 17.14 17.14 0 0 1-0.62-10.39 20.9 20.9 0 0 0 1.85 9.89 21.68 21.68 0 0 0 6.09 7.77c0.61 0.57 1.33 1 2 1.52s1.47 1 2.13 1.64a15.36 15.36 0 0 1 3.35 4.24 12.43 12.43 0 0 1 0.59 10.33z"/>
   <path class="cls-6" d="m479.51 337.22a12.43 12.43 0 0 1 0.6-10.33 15 15 0 0 1 3.35-4.24c0.66-0.61 1.43-1.11 2.12-1.64a24.87 24.87 0 0 0 2-1.52 21.71 21.71 0 0 0 6.1-7.77 20.9 20.9 0 0 0 1.85-9.89 17.14 17.14 0 0 1-0.62 10.39 19.67 19.67 0 0 1-2.54 4.71 22.62 22.62 0 0 1-3.7 3.87c-0.67 0.6-1.44 1.06-2.15 1.59s-1.36 0.95-2 1.48a15.32 15.32 0 0 0-3.24 3.67 13.72 13.72 0 0 0-1.77 9.68z"/>
   <path class="cls-8" d="m565.73 355-18.83 22.64h-0.21c-0.29 0.33-0.61 0.66-0.93 1a15.88 15.88 0 0 1-3.36 2.46l-1.23 0.39c-0.76 0.21-1.49 0.39-2.2 0.56-0.87 0.2-1.69 0.36-2.49 0.5-1.14 0.19-2.21 0.32-3.23 0.42a32.6 32.6 0 0 1-9.1-0.31 11.44 11.44 0 0 1-1.25 0.29c-0.41 0.08-0.84 0.15-1.28 0.2l-0.7 0.07c-0.43 0-0.87 0.06-1.31 0.07h-0.61a31.23 31.23 0 0 1-4.68-0.38c-0.95-0.13-1.92-0.32-2.91-0.54a51.39 51.39 0 0 1-6.66-2c-0.86-0.31-1.69-0.66-2.55-1-0.39-0.33-0.78-0.68-1.14-1.05a19.38 19.38 0 0 1-1.88-2.24l-15-17.84-1.62-1.94-2.36-2.81a35.6 35.6 0 0 1-3.9-7.38c-4.4-11-5.28-24.3-5.28-24.3h-0.17v-11.12c0-1.08 0.07-2.14 0.11-3.2s0.1-2.38 0.16-3.55 0.15-2.62 0.23-3.89q0.09-1.44 0.18-2.82c0-0.47 0.07-0.92 0.1-1.37 0.09-1.1 0.18-2.18 0.26-3.22 0-0.29 0-0.58 0.08-0.86s0.05-0.56 0.08-0.84 0-0.38 0.05-0.57c0-0.36 0.07-0.71 0.09-1.06 0.31-3.12 0.62-5.86 0.91-8.07a41.55 41.55 0 0 0 0.44-4.71 9.77 9.77 0 0 0-1.49-4.35c-3.54-6.42-12.93-16.37-22.69-25.64-6.45-6.11-13-11.94-18.23-16.28-15.21-12.71-24.82-72.61-13.62-79.87 6.38-4.13 26.74 8.77 44.29 23.84 13.31 11.42 25 24.09 27.76 31.52 6.4 17.24 38.43 55.37 52 28.13 7.28-14.54 20.93-33 34.4-48.35 11.75-13.43 23.36-24.55 30.44-28.79 24-14.52 31.22-15.42 25.61 35.4-2 18.62-9.16 31.64-17.61 41.55-14.39 16.88-32.7 24.76-36.65 36l-0.16 0.52c-1.33 4.26-1.31 10.1-0.7 16.81 0 0.54 0.09 1.07 0.14 1.63 0.57 6.69 1.13 14.28 1.3 22.1 0.06 2.37 0.08 4.76 0.06 7.15"/>
   <path class="cls-9" d="m503.65 376.7s3.2 16.34 16.81 18.15 21.61-13.61 21.61-16.33-5.6-9.08-5.6-9.08l-20-2.72z"/>
   <path class="cls-10" d="m510.05 379.42a12.93 12.93 0 0 0 12.81 9.08c10.41 0 14.41-7.26 14.41-7.26l-12-14.52-8.8 2.72z"/>
   <path class="cls-9" d="m523.58 368v0.62a23.06 23.06 0 0 1-0.72 6.29 22.27 22.27 0 0 1-1.42 3 9.66 9.66 0 0 1-7.16 4.93c-0.14 0-0.29 0.05-0.44 0.06a11.19 11.19 0 0 1-2 0 16.57 16.57 0 0 1-2.79-0.38 15.57 15.57 0 0 1-3.94-1.4c-0.25-0.12-0.48-0.25-0.7-0.38a14.67 14.67 0 0 1-2.19-1.55c-0.39-0.33-0.78-0.68-1.14-1.05a19.38 19.38 0 0 1-1.88-2.24c-3.43-4.82-4.77-11.44-4.3-17.4a9.93 9.93 0 0 1 3.26-6.73l0.09-0.08a16.09 16.09 0 0 1 6.28-3.31l0.65-0.17a18.93 18.93 0 0 1 3.31-0.6 125.11 125.11 0 0 0 9.17 10.08l0.12 0.11a11.66 11.66 0 0 0 3.52 2.52c0.75 0.2 1.29 1 1.65 2.17a15 15 0 0 1 0.51 2.63c0.07 0.63 0.12 1.3 0.13 2v0.62a1.48 1.48 0 0 0-0.01 0.26z"/>
   <path class="cls-10" d="m522.79 362.63a1 1 0 0 0 0.15-1.52 58 58 0 0 1-6.52-7.55c-4-5.45-10.13-10.89-11.87-6.36-1.61 4.19 13.92 17.63 18.24 15.43z"/>
   <path class="cls-9" d="m546.74 377.54-0.06 0.07c-0.29 0.33-0.61 0.66-0.93 1a15.88 15.88 0 0 1-3.36 2.46c-0.29 0.16-0.59 0.31-0.89 0.45l-0.47 0.21a15.14 15.14 0 0 1-2.86 0.89 14.12 14.12 0 0 1-2.11 0.33 13 13 0 0 1-2.86 0c-0.32-0.05-0.62-0.09-0.91-0.15a10.16 10.16 0 0 1-1.18-0.32 9.79 9.79 0 0 1-5.4-4.56 23.64 23.64 0 0 1-1.38-3 22.77 22.77 0 0 1-0.71-6.29v-0.63a1.48 1.48 0 0 1 0-0.21 0.31 0.31 0 0 1 0-0.09v-0.51c0-0.66 0.06-1.31 0.13-1.94a13.17 13.17 0 0 1 0.52-2.67c0.36-1.15 0.89-2 1.64-2.18 1.49-0.43 4.35-3.19 7-6 0.08-0.07 0.14-0.16 0.22-0.23 3-3.22 5.6-6.44 5.6-6.44a19.93 19.93 0 0 1 2.62 0.43c0.41 0.09 0.87 0.2 1.34 0.34a16.62 16.62 0 0 1 6 3.05 1.5 1.5 0 0 1 0.13 0.11 9.92 9.92 0 0 1 3.52 7c0.49 6.53-1.23 13.97-5.6 18.88z"/>
   <path class="cls-10" d="m524.36 362.63a1 1 0 0 1-0.16-1.52 58.64 58.64 0 0 0 6.53-7.55c4-5.45 10.13-10.89 11.87-6.36 1.6 4.19-13.93 17.63-18.24 15.43z"/>
   <path class="cls-6" d="m554.88 310.45a12.65 12.65 0 0 1 3.46-2.23 14.77 14.77 0 0 1 4-1.18 10.85 10.85 0 0 1 4.24 0.22 6.83 6.83 0 0 1 3.51 2.28 13.05 13.05 0 0 0-3.76-1h-1.88a15.12 15.12 0 0 0-1.88 0.18 36.71 36.71 0 0 0-3.79 0.74z"/>
   <path class="cls-6" d="m478 309.54a8.45 8.45 0 0 1 3.16-1.87 9.18 9.18 0 0 1 3.73-0.51 7.14 7.14 0 0 1 3.62 1.29 6.49 6.49 0 0 1 2.3 2.9 16.07 16.07 0 0 0-3-1.74 9.84 9.84 0 0 0-3.1-0.75 25.13 25.13 0 0 0-6.71 0.68z"/>
   <path class="cls-8" d="m499.14 376 1.86 2.2a19.38 19.38 0 0 1-1.86-2.2z"/>
   <path class="cls-8" d="m470.84 322.67v-1h0.17s0.88 13.35 5.28 24.3"/>
   <path class="cls-8" d="m484.16 358.11-1.62-1.94a10.77 10.77 0 0 1 1.62 1.94z"/>
   <path class="cls-8" d="m578.5 317.75s-0.22 1.65-0.7 4.27c-1.45 7.89-5.18 24.69-12.07 32.93"/>
   <path class="cls-11" d="m489.66 309.26a16.94 16.94 0 0 0-9.08-1.43c-3-2.91-5.12-8.13-5.32-14.18-0.33-9.44 4.11-17.31 9.92-17.55s10.77 7.18 11.1 16.63c0.25 7.55-2.53 14.08-6.62 16.53z"/>
   <ellipse class="cls-12" transform="rotate(-89.11,485.77,295.48)" cx="485.75" cy="295.49" rx="9.83" ry="8.05"/>
   <ellipse class="cls-13" transform="rotate(-89.11,485.91,296.96)" cx="485.88" cy="296.97" rx="6" ry="4.92"/>
   <ellipse class="cls-11" transform="rotate(-36.99,482,298.89)" cx="481.92" cy="298.87" rx=".61" ry=".74"/>
   <ellipse class="cls-11" transform="rotate(-22.75,482.92,293.97)" cx="482.86" cy="293.95" rx="2.21" ry="2.31"/>
   <path class="cls-11" d="m558.45 308.34a16.94 16.94 0 0 1 9.12-1.14c3.11-2.82 5.37-8 5.76-14 0.62-9.42-3.57-17.43-9.38-17.86s-11 6.85-11.6 16.29c-0.49 7.52 2.09 14.14 6.1 16.71z"/>
   <ellipse class="cls-12" transform="rotate(-89.11,562.78,294.71)" cx="562.79" cy="294.71" rx="9.83" ry="8.05"/>
   <ellipse class="cls-13" transform="rotate(-89.11,562.59,296.18)" cx="562.61" cy="296.18" rx="6" ry="4.92"/>
   <ellipse class="cls-11" transform="rotate(-51.23,566.46,298.2)" cx="566.51" cy="298.2" rx=".74" ry=".61"/>
   <ellipse class="cls-11" transform="rotate(-65.47,565.71,293.26)" cx="565.72" cy="293.25" rx="2.31" ry="2.21"/>
  </g>
 </g>
</svg>
