<?xml version="1.0" encoding="UTF-8"?>
<svg width="330.04" height="249.3" data-name="Layer 1" version="1.1" viewBox="0 0 330.04 249.3" xmlns="http://www.w3.org/2000/svg">
 <defs>
  <style>.cls-1{fill:#6896b5;}.cls-2{fill:#fff;}.cls-10,.cls-21,.cls-3,.cls-4,.cls-5,.cls-9{fill:none;}.cls-3,.cls-5{stroke:#000;}.cls-3,.cls-4,.cls-5{stroke-linecap:round;stroke-linejoin:round;}.cls-3,.cls-4{stroke-width:2.54px;}.cls-4{stroke:#fff;}.cls-5{stroke-width:6.35px;}.cls-6{fill:#0e0e0e;}.cls-12,.cls-7{fill:#c68e5e;}.cls-8{fill:#fee2bf;}.cls-10,.cls-11,.cls-21,.cls-22,.cls-9{stroke:#3a2512;}.cls-10,.cls-11,.cls-12,.cls-21,.cls-22,.cls-9{stroke-miterlimit:10;}.cls-9{stroke-width:0.65px;}.cls-10{stroke-width:0.65px;}.cls-11,.cls-13{fill:#b47f53;}.cls-11,.cls-21{stroke-width:0.72px;}.cls-12{stroke:#56422e;stroke-width:0.59px;}.cls-14{fill:#3a2512;}.cls-15{fill:#d9dadb;}.cls-16{fill:#6295cc;}.cls-17{fill:#00070b;}.cls-18{fill:#ebfaed;}.cls-19{fill:#926a46;}.cls-20{fill:#56422e;}.cls-22{fill:#dadad5;stroke-width:0.89px;}.cls-23{fill:#48311f;}</style>
 </defs>
 <path class="cls-1" d="m327.55 64.151-5.19 89.23a11.24 11.24 0 0 1-11.29 10.6c-20.54-0.22-47.13 4.75-78.26 13.34-32 8.81-41-24.44-42.79-33.39 2-11.51 5.4-25.75 10.4-30.75 8.89-8.89 25.4-6.35 31.75-17.78 2.53-4.53 7.25-9.47 12-13.78l3-1c32.14-11.58 59.2-19.39 72.34-23a6.34 6.34 0 0 1 8.04 6.53z"/>
 <path d="m246.78 80.801c13.05-5.45 26.31-10.36 39.68-15q10-3.43 20.16-6.64 5.06-1.6 10.16-3.1l1.27-0.38c0.45-0.12 0.77-0.24 1.42-0.38a8.78 8.78 0 0 1 3.61 0 8.9 8.9 0 0 1 5.78 4.14 8.54 8.54 0 0 1 1.16 3.48 5.56 5.56 0 0 1 0 0.91v0.81l-0.06 1.32-0.21 5.29-1.5 31.74-2.24 42.25-0.32 5.29-0.17 2.64c0 0.38-0.09 1-0.15 1.57s-0.21 1.11-0.33 1.66a14.88 14.88 0 0 1-3.19 5.9 14.57 14.57 0 0 1-5.52 3.81 14.81 14.81 0 0 1-3.27 0.83 13.58 13.58 0 0 1-1.69 0.12h-1.37c-1.72 0-3.45 0-5.18 0.08-3.45 0.09-6.91 0.37-10.38 0.65-13.86 1.23-27.66 3.9-41.39 6.86-3.43 0.74-6.86 1.54-10.28 2.37s-6.78 1.71-10.3 2.51a38.28 38.28 0 0 1-11.06 1 28.91 28.91 0 0 1-10.8-2.74 30.49 30.49 0 0 1-8.79-6.7 40.32 40.32 0 0 1-6.1-9 61.45 61.45 0 0 1-6.11-20.33 64.21 64.21 0 0 0 3 10.1 58 58 0 0 0 4.56 9.41 40.83 40.83 0 0 0 6.33 8.11 27.43 27.43 0 0 0 8.32 5.57 25.91 25.91 0 0 0 9.67 2 34.17 34.17 0 0 0 9.9-1.43c6.71-2 13.59-3.9 20.45-5.66s13.8-3.39 20.79-4.73 14-2.5 21.16-3.29q5.36-0.59 10.75-0.8c1.8-0.09 3.6-0.11 5.41-0.12h1.28a6.19 6.19 0 0 0 0.95-0.08 7.77 7.77 0 0 0 1.84-0.47 8.1 8.1 0 0 0 4.88-5.52c0.06-0.32 0.14-0.62 0.18-0.94s0.08-0.56 0.09-1.06l0.15-2.65 0.29-5.28 2.64-42.29 1.45-21.13 0.74-10.57 0.5-6.6v-0.52a2.67 2.67 0 0 0 0-0.4 3.56 3.56 0 0 0-0.44-1.52 4.06 4.06 0 0 0-2.52-2 4 4 0 0 0-1.65 0c-0.21 0-0.74 0.17-1.14 0.27l-1.28 0.33-10.22 2.68c-6.81 1.8-13.6 3.69-20.38 5.62-13.51 3.77-27.01 7.88-40.53 12.01z"/>
 <path class="cls-2" d="m241.7 82.431c21-8.19 42.44-15.2 64.15-21.3l8.16-2.25 2.05-0.55 0.55-0.09 0.26-0.07 0.41-0.08a6.44 6.44 0 0 1 1.64-0.11 6.79 6.79 0 0 1 5.64 3.38 6.41 6.41 0 0 1 0.67 1.72c0.05 0.31 0.1 0.62 0.12 0.93v0.84l-0.11 2.1-0.22 4.22-0.43 8.42-1.98 33.65-2.31 33.67-0.32 4.21-0.24 3.15c0 0.39 0 0.58-0.14 1.32a6.29 6.29 0 0 1-1.64 3.27 6.85 6.85 0 0 1-2.92 1.83 7.19 7.19 0 0 1-1.65 0.32 11.29 11.29 0 0 1-1.44 0l-2-0.09a98.36 98.36 0 0 0-16.36 1c-5.48 0.75-10.95 1.84-16.42 3s-10.94 2.44-16.41 3.76c-11 2.55-21.91 5.21-33 7.31l32.2-10.18c10.78-3.26 21.61-6.54 32.86-8.57a90.43 90.43 0 0 1 17.23-1.68h2.21a5.32 5.32 0 0 0 0.66 0 1.64 1.64 0 0 0 0.41-0.1 1.14 1.14 0 0 0 0.82-0.86l0.42-8.15 2-33.69 2.28-33.52 0.64-8.42 0.32-4.2 0.16-2.11v-0.27-0.12a2.25 2.25 0 0 0-0.08-0.24 1.61 1.61 0 0 0-1.3-0.78 1.72 1.72 0 0 0-0.45 0h-0.11l-0.25 0.06-0.51 0.12-2.05 0.47-8.2 1.9c-21.82 5.25-43.56 10.97-65.32 16.78z"/>
 <path class="cls-3" d="m262.02 94.771s7.62-8.89 12.7-7.62 14-10.16 19.05-6.35 8.89-3.81 8.89-3.81"/>
 <path class="cls-3" d="m269.61 116.36s14-8.89 16.51-6.35 5.08-5.08 8.89-5.08 10.16-5.08 12.7-3.81"/>
 <path class="cls-3" d="m275.99 131.6s7.62-6.35 12.7-2.54 6.35-6.35 10.16-3.81 7.62-1.27 7.62-1.27"/>
 <path class="cls-4" d="m273.45 123.98s11.43-6.35 12.7-3.81 8.89-3.81 11.43-2.54 7.62-5.08 8.89-2.54"/>
 <path class="cls-4" d="m272.18 104.93s10.16-5.08 11.43-3.81c1.27 1.27 6.35-2.54 7.62-2.54s6.35-2.54 7.62-2.54 2.54-6.35 6.35-2.54"/>
 <path class="cls-3" d="m234.08 160.81s10.16-10.16 15.24-7.62 11.43-3.81 16.51-3.81 10.16-8.89 15.24-6.35 10.16-1.27 12.7-1.27a44.91 44.91 0 0 0 7.62-1.27"/>
 <path class="cls-4" d="m196.61 141.12s-5.08 12.7 10.16 17.78"/>
 <path class="cls-4" d="m202.96 147.47s1.27 6.35 6.35 5.08"/>
 <path class="cls-5" d="m210.61 114.45s0 20.32 2.54 21.59c2 1 26.59-2.81 36.52-4.41a4.69 4.69 0 0 0 3.94-4.84l-1.09-25"/>
 <path class="cls-4" d="m218.97 117.46s-0.28 5.67 4.75 7.62"/>
 <path class="cls-4" d="m238.52 101.75s5.08 2.54 5.08 7.62"/>
 <path d="m236.54 105.9c-5.82-3.15-12.95 0.7-14.26 7.19-0.88 4.38-0.16 9 6.08 10.25 12.7 2.54 14-7.62 11.43-14a6.8 6.8 0 0 0-3.25-3.44z"/>
 <path d="m196.28 38.321c-2.74 2.87 1.22 7.34 4.28 4.82a5.08 5.08 0 0 0 0.5-0.44c2.74-2.75 20.27-17.65 29.89-25.79a3.09 3.09 0 0 0-2.16-5.44c-3.69 0.23-7.57 0.9-9.32 2.65-2.67 2.68-15.69 16.32-23.19 24.2z"/>
 <path class="cls-6" d="m208.61 54.061a1.06 1.06 0 0 1-0.6-1.95c6.13-4 18.44-10.5 26.73-5 9.68 6.45 6.61 9.26 5.44 10a1.07 1.07 0 0 1-0.7 0.14c-2.82-0.44-21.87-3.37-30.87-3.19z"/>
 <path d="m209.31 68.731s16.51 16.51 16.51 19-5.08 3.81-12.7-2.54-14-15.24-11.43-17.78 7.62 1.32 7.62 1.32z"/>
 <path class="cls-7" d="m136.15 122.24s7.91-4.23 14.93 5.79c5.33 7.58 3.38 14 3.38 14s-3.38 10.12-11.08 8.19c0 0.02-2.91-20.71-7.23-27.98z"/>
 <path class="cls-7" d="m174.5 243.91s-12.52 2.15-19.37 0.89c-0.73 1.89-2.94 3.09-7.12 2.79a1.93 1.93 0 0 1-1-0.34 1.43 1.43 0 0 1-0.23-0.2c-2.41 1.93-2.41 0.48-37.1 1.93-34.69 1.45-39.51-3.85-39.51-3.85-5.3-6.27 10.6-15.9 8.67-24.58a6.85 6.85 0 0 0-0.83-2.05l-0.61 2.05c-6.69 18.07-24.17 27-40.72 27-15.65 0-30.46-7.93-34.44-23.62-8.23-32.28 12.49-41.43 20.2-59.69 7.41-17.6-2.1-24.52-2.85-25 0.94 0.42 16.69 7.68 12.49 23.1-4.34 15.9-24.58 37.59-12 54.45 6 8 11.82 8.08 16.62 4.22 5.3-4.24 9.33-13.24 10.85-21.57a39.54 39.54 0 0 1 6.2-15c-1.53-14.52 7.73-23.5 14.51-28.06a62.15 62.15 0 0 0 18.35-18.95 76.43 76.43 0 0 0 5-9.48 65 65 0 0 0 3.27-9.29 53.07 53.07 0 0 0 1.45-7.32c0.07-0.54 0.12-1.05 0.16-1.54h0.12a104.64 104.64 0 0 0 1.74-19.58v-0.38a1.94 1.94 0 0 0 0-0.24c0-0.18 0-0.37 0.05-0.54 0-0.49 0.07-1 0.1-1.48 0-0.32-0.41-0.68-0.4-1v-1.43-0.72-0.71-0.72l-0.71-0.72v-0.71c0-1.27-0.7-2.33-0.72-3.59 0-0.52-1.42-5.21-1.43-5.74l21.51 1.44c-0.21 1-1.31 3.93-1.44 5-0.16 1.38-0.66 2.85-0.72 4.3a38.74 38.74 0 0 0 10.41 22 62 62 0 0 1 11 17.27 81.43 81.43 0 0 1 4 11.25c2.77 3.33 5.68 7.74 6.42 11.38 0.46 2.23 0.1 4.17-1.62 5.37a3.29 3.29 0 0 1-0.46-0.23 7.81 7.81 0 0 1-0.86 3.28 73 73 0 0 1-0.06 7.62c0 2.27-0.08 4.61-0.22 7 1.46 0.86 17.77 10.9 8.57 28.85-5.3 10.6-32.28 17.83-37.1 25.54s-7.71 10.6-1.45 10.6h17.39c3.37-1.89 9.06-3.94 15.13-1.2a17.8 17.8 0 0 1 2.77 1.54c3.21-1.78 13-6.66 20.12-4.68 8.69 2.35 13.98 12.43 5.87 15.34z"/>
 <path class="cls-8" d="m143.46 160.87c0 2.27-0.08 4.61-0.22 7-0.09 1.53-0.68 5.37-0.83 6.93-2 2.16-3.31 1.71-5 3.28-5 4.74-8.73 7-11.37 8.06a34.37 34.37 0 0 0-1.22-7.77 1.55 1.55 0 0 0-0.07-0.23c0.27-0.52 0.53-1 0.78-1.54 13.36-26.87 6.88-39.68-2.65-57.45-10.6-19.75-8.24-36.23-8.24-36.23v0.72a39.58 39.58 0 0 0 10.41 21.3 62 62 0 0 1 11 17.27 81.43 81.43 0 0 1 4 11.25 96.61 96.61 0 0 1 3 16.64c0.11 1.19 0.2 2.39 0.27 3.61 0.09 2.32 0.16 4.7 0.14 7.16z"/>
 <path class="cls-9" d="m77.977 218.51-0.61 2.05c-6.69 18.07-24.18 27-40.72 27-15.65 0-30.46-7.93-34.44-23.62-8.2-32.29 12.52-41.44 20.23-59.7 7.41-17.6-2.1-24.52-2.85-25 0.94 0.42 16.69 7.68 12.49 23.1-4.34 15.9-24.58 37.59-12 54.45 6 8 11.82 8.08 16.62 4.22 5.3-4.24 9.33-13.24 10.85-21.57a39.54 39.54 0 0 1 6.2-15"/>
 <path class="cls-9" d="m117.53 72.151c-6.45 10.76 0.19 24.85 7.54 32.78a62 62 0 0 1 11 17.27 81.43 81.43 0 0 1 4 11.25 96.61 96.61 0 0 1 3 16.64c0.11 1.19 0.2 2.39 0.27 3.61 0.14 2.33 0.21 4.71 0.19 7.17 0 2.27-0.08 4.61-0.22 7-0.09 1.53-0.21 3.07-0.36 4.64-0.08 0.84-0.17 1.7-0.27 2.56-0.06 0.55-0.13 1.1-0.2 1.66"/>
 <path class="cls-7" d="m110.85 114.32s5.78 11.57 1.93 21.69l13.73-6s6.75-6.26 12 1.45 8.67 12 8.19 15.9-1.93 2.89-1.93 2.89-3.85 8.67-7.71 7.23-2.41-3.86-2.41-3.86-6.74 1.93-9.15-1 0-6.27 5.78-4.82h1l-2.41-5.78-12.52 8.67s-9.16 5.78-14.94 5.3c-5.78-0.48-12-7.71-12-14.94a59.8 59.8 0 0 1 1.44-13l15.39-16.81z"/>
 <path class="cls-10" d="m152.29 243.93a9.44 9.44 0 0 0 2.79 0.89c6.85 1.26 19.37-0.89 19.37-0.89h0.06c8.11-2.91 2.81-13-5.84-15.4-7.14-2-16.91 2.9-20.12 4.68-0.69 0.38-1.08 0.62-1.08 0.62l-14.45-1h-19.76c-6.26 0-3.37-2.89 1.45-10.6s31.8-14.94 37.1-25.54c9.2-17.95-7.11-28-8.57-28.85l-0.11-0.05"/>
 <path class="cls-9" d="m146.98 247.24c0.24-7.3-2.88-10.07-2.88-10.07"/>
 <path class="cls-9" d="m91.607 127.95c-1.19 5.26-2.42 14.35 1.15 20.82 5.3 9.64 14.93 8.19 22.16 2.89a144.28 144.28 0 0 1 15.35-9.6h0.07"/>
 <path class="cls-9" d="m144.82 150.24c1.72-1.2 2.08-3.14 1.62-5.37-0.74-3.64-3.65-8.05-6.42-11.38a30.9 30.9 0 0 0-4.37-4.43c-3.86-2.89-9.16 1-18.31 5.3a29.75 29.75 0 0 1-4.11 1.63c-5.36 1.63-6-0.67-6-0.67"/>
 <path class="cls-9" d="m134.7 154.06c0 1.46 0.64 5.56 6.27 1.94a7.3 7.3 0 0 0 2.3-2.3 3.25 3.25 0 0 0 0.25-0.45 7.81 7.81 0 0 0 0.86-3.28 14.81 14.81 0 0 0-0.78-5.1 17.68 17.68 0 0 0-1.19-2.84"/>
 <path class="cls-9" d="m138.61 142.51s4.82 12-7.71 12c0 0-6.75 0-5.78-4.34s7.22-2.41 7.22-2.41-3.85-5.78-1-11.08"/>
 <path class="cls-9" d="m136.39 122.03a11.29 11.29 0 0 1 11.8 2.65c5.3 5.3 9.16 16.87 5.3 18.79"/>
 <path class="cls-9" d="m145.14 150.32a3.77 3.77 0 0 0 4-1.06c8.67-6.27 2.41-14.46 2.41-14.46"/>
 <path class="cls-9" d="m146.55 144.78c3.1-1.6 0.2-9 0.2-9"/>
 <path class="cls-11" d="m141.21 183.71s-5.17 21.08-23.22 27.05l0.09-0.07c3.07-3.3 5.5-6.92 6.51-10.83a47.11 47.11 0 0 0 1.5-13.32v-0.4a34.37 34.37 0 0 0-1.22-7.77 1.55 1.55 0 0 0-0.07-0.23c-0.22-0.78-0.48-1.52-0.76-2.24 0.06 0 0.63 0.32 1.54 0.7 2.44 1 6.68 2.75 11.7 0.6a11.1 11.1 0 0 0 5.73-5s7.83 9.58-1.8 11.51z"/>
 <path class="cls-9" d="m111.09 115.05s5.77 8.56 2.16 20.9"/>
 <path class="cls-7" d="m128.72 234.06s11.3-7.37 17.67-2.12 9.15 8.58 9 12a3.23 3.23 0 0 1-3.17 3.36l-2.31-7.19s-1.93-5.3-4.34-5.3-13.49 0.48-13.49 0.48z"/>
 <path class="cls-9" d="m90.907 62.661a67.06 67.06 0 0 1 6.47 17.82c0.16 0.8 0.29 1.61 0.41 2.44a2.4 2.4 0 0 1 0 0.28v0.27a0.62 0.62 0 0 1 0 0.13 58.6 58.6 0 0 1 0.48 6.44v2.12 0.84c0 0.58 0 1.16-0.07 1.75s0 1-0.07 1.46q-0.17 2.79-0.51 5.88c-0.15 1.25-0.32 2.54-0.51 3.88-0.08 0.57-0.18 1.14-0.27 1.73s-0.2 1.27-0.31 1.91-0.17 1-0.27 1.55q-0.6 3.39-1.39 7.15a0.94 0.94 0 0 0 0 0.16 65.13 65.13 0 0 1-3.28 9.29c-0.11 0.26-0.23 0.51-0.35 0.78-0.45 1-0.94 2-1.47 3s-1.1 2.11-1.72 3.19c-0.23 0.41-0.46 0.81-0.71 1.22s-0.49 0.83-0.74 1.24a54.69 54.69 0 0 1-3.82 5.44c-0.33 0.44-0.69 0.87-1 1.3-0.71 0.85-1.45 1.68-2.2 2.48a65.37 65.37 0 0 1-11.38 9.66l-0.59 0.41c-0.6 0.41-1.22 0.87-1.84 1.35l-0.63 0.5a38.47 38.47 0 0 0-3.74 3.47 30.35 30.35 0 0 0-5.33 7.73c-0.28 0.6-0.55 1.21-0.79 1.84a27.14 27.14 0 0 0-1.59 12.76 31.72 31.72 0 0 0 0.54 3.44c4.85 22.88 19.74 24.06 23.74 30.7a6.36 6.36 0 0 1 0.83 2.05c1.84 8.2-12.31 17.28-9.35 23.53a4.19 4.19 0 0 0 0.42 0.7l0.26 0.34a5.12 5.12 0 0 0 0.92 0.6l0.47 0.23 0.37 0.16 0.21 0.09a22.22 22.22 0 0 0 2.2 0.74l0.7 0.19 0.39 0.09 0.82 0.2c0.86 0.18 1.84 0.37 3 0.55l1.74 0.26 1.26 0.16 0.7 0.07 1.4 0.15a192.71 192.71 0 0 0 25.3 0.32c21.14-0.88 29.4-0.69 33.17-0.84h1.02a5.44 5.44 0 0 0 0.62-0.06 3.35 3.35 0 0 0 0.51-0.09 3.69 3.69 0 0 0 1.77-0.87l0.22 0.19a1.9 1.9 0 0 0 0.47 0.24 1.56 1.56 0 0 0 0.52 0.11 11.26 11.26 0 0 0 4.39-0.41 5.46 5.46 0 0 0 1.14-0.52 4.81 4.81 0 0 0 0.61-0.45 3.61 3.61 0 0 0 0.67-0.8 3.84 3.84 0 0 0 0.3-0.61c1.23-3.21-1.76-8.38-6.53-11.63l-0.66-0.43a20.16 20.16 0 0 0-2.11-1.11c-6.07-2.74-11.76-0.69-15.13 1.2a19.62 19.62 0 0 0-3.17 2.17h-29.33s-5.78 1-3.86-4.33c1.42-3.9 15.08-10.67 23.76-19.93l0.07-0.08c3.08-3.3 5.52-6.92 6.53-10.84a47.39 47.39 0 0 0 1.49-13.32 34.5 34.5 0 0 0-1.24-8.16c-0.24-0.85-0.53-1.67-0.83-2.48-2.44-6.18-7.16-10.79-14.83-11.69-16.38-1.93-16.86-0.48-19.28-8.19"/>
 <path class="cls-12" d="m66.607 14.711a22.87 22.87 0 0 0 6.58 13.53c5.35 5.48 12.14 8 13.61 11.67l0.06 0.17a13.36 13.36 0 0 1 0.29 5.48c-0.69 7.13-3.66 17.36 0.44 23.23 7.44 9.44 19.28 7.91 19.28 7.91 4.74 1.16 16.86-2.75 19.79-9.27 2.57-5.73-0.37-19-1.13-23.92a11.1 11.1 0 0 1-0.17-1.54 2.91 2.91 0 0 1 0.55-1.42 34.15 34.15 0 0 1 5.61-6c0.88-0.8 1.8-1.6 2.74-2.39 2.32-2 4.7-3.84 6.59-5.25l0.13-0.1a11.88 11.88 0 0 0 3.2-4.37c3.52-7.26 5-19.84 1.71-21.7-2.36-1.34-9.87 2.91-16.34 7.85-4.9 3.75-9.21 7.9-10.22 10.33-1.45 3.49-6.52 9.6-11.37 11.65l-0.26 0.1a7.47 7.47 0 0 1-2.69 0.59h-0.06a4.15 4.15 0 0 1-0.87-0.06 1.91 1.91 0 0 1-0.33-0.06h-0.16a4.88 4.88 0 0 1-1-0.37 3.07 3.07 0 0 1-0.31-0.17 5.9 5.9 0 0 1-0.59-0.43 3.1 3.1 0 0 1-0.43-0.39l-0.27-0.29a7.79 7.79 0 0 1-0.89-1.26c-2.71-4.73-7.79-10.72-12.79-15.72-4.37-4.36-8.68-8-11.3-9.33-8.88-4.75-11.54-5.03-9.4 11.53z"/>
 <path class="cls-13" d="m87.607 68.791c7.44 9.44 19.28 7.91 19.28 7.91 4.74 1.16 16.86-2.75 19.79-9.27 2.57-5.73-0.37-19-1.13-23.92-2.65-0.35-5.48-0.25-7.26 1.16 0 0-5.3 7.43 3.31 13.31 4.76 3.82-0.54 10.36-6.47 8.32s-2.65 3-2.65 3l-13-2.61s-7.78 0.62-8.8-5.59c-0.72-3.83 7.93-4.61 5.64-11.93-1.35-4.34-5.76-4.32-9.11-3.58-0.75 7.1-3.72 17.33 0.4 23.2z"/>
 <path class="cls-13" d="m116.33 41.571s-3.81 8.31-4.69 11-2 11.55-3.49 12.45-2.66 1.49-3.87-4.72-2.41-9.17-4.5-12.71a13.59 13.59 0 0 1-2.1-6.21 72.16 72.16 0 0 0 2.11 9.47c1.2 3.54-0.84 10.66 1.27 17.16 2.11 6.5 12.43 0.83 12.43 0.83s1.14-10.77 0.68-12.64 1.76-9.21 2-10.43a38.49 38.49 0 0 0 0.16-4.2z"/>
 <path class="cls-14" d="m114.12 49.701a10.3 10.3 0 0 0 1.66-3.53 12.22 12.22 0 0 0 0.26-1.9c0.11-0.63 0.06-1.27 0.11-2h0.06a5 5 0 0 1 0.43 2 6 6 0 0 1-0.41 2 9.51 9.51 0 0 1-2.06 3.43z"/>
 <path class="cls-14" d="m99.907 49.511a9.62 9.62 0 0 1-2.05-3.11 5.3 5.3 0 0 1-0.46-1.85 3.92 3.92 0 0 1 0.4-1.86h0.06a14.65 14.65 0 0 0 0.13 1.8 11.57 11.57 0 0 0 0.32 1.75 10.63 10.63 0 0 0 1.65 3.23z"/>
 <path class="cls-15" d="m119.35 52.801a7.76 7.76 0 0 1 3.62-0.52 6.92 6.92 0 0 0 2.1-5c0.12-3.32-1.67-6.08-4-6.16s-4.28 2.55-4.4 5.88c-0.06 2.65 1.04 4.95 2.68 5.8z"/>
 <ellipse class="cls-16" transform="rotate(-2.67)" cx="118.52" cy="54.041" rx="2.8" ry="3.02"/>
 <ellipse class="cls-17" transform="rotate(-2.67)" cx="118.46" cy="54.041" rx="1.96" ry="2.11"/>
 <ellipse class="cls-18" transform="rotate(-2.67)" cx="117.27" cy="55.098" rx=".42" ry=".45"/>
 <path class="cls-15" d="m94.607 52.921a7.59 7.59 0 0 0-3.63-0.49 7 7 0 0 1-2.14-5c-0.15-3.32 1.61-6.1 3.93-6.2s4.31 2.51 4.45 5.84c0.14 2.67-0.96 4.98-2.61 5.85z"/>
 <ellipse class="cls-16" transform="rotate(-87.86)" cx="-45.091" cy="94.785" rx="3.02" ry="2.8"/>
 <ellipse class="cls-17" transform="rotate(-87.86)" cx="-45.099" cy="94.858" rx="2.11" ry="1.96"/>
 <ellipse class="cls-18" transform="rotate(-87.86)" cx="-46.147" cy="96.039" rx=".45" ry=".42"/>
 <path class="cls-14" d="m114.16 52.091c0.15 1.09 0.22 2.18 0.28 3.27s0.08 2.18 0.07 3.27-0.06 2.19-0.18 3.28a9.84 9.84 0 0 1-0.71 3.21 6.76 6.76 0 0 0 0.2-1.61c0-0.54 0-1.08 0.06-1.63v-3.25c0-1.09 0-2.18 0.07-3.27s0.11-2.18 0.21-3.27z"/>
 <path class="cls-14" d="m99.937 51.861c0.08 1.14 0.1 2.28 0.12 3.42v6.81 1.7a7.42 7.42 0 0 0 0.19 1.69 10.47 10.47 0 0 1-0.68-3.36c-0.11-1.15-0.12-2.29-0.13-3.43s0-2.28 0.12-3.42 0.21-2.28 0.38-3.41z"/>
 <path class="cls-19" d="m125.03 34.241c1.31 1.3 5.05 0 9.23-2.13 2.32-2 4.7-3.84 6.59-5.25l0.13-0.1a11.88 11.88 0 0 0 3.2-4.37c3.52-7.26 5-19.84 1.71-21.7-2.36-1.34-9.87 2.91-16.34 7.85-4.67 6.94-9.58 17.34-4.52 25.7z"/>
 <path class="cls-14" d="m90.807 61.971a3.81 3.81 0 0 1-0.3-1.75 4.14 4.14 0 0 1 0.58-1.72 5.64 5.64 0 0 1 1.23-1.35c0.49-0.37 1-0.65 1.44-1a7.32 7.32 0 0 0 2.23-2.47 5.85 5.85 0 0 0 0.69-3.3 5.08 5.08 0 0 1-0.28 3.49 6.75 6.75 0 0 1-2.29 2.76c-0.5 0.35-1 0.64-1.46 1a6.13 6.13 0 0 0-1.18 1.15 4 4 0 0 0-0.66 3.19z"/>
 <path class="cls-14" d="m123.28 61.821a4 4 0 0 0-0.69-3.21 5.85 5.85 0 0 0-1.19-1.14c-0.45-0.31-1-0.6-1.47-0.94a6.82 6.82 0 0 1-2.32-2.73 5.12 5.12 0 0 1-0.31-3.5 6 6 0 0 0 0.72 3.29 7.36 7.36 0 0 0 2.25 2.46c0.45 0.32 1 0.6 1.46 1a5.47 5.47 0 0 1 1.24 1.34 4.06 4.06 0 0 1 0.59 1.71 3.71 3.71 0 0 1-0.28 1.72z"/>
 <path class="cls-13" d="m66.607 14.711a22.87 22.87 0 0 0 6.58 13.53c5.35 5.48 12.14 8 13.61 11.67 1-1.91 3.77 0.3 7.31-2.08 5.22-3.52 5.58-9.8 7.66-7.14a7.9 7.9 0 0 1 1.16 2.89c0.3 1.24 0.53 2.66 0.74 4 0.36 4.16 1.14 6.72 1.73 7a0.22 0.22 0 0 0 0.25-0.1c1.45-1.14 1.41-11.37 3.54-14.12 2.24-2.92 2.7 3.93 8.43 7.71 3.89 2.57 6.9 0.13 8 2.2 0.79-2 3.06-3.73 5.86-5.72 0.88-0.8 1.8-1.6 2.74-2.39 2.32-2 4.7-3.84 6.59-5.25a26.25 26.25 0 0 0 3.33-4.47c3.52-7.26 5-19.84 1.71-21.7-2.36-1.34-9.87 2.91-16.34 7.85-4.9 3.75-9.21 7.9-10.22 10.33-1.45 3.49-6.52 9.6-11.37 11.65l-0.26 0.1a5.71 5.71 0 0 1-2.67 0.3v0.29h-0.06a4.15 4.15 0 0 1-0.87-0.06 1.91 1.91 0 0 1-0.33-0.06h-0.16a4.88 4.88 0 0 1-1-0.37 3.07 3.07 0 0 1-0.31-0.17 5.9 5.9 0 0 1-0.59-0.43 5.22 5.22 0 0 1-0.43-0.39l-0.27-0.29a7.79 7.79 0 0 1-0.89-1.26c-2.71-4.73-7.79-10.72-12.79-15.72-4.37-4.36-8.68-8-11.3-9.33-8.86-4.75-11.52-5.03-9.38 11.53z"/>
 <path class="cls-14" d="m95.357 53.241-1.44-0.3c-0.47-0.08-0.93-0.18-1.4-0.22a8.09 8.09 0 0 0-1.39-0.06 5.44 5.44 0 0 0-1.39 0.31 2.66 2.66 0 0 1 1.31-0.76 4.21 4.21 0 0 1 1.54-0.08 5.15 5.15 0 0 1 1.46 0.38 4.94 4.94 0 0 1 1.31 0.73z"/>
 <path class="cls-20" d="m123.78 52.791c-0.44-0.07-0.85-0.14-1.26-0.18a9.87 9.87 0 0 0-1.21 0 4.59 4.59 0 0 0-1.16 0.23 5.31 5.31 0 0 0-1.1 0.58 2.44 2.44 0 0 1 0.9-1 3 3 0 0 1 1.32-0.41 3.8 3.8 0 0 1 1.34 0.17 3.3 3.3 0 0 1 1.17 0.61z"/>
 <path class="cls-21" d="m66.607 14.671a22.72 22.72 0 0 0 6.57 13.48c5.35 5.47 12.13 8 13.61 11.64l0.06 0.17a13.31 13.31 0 0 1 0.29 5.47c-0.69 7.11-3.66 17.31 0.44 23.16 7.44 9.41 19.28 7.88 19.28 7.88 4.74 1.16 16.86-2.73 19.79-9.24 2.57-5.72-0.37-18.92-1.13-23.85a11 11 0 0 1-0.17-1.53 3 3 0 0 1 0.54-1.42 34.69 34.69 0 0 1 5.62-6c0.88-0.8 1.8-1.6 2.74-2.39 2.32-2 4.7-3.82 6.59-5.23l0.13-0.1a11.88 11.88 0 0 0 3.2-4.35c3.52-7.25 5-19.79 1.71-21.64-2.36-1.33-9.87 2.89-16.34 7.83-4.9 3.73-9.21 7.87-10.22 10.3-1.45 3.47-6.52 9.57-11.37 11.61l-0.26 0.1a7.47 7.47 0 0 1-2.69 0.59h-0.06a4.15 4.15 0 0 1-0.87-0.06l-0.33-0.06h-0.16a4.88 4.88 0 0 1-1-0.37 3.07 3.07 0 0 1-0.31-0.17c-0.2-0.13-0.4-0.27-0.59-0.42a5.22 5.22 0 0 1-0.43-0.39c-0.09-0.1-0.18-0.19-0.27-0.3a7.38 7.38 0 0 1-0.89-1.26c-2.71-4.71-7.79-10.68-12.79-15.67-4.37-4.34-8.68-7.94-11.3-9.3-8.87-4.71-11.53-5-9.39 11.52z"/>
 <path class="cls-19" d="m87.847 33.011a0.83 0.83 0 0 0 1.45-0.47 18.42 18.42 0 0 0-6.42-15.79c-3-2.59-9.59-9-11.71-6.8-1.8 1.85 12.44 18.29 16.68 23.06z"/>
 <path class="cls-19" d="m124.47 34.031a0.83 0.83 0 0 1-1.45-0.47 18.4 18.4 0 0 1 6.27-15.84c2.93-2.62 9.51-9.06 11.64-6.91 1.83 1.84-12.26 18.37-16.46 23.22z"/>
 <path class="cls-22" d="m114.41 74.741s-1.16 5.33-6.19 6-8-4.41-8-5.3 2.06-3 2.06-3l7.4-0.92z"/>
 <path class="cls-23" d="m112.04 75.641a4.66 4.66 0 0 1-4.72 3c-3.85 0-5.34-2.35-5.34-2.35l4.42-4.75 3.26 0.87z"/>
 <path class="cls-22" d="m112.61 65.241s4.74 0.28 5.05 3.53-1.26 7.1-5.2 7.87-4.84-1.9-5.14-2.49-0.61-4.44 0.57-4.74 4.72-4.17 4.72-4.17z"/>
 <path class="cls-23" d="m107.31 70.181a0.3 0.3 0 0 1-0.06-0.5 19.71 19.71 0 0 0 2.36-2.44c1.47-1.78 3.73-3.57 4.38-2.09s-5.08 5.74-6.68 5.03z"/>
 <path class="cls-22" d="m101.41 65.321s-4.74 0.32-5 3.58 1.32 7.09 5.27 7.82c3.95 0.73 4.82-2 5.11-2.54s0.58-4.44-0.61-4.73-4.77-4.13-4.77-4.13z"/>
 <path class="cls-23" d="m106.73 70.181a0.3 0.3 0 0 0 0.06-0.49 19.67 19.67 0 0 1-2.43-2.46c-1.49-1.77-3.76-3.53-4.4-2-0.64 1.53 5.18 5.68 6.77 4.95z"/>
</svg>
