<?xml version="1.0" encoding="UTF-8"?>
<svg width="124.02" height="80" version="1.1" viewBox="0 0 124.02 80" xmlns="http://www.w3.org/2000/svg">
 <defs>
  <style>.cls-1{isolation:isolate;}.cls-2{stroke-miterlimit:10;stroke-width:5px;fill:url(#linear-gradient);stroke:url(#linear-gradient-2);}.cls-12,.cls-3,.cls-4{fill:#fff;}.cls-3{opacity:0.11;}.cls-5{fill:#2c3540;}.cls-6{fill:#d1d3d4;}.cls-10,.cls-6{mix-blend-mode:multiply;}.cls-7{fill:#006269;}.cls-8{fill:#65bebd;}.cls-9{fill:#00b9c5;}.cls-10{fill:#bcbec0;}.cls-11{fill:#ec524f;}.cls-12{opacity:0.5;mix-blend-mode:soft-light;}.cls-13{fill:#97302e;}.cls-14{fill:#d83633;}</style>
  <linearGradient id="linear-gradient" x1="2.5" x2="254.99" y1="144.15" y2="144.15" gradientUnits="userSpaceOnUse">
   <stop stop-color="#ed1a37" offset="0"/>
   <stop stop-color="#fcaf17" offset="1"/>
  </linearGradient>
  <linearGradient id="linear-gradient-2" x2="257.49" y1="144.15" y2="144.15" gradientUnits="userSpaceOnUse">
   <stop stop-color="#ed1a37" offset="0"/>
   <stop stop-color="#f26132" offset="1"/>
  </linearGradient>
 </defs>
 <g class="cls-1" transform="matrix(.27747 0 0 .27747 -.0052214 0)">
  <g data-name="Layer 2">
   <g data-name="Layer 1">
    <path class="cls-2" d="m145.22 285.81a144.93 144.93 0 0 1-77-22.25 137.49 137.49 0 0 1-53.41-61.46c-31.22-71.48-1.12-153 68.54-185.71 18.84-8.83 37.8-13.89 52-13.89h2.5c43 0.68 76.46 13.3 105.25 39.71 3.22 3 11.77 10.79 11.86 22.3s-8.4 19.56-11.19 22.19c-18.88 17.85-37.59 36.7-55.68 54.93q-6.3 6.33-12.59 12.66c-15.94 16-15.95 26.86-0.05 43 2.69 2.72 5.35 5.47 8 8.23 7.9 8.15 15.36 15.86 23.4 22.84 3.6 3.13 14.56 12.64 12.42 25.83s-15.17 18.56-21.44 21.17a136.64 136.64 0 0 1-52.66 10.42z" fill="url(#linear-gradient)" stroke="url(#linear-gradient-2)"/>
    <path class="cls-3" d="m21.27 153.21a117.54 117.54 0 0 1 210.73-71.65 117.55 117.55 0 1 0-195.11 130.23 117 117 0 0 1-15.62-58.58z"/>
    <path class="cls-4" d="m160.12 65.74c10.17 1.6 15.6 7 15 16.71-0.55 8.77-6 13.82-14.85 13.81-9.82 0-15.58-5.83-15.47-15.25s6.63-14.31 15.32-15.27z"/>
    <path class="cls-5" d="m270.44 189.85s17.48 17.34 6.59 38.3c0 0-12.52 19.59 21.42 26 0 0 10 0.91 6.83-14.81 0 0-13.53-39.24-3.8-49.46z"/>
    <path class="cls-6" d="m305.28 239.31s-0.5-1.45-1.23-3.85c-0.84 2.86-2 6.28-4.38 8.19s-5.69 1.65-8.54 0.69a15 15 0 0 1-8.32-6.78 12.38 12.38 0 0 1-0.28-10.76c1.61-3.71 4.37-6.8 5.87-10.56a18.25 18.25 0 0 0 0.17-12.41c-1.74-5.24-5-9.65-8.39-14h-9.74s17.48 17.34 6.59 38.3c0 0-12.52 19.59 21.42 26 0-0.01 10.02 0.87 6.83-14.82z"/>
    <path class="cls-4" d="m295.5 190.55-0.07 0.14c0 0.09-0.1 0.24-0.17 0.43-0.14 0.39-0.34 1-0.54 1.75a34.46 34.46 0 0 0-1 6.53 55.88 55.88 0 0 0 0.31 9.4c0.19 1.71 0.48 3.47 0.8 5.26s0.73 3.58 1.19 5.37 1 3.56 1.51 5.3c0.28 0.86 0.56 1.72 0.83 2.57l0.88 2.48 0.9 2.39a10.77 10.77 0 0 1 0.67 2.37 7.36 7.36 0 0 1-0.54 4.43 5.82 5.82 0 0 1-2.69 2.61 10 10 0 0 1-2.78 0.89 10.47 10.47 0 0 1-1.07 0.15c-0.31 0-0.58 0.06-0.8 0.07h-0.66 0.66a6.79 6.79 0 0 0 0.79-0.08 10.59 10.59 0 0 0 1.07-0.17 9.85 9.85 0 0 0 2.75-0.92 5.75 5.75 0 0 0 2.61-2.6 7.28 7.28 0 0 0 0.46-4.33 10.59 10.59 0 0 0-0.69-2.32l-0.95-2.37c-0.3-0.82-0.61-1.64-0.92-2.48s-0.59-1.7-0.89-2.56c-0.57-1.74-1.12-3.51-1.61-5.3s-0.92-3.59-1.3-5.38-0.68-3.56-0.9-5.29a56.52 56.52 0 0 1-0.49-9.52 35.77 35.77 0 0 1 0.88-6.73 17.09 17.09 0 0 1 0.54-1.85c0.07-0.22 0.14-0.38 0.18-0.49l0.08-0.17z"/>
    <path class="cls-7" d="m304 185.78a4.55 4.55 0 0 1-4.55 4.55h-27a4.56 4.56 0 0 1-4.56-4.55 4.56 4.56 0 0 1 4.56-4.56h27a4.56 4.56 0 0 1 4.55 4.56z"/>
    <path class="cls-8" d="m282.73 159.46a19.65 19.65 0 1 1-19.65-19.64 19.65 19.65 0 0 1 19.65 19.64z"/>
    <path class="cls-9" d="m304 133.52a5.68 5.68 0 0 0-0.59 0h-33.15a5.81 5.81 0 0 0-5.81 5.81v40.33a5.81 5.81 0 0 0 5.81 5.8h33.14a5.68 5.68 0 0 0 0.59 0z"/>
    <path class="cls-4" d="m296.08 164.38a56 56 0 0 1-7.8-1.43c-6.36-2.26-9.51-7.62-10.79-14a33.26 33.26 0 0 1-0.64-9.9v-0.38a24 24 0 0 0-1.2 5.43 31.31 31.31 0 0 0 0.6 9.26c1.14 5.65 4.45 10.53 9.86 12.79a26.3 26.3 0 0 0 8.22 1.64c3.69 0.22 5.87 0.24 5.87-3.87 0.05 0.7-1.84 0.71-4.12 0.46z"/>
    <path class="cls-10" d="m304 172.35a13 13 0 0 1-5.67 1.86 25.54 25.54 0 0 1-6.92-0.45 46.23 46.23 0 0 1-6-1.44 17.66 17.66 0 0 1-8-5.06 23 23 0 0 1-4.5-9.92 44 44 0 0 1-1.29-13.71 35.27 35.27 0 0 1 2.53-10.14h-3.87a5.81 5.81 0 0 0-5.81 5.81v40.33a5.81 5.81 0 0 0 5.81 5.8h33.12a5.68 5.68 0 0 0 0.59 0z"/>
    <path class="cls-11" d="m304 133.52v51.91s43.1-3.41 73.39 27.34v-105s-22.39 22.37-73.39 25.75z"/>
    <path class="cls-12" d="m321.18 151.55a34.53 34.53 0 0 0 6.63 9.08c6.67 6.8 17.44 11.44 26.48 6.9 7.75-3.9 11.93-12.09 12.74-20.45 0.41-4.31 0.65-9.73-0.35-14-0.21-0.93-4.19-11.74-5.09-11.18-8.08 4.95-22.48 11.58-44.12 13.84-0.62 0.06 2.63 13.24 3.16 14.52 0.17 0.46 0.37 0.88 0.55 1.29z"/>
    <path class="cls-6" d="m367.5 115.07a35.92 35.92 0 0 1 2.2 3 29.34 29.34 0 0 1 3.85 8.42 36.53 36.53 0 0 1 1.16 8.71 55.89 55.89 0 0 1-3.17 20.35c-2.1 5.81-5.28 11.5-10 15.54a21.5 21.5 0 0 1-16 5.24c-7.64-0.73-14.85-4.91-20.43-10a43.52 43.52 0 0 1-12.25-19.71 61.34 61.34 0 0 1-2.35-13.62c-2.12 0.22-4.29 0.41-6.52 0.55v51.91s43.1-3.41 73.39 27.34v-105a59.19 59.19 0 0 1-9.88 7.27z"/>
    <path class="cls-13" d="m385 213a3.79 3.79 0 0 1-3.79 3.8 3.8 3.8 0 0 1-3.8-3.8v-105.49a3.79 3.79 0 0 1 3.8-3.79 3.78 3.78 0 0 1 3.79 3.79z"/>
    <path class="cls-14" d="m399 192.58c-3.11 3-7.36 3-8.51 0.83-1.18-2.2 0.16-5.25 2.3-7.32a25.22 25.22 0 0 0 0-36.39c-2.14-2.07-3.48-5.12-2.3-7.32 1.15-2.18 5.4-2.14 8.51 0.83a34.2 34.2 0 0 1 0 49.37z"/>
    <path class="cls-14" d="m411.18 203.21c-3.07 2.53-7 2.44-8.21 0.27-1.2-2.17 0.12-5.23 2.48-7.19a36.9 36.9 0 0 0 0-56.79c-2.36-2-3.68-5-2.48-7.2 1.19-2.16 5.14-2.25 8.21 0.28 22.11 18.13 22.11 52.5 0 70.63z"/>
    <path class="cls-14" d="m424.48 213.57c-3 2.31-6.83 2.15-8 0-1.22-2.16 0.09-5.23 2.56-7.12 25.33-19.25 25.33-57.84 0-77.09-2.47-1.89-3.78-5-2.56-7.12 1.2-2.16 5-2.32 8 0 30.01 22.76 30.01 68.52 0 91.33z"/>
   </g>
  </g>
 </g>
</svg>
