<?xml version="1.0" encoding="UTF-8"?>
<svg width="124.02" height="80" version="1.1" viewBox="0 0 124.02 80" xmlns="http://www.w3.org/2000/svg">
 <defs>
  <style>.cls-1{isolation:isolate;}.cls-2{fill:#dc2328;}.cls-3{fill:#f5f4ed;stroke:#939598;stroke-miterlimit:10;}.cls-4{opacity:0.31;}.cls-5{fill:#ab9d67;}.cls-6{opacity:0.32;}.cls-7{fill:#2c3540;}.cls-8{fill:#d1d3d4;}.cls-13,.cls-8{mix-blend-mode:multiply;}.cls-15,.cls-9{fill:#fff;}.cls-10{fill:#006269;}.cls-11{fill:#65bebd;}.cls-12{fill:#00b9c5;}.cls-13{fill:#bcbec0;}.cls-14{fill:#ec524f;}.cls-15{opacity:0.5;mix-blend-mode:soft-light;}.cls-16{fill:#97302e;}.cls-17{fill:#d83633;}</style>
 </defs>
 <g class="cls-1" transform="matrix(.25402 0 0 .23158 .0076345 0)">
  <g data-name="Layer 2">
   <g data-name="Layer 1">
    <path class="cls-2" d="m244.12 322c3.19-8.88 7.34-16.63 15-22.26 9.92-7.27 21.25-10.21 33.13-10.66 33.13-1.23 66.29-0.32 99.44-0.51 16.3-0.09 32.61 0 48.91 0 8.38 0 8.39 0 8.39-8.19v-232.6c0-3.08 0.09-6.16 0-9.24-0.08-2.77 1.11-3.81 3.89-3.78q15.76 0.15 31.53 0c2.86 0 3.92 1.19 3.78 3.89-0.07 1.26 0 2.53 0 3.8q0 141.84 0 283.69c0 7.62 0 7.64-7.63 7.6l-173.37-0.86c-9.36 0-18.35 1.39-26.64 6.21-18.16 10.55-26.46 8.24-36.15-9.82-1.23 0-1.34 1-1.68 1.76-6.24 14.4-17.7 18.45-31.2 10.19-10.17-6.23-20.92-8.59-32.61-8.38-13.22 0.25-26.45 0.16-39.68 0.23-44.38 0.22-88.76 0.38-133.14 0.78-4.78 0-6.13-1.28-6.12-6.06q0.2-143.48 0-287c0-4.68 1.15-6.36 6.05-6.15 9.22 0.38 18.48 0.28 27.71 0 4-0.1 5.4 1.19 5.33 5.25-0.18 12.21-0.06 24.35-0.06 36.49v204.89c0 7.59 0 7.6 7.8 7.61 49.27 0.07 98.55-0.07 147.82 0.34 13.79 0.12 26.84 3.7 37.61 13.31 5.96 5.29 8.89 12.18 11.89 19.47z"/>
    <path class="cls-3" d="m38.85 0.5h162.68s38.11 4.65 42.59 31.5v296.92s-6.78-37.85-60-35.8l-145.27 3.06z"/>
    <path class="cls-3" d="m449.38 0.5h-162.68s-38.11 4.65-42.58 31.5v296.92s6.78-37.85 60-35.8l145.28 3.06z"/>
    <g class="cls-4">
     <path class="cls-5" d="m68.77 64.77s134.75-24.65 145.43 27.12c0 0-11.5-24.24-60.39-20.13 0 0-28.35 2.05-85.04-6.99z"/>
     <path class="cls-5" d="m68.77 107s134.75-24.65 145.43 27.12c0 0-11.5-24.24-60.39-20.13 0 0.01-28.35 2.01-85.04-6.99z"/>
     <path class="cls-5" d="m68.77 149.23s134.75-24.65 145.43 27.12c0 0-11.5-24.24-60.39-20.13 0 0-28.35 2.05-85.04-6.99z"/>
     <path class="cls-5" d="m68.77 191.46s134.75-24.65 145.43 27.12c0 0-11.5-24.24-60.39-20.13 0 0-28.35 2.05-85.04-6.99z"/>
     <path class="cls-5" d="m68.77 233.69s134.75-24.69 145.43 27.12c0 0-11.5-24.24-60.39-20.13 0 0-28.35 2.05-85.04-6.99z"/>
    </g>
    <g class="cls-6">
     <path class="cls-5" d="m397.26 64.77s-134.75-24.65-145.43 27.12c0 0 11.5-24.24 60.39-20.13 0 0 28.35 2.05 85.04-6.99z"/>
     <path class="cls-5" d="m397.26 107s-134.75-24.65-145.43 27.12c0 0 11.5-24.24 60.39-20.13 0 0.01 28.35 2.01 85.04-6.99z"/>
     <path class="cls-5" d="m397.26 149.23s-134.75-24.65-145.43 27.12c0 0 11.5-24.24 60.39-20.13 0 0 28.35 2.05 85.04-6.99z"/>
     <path class="cls-5" d="m397.26 191.46s-134.75-24.65-145.43 27.12c0 0 11.5-24.24 60.39-20.13 0 0 28.35 2.05 85.04-6.99z"/>
     <path class="cls-5" d="m397.26 233.69s-134.75-24.69-145.43 27.12c0 0 11.5-24.24 60.39-20.13 0 0 28.35 2.05 85.04-6.99z"/>
    </g>
    <path class="cls-7" d="m279.45 162.74s13.83 13.72 5.22 30.3c0 0-9.91 15.5 16.95 20.55 0 0 7.93 0.72 5.4-11.72 0 0-10.7-31-3-39.13z"/>
    <path class="cls-8" d="m307 201.87s-0.39-1.14-1-3c-0.67 2.26-1.58 5-3.47 6.48s-4.5 1.3-6.75 0.54a11.78 11.78 0 0 1-6.59-5.37 9.77 9.77 0 0 1-0.19-8.52c1.27-2.93 3.46-5.38 4.64-8.35a14.38 14.38 0 0 0 0.14-9.81c-1.38-4.15-4-7.65-6.64-11.07h-7.71s13.83 13.72 5.22 30.3c0 0-9.91 15.5 16.95 20.55 0.02-0.03 7.95 0.69 5.4-11.75z"/>
    <path class="cls-9" d="m299.28 163.29v0.11c0 0.08-0.08 0.19-0.14 0.35a13.8 13.8 0 0 0-0.42 1.38 27.23 27.23 0 0 0-0.77 5.17 42.63 42.63 0 0 0 0.25 7.43c0.14 1.36 0.37 2.75 0.63 4.16s0.57 2.84 0.94 4.25 0.77 2.82 1.19 4.2l0.66 2c0.24 0.66 0.47 1.32 0.7 2l0.71 1.88a8.25 8.25 0 0 1 0.52 1.88 5.88 5.88 0 0 1-0.42 3.51 4.68 4.68 0 0 1-2.13 2.06 7.58 7.58 0 0 1-2.2 0.7 7.85 7.85 0 0 1-0.85 0.12l-0.63 0.06h-0.52 0.52a6 6 0 0 0 0.63-0.07 7.91 7.91 0 0 0 0.84-0.13 7.54 7.54 0 0 0 2.18-0.73 4.48 4.48 0 0 0 2.06-2.05 5.7 5.7 0 0 0 0.37-3.43 8.17 8.17 0 0 0-0.55-1.83c-0.24-0.62-0.49-1.25-0.75-1.88s-0.48-1.3-0.73-2-0.47-1.35-0.7-2c-0.45-1.37-0.89-2.77-1.27-4.19s-0.73-2.84-1-4.26-0.54-2.81-0.71-4.18a43.88 43.88 0 0 1-0.39-7.54 27.9 27.9 0 0 1 0.69-5.32c0.16-0.64 0.31-1.13 0.43-1.47 0.06-0.16 0.11-0.29 0.15-0.38l0.05-0.14z"/>
    <path class="cls-10" d="m306 159.52a3.6 3.6 0 0 1-3.6 3.6h-21.33a3.6 3.6 0 0 1-3.6-3.6 3.61 3.61 0 0 1 3.6-3.61h21.33a3.61 3.61 0 0 1 3.6 3.61z"/>
    <path class="cls-11" d="m289.18 138.7a15.55 15.55 0 1 1-15.55-15.54 15.55 15.55 0 0 1 15.55 15.54z"/>
    <path class="cls-12" d="m306 118.18h-26.69a4.58 4.58 0 0 0-4.59 4.59v31.9a4.59 4.59 0 0 0 4.59 4.6h26.23a3.55 3.55 0 0 0 0.46 0z"/>
    <path class="cls-9" d="m299.74 142.59a44.33 44.33 0 0 1-6.17-1.13c-5-1.78-7.52-6-8.54-11.05a26.42 26.42 0 0 1-0.5-7.83v-0.31a19.78 19.78 0 0 0-0.94 4.3 24.71 24.71 0 0 0 0.47 7.33 13.49 13.49 0 0 0 7.8 10.12 20.76 20.76 0 0 0 6.51 1.29c2.92 0.17 4.64 0.19 4.64-3.06-0.01 0.53-1.46 0.54-3.27 0.34z"/>
    <path class="cls-13" d="m306 148.9a10.51 10.51 0 0 1-4.48 1.47 20.14 20.14 0 0 1-5.52-0.37 35.08 35.08 0 0 1-4.76-1.14 13.92 13.92 0 0 1-6.33-4 18.3 18.3 0 0 1-3.56-7.85 34.77 34.77 0 0 1-1-10.85 27.23 27.23 0 0 1 2-8h-3.07a4.58 4.58 0 0 0-4.59 4.59v31.9a4.59 4.59 0 0 0 4.59 4.6h26.23a3.55 3.55 0 0 0 0.46 0z"/>
    <path class="cls-14" d="m306 118.18v41.07s34.1-2.7 58.06 21.63v-83.1s-17.72 17.72-58.06 20.4z"/>
    <path class="cls-15" d="m319.6 132.44a27.16 27.16 0 0 0 5.24 7.18c5.28 5.39 13.81 9.06 21 5.46 6.13-3.08 9.43-9.56 10.07-16.18a36.54 36.54 0 0 0-0.27-11.05c-0.17-0.73-3.32-9.28-4-8.84-6.39 3.92-17.79 9.16-34.91 10.95-0.48 0.05 2.08 10.47 2.5 11.49 0.07 0.33 0.22 0.66 0.37 0.99z"/>
    <path class="cls-8" d="m356.25 103.58c0.61 0.76 1.2 1.55 1.74 2.37a23.36 23.36 0 0 1 3 6.66 29.09 29.09 0 0 1 0.92 6.89 44.32 44.32 0 0 1-2.51 16.1 28.68 28.68 0 0 1-7.95 12.29 17 17 0 0 1-12.6 4.11c-6-0.58-11.74-3.88-16.15-7.92a34.38 34.38 0 0 1-9.7-15.59 48.74 48.74 0 0 1-1.84-10.79c-1.68 0.18-3.4 0.32-5.16 0.44v41.07s34.1-2.7 58.06 21.63v-83.06a46.89 46.89 0 0 1-7.81 5.8z"/>
    <path class="cls-16" d="m370.07 181.06a3 3 0 0 1-3 3 3 3 0 0 1-3-3v-83.46a3 3 0 0 1 3-3 3 3 0 0 1 3 3z"/>
    <path class="cls-17" d="m381.18 164.91c-2.47 2.34-5.83 2.37-6.74 0.64-0.93-1.73 0.12-4.14 1.82-5.79a19.94 19.94 0 0 0 0-28.78c-1.7-1.64-2.75-4.06-1.82-5.79 0.91-1.73 4.27-1.69 6.74 0.65a27.08 27.08 0 0 1 0 39.07z"/>
    <path class="cls-17" d="m390.8 173.31c-2.43 2-5.55 1.93-6.49 0.22-0.95-1.72 0.09-4.14 2-5.69a29.2 29.2 0 0 0 0-44.93c-1.87-1.55-2.91-4-2-5.69 0.94-1.72 4.06-1.79 6.49 0.21a36.3 36.3 0 0 1 0 55.88z"/>
    <path class="cls-17" d="m401.32 181.51c-2.4 1.83-5.4 1.7-6.35 0-1-1.71 0.07-4.14 2-5.63 20-15.23 20-45.76 0-61-2-1.5-3-3.92-2-5.64 0.95-1.71 3.95-1.83 6.35 0 23.75 18.04 23.75 54.22 0 72.27z"/>
   </g>
  </g>
 </g>
</svg>
