<?xml version="1.0" encoding="UTF-8"?>
<svg width="40" height="52.971" version="1.1" viewBox="0 0 40 52.971" xmlns="http://www.w3.org/2000/svg">
 <defs>
  <style>.cls-1{isolation:isolate;}.cls-2,.cls-3,.cls-8{fill:#f79033;}.cls-3{opacity:0.5;mix-blend-mode:multiply;}.cls-4{fill:#fcb035;}.cls-5{fill:#ffd076;}.cls-6{fill:#ad5726;}.cls-7{fill:#5d2e10;}.cls-8{mix-blend-mode:screen;}</style>
 </defs>
 <g class="cls-1" transform="scale(.18957)">
  <g data-name="Layer 2">
   <g data-name="Layer 1">
    <path class="cls-2" d="m52.66 114v-11.22c0-31.35 21.44-67.78 49.08-67.78h7.26c27.64 0 49.08 36.43 49.08 67.78v11.22h29.55v-27.61c0-20.74-8.13-42.16-22.3-58.75-15.2-17.82-35-27.64-55.73-27.64h-8.43c-20.74 0-40.53 9.82-55.76 27.64-14.17 16.59-22.29 38-22.29 58.75v27.61z"/>
    <path class="cls-3" d="m165.35 27.64c-1.3-1.52-2.63-3-4-4.37a15.87 15.87 0 0 1 1.35 5.29 15.86 15.86 0 0 1-5.6 12.93c-3.5 2.79-7.77 2.79-11.77 1.09-2.85-1.21-5.25-3-7.86-4.68a53.11 53.11 0 0 0-9.32-4.68 57.92 57.92 0 0 0-20-3.8c-12.28-0.14-24.84 3.1-34.9 10.31-9.25 6.67-16.25 16.18-21.17 26.42-3.44 7.14-4.77 15.52-10.08 21.68-2.2 2.56-5.26 4.44-8.75 3.69a11 11 0 0 1-8.1-6.87 23.7 23.7 0 0 1-1.58-6.84 82.35 82.35 0 0 0-0.46 8.58v27.61h29.55v-11.22c0-31.35 21.44-67.78 49.08-67.78h7.26c27.64 0 49.08 36.43 49.08 67.78v11.22h29.55v-27.61c0.02-20.74-8.11-42.16-22.28-58.75z"/>
    <rect class="cls-3" x="158.1" y="104.11" width="29.55" height="9.91"/>
    <rect class="cls-3" x="23.12" y="104.11" width="29.55" height="9.91"/>
    <path class="cls-2" d="m210.36 117.49a10.8 10.8 0 0 0-3.18-4.39 16.1 16.1 0 0 0-6.79-2.79h-190.67a12.74 12.74 0 0 0-6.86 3 8.46 8.46 0 0 0-2.78 5.33c0 0.32 0 0.73-0.08 1.12v40.83c0 156.47 211 160.4 211 0v-41a14.29 14.29 0 0 0-0.64-2.1z"/>
    <path class="cls-4" d="m206 119.86a10 10 0 0 0-3-4.07 15.8 15.8 0 0 0-6.52-2.57h-183.23a12.45 12.45 0 0 0-6.59 2.78 7.72 7.72 0 0 0-2.66 4.87c0 0.3 0 0.68-0.08 1v37.79c0 144.83 202.63 148.46 202.63 0v-38a12.57 12.57 0 0 0-0.55-1.8z"/>
    <path class="cls-5" d="m197.38 122.43a8.63 8.63 0 0 0-2.81-3.47 15.26 15.26 0 0 0-6-2.2h-168.71a12 12 0 0 0-6.07 2.33 6.47 6.47 0 0 0-2.45 4.2c0 0.26 0 0.58-0.07 0.89v32.22c0 123.49 186.64 126.59 186.64 0v-32.4a9.09 9.09 0 0 0-0.53-1.57z"/>
    <path class="cls-6" d="m130.36 163.36c0-13-11.15-23.51-24.88-23.51s-24.88 10.53-24.88 23.51c0 9.94 6.54 18.41 15.77 21.85l-17.93 53.7h51.89l-16.26-53.51c9.49-3.31 16.29-11.92 16.29-22.04z"/>
    <path class="cls-6" d="m87.37 163.36c0-11.9 9.36-21.72 21.49-23.29a26.9 26.9 0 0 0-3.38-0.22c-13.74 0-24.88 10.53-24.88 23.51 0 9.94 6.54 18.41 15.77 21.85l-17.93 53.7h6.77l17.93-53.7c-9.23-3.44-15.77-11.91-15.77-21.85z"/>
    <path class="cls-7" d="m130.36 163.36c0-11.9-9.36-21.72-21.5-23.29-12.13 1.57-21.49 11.39-21.49 23.29 0 9.94 6.54 18.41 15.77 21.85l-17.93 53.7h45.12l-16.26-53.51c9.49-3.31 16.29-11.92 16.29-22.04z"/>
    <path class="cls-8" d="m26.79 75.32s12.58-74.98 90.46-72.07c0 0-69.17 5.08-90.46 72.07z"/>
    <path class="cls-8" d="m17.74 125.73s-2.46 6.3 0.37 11.8 34.35-2.65 33.6-10.12-29.24-13.09-33.97-1.68z"/>
    <path class="cls-8" d="m17 152.36a24.65 24.65 0 0 0 0.19 10.53c1.41 4.91 17.07-2.37 16.7-9s-14.57-11.71-16.89-1.53z"/>
   </g>
  </g>
 </g>
</svg>
