<?xml version="1.0" encoding="UTF-8"?>
<!-- Created with Inkscape (http://www.inkscape.org/) -->
<svg width="310mm" height="275.72mm" version="1.1" viewBox="0 0 310 275.72" xmlns="http://www.w3.org/2000/svg">
 <g transform="translate(50 -10.642)">
  <g class="cls-1" transform="matrix(.26458 0 0 .26458 -151.6 -201.81)" fill="#c4c4c4" opacity=".2">
   <g transform="matrix(.94298 0 0 .94298 55.296 75.49)" fill="#c4c4c4">
    <rect transform="rotate(-45.271 569.05 1037.7)" x="296.08" y="942.26" width="545.95" height="190.92" rx="95.461"/>
    <rect transform="rotate(-45.271 759.79 1113)" x="318.06" y="1017.5" width="883.46" height="190.92" rx="95.461"/>
    <rect transform="rotate(-45.271 897.59 1240.9)" x="301.41" y="1145.4" width="1192.4" height="190.92" rx="95.461"/>
    <rect transform="rotate(-45.271 980.62 1425.3)" x="384.43" y="1329.8" width="1192.4" height="190.92" rx="95.461"/>
    <rect transform="rotate(-45.271 1174.2 1495.7)" x="697.48" y="1400.2" width="953.37" height="190.92" rx="87.016"/>
    <rect transform="rotate(-45.271 1365.6 1569.3)" x="1100.3" y="1473.9" width="530.6" height="190.92" rx="70.396"/>
   </g>
  </g>
  <g transform="translate(83.727 49.034)">
   <polygon class="cls-2" transform="matrix(.26458 0 0 .26458 -227.68 -237.02)" points="1064.2 1054.7 1066.7 1055.4 1091.2 1047 1091.9 1046.8 1111.8 1039.9 1132 1033 1176 1017.9 1196.5 1010.9 1207.2 1007.3 1207.2 1007.3 1207.2 1007.3 1292.7 977.98 1292.7 1462.9 1217 1490.5 1194.8 1498.6 1194.7 1498.6 1187 1501.4 1187 1501.4 1070.6 1543.9 1068.5 1544.6 1064.2 1543.5 1061.3 1542.7 1041.9 1537.4 1041.9 1048.8 1051.2 1051.3" fill="#f7f1ec"/>
   <polygon class="cls-3" transform="matrix(.26458 0 0 .26458 -227.68 -237.02)" points="748.33 1500.8 748.33 1009.7 770.73 1002 807.63 989.18 811.16 987.96 811.37 987.89 904 1012.1 904 1012.1 1010.3 1040 1044.2 1048.8 1051.9 1050.9 1066.7 1054.7 1066.7 1543.5 1060.8 1541.9 1053.8 1540 1044.2 1537.4 1041.9 1536.8 1017.3 1530.2 812.62 1475.3 812.42 1475.4 810.88 1476 807.63 1477.3 793.83 1482.7 768.9 1492.6 757.56 1497.1" fill="#d7e1d9"/>
   <polygon class="cls-2" transform="matrix(.26458 0 0 .26458 -227.68 -237.02)" points="810.88 1477.3 794.04 1483.9 769.13 1493.7 757.78 1498.1 751.05 1500.8 737.81 1506 644.77 1542.6 589.17 1564.5 589.17 1065.3 748.33 1010.7 751.05 1009.7 772.74 1002.3 810.88 989.18" fill="#f7f1ec"/>
   <g fill="#92bcb5" stroke-width=".26458">
    <path class="cls-4" d="m-13.136 94.153c2.8282-7.7832 8.6942-18.296 8.6942-18.296 2.4546-0.30641 15.752 16.348 16.515 19.356 0.70623 2.7905-19.733 8.9564-25.209 7.3228z"/>
    <path class="cls-4" d="m41.491 167.85-54.627-14.049v0.0327l-4.4553 1.7516c-0.01799-0.1-0.03609-0.20159-0.05577-0.30316-0.0016-0.0114-0.0049-0.023-0.0065-0.0344-0.3261-1.7271-0.59158-0.58661-0.88977-2.43l5.4073-3.0297v-27.877c7.9979-0.60462 20.082-2.1449 22.834-2.9838 3.6213-1.106 26.958 39.734 26.958 39.734z"/>
    <path class="cls-4" d="m54.537 46.076-0.32771-0.25233 0.07048 20.54-6.2971 4.86-22.811 17.603a5.4515 5.4515 0 0 1-7.7865-1.1748l-9.2005-13.053a5.4494 5.4494 0 0 1 1.5468-7.7488l38.251-24.144 2.4775-1.5632 0.18354-0.11642 3.8932 1.0192v0.1737l6.4921-2.2236 0.18018-0.06059a5.4251 5.4251 0 0 1 0.80962 1.3044l2.9117 9.3956 1.4042 4.529z"/>
    <path class="cls-4" d="m39.628 38.14c-0.04763 0.0344-0.09665 0.06879-0.14417 0.10488-12.094 8.7565-39.055 25.106-41.09 25.219-2.6348 0.14584 3.2821-32.635 3.2821-32.635s3.9653-0.05575 9.502-0.05411h0.32443z"/>
    <path class="cls-4" d="m75.744 116.51v3e-3c-2.3497 1.6402-4.1636 2.8036-4.955 3.1526-2.6692 1.1732-11.106-11.378-16.215-20.695v-14.418c6.8312-5.8136 20.287-13 23.556-14.826 0.19497-0.10978 0.35229-0.19989 0.47188-0.26871 2.897-1.6894 20.52 26.569 20.52 26.569 1.7975 1.4976-14.562 14.334-23.378 20.484z"/>
    <path class="cls-4" d="m50.219 116.46s-11.549-20.117-13.53-18.591-10.487 7.1723-10.137 9.8609c0.35004 2.6885 12.554 23.527 14.674 22.604 2.1204-0.92271 10.256-11.717 8.9932-13.875z"/>
    <path class="cls-4" d="m54.573 151.96c-3.3328-3.9752-9.335-15.222-9.8495-17.638-0.63413-2.9789 5.5974-10.764 7.9061-12.076 0.36706-0.20812 1.0143 0.27033 1.845 1.2224z"/>
    <path class="cls-4" d="m114.35 119.5v30.54l-20.032 7.3048c-5.8088-8.5468-13.272-21.89-13.24-24.582 0.05072-4.026 23.623-18.688 25.563-20.007 0.95051-0.64558 4.4194 2.9298 7.708 6.7444z"/>
    <path class="cls-4" d="m114.35 46.75v49.057c-8.1191-9.6365-22.07-28.757-22.496-31.182-0.5751-3.2788 15.563-14.364 15.563-14.364s3.5229-2.0171 6.9328-3.5115z"/>
    <path class="cls-4" d="m95.77 39.188s-3.418 3.2935-7.4834 6.51c-5.0599 4.0047-11.123 7.8881-12.841 5.15-5e-3 -0.0082-0.01138-0.0164-0.0164-0.02619-0.76033-1.2519-1.4879-3.1346-2.0859-5.2713-0.14089-0.50303-0.27517-1.0225-0.40148-1.5501a41.488 41.488 0 0 1-1.0798-7.0966c-0.01138-0.20484-0.02117-0.40801-0.02783-0.60793l11.645-3.9883 8.2306-2.82v0.0026l0.0032-0.0026c5.2107 1.0864 8.4272 3.7769 4.0571 9.7003z"/>
    <path class="cls-4" d="m-14.52 34.537s-3.4475 21.069-6.1086 31.388c-1.5993 6.2004-5.576 18.558-9.0564 27.194-2.312 5.7415-4.4061 9.838-5.4335 9.3857-2.1317-0.93562-28.911-16.183-36.678-34.133v-23.532l42.111-14.457v-0.2458l5.9251-2.0532c0.18018 0.02619 0.35719 0.05408 0.53253 0.08202 5.9366 0.93874 9.8282 2.8165 8.7073 6.3706z"/>
    <path class="cls-4" d="m-32.471 161.44-24.616 9.6807c-0.02625-0.0212-0.05408-0.0442-0.08025-0.0655-2.9266-2.4333-3.7246-7.177-3.9375-9.2628v-3e-3c-0.06392-0.63413-0.07538-1.0225-0.07538-1.0225s-0.06064-0.10814-0.1737-0.31623c-0.99626-1.8238-6.102-11.282-10.443-21.488v-30.812c4.9796-0.21627 11.676 3.5016 15.825 6.0824 6.8492 4.2603 18.057 4.9665 17.798 12.152-0.22288 6.2053 4.3881 28.767 5.6515 34.811 0.01791 0.0835 0.03432 0.16557 0.05072 0.24249z"/>
   </g>
   <g fill="#acccc6" stroke-width=".26458">
    <path class="cls-5" d="m-68.898 93.718a1.0634 1.0634 0 0 1-1.5058 0.03932c-0.57679-0.54729-1.0421-1.0126-1.3928-1.3732-0.51454-0.52917-0.7833-0.83563-0.80129-0.85696a1.0643 1.0643 0 1 1 1.6026-1.401c0.0033 0.0032 0.18187 0.20638 0.52758 0.56859 0.34573 0.3605 0.85865 0.88154 1.5305 1.5173a1.0661 1.0661 0 0 1 0.03929 1.5059z"/>
    <path class="cls-5" d="m-59.54 99.623c-1.6746-1.1077-3.3099-2.2891-4.8632-3.5082a1.0649 1.0649 0 1 0-1.3158 1.6747c1.5976 1.2551 3.2821 2.4709 5.0042 3.6097a1.0648 1.0648 0 1 0 1.1748-1.7762zm10.495 5.7858c-1.8107-0.81441-3.6147-1.7173-5.3631-2.6807a1.0649 1.0649 0 0 0-1.0291 1.8647c1.7975 0.99298 3.6541 1.9204 5.517 2.7594a1.0656 1.0656 0 0 0 0.87506-1.9433zm11.29 3.9882c-1.9188-0.49977-3.8457-1.0913-5.7284-1.7565a1.0653 1.0653 0 0 0-0.70951 2.0089c1.9384 0.6849 3.9244 1.2944 5.9005 1.809a1.094 1.094 0 0 0 0.2704 0.0344 1.0651 1.0651 0 0 0 0.26707-2.0957zm12.093 2.0843a1.0292 1.0292 0 0 0-0.29652-0.0672c-0.61285-0.0524-1.2289-0.11147-1.8434-0.18026-0.62756-0.0688-1.2568-0.14745-1.8827-0.23268q-1.1135-0.1548-2.2154-0.34247a1.0656 1.0656 0 0 0-0.35883 2.1008q1.2781 0.21878 2.5742 0.38997c1.1814 0.15899 2.3678 0.28839 3.5492 0.38671a0.82688 0.82688 0 0 0 0.09009 3e-3 1.0649 1.0649 0 0 0 0.38341-2.0581z"/>
    <path class="cls-5" d="m-4.9871 32.2a1.0665 1.0665 0 0 1-1.0579-1.2003c0.23929-1.872 0.37076-2.9861 0.37203-2.9971a1.0651 1.0651 0 0 1 2.1156 0.24932c-0.00132 0.01111-0.13385 1.1342-0.3746 3.0179a1.0654 1.0654 0 0 1-1.0552 0.93017z"/>
    <path class="cls-5" d="m-4.5776 36.295a1.0647 1.0647 0 0 0-1.2012 0.90943c-0.27691 1.9974-0.56526 3.9948-0.85537 5.9349a1.0656 1.0656 0 0 0 0.89633 1.2109 1.0669 1.0669 0 0 0 1.2109-0.89633c0.29165-1.9466 0.58007-3.9506 0.85857-5.9578a1.0646 1.0646 0 0 0-0.90924-1.2011zm-1.7549 11.886a1.0666 1.0666 0 0 0-1.2208 0.88154c-0.32933 2.0399-0.66527 4.0276-0.99788 5.9087a1.0668 1.0668 0 0 0 0.86355 1.2338 1.2328 1.2328 0 0 0 0.1868 0.0164 1.0634 1.0634 0 0 0 1.047-0.88154c0.33427-1.8893 0.67183-3.8867 1.0028-5.9365a1.0649 1.0649 0 0 0-0.88149-1.2224zm-2.063 11.835a1.0646 1.0646 0 0 0-1.2502 0.83897c-0.40796 2.0843-0.8209 4.0538-1.2257 5.8513a1.0652 1.0652 0 0 0 0.80457 1.2732 1.0522 1.0522 0 0 0 0.23593 0.02619 1.0643 1.0643 0 0 0 1.0372-0.83241c0.40963-1.8172 0.82584-3.8047 1.2388-5.907a1.0648 1.0648 0 0 0-0.84055-1.2502zm-2.5956 11.729a1.0626 1.0626 0 0 0-1.0864 0.33099 1.0171 1.0171 0 0 0-0.22283 0.41458c-0.26546 0.96838-0.53253 1.8827-0.79312 2.7151-0.26866 0.85368-0.60134 1.8041-1.0175 2.9035a1.0647 1.0647 0 0 0 1.9909 0.75541c0.01474-0.0377 0.02786-0.07538 0.04257-0.11144 0.41294-1.0946 0.74552-2.0466 1.016-2.9101 0.26866-0.85699 0.54398-1.7959 0.816-2.7888a1.0652 1.0652 0 0 0-0.74557-1.3093zm-3.9703 11.327a1.063 1.063 0 0 0-1.3944 0.56695q-0.52602 1.2412-1.0864 2.5595-0.6145 1.4427-1.2601 2.9707a1.067 1.067 0 0 0 0.56862 1.396 1.0804 1.0804 0 0 0 0.41294 0.08358 1.0651 1.0651 0 0 0 0.98145-0.65214q0.644-1.524 1.2585-2.9658 0.56036-1.3174 1.088-2.5644a1.0647 1.0647 0 0 0-0.56856-1.3945zm-4.6535 11.075a1.0633 1.0633 0 0 0-1.3846 0.59314c-0.80118 1.9974-1.5091 3.8408-2.1678 5.6351a1.0653 1.0653 0 1 0 2.0008 0.73242c0.65048-1.7729 1.3518-3.5983 2.1449-5.5761a1.0666 1.0666 0 0 0-0.59309-1.3846zm-4.1833 11.259a1.065 1.065 0 0 0-1.3403 0.68821c-0.59002 1.8368-1.129 3.6508-1.6058 5.404-0.03776 0.136-0.07377 0.27035-0.10983 0.40481a1.0652 1.0652 0 0 0 2.058 0.5506q0.0934-0.3515 0.19172-0.70789c0.44741-1.6254 0.94874-3.3034 1.4944-4.9993a1.065 1.065 0 0 0-0.68816-1.3405zm-3.1952 11.568a1.0669 1.0669 0 0 0-1.2568 0.83079q-0.20148 0.98319-0.37685 1.9598c-0.24738 1.3649-0.45876 2.7151-0.63087 4.0325a1.0672 1.0672 0 0 0 0.63087 1.1159 1.0309 1.0309 0 0 0 0.28676 0.0786 1.0116 1.0116 0 0 0 0.1393 0.01 1.0663 1.0663 0 0 0 1.0552-0.92744c0.24738-1.8975 0.57838-3.8621 0.98316-5.8431a1.0649 1.0649 0 0 0-0.83074-1.2569zm-0.74877 15.942c0-0.97002 0.02297-1.963 0.06879-2.9543a1.0636 1.0636 0 0 0-0.95361-1.1093c-0.01968-3e-3 -0.04096-3e-3 -0.06064-5e-3a1.0655 1.0655 0 0 0-1.1126 1.0142c-0.04763 1.0241-0.0721 2.0515-0.0721 3.0543 0 1.0225 0.02458 2.0482 0.07538 3.0494a1.0651 1.0651 0 0 0 1.0618 1.0126c0.01807 0 0.03609-3e-3 0.05408-3e-3 0.01807-3e-3 0.03609-3e-3 0.05408-5e-3a1.0646 1.0646 0 0 0 0.95689-1.1109c-0.04747-0.96686-0.07202-1.9566-0.07202-2.9446zm1.9286 14.536a50.559 50.559 0 0 1-1.2552-5.7383 1.0639 1.0639 0 0 0-1.2174-0.88482 1.0373 1.0373 0 0 0-0.34084 0.11641 1.0638 1.0638 0 0 0-0.54565 1.1028c0.15401 0.97335 0.33586 1.9434 0.54565 2.9019 0.2245 1.0421 0.48014 2.0712 0.76361 3.0806a1.0642 1.0642 0 0 0 1.0241 0.77663 1.0496 1.0496 0 0 0 0.29004-0.041 1.0654 1.0654 0 0 0 0.73573-1.3143z"/>
    <path class="cls-5" d="m-24.679 156.93a1.065 1.065 0 0 1-0.95602-0.59415c-0.45572-0.92408-0.88744-1.8725-1.2832-2.8188a1.0651 1.0651 0 0 1 1.9652-0.82185c0.37894 0.90585 0.79224 1.8138 1.2285 2.6985a1.0653 1.0653 0 0 1-0.95443 1.5363z"/>
   </g>
   <path class="cls-6" d="m114.35 21.737v128.3l-20.032 7.3048-5.8841 2.1449h-0.0026l-2.0466 0.74721h-0.0026l-30.785 11.226-0.56536 0.20638-1.147-0.3097-0.75536-0.20484-5.1435-1.3911-60.712-16.425-0.07866-0.0212-0.32771 0.1311-0.98314 0.39323-3.5344 1.4141-12.032 4.8125-2.8363 1.1355-39.275 15.709v-132.07l42.111-14.703 15.566-5.4368 0.98314-0.34245 0.07377 0.01966 52.546 13.867 14.398 3.7998 0.65543 0.1737 6.4921-2.2236 0.18018-0.06059 5.273-1.8074 5.3516-1.8319 11.645-3.9883 5.4139-1.8532v-0.0026l2.8167-0.96345 0.0032-0.0026z" fill="none" stroke="#c4c4c4" stroke-width="7.3736px"/>
   <g stroke-width=".26458">
    <path class="cls-4" d="m54.391 98.64v-0.0026l-0.04913-13.885v-0.0026c0.02143-0.01799 0.0426-0.03604 0.0639-0.05572l0.06226 14.084c-0.02619-0.04741-0.05244-0.09334-0.07702-0.1392z" fill="#92bcb5"/>
    <path class="cls-7" d="m90.157 34.919a14.326 14.326 0 0 0-1.2633-4.4651v-0.0026a14.889 14.889 0 0 0-13.448-8.5567 14.375 14.375 0 0 0-1.5845 0.09835 14.847 14.847 0 0 0-12.976 17.184c0.04416 0.27366 0.09168 0.54729 0.14417 0.81756a35.332 35.332 0 0 0 2.7692 8.319q0.54319 1.1748 1.1324 2.3202c2.4956 4.8666 5.5613 9.3792 8.904 13.717 0.51943 0.67342 1.0602 1.3338 1.6107 2.022 0.0098 0.01138 0.01958 0.02461 0.02953 0.0377 0.13922-0.1655 0.24738-0.2835 0.34732-0.40801a96.831 96.831 0 0 0 6.6805-9.2481c2.2432-3.5262 4.2833-7.1573 5.7841-11.057q0.33438-0.86519 0.63087-1.75c0.98129-2.9282 1.5941-5.9121 1.2386-9.0286zm-23.674 3.2083a8.8696 8.8696 0 0 1-0.10978-1.4829 9.1343 9.1343 0 0 1 9.0728-9.0679q0.09089-0.0026 0.18188 0a9.1126 9.1126 0 0 1-0.18188 18.224h-0.06392a9.0948 9.0948 0 0 1-8.8991-7.6734z" fill="#e12b41"/>
    <path class="cls-8" d="m66.373 36.644a8.8696 8.8696 0 0 0 0.10978 1.4829 9.0948 9.0948 0 0 0 8.8991 7.6734h0.06392v20.572c-0.55052-0.68818-1.0913-1.3486-1.6107-2.022-3.3427-4.3373-6.4084-8.8499-8.904-13.717q-0.58738-1.1454-1.1324-2.3202a35.332 35.332 0 0 1-2.7692-8.319c-0.05249-0.27035-0.10001-0.54398-0.14417-0.81756a14.847 14.847 0 0 1 12.976-17.184 14.375 14.375 0 0 1 1.5845-0.09834v5.6809a9.1343 9.1343 0 0 0-9.0726 9.0678z" fill="#dd1329"/>
   </g>
  </g>
 </g>
</svg>
