<svg width="40" height="40" viewBox="0 0 40 40" fill="none" xmlns="http://www.w3.org/2000/svg">
<g filter="url(#filter0_i)">
<rect width="40" height="40" rx="4" fill="#DADAD5"/>
<mask id="path-3-inside-1" fill="white">
<path fill-rule="evenodd" clip-rule="evenodd" d="M26.6298 7.24871C26.7835 7.26812 26.9368 7.28494 27.0895 7.29895C27.0952 7.29947 27.1 7.29504 27.1 7.28939C27.1 7.28389 27.1046 7.27952 27.1101 7.27979C27.3793 7.29319 27.651 7.30001 27.925 7.30001C31.1302 7.30001 34.0304 6.36747 36.1229 4.86152C36.4749 4.60821 37 4.84789 37 5.28155V36.5C37 36.7761 36.7761 37 36.5 37H28.6963C25.6389 36.9917 22.8837 36.2806 20.3309 35.5159C20.2947 35.505 20.26 35.4901 20.2271 35.4716C18.2601 34.3621 15.7758 33.7 13.075 33.7C9.86984 33.7 6.9696 34.6325 4.87707 36.1385C4.52509 36.3918 4 36.1521 4 35.7184V4.5C4 4.22386 4.22386 4 4.5 4H11.4851C15.0607 4.0108 18.2229 4.98254 21.1315 5.87634L21.1316 5.87638C21.4485 5.97376 21.7624 6.07021 22.0735 6.1644C23.4376 6.73809 24.9813 7.11732 26.6298 7.24871Z"/>
</mask>
<path fill-rule="evenodd" clip-rule="evenodd" d="M26.6298 7.24871C26.7835 7.26812 26.9368 7.28494 27.0895 7.29895C27.0952 7.29947 27.1 7.29504 27.1 7.28939C27.1 7.28389 27.1046 7.27952 27.1101 7.27979C27.3793 7.29319 27.651 7.30001 27.925 7.30001C31.1302 7.30001 34.0304 6.36747 36.1229 4.86152C36.4749 4.60821 37 4.84789 37 5.28155V36.5C37 36.7761 36.7761 37 36.5 37H28.6963C25.6389 36.9917 22.8837 36.2806 20.3309 35.5159C20.2947 35.505 20.26 35.4901 20.2271 35.4716C18.2601 34.3621 15.7758 33.7 13.075 33.7C9.86984 33.7 6.9696 34.6325 4.87707 36.1385C4.52509 36.3918 4 36.1521 4 35.7184V4.5C4 4.22386 4.22386 4 4.5 4H11.4851C15.0607 4.0108 18.2229 4.98254 21.1315 5.87634L21.1316 5.87638C21.4485 5.97376 21.7624 6.07021 22.0735 6.1644C23.4376 6.73809 24.9813 7.11732 26.6298 7.24871Z" fill="#765A1F"/>
<path d="M26.6298 7.24871L26.6924 6.75265L26.681 6.75121L26.6695 6.75029L26.6298 7.24871ZM28.6963 37L28.695 37.5H28.6963V37ZM11.4851 4L11.4866 3.5H11.4851V4ZM21.1315 5.87634L20.9846 6.35429L20.9859 6.35468L21.1315 5.87634ZM21.1316 5.87638L21.2785 5.39844L21.2772 5.39805L21.1316 5.87638ZM22.0735 6.1644L22.2673 5.7035L22.2433 5.6934L22.2184 5.68585L22.0735 6.1644ZM4.87707 36.1385L5.16914 36.5443L4.87707 36.1385ZM36.1229 4.86152L35.8309 4.45569L36.1229 4.86152ZM20.3309 35.5159L20.4744 35.0369L20.3309 35.5159ZM20.2271 35.4716L20.4727 35.0361L20.2271 35.4716ZM27.1101 7.27979L27.135 6.78041L27.1101 7.27979ZM27.0895 7.29895L27.1352 6.80104L27.0895 7.29895ZM27.1352 6.80104C26.9884 6.78757 26.8408 6.77138 26.6924 6.75265L26.5672 7.74478C26.7262 7.76486 26.8851 7.7823 27.0439 7.79686L27.1352 6.80104ZM27.925 6.80001C27.6593 6.80001 27.3959 6.7934 27.135 6.78041L27.0852 7.77917C27.3627 7.79299 27.6427 7.80001 27.925 7.80001V6.80001ZM35.8309 4.45569C33.8328 5.89363 31.0376 6.80001 27.925 6.80001V7.80001C31.2227 7.80001 34.228 6.84131 36.415 5.26735L35.8309 4.45569ZM37.5 36.5V5.28155H36.5V36.5H37.5ZM28.6963 37.5H36.5V36.5H28.6963V37.5ZM20.1874 35.9949C22.7502 36.7626 25.5624 37.4915 28.695 37.5L28.6977 36.5C25.7153 36.492 23.0172 35.7987 20.4744 35.0369L20.1874 35.9949ZM13.075 34.2C15.6963 34.2 18.095 34.843 19.9814 35.9071L20.4727 35.0361C18.4253 33.8812 15.8553 33.2 13.075 33.2V34.2ZM5.16914 36.5443C7.16717 35.1064 9.96243 34.2 13.075 34.2V33.2C9.77725 33.2 6.77203 34.1587 4.58501 35.7326L5.16914 36.5443ZM3.5 4.5V35.7184H4.5V4.5H3.5ZM11.4851 3.5H4.5V4.5H11.4851V3.5ZM21.2784 5.3984C18.3767 4.50671 15.1469 3.51106 11.4866 3.5L11.4836 4.5C14.9746 4.51054 18.0692 5.45836 20.9846 6.35429L21.2784 5.3984ZM21.2772 5.39805L21.2771 5.39801L20.9859 6.35468L20.9861 6.35472L21.2772 5.39805ZM22.2184 5.68585C21.9084 5.59202 21.5956 5.49587 21.2785 5.39844L20.9848 6.35433C21.3015 6.45165 21.6163 6.54841 21.9286 6.64294L22.2184 5.68585ZM26.6695 6.75029C25.0718 6.62295 23.5804 6.2557 22.2673 5.7035L21.8796 6.6253C23.2949 7.22049 24.8908 7.61169 26.5901 7.74713L26.6695 6.75029ZM4.5 4.5H4.5V3.5C3.94771 3.5 3.5 3.94772 3.5 4.5H4.5ZM4.58501 35.7326C4.57705 35.7384 4.56929 35.7411 4.55931 35.7417C4.54755 35.7425 4.53303 35.7401 4.51941 35.7337C4.50581 35.7273 4.50024 35.7204 4.49939 35.7191C4.49914 35.7188 4.49957 35.7194 4.49997 35.7206C4.50041 35.722 4.5 35.7217 4.5 35.7184H3.5C3.5 36.6085 4.52676 37.0066 5.16914 36.5443L4.58501 35.7326ZM36.415 5.26735C36.4229 5.26163 36.4307 5.25891 36.4407 5.25826C36.4524 5.2575 36.467 5.25994 36.4806 5.26635C36.4942 5.27275 36.4998 5.27964 36.5006 5.28087C36.5009 5.28123 36.5004 5.28065 36.5 5.27941C36.4996 5.278 36.5 5.27831 36.5 5.28155H37.5C37.5 4.39152 36.4732 3.99339 35.8309 4.45569L36.415 5.26735ZM20.4744 35.0369C20.475 35.0371 20.4745 35.037 20.4727 35.0361L19.9814 35.9071C20.0456 35.9432 20.1144 35.973 20.1874 35.9949L20.4744 35.0369ZM27.6 7.28939C27.6 7.5699 27.3652 7.79311 27.0852 7.77917L27.135 6.78041C26.844 6.76592 26.6 6.99789 26.6 7.28939H27.6ZM36.5 36.5V37.5C37.0523 37.5 37.5 37.0523 37.5 36.5H36.5ZM27.0439 7.79686C27.3427 7.82428 27.6 7.58891 27.6 7.28939H26.6C26.6 7.00117 26.8476 6.77466 27.1352 6.80104L27.0439 7.79686Z" fill="black" mask="url(#path-3-inside-1)"/>
<path fill-rule="evenodd" clip-rule="evenodd" d="M4.57513 26.7609C6.93169 27.7574 9.21346 28.0698 11.6448 26.046C12.3277 25.4777 13.271 25.2696 14.0707 25.6567L20.1487 28.599C20.5301 28.7837 20.9604 28.8424 21.3774 28.7667L22.1368 28.6288C23.0531 27.0837 23.5643 25.3627 23.5643 23.5488C23.5643 16.853 16.5991 11.425 8.00713 11.425C6.82788 11.425 5.67929 11.5273 4.57513 11.721V26.7609Z" fill="#C69E66"/>
<path fill-rule="evenodd" clip-rule="evenodd" d="M4.57513 26.017C6.55156 26.3312 8.51699 26.1343 10.5864 24.8355C11.1528 24.48 11.8477 24.3481 12.4813 24.5621L19.7616 27.021C20.0481 27.1178 20.3529 27.1484 20.6529 27.1104L21.7231 26.9748C22.7212 25.8005 23.2781 24.4926 23.2781 23.1139C23.2781 18.0252 15.691 13.8999 6.33189 13.8999C5.73869 13.8999 5.15261 13.9165 4.57513 13.9488V26.017Z" fill="#A1CE5E"/>
<path fill-rule="evenodd" clip-rule="evenodd" d="M36 16.8632C33.8121 17.9294 31.238 18.5441 28.4832 18.5441C24.3849 18.5441 20.6865 17.1836 18.0646 15C16.1922 16.9307 15.0786 19.3499 15.0786 21.9757C15.0786 23.7641 15.5952 25.4567 16.5163 26.9644L19.891 28.5969C20.2722 28.7813 20.7022 28.84 21.1189 28.7644L27.2977 27.6435C27.8396 27.5452 28.3982 27.598 28.9122 27.7961L31.2355 28.6917C31.5569 28.8156 31.9048 28.8544 32.2455 28.8044L34.1191 28.5292C34.606 28.4577 35.0494 28.2092 35.3646 27.8313L36 27.0692V16.8632Z" fill="#C69E66"/>
<path fill-rule="evenodd" clip-rule="evenodd" d="M36 17.7677C33.7079 18.4363 31.0953 18.8149 28.3225 18.8149C23.6379 18.8149 19.4104 17.7343 16.4132 16C14.2729 17.5335 13 19.455 13 21.5406C13 22.961 13.5905 24.3053 14.6433 25.5028L18.7381 26.8792C19.0234 26.9751 19.3267 27.0053 19.6254 26.9677L27.3313 25.9964C27.7165 25.9478 28.1076 25.9745 28.4826 26.075L31.6741 26.9298C31.9088 26.9927 32.1529 27.0122 32.3946 26.9876L35.0212 26.7196C35.3759 26.6834 35.7136 26.5532 36 26.3434V17.7677Z" fill="#A1CE5E"/>
<path d="M5 19.285C8.8961 17.5169 11.8182 24.5894 17.013 23.7053C22.2078 22.8213 21.8831 17.2222 26.7532 21.3478C30.6494 24.6483 28.0519 22.5266 30 24" stroke="black"/>
<path d="M34.525 21.3251L30.4 25.4501" stroke="#ED1D24"/>
<path d="M30.4 21.361L34.5608 25.4499" stroke="#ED1D24"/>
<rect x="0.5" y="0.5" width="39" height="39" rx="3.5" stroke="#658A52"/>
</g>
<defs>
<filter id="filter0_i" x="0" y="0" width="40" height="44" filterUnits="userSpaceOnUse" color-interpolation-filters="sRGB">
<feFlood flood-opacity="0" result="BackgroundImageFix"/>
<feBlend mode="normal" in="SourceGraphic" in2="BackgroundImageFix" result="shape"/>
<feColorMatrix in="SourceAlpha" type="matrix" values="0 0 0 0 0 0 0 0 0 0 0 0 0 0 0 0 0 0 127 0" result="hardAlpha"/>
<feOffset dy="4"/>
<feGaussianBlur stdDeviation="2"/>
<feComposite in2="hardAlpha" operator="arithmetic" k2="-1" k3="1"/>
<feColorMatrix type="matrix" values="0 0 0 0 0 0 0 0 0 0 0 0 0 0 0 0 0 0 0.23 0"/>
<feBlend mode="normal" in2="shape" result="effect1_innerShadow"/>
</filter>
</defs>
</svg>
