<?xml version="1.0" encoding="UTF-8"?>
<svg width="329.94" height="299.38" data-name="Layer 1" version="1.1" viewBox="0 0 329.94 299.38" xmlns="http://www.w3.org/2000/svg">
 <defs>
  <style>.cls-1{fill:#fcc9a7;}.cls-2{fill:#fcfcfc;stroke-width:2.36px;}.cls-2,.cls-3,.cls-5,.cls-6,.cls-7{stroke:#000;}.cls-2,.cls-3,.cls-7{stroke-miterlimit:10;}.cls-3{fill:#eaeaea;stroke-width:2.38px;}.cls-4,.cls-6{fill:#6fd2f8;}.cls-5{fill:none;stroke-width:4.04px;}.cls-5,.cls-6{stroke-linecap:round;stroke-linejoin:round;}.cls-6{stroke-width:6.73px;}.cls-7{fill:#fff;stroke-width:2.19px;}</style>
 </defs>
 <path d="m232.07 80.472h13.56v6.21h5.65v-6.22h6.4v-6.45h6.32v-12h-6.21v-26.33h7v6.33h6.41v13.54h-6.27v5.63h6.26v13.6h-6.26v5.6h19.11v12.77h12.71v13.56h-19v5.63h6.28v6.33h5.62v-6.2h13.54v6.27h6.41v6.41h6.35v13.52h-13.46v-19.07h-12v5.55h6.23v13.49h-7v-12.64h-5.63v12.64h-13.58v-12.65h-5.63v12.67h-7.11v-13.46h6.21v-5.66h-6.2v-7.14h12.61v-5.64h-12.65v-12.74h-12.79v-6.39h-12.05v6.26h-19.89v-13.41h13.46v6.21h5.6zm26.47 12.62h11.85v-5.59h-6.36v-6.23h-5.49zm12.78 32h11.89v-5.58h-6.37v-6.24h-5.52zm11.91-31.06h-11.84v11.87h5.57v-6.36h6.32z"/>
 <path d="m315.96 74.742h-39v-39h39zm-7.21-7.18v-24.66h-24.62v24.66z"/>
 <path d="m212.96 138.65v-39h39.06v39zm7.23-31.86v24.68h24.64v-24.68z"/>
 <path d="m212.99 74.712v-39h39v39zm7.16-7.16h24.69v-24.68h-24.69z"/>
 <path d="m289.75 80.452h26.19v13.44h-13.48v-6.34h-12.71z"/>
 <path d="m302.5 106.76v-7.1h13.45v13.43h-7.1v-6.33z"/>
 <path d="m303.16 48.512v13.39h-13.42v-13.39z"/>
 <path d="m239.23 125.87h-13.4v-13.42h13.4z"/>
 <path d="m225.84 48.502h13.38v13.42h-13.38z"/>
 <path d="m206.86 145.99v-14.72h-7.38v22.1h20.45v-7.38zm115.7-14.72v14.71h-13.8v7.38h21.18v-22.09zm-13.89-109.64v7.38h13.88v14.17h7.38v-21.55zm-109.19 0v21.55h7.38v-14.17h13.07v-7.38z"/>
 <path class="cls-1" d="m113.2 198.2c-25 5.8-21.32-4-21.32-4l-74.63 101.17-16.13-36.41 52-61.35 0.14-0.15 9.64-11.06-13.64-2.4v0.76c-4.33-2-8.54-4.87-9.88-8.74-3.07-8.9-5.75-20.78 12.49-25.66 0 0-33.66-4.74-39-24.25-4.85-17.8 12.93-38.68 39.88-20.17 2.35 2.68 8.17 9.72 8.55 14.11a4.61 4.61 0 0 0 0.11 0.89c0.06-0.29-0.08-4.2-0.25-8.21l65.35 58.1s11.72 21.57-13.31 27.37z"/>
 <path class="cls-2" d="m152.58 3.1518s11.53 4.55 13.34 13.89l1.7 79.11-27.77-10.33-13.17-38.15z"/>
 <rect class="cls-3" transform="rotate(.4)" x="69.032" y="31.145" width="83.6" height="122.97"/>
 <path class="cls-2" d="m156.28 4.9918c-4.47-7.42-75.23-1.72-75.23-1.72a45.85 45.85 0 0 0-16.43 3.58c-8.51 3.63-3.36 158.63 1.67 167.28s88.81 0.61 90.54-3.68 3.93-158.06-0.55-165.46zm-45.28 3.91a2.81 2.81 0 0 1 3 0 2.34 2.34 0 0 1 1 1.3c0.55 1.85-2.31 6.14-5.12 3-1.96-2.04-0.19-3.55 1.12-4.3zm-10.3 16c0-1.75 5.21-1.59 8.18-1.36a25.63 25.63 0 0 0 4.38 0c5.39-0.45 18.41-1.5 22-1.47 4.53 0 2.8 3.71 2.23 4.93s-9.63 1.78-24.9 1.67c-15.27-0.11-11.9-1.32-11.89-3.78zm-13.86 0a3 3 0 0 1 3.81-2.84 3.52 3.52 0 0 1 2.14 1.57c0.56 1.23-1.73 4.9-4.55 3.66a2.26 2.26 0 0 1-1.4-2.41zm60.55 124.54c-3.41 1.2-73 2-73.54-0.51s0.71-103.31 0.71-103.31-1.62-10.47 7.44-11 61.28-1.76 64.49 0.45c4.47 3.08 4.27 113.2 0.9 114.37z"/>
 <line class="cls-4" x1="3.4391" x2="61.599" y1="257.45" y2="186.84"/>
 <path d="m0.83911 255.27 60.76-68.47-55.56 72.78a3.3641 3.3641 0 1 1-5.35-4.08z"/>
 <path d="m72.389 185.27a46.86 46.86 0 0 1-8.93 1.35 41.45 41.45 0 0 1-9.16-0.39 28.37 28.37 0 0 1-9-2.86 21 21 0 0 1-7.37-6.44 20.63 20.63 0 0 1-2.37-4.38 18.46 18.46 0 0 1-1.24-5 14.84 14.84 0 0 1 0.45-5.37 15.22 15.22 0 0 1 2.42-4.91 23.67 23.67 0 0 1 7.66-6.58 36.72 36.72 0 0 1 4.38-2.12c0.75-0.31 1.51-0.59 2.27-0.85s1.5-0.48 2.42-0.72l0.37 6.27a71.13 71.13 0 0 1-8.07-1.29c-2.63-0.55-5.25-1.22-7.84-2a63 63 0 0 1-15-6.75 40 40 0 0 1-6.66-5.25 30.88 30.88 0 0 1-5.29-6.93 26.84 26.84 0 0 1-2.91-17.12 19.59 19.59 0 0 1 3.51-8.34 19.84 19.84 0 0 1 6.86-5.73 25.13 25.13 0 0 1 8.23-2.48 31.93 31.93 0 0 1 8.35 0.15 33.27 33.27 0 0 1 15 6.2 27.59 27.59 0 0 1 9.52 12.54 29 29 0 0 0-10.77-10.65 32.38 32.38 0 0 0-14.13-4.23 27.92 27.92 0 0 0-7.21 0.5 20.45 20.45 0 0 0-6.49 2.38 14 14 0 0 0-6.92 10.54 21.08 21.08 0 0 0 2.66 13 29.14 29.14 0 0 0 9.89 9.69 60.26 60.26 0 0 0 13.37 6.1c2.37 0.77 4.79 1.44 7.23 2s5 1 7.3 1.37a3.16 3.16 0 0 1 0.33 6.2c-5.08 1.25-10.62 3.69-13.71 7.45a9.54 9.54 0 0 0-2.15 6.57 16.86 16.86 0 0 0 2.27 7.37c2.62 4.64 7.72 7.64 13.27 9.16a54.35 54.35 0 0 0 17.46 1.55z"/>
 <path d="m85.629 186.37c3.26 4.7 7.28 8.6 11.79 10.51 4.51 1.91 9.36 1.56 14.09-0.1a51.71 51.71 0 0 0 7-3.16 27.33 27.33 0 0 0 6-4.27 12.16 12.16 0 0 0 3.49-6 14.82 14.82 0 0 0-0.64-7.87 12 12 0 0 1 4.15 8 14 14 0 0 1-2.73 9.37 22.58 22.58 0 0 1-3.23 3.58 29.93 29.93 0 0 1-3.74 2.78 31.67 31.67 0 0 1-4 2.18 21.8 21.8 0 0 1-2.08 0.92 22.76 22.76 0 0 1-2.19 0.79 24.79 24.79 0 0 1-9.44 1.25 20.71 20.71 0 0 1-4.8-0.94 20.31 20.31 0 0 1-4.37-2.12 21 21 0 0 1-6.36-6.7 22.06 22.06 0 0 1-1.93-4 19.05 19.05 0 0 1-1.01-4.22z"/>
 <path class="cls-1" d="m124.7 120.27s-5.79 16.23 4.92 22.5 49.56-15.06 37.68-34c-11.88-18.94-42.6 11.5-42.6 11.5z"/>
 <path class="cls-1" d="m134.7 140.96s-8.32 17.11 3.21 21.66 38.15-13.17 36.74-25.49-23.16-17.62-23.16-17.62z"/>
 <path class="cls-5" d="m166.57 107.91c2.95 2.73 4.12 7.25 2.55 13.73a19.52 19.52 0 0 1-2.8 6.25c-6.47 9.68-21.14 15.33-31.55 14.62-5.38-0.36-9.62-2.42-11-6.48a15.46 15.46 0 0 1 0.61-11.45"/>
 <path class="cls-5" d="m166.32 127.89c6.52 1.2 10.24 6.16 8 15.34-4.34 17.82-37.74 25.87-42.06 13.36-1.85-5.37-0.11-10.25 2.5-14.08"/>
 <line class="cls-6" x1="92.779" x2="17.469" y1="198.84" y2="296.01"/>
 <path class="cls-7" d="m114.06 158.81a6.28 6.28 0 0 0-8.87 0.81c-1.25 1.57-1.83 4 0.12 7.38 4.41 7.74 12.82 1.94 11.37-3.92a7.71 7.71 0 0 0-2.62-4.27z"/>
 <path d="m98.129 87.272h5.94v2.73h2.47v-2.72h2.8v-2.83h2.77v-5.26h-2.72l0.08-11.53h3.06v2.77h2.81v5.93h-2.75v2.47h2.75v6h-2.75v2.45l8.38 0.06v5.6h5.57v5.95l-8.33-0.06v2.46h2.75v2.78h2.47v-2.71h5.94v2.75h2.81v2.81h2.78v5.93h-5.9l0.06-8.36h-5.24v2.44h2.73v5.9h-3.08v-5.54h-2.47v5.54h-5.95v-5.55h-2.72v5.55h-3.11v-5.89h2.72v-2.48h-2.72v-3.13h5.54v-2.47h-5.55v-5.59h-5.6v-2.8h-5.28v2.74l-8.71-0.06v-5.87h5.89v2.72h2.46zm11.56 5.61h5.19v-2.45h-2.78v-2.74h-2.41zm5.5 14.06h5.21v-2.45h-2.79v-2.74h-2.42zm5.31-13.57h-5.21v5.2h2.43v-2.79h2.77z"/>
 <path d="m134.9 84.992-17.1-0.12 0.12-17.11 17.1 0.12zm-3.14-3.17 0.08-10.81-10.79-0.07-0.08 10.81z"/>
 <path d="m89.579 112.67 0.11-17.08 17.12 0.12-0.12 17.08zm3.26-13.93-0.08 10.81 10.8 0.08 0.08-10.82z"/>
 <path d="m89.779 84.662 0.12-17.09 17.1 0.12-0.12 17.09zm3.16-3.12 10.82 0.08 0.08-10.81-10.82-0.08z"/>
 <path d="m123.39 87.412 11.47 0.08v5.89h-5.9v-2.78h-5.57z"/>
 <path d="m128.9 98.982v-3.12h5.89v5.89h-3.11v-2.77z"/>
 <path d="m129.39 73.452v5.87h-5.88v-5.87z"/>
 <path d="m101.12 107.15h-5.87v-5.88h5.87z"/>
 <path d="m95.499 73.212h5.85v5.88h-5.86z"/>
 <path d="m86.879 115.87v-6.44h-3.24l-0.06 9.68 9 0.07v-3.24zm50.74-6.09v6.44h-6.05v3.24l9.28 0.06 0.07-9.68zm-5.75-48.08v3.23h6.08v6.21h3.23l0.07-9.44zm-47.84-0.34-0.07 9.44h3.23v-6.21h5.73v-3.23z"/>
 <path class="cls-1" d="m126.96 93.822c-1.58 1-15.16 13.78-7.79 26.89s48.89-2.65 51.69-19.28c2.8-16.63-7.99-31.39-43.9-7.61z"/>
 <path class="cls-5" d="m130.98 91.022s-18.59 12.11-13.32 27.37 46 5.46 51.3-16.3c5.3-21.76-16.85-24.06-37.98-11.07z"/>
</svg>
