<?xml version="1.0" encoding="UTF-8"?>
<!-- Created with Inkscape (http://www.inkscape.org/) -->
<svg width="5.1855mm" height="5.1855mm" version="1.1" viewBox="0 0 5.1855 5.1855" xmlns="http://www.w3.org/2000/svg">
 <g transform="translate(-105.82 -180.26)">
  <path d="m108.41 180.26c-1.4319 0-2.5926 1.1606-2.5926 2.5926 0 1.4319 1.1606 2.5929 2.5926 2.5929 1.4319 0 2.5926-1.161 2.5926-2.5929 0-1.4319-1.1606-2.5926-2.5926-2.5926" fill="#fff"/>
  <path d="m107.91 181.39c0-0.12559 0.10301-0.22754 0.23072-0.22754 0.127 0 0.23036 0.10195 0.23036 0.22754s-0.10336 0.22754-0.23036 0.22754c-0.12771 0-0.23072-0.10195-0.23072-0.22754" fill="#231f20"/>
  <path d="m106.85 182.74c0-0.18451 0.15134-0.33479 0.33866-0.33479h0.71438l3.5e-4 -0.50588c0-0.12559 0.10301-0.22754 0.23036-0.22754 0.12736 0 0.23072 0.10195 0.23072 0.22754l3.5e-4 0.078 0.33973 0.0861c0.0596 0.0134 0.0974 0.072 0.084 0.13088-0.0138 0.0589-0.073 0.096-0.133 0.0829l-0.29069-0.067-3.5e-4 0.19508h0.3429l0.93698-0.95673-0.0275 0.24871 0.46108 0.30339c0.0766 0.0427 0.10442 0.13934 0.061 0.21484-0.0346 0.0596-0.1023 0.0889-0.16721 0.0773l-0.0374-7e-3c-0.0441 0.17674-0.20637 0.30798-0.39934 0.30798-0.0381 0-0.0748-6e-3 -0.11007-0.0152l-0.34995 0.70485-3.6e-4 0.96661c0 0.0829-0.0681 0.15028-0.1524 0.15028s-0.15275-0.0674-0.15275-0.15028l3.5e-4 -0.98884h-0.77188l-0.13793 0.23354 0.28928 0.6791c0.0413 0.072 0.0155 0.16404-0.0579 0.20461-0.073 0.0413-0.16616 0.0155-0.20779-0.0568l-0.3369-0.78316v-0.24977l-0.15099 0.23424v0.72708c0 0.0829-0.0681 0.15028-0.1524 0.15028s-0.15275-0.0674-0.15275-0.15028l-3.5e-4 -0.83996 0.12629-0.19439v-0.65934l-0.12559 0.18944v0.54857h-0.24094z" fill="#231f20"/>
  <path d="m109.85 182.27-0.24483-0.0459-0.14146 0.27835c0.0229 5e-3 0.0469 8e-3 0.0716 8e-3 0.15135 0 0.27835-0.10196 0.31468-0.24024" fill="#fff"/>
  <path d="m109.69 184.81-2.3301-4.0358c0.31644-0.16016 0.67416-0.25047 1.053-0.25047 1.2887 0 2.3333 1.0446 2.3333 2.3333 0 0.81739-0.42016 1.536-1.0562 1.953m-1.277 0.38065c-1.2887 0-2.3336-1.0449-2.3336-2.3336 0-0.81703 0.42016-1.536 1.0562-1.953l2.3301 4.0358c-0.31644 0.16016-0.67416 0.25083-1.0527 0.25083m0-4.9262c-1.4319 0-2.5929 1.1606-2.5929 2.5926 0 1.4319 1.161 2.5926 2.5929 2.5926 1.4319 0 2.5926-1.1606 2.5926-2.5926 0-1.4319-1.1606-2.5926-2.5926-2.5926" fill="#e12726"/>
 </g>
</svg>
