<?xml version="1.0" encoding="UTF-8"?>
<svg width="191.79" height="193.67" data-name="Layer 1" version="1.1" viewBox="0 0 191.79 193.67" xmlns="http://www.w3.org/2000/svg">
 <path d="m47.91 86.49h19.93v9.14h8.31v-9.14h9.41v-9.49h9.29v-17.6h-9.12v-38.75h10.26v9.3h9.43v19.9h-9.23v8.29h9.18v20h-9.21v8.26h28.1v18.78h18.69v19.93h-27.91v8.29h9.23v9.3h8.27v-9.1h19.93v9.21h9.43v9.43h9.33v19.87h-19.8v-28h-17.57v8.16h9.17v19.83h-10.34v-18.7h-8.32v18.59h-20v-18.59h-8.29v18.63h-10.39v-19.78h9.14v-8.31h-9.13v-10.54h18.58v-8.29h-18.62v-18.71h-18.81v-9.39h-17.73v9.2h-29.23v-19.7h19.78v9.13h8.24zm38.92 18.55h17.41v-8.21h-9.35v-9.2h-8.06zm18.78 47.05h17.48v-8.21h-9.37v-9.18h-8.11zm17.52-45.69h-17.48v17.45h8.18v-9.35h9.3z"/>
 <path d="m171.24 78.07h-57.36v-57.4h57.36zm-10.59-10.55v-36.27h-36.21v36.27z"/>
 <path d="m19.82 172.02v-57.32h57.41v57.32zm10.62-46.83v36.28h36.23v-36.28z"/>
 <path d="m19.86 78.02v-57.33h57.38v57.33zm10.51-10.52h36.3v-36.28h-36.3z"/>
 <path d="m132.71 86.47h38.5v19.75h-19.84v-9.32h-18.66z"/>
 <path d="m151.45 125.15v-10.45h19.77v19.7h-10.43v-9.29z"/>
 <path d="m152.42 39.5v19.7h-19.72v-19.7z"/>
 <path d="m58.43 153.24h-19.7v-19.73h19.7z"/>
 <path d="m38.75 39.49h19.67v19.73h-19.67z"/>
 <path d="m10.85 182.82v-21.63h-10.85v32.48h30.07v-10.85zm170.1-21.63v21.63h-20.3v10.85h31.14v-32.48zm-20.42-161.19v10.84h20.41v20.83h10.85v-31.67zm-160.53 0v31.67h10.85v-20.83h19.22v-10.84z"/>
</svg>
