<?xml version="1.0" encoding="UTF-8"?>
<svg width="280.44" height="283.05" data-name="Layer 1" version="1.1" viewBox="0 0 280.44 283.05" xmlns="http://www.w3.org/2000/svg">
 <defs>
  <style>.cls-1{fill:#231f20;}.cls-2{fill:#fff;}.cls-3{fill:#e3e3e3;}.cls-12,.cls-4,.cls-7{fill:none;}.cls-4,.cls-7,.cls-8{stroke:#3a2512;}.cls-12,.cls-13,.cls-4,.cls-7,.cls-8{stroke-miterlimit:10;}.cls-4{stroke-width:0.65px;}.cls-5{fill:#c68e5e;}.cls-6{fill:#fee2bf;}.cls-7{stroke-width:0.65px;}.cls-8,.cls-9{fill:#b47f53;}.cls-8{stroke-width:0.72px;}.cls-10{fill:#56422e;}.cls-11{fill:#926a46;}.cls-12,.cls-13{stroke:#56422e;}.cls-12{stroke-width:0.6px;}.cls-13{fill:#dadad5;stroke-width:0.9px;}.cls-14{fill:#48311f;}.cls-15{fill:#6295cc;}.cls-16{fill:#00070b;}</style>
 </defs>
 <path class="cls-1" d="m68.68 147.97-0.45 1v-0.45z"/>
 <ellipse class="cls-2" transform="rotate(-86.66)" cx="-42.311" cy="34.856" rx="33.71" ry="20.82"/>
 <path d="m53.12 45.488a56.18 56.18 0 0 1-1.67 10.71 42.68 42.68 0 0 1-3.92 10.14 28.83 28.83 0 0 1-6.79 8.57 16.14 16.14 0 0 1-10.42 3.86 16.52 16.52 0 0 1-10.33-4.59 28.76 28.76 0 0 1-6.41-9.28c-3.1-6.89-4-14.49-3.67-21.91 0.54-7.41 2.31-14.86 6.19-21.34a28.75 28.75 0 0 1 7.45-8.48 16.56 16.56 0 0 1 10.8-3.4 16.27 16.27 0 0 1 9.91 5 29 29 0 0 1 5.74 9.31 42.18 42.18 0 0 1 2.7 10.52 56 56 0 0 1 0.42 10.89zm0 0c0.31-7.2-0.57-14.58-3.55-21.17a27.1 27.1 0 0 0-6-8.74 14.85 14.85 0 0 0-9.28-4.12 14.53 14.53 0 0 0-9.31 3.5 27.28 27.28 0 0 0-6.36 8.08 41.62 41.62 0 0 0-3.8 9.73 54.49 54.49 0 0 0-1.22 20.89 41.28 41.28 0 0 0 2.6 10.11 27.17 27.17 0 0 0 5.38 8.78 14.57 14.57 0 0 0 8.85 4.56 14.87 14.87 0 0 0 9.69-3 27.12 27.12 0 0 0 7-8c3.74-6.2 5.47-13.43 6-20.62z"/>
 <ellipse class="cls-2" transform="rotate(-86.66)" cx="-41.983" cy="82.772" rx="33.71" ry="20.82"/>
 <path d="m100.97 47.958a56.31 56.31 0 0 1-1.67 10.71 43.17 43.17 0 0 1-3.91 10.1 28.87 28.87 0 0 1-6.79 8.58 16.21 16.21 0 0 1-10.4 3.86 16.56 16.56 0 0 1-10.34-4.58 28.87 28.87 0 0 1-6.41-9.28c-3.09-6.89-4-14.5-3.67-21.92 0.54-7.4 2.31-14.85 6.19-21.34a28.59 28.59 0 0 1 7.45-8.47 16.47 16.47 0 0 1 10.78-3.35 16.18 16.18 0 0 1 9.91 5 28.84 28.84 0 0 1 5.74 9.31 42.86 42.86 0 0 1 2.71 10.52 56.12 56.12 0 0 1 0.41 10.86zm0 0c0.31-7.21-0.57-14.59-3.54-21.18a27.12 27.12 0 0 0-6-8.74 14.88 14.88 0 0 0-9.27-4.12 14.59 14.59 0 0 0-9.32 3.5 27.44 27.44 0 0 0-6.36 8.08 41.62 41.62 0 0 0-3.76 9.75 55.8 55.8 0 0 0-1.62 10.38 54.9 54.9 0 0 0 0.4 10.49 41.25 41.25 0 0 0 2.59 10.12 27.41 27.41 0 0 0 5.38 8.77 14.59 14.59 0 0 0 8.85 4.56 14.9 14.9 0 0 0 9.7-3 27.23 27.23 0 0 0 7-8c3.69-6.19 5.42-13.43 5.95-20.61z"/>
 <path d="m19.2 8.0977a18.55 18.55 0 0 1 6.38-5.87 16.1 16.1 0 0 1 8.67-2.22 14.27 14.27 0 0 1 4.49 0.93 14.77 14.77 0 0 1 3.94 2.2 19.36 19.36 0 0 1 5.57 6.63 40.5 40.5 0 0 0-6.68-4.92c-0.58-0.35-1.2-0.59-1.78-0.89s-1.21-0.51-1.84-0.67a14.92 14.92 0 0 0-3.75-0.64 18.94 18.94 0 0 0-7.67 1.43 37 37 0 0 0-7.33 4.02z"/>
 <path d="m69.35 8.9977a16.66 16.66 0 0 1 6.33-5.81 12.56 12.56 0 0 1 8.89-1.28 13.13 13.13 0 0 1 4.19 1.86 16.57 16.57 0 0 1 3.26 3 21.93 21.93 0 0 1 4 7.56 56.69 56.69 0 0 0-5.52-6.14 21.42 21.42 0 0 0-3.12-2.35 12 12 0 0 0-10.89-0.84 30.21 30.21 0 0 0-7.14 4z"/>
 <ellipse transform="rotate(-86.66)" cx="-42.653" cy="46.095" rx="12.89" ry="9.58"/>
 <ellipse transform="rotate(-86.66)" cx="-44.629" cy="93.344" rx="14.21" ry="10.57"/>
 <circle class="cls-3" cx="47.99" cy="42.548" r="2.64"/>
 <circle class="cls-3" cx="96.04" cy="47.338" r="2.64"/>
 <path d="m0 85.858a9.62 9.62 0 0 1 2.2-5.16 13.75 13.75 0 0 1 9.54-5.2 10.49 10.49 0 0 1 5.49 0.92 50.36 50.36 0 0 1-4.47 2.67c-1.41 0.73-2.72 1.48-4.06 2.19l-4.05 2.21c-1.45 0.76-2.91 1.53-4.65 2.37z"/>
 <path d="m16.2 104.27a9.07 9.07 0 0 1-2.83-5.56 10.82 10.82 0 0 1 1.1-6.46 11.62 11.62 0 0 1 4.49-4.67 6.86 6.86 0 0 1 1.42-0.68q0.74-0.28 1.47-0.51a13.39 13.39 0 0 1 3.09-0.3 20.06 20.06 0 0 1-1.9 2.3c-0.29 0.37-0.58 0.73-0.87 1.06a10 10 0 0 0-0.84 1c-0.25 0.34-0.51 0.67-0.78 1s-0.44 0.67-0.67 1-0.23 0.32-0.35 0.48-0.18 0.34-0.28 0.51a9.66 9.66 0 0 0-0.56 1 17.93 17.93 0 0 0-1.61 4.33 44.36 44.36 0 0 0-0.88 5.5z"/>
 <path d="m40.42 86.408a17.44 17.44 0 0 1-0.46 4.35 29.94 29.94 0 0 1-1.08 3.64c-0.4 1.14-0.84 2.2-1.25 3.25a8.92 8.92 0 0 0-0.79 3.74 3.53 3.53 0 0 1-2-1.53 6.14 6.14 0 0 1-0.91-2.39 9.42 9.42 0 0 1 0.52-4.67 11.75 11.75 0 0 1 2.25-3.78 9.31 9.31 0 0 1 3.72-2.61z"/>
 <path d="m61.63 105a9 9 0 0 1-2.84-5.55 10.77 10.77 0 0 1 1.11-6.47 11.47 11.47 0 0 1 4.49-4.66 6.32 6.32 0 0 1 1.41-0.68c0.49-0.19 1-0.36 1.47-0.52a12.88 12.88 0 0 1 3.1-0.29 20.84 20.84 0 0 1-1.91 2.29c-0.29 0.38-0.58 0.73-0.87 1.07a8.63 8.63 0 0 0-0.83 1c-0.26 0.34-0.51 0.67-0.78 1s-0.45 0.68-0.68 1c-0.11 0.16-0.23 0.32-0.35 0.47s-0.18 0.34-0.27 0.51a11 11 0 0 0-0.57 1 18.58 18.58 0 0 0-1.6 4.39 42.09 42.09 0 0 0-0.88 5.44z"/>
 <path d="m84.93 85.658a17 17 0 0 1-0.46 4.35 31.86 31.86 0 0 1-1.07 3.64c-0.4 1.14-0.85 2.2-1.25 3.25a8.76 8.76 0 0 0-0.8 3.74 3.53 3.53 0 0 1-2-1.53 6.1 6.1 0 0 1-0.9-2.4 9.51 9.51 0 0 1 0.51-4.66 11.75 11.75 0 0 1 2.24-3.78 9.37 9.37 0 0 1 3.73-2.61z"/>
 <path class="cls-4" d="m133.46 280.77c-0.24-7.3 2.88-10.07 2.88-10.07"/>
 <path class="cls-5" d="m151.72 267.59s-11.3-7.37-17.67-2.12-9.15 8.58-9 12a3.23 3.23 0 0 0 3.17 3.36l2.31-7.19s1.93-5.3 4.34-5.3 13.49 0.48 13.49 0.48z"/>
 <path class="cls-5" d="m144.29 155.77s-7.91-4.23-14.93 5.79c-5.33 7.58-3.38 14-3.38 14s3.38 10.12 11.08 8.19c0 0.02 2.91-20.71 7.23-27.98z"/>
 <path class="cls-5" d="m105.93 277.44h0.06s12.52 2.15 19.37 0.89c0.73 1.89 2.94 3.09 7.12 2.79a1.93 1.93 0 0 0 1-0.34 1.43 1.43 0 0 0 0.23-0.2c2.41 1.93 2.41 0.48 37.1 1.93s39.51-3.85 39.51-3.85c5.3-6.27-10.6-15.9-8.67-24.58a6.6 6.6 0 0 1 0.83-2.05l0.61 2.05c6.69 18.07 24.17 27 40.72 27 15.65 0 30.46-7.93 34.44-23.62 8.2-32.29-12.52-41.44-20.23-59.75-7.41-17.6 2.1-24.52 2.85-25-0.94 0.42-16.69 7.68-12.49 23.1 4.34 15.9 24.57 37.59 12 54.45-6 8-11.82 8.08-16.62 4.22-5.3-4.24-9.33-13.24-10.85-21.57a39.54 39.54 0 0 0-6.2-15c1.53-14.52-7.73-23.5-14.51-28.06a62.15 62.15 0 0 1-18.43-18.88 76.43 76.43 0 0 1-5-9.48 66.39 66.39 0 0 1-3.28-9.29 54.42 54.42 0 0 1-1.44-7.32c-0.07-0.54-0.12-1.05-0.16-1.54h-0.12a105.38 105.38 0 0 1-1.73-19.58v-0.38a1.94 1.94 0 0 1 0-0.24v-0.54c0-0.49-0.07-1-0.1-1.48 0-0.32 0.41-0.68 0.39-1v-1.43-0.72-0.71-0.72l0.72-0.72v-0.71c0-1.27 0.7-2.33 0.72-3.59 0-0.52 1.42-5.21 1.43-5.74l-21.51 1.44c0.21 1 1.31 3.93 1.44 5 0.16 1.38 0.66 2.85 0.72 4.3a38.8 38.8 0 0 1-10.41 22 62 62 0 0 0-11 17.27 81.43 81.43 0 0 0-4 11.25c-2.77 3.33-5.68 7.74-6.42 11.38-0.46 2.23-0.1 4.17 1.62 5.37a3.29 3.29 0 0 0 0.46-0.23 8 8 0 0 0 0.85 3.28 76.14 76.14 0 0 0 0.07 7.62c0 2.27 0.07 4.61 0.22 7-1.46 0.86-17.77 10.9-8.57 28.85 5.3 10.6 32.28 17.83 37.1 25.54s7.71 10.6 1.45 10.6h-17.43c-3.37-1.89-9.06-3.94-15.13-1.2a17.8 17.8 0 0 0-2.77 1.54c-3.21-1.78-13-6.66-20.12-4.68-8.65 2.34-13.95 12.42-5.84 15.33z"/>
 <path class="cls-6" d="m136.98 194.4c0 2.27 0.07 4.61 0.22 7 0.09 1.53 0.68 5.37 0.83 6.93 2 2.16 3.31 1.71 5 3.28 5 4.74 8.73 7 11.37 8.06a34.93 34.93 0 0 1 1.21-7.77c0-0.08 0.05-0.16 0.08-0.23-0.27-0.52-0.53-1-0.78-1.54-13.36-26.87-6.88-39.68 2.65-57.45 10.6-19.75 8.24-36.23 8.24-36.23v0.72a39.58 39.58 0 0 1-10.41 21.3 62 62 0 0 0-11 17.27 81.43 81.43 0 0 0-4 11.25 96.61 96.61 0 0 0-3 16.64c-0.11 1.19-0.2 2.39-0.27 3.61-0.09 2.32-0.16 4.7-0.14 7.16z"/>
 <path class="cls-4" d="m202.46 252.04 0.61 2.05c6.69 18.07 24.17 27 40.72 27 15.65 0 30.46-7.93 34.44-23.62 8.2-32.29-12.52-41.44-20.23-59.75-7.41-17.6 2.1-24.52 2.85-25-0.94 0.42-16.69 7.68-12.49 23.1 4.34 15.9 24.57 37.59 12 54.45-6 8-11.82 8.08-16.62 4.22-5.3-4.24-9.33-13.24-10.85-21.57a39.54 39.54 0 0 0-6.2-15"/>
 <path class="cls-4" d="m162.91 105.68c6.45 10.76-0.19 24.85-7.54 32.78a62 62 0 0 0-11 17.27 81.43 81.43 0 0 0-4 11.25 96.61 96.61 0 0 0-3 16.64c-0.11 1.19-0.2 2.39-0.27 3.61-0.14 2.33-0.21 4.71-0.19 7.17 0 2.27 0.07 4.61 0.22 7 0.09 1.53 0.21 3.07 0.36 4.64 0.08 0.84 0.17 1.7 0.27 2.56 0.06 0.55 0.13 1.1 0.2 1.66"/>
 <path class="cls-5" d="m169.59 147.85s-5.79 11.57-1.93 21.69l-13.73-6s-6.75-6.26-12 1.45-8.67 12-8.19 15.9 1.93 2.89 1.93 2.89 3.85 8.67 7.71 7.23 2.41-3.86 2.41-3.86 6.74 1.93 9.15-1 0-6.27-5.78-4.82h-1l2.41-5.78 12.52 8.67s9.16 5.78 14.94 5.3 12-7.71 12-14.94a59.8 59.8 0 0 0-1.44-13l-15.39-16.81z"/>
 <path class="cls-7" d="m128.2 277.46a9.44 9.44 0 0 1-2.79 0.89c-6.85 1.26-19.37-0.89-19.37-0.89h-0.06c-8.11-2.91-2.81-13 5.84-15.4 7.14-2 16.91 2.9 20.12 4.68 0.69 0.38 1.08 0.62 1.08 0.62l14.45-1h19.73c6.26 0 3.37-2.89-1.45-10.6s-31.8-14.94-37.1-25.54c-9.2-18 7.11-28 8.57-28.85l0.11-0.05"/>
 <path class="cls-4" d="m188.8 161.48c1.19 5.26 2.41 14.35-1.15 20.82-5.3 9.64-14.93 8.19-22.16 2.89a144.28 144.28 0 0 0-15.35-9.6h-0.07"/>
 <path class="cls-4" d="m135.62 183.77c-1.72-1.2-2.08-3.14-1.62-5.37 0.74-3.64 3.65-8.05 6.42-11.38a30.9 30.9 0 0 1 4.37-4.43c3.86-2.89 9.16 1 18.31 5.3a29.75 29.75 0 0 0 4.11 1.63c5.35 1.63 6-0.67 6-0.67"/>
 <path class="cls-4" d="m145.74 187.59c0 1.46-0.64 5.56-6.27 1.94a7.3 7.3 0 0 1-2.3-2.3 3.25 3.25 0 0 1-0.25-0.45 7.81 7.81 0 0 1-0.86-3.28 14.81 14.81 0 0 1 0.78-5.1 17.68 17.68 0 0 1 1.19-2.84"/>
 <path class="cls-4" d="m141.88 176.04s-4.82 12 7.71 12c0 0 6.75 0 5.78-4.34s-7.22-2.41-7.22-2.41 3.85-5.78 1-11.08"/>
 <path class="cls-4" d="m144.05 155.56a11.29 11.29 0 0 0-11.8 2.65c-5.3 5.3-9.16 16.87-5.3 18.79"/>
 <path class="cls-4" d="m135.3 183.85a3.77 3.77 0 0 1-4-1.06c-8.67-6.27-2.41-14.46-2.41-14.46"/>
 <path class="cls-4" d="m133.89 178.31c-3.1-1.6-0.2-9-0.2-9"/>
 <path class="cls-8" d="m139.2 217.24s5.17 21.08 23.22 27l-0.09-0.07a26.08 26.08 0 0 1-6.52-10.83 47.47 47.47 0 0 1-1.49-13.32v-0.4a34.93 34.93 0 0 1 1.21-7.77c0-0.08 0.05-0.16 0.08-0.23 0.22-0.78 0.48-1.52 0.76-2.24-0.06 0-0.63 0.32-1.54 0.7-2.44 1-6.68 2.75-11.7 0.6a11.1 11.1 0 0 1-5.73-5s-7.8 9.63 1.8 11.56z"/>
 <path class="cls-4" d="m169.35 148.58s-5.77 8.56-2.16 20.9"/>
 <path class="cls-4" d="m190.55 189.53c-2.42 7.71-2.9 6.26-19.28 8.19-7.67 0.9-12.39 5.51-14.83 11.69-0.3 0.81-0.59 1.63-0.83 2.48a34.5 34.5 0 0 0-1.24 8.16 47.39 47.39 0 0 0 1.49 13.32c1 3.92 3.45 7.54 6.53 10.84l0.07 0.08c8.68 9.26 22.34 16 23.76 19.93 1.92 5.29-3.86 4.33-3.86 4.33h-29.4a19.62 19.62 0 0 0-3.17-2.17c-3.37-1.89-9.06-3.94-15.13-1.2a20.16 20.16 0 0 0-2.11 1.11l-0.66 0.43c-4.77 3.25-7.76 8.42-6.53 11.63a3.84 3.84 0 0 0 0.3 0.61 3.61 3.61 0 0 0 0.67 0.8 4.81 4.81 0 0 0 0.61 0.45 5.46 5.46 0 0 0 1.14 0.52 11.24 11.24 0 0 0 4.39 0.41 1.56 1.56 0 0 0 0.52-0.11 1.9 1.9 0 0 0 0.47-0.24l0.22-0.19a3.77 3.77 0 0 0 1.78 0.87 3.35 3.35 0 0 0 0.51 0.09 5.44 5.44 0 0 0 0.62 0.06h1.02c3.77 0.15 12 0 33.17 0.84a192.71 192.71 0 0 0 25.3-0.32l1.4-0.15 0.7-0.07 1.26-0.16 1.74-0.26c1.11-0.18 2.09-0.37 3-0.55l0.82-0.2 0.39-0.09 0.7-0.19a22.22 22.22 0 0 0 2.2-0.74l0.21-0.09 0.37-0.16 0.47-0.23a5.12 5.12 0 0 0 0.92-0.6l0.26-0.34a4.19 4.19 0 0 0 0.42-0.7c3-6.25-11.19-15.33-9.35-23.53a6.36 6.36 0 0 1 0.83-2.05c4-6.64 18.89-7.82 23.74-30.7a31.72 31.72 0 0 0 0.54-3.44 27.14 27.14 0 0 0-1.5-12.75c-0.24-0.63-0.51-1.24-0.79-1.84a30.35 30.35 0 0 0-5.33-7.73 38.47 38.47 0 0 0-3.74-3.47l-0.63-0.5c-0.62-0.48-1.24-0.94-1.84-1.35l-0.59-0.41a65 65 0 0 1-11.38-9.66c-0.75-0.8-1.49-1.63-2.2-2.48-0.35-0.43-0.71-0.86-1-1.3a54.69 54.69 0 0 1-3.82-5.44c-0.25-0.41-0.5-0.82-0.74-1.24s-0.48-0.81-0.71-1.22c-0.62-1.08-1.19-2.14-1.72-3.19s-1-2-1.47-3c-0.12-0.27-0.24-0.52-0.35-0.78a65.13 65.13 0 0 1-3.28-9.29 0.94 0.94 0 0 0 0-0.16q-0.79-3.76-1.39-7.15c-0.1-0.52-0.19-1-0.27-1.55s-0.22-1.28-0.31-1.91-0.19-1.16-0.27-1.73c-0.19-1.34-0.36-2.63-0.51-3.88q-0.35-3.09-0.51-5.88c0-0.49-0.07-1-0.07-1.46s-0.05-1.17-0.07-1.75v-0.84-2.12a56.24 56.24 0 0 1 0.48-6.44 0.62 0.62 0 0 1 0-0.13v-0.27a2.4 2.4 0 0 1 0-0.28c0.12-0.83 0.25-1.64 0.41-2.44a66.72 66.72 0 0 1 6.47-17.82"/>
 <path class="cls-5" d="m192.34 95.358c-0.51 2.79-1.83 8.74-4.27 11.65l-6.66 8h-0.07l-0.33 0.34a6.06 6.06 0 0 1-1.19 0.87l-0.31 0.16h-0.15l-0.76 0.14-0.84 0.13c-0.54 0.06-1 0.11-1.5 0.14a16.74 16.74 0 0 1-2.79-0.05h-0.11l-0.44 0.11-0.46 0.07h-0.9a13 13 0 0 1-1.82-0.11l-0.81-0.13a19.48 19.48 0 0 1-2.32-0.56l-0.23-0.07a5.08 5.08 0 0 1-0.77-0.54 3.59 3.59 0 0 1-0.4-0.38 6.49 6.49 0 0 1-0.67-0.79l-5.3-6.31-0.57-0.69-0.84-1a13.19 13.19 0 0 1-1.38-2.61 32.54 32.54 0 0 1-1.87-8.61h-0.06v-2.46-0.49-0.49-0.49-1.13l0.06-1.26c0-0.46 0.05-0.92 0.08-1.37s0-0.68 0.06-1v-0.49c0-0.32 0.05-0.63 0.07-0.94v-0.5-0.3a1.36 1.36 0 0 0 0-0.2v-0.37c0.11-1.11 0.21-2.08 0.32-2.86a14.21 14.21 0 0 0 0.15-1.67 3.32 3.32 0 0 0-0.53-1.53c-1.25-2.28-4.57-5.8-8-9.08-2.28-2.17-4.61-4.23-6.45-5.77-5.38-4.49-8.78-25.69-4.82-28.26 2.26-1.46 9.47 3.1 15.68 8.44 4.7 4 8.84 8.52 9.82 11.15 2.26 6.1 13.6 19.6 18.41 10 2.58-5.15 7.41-11.67 12.18-17.11 4.16-4.76 8.26-8.69 10.77-10.19 8.5-5.14 11-5.46 9.06 12.52a26.26 26.26 0 0 1-6.23 14.71c-5.09 6-11.57 8.76-13 12.73l-0.06 0.19a16.41 16.41 0 0 0-0.25 5.94l0.06 0.58c0.21 2.42 0.48 5.1 0.62 7.82"/>
 <path class="cls-9" d="m192.34 95.348c-0.51 2.79-1.83 8.74-4.27 11.65l-6.66 8-2.21-1-4.83-2.16-0.57-0.25-0.56-0.25-9.8-4.39-6.93-3.1a32.54 32.54 0 0 1-1.87-8.61h-0.06v-2.46-0.49-0.47-0.51-1.13l0.06-1.26c0-0.46 0.05-0.92 0.08-1.37s0-0.68 0.06-1v-0.49c0-0.32 0.05-0.63 0.07-0.94 0.14-1.68 0.29-3.14 0.43-4.23 2.49-0.39 5.17-0.3 6.85 1.23a10.89 10.89 0 0 1-3.07 14.45 5.15 5.15 0 0 0-1.71 3.35 1.34 1.34 0 0 1 0 0.2 5.77 5.77 0 0 0 6.63 5.79h0.16a5.74 5.74 0 0 0 1.08-0.32 10.45 10.45 0 0 1 1.15-0.39h0.1a0.53 0.53 0 0 1 0.12 0c2.25-0.48 2.12 1.07 1.7 2.3v0.13a9.36 9.36 0 0 1-0.54 1.21l1.55-0.37h0.15l1.38-0.32h0.17l0.44-0.1h0.18l3.33-0.79 0.32-0.08 0.93-0.41 0.37-0.08 2.24-0.53h0.05l0.34-0.08 0.92-0.22a9 9 0 0 0 1.64 0h0.31c2.22-0.31 5.62-1.5 6.31-5.84v-0.16a2.84 2.84 0 0 0-0.15-1.46c-0.55-1.46-2.22-2.56-3.59-4.09a7.18 7.18 0 0 1-1.63-7.32c1.27-4.73 5.42-4.72 8.6-3.94 0.28 3.61 0.76 8.02 0.73 12.3z"/>
 <path class="cls-9" d="m164.11 78.768s3.69 9 4.54 11.89 2 12.52 3.4 13.49 2.55 1.6 3.68-5.14c1.13-6.74 2.26-10 4.25-13.81a16.32 16.32 0 0 0 2-6.75 88 88 0 0 1-2 10.28c-1.14 3.85 0.85 11.56-1.14 18.63s-11.89 1-11.89 1-1.14-11.68-0.71-13.71-1.73-10-1.93-11.3-0.2-4.58-0.2-4.58z"/>
 <path class="cls-10" d="m166.2 87.578a10.56 10.56 0 0 1-2-3.77 6.81 6.81 0 0 1-0.39-2.15 5.73 5.73 0 0 1 0.42-2.13h0.06c0.06 0.73 0 1.41 0.12 2.1a20.47 20.47 0 0 0 0.25 2 12.06 12.06 0 0 0 1.6 3.86z"/>
 <path class="cls-10" d="m179.81 87.228a12.2 12.2 0 0 0 1.56-3.55 15.27 15.27 0 0 0 0.29-1.88c0.1-0.63 0.08-1.26 0.13-1.94h0.06a4.63 4.63 0 0 1 0.41 2 6.1 6.1 0 0 1-0.42 2 10.81 10.81 0 0 1-2 3.44z"/>
 <path class="cls-10" d="m166.2 90.128c0.1 1.19 0.14 2.37 0.19 3.55s0.06 2.36 0.09 3.54v3.53c0 0.59 0 1.18 0.06 1.76a9.47 9.47 0 0 0 0.18 1.76 12.23 12.23 0 0 1-0.7-3.49c-0.12-1.18-0.16-2.37-0.19-3.55s0-2.37 0-3.55 0.26-2.37 0.37-3.55z"/>
 <path class="cls-10" d="m179.84 89.768c0.17 1.23 0.27 2.46 0.35 3.7s0.12 2.47 0.13 3.71 0 2.47-0.11 3.71a12.64 12.64 0 0 1-0.66 3.66 8.1 8.1 0 0 0 0.17-1.83v-1.85-3.69-3.7c0-1.23 0.04-2.43 0.12-3.71z"/>
 <path class="cls-9" d="m211.56 49.338a26.26 26.26 0 0 1-6.23 14.71c-5.09 6-11.57 8.76-13 12.73a32.36 32.36 0 0 0-3-5.43c-3.12-4.18-9.35-7.39-11.34-4.5s-1.87 14.13-3.39 14.13-1.14-3.85-2.27-10.6-5.38-5.14-9.92-1.93c-3.31 2.35-6.17 6.93-7.47 9.22-1.25-2.27-4.57-5.79-8-9.07-2.28-2.17-4.61-4.23-6.45-5.77-5.38-4.49-8.78-25.69-4.82-28.26 2.26-1.46 9.47 3.1 15.68 8.44 4.7 4 8.84 8.52 9.82 11.15 2.27 6.1 13.6 19.59 18.41 10 2.57-5.15 7.41-11.67 12.18-17.12 4.15-4.75 8.26-8.69 10.77-10.18 8.47-5.18 11.02-5.5 9.03 12.48z"/>
 <path class="cls-11" d="m155.76 70.858c-1.26 1.43-4.84 0-8.84-2.26-2.28-2.17-4.61-4.23-6.45-5.77-5.38-4.49-8.78-25.69-4.82-28.26 2.26-1.46 9.47 3.1 15.68 8.44 4.48 7.46 9.23 18.76 4.43 27.85z"/>
 <path class="cls-11" d="m211.56 49.338a26.26 26.26 0 0 1-6.23 14.71c-6.12 4.34-13.86 9.06-15.84 6.81-4-7.62-1.36-16.72 2.24-23.86 4.15-4.75 8.26-8.69 10.77-10.18 8.5-5.14 11.05-5.46 9.06 12.52z"/>
 <path class="cls-10" d="m188.62 100.77a4.86 4.86 0 0 0-0.62-3.42 5.29 5.29 0 0 0-1.15-1.3c-0.44-0.36-1-0.68-1.47-1.09a7.06 7.06 0 0 1-2.2-3 6.12 6.12 0 0 1-0.23-3.68 7.42 7.42 0 0 0 0.65 3.5 7.84 7.84 0 0 0 2.16 2.75c0.45 0.37 1 0.69 1.46 1.12a5.06 5.06 0 0 1 1.18 1.5 4.37 4.37 0 0 1 0.22 3.62z"/>
 <path class="cls-10" d="m157.55 100.77a4.41 4.41 0 0 1 0.22-3.65 5.23 5.23 0 0 1 1.18-1.5c0.5-0.43 1-0.75 1.46-1.12a7.84 7.84 0 0 0 2.16-2.75 7.42 7.42 0 0 0 0.65-3.5 6.11 6.11 0 0 1-0.22 3.68 7.16 7.16 0 0 1-2.21 3c-0.5 0.41-1 0.73-1.47 1.09a5.51 5.51 0 0 0-1.15 1.3 4.86 4.86 0 0 0-0.62 3.45z"/>
 <path class="cls-12" d="m188.07 107.01-6.66 8h-0.07l-0.33 0.34a6.06 6.06 0 0 1-1.19 0.87l-0.43 0.14-0.78 0.19c-0.3 0.07-0.59 0.12-0.88 0.17s-0.78 0.12-1.14 0.15a11.24 11.24 0 0 1-3.22-0.11l-0.44 0.11-0.46 0.07h-0.9a12.31 12.31 0 0 1-1.66-0.13c-0.34-0.05-0.68-0.12-1-0.2a16.62 16.62 0 0 1-2.36-0.72q-0.45-0.16-0.9-0.36a3.59 3.59 0 0 1-0.4-0.38 6.49 6.49 0 0 1-0.67-0.79l-5.3-6.31-0.57-0.69-0.84-1a13.19 13.19 0 0 1-1.38-2.61 32.54 32.54 0 0 1-1.87-8.61h-0.06v-2.46-0.49-0.49-0.49-1.13l0.06-1.26c0-0.46 0.05-0.92 0.08-1.37s0-0.68 0.06-1v-0.49q0-0.59 0.09-1.14v-0.3-0.3a1.36 1.36 0 0 0 0-0.2v-0.37c0.11-1.11 0.21-2.08 0.32-2.86a14.21 14.21 0 0 0 0.15-1.67 3.32 3.32 0 0 0-0.53-1.53c-1.25-2.28-4.57-5.8-8-9.08-2.28-2.17-4.61-4.23-6.45-5.77-5.38-4.49-8.78-25.69-4.82-28.26 2.26-1.46 9.47 3.1 15.68 8.44 4.7 4 8.84 8.52 9.82 11.15 2.26 6.1 13.6 19.6 18.41 10 2.58-5.15 7.41-11.67 12.18-17.11 4.16-4.76 8.26-8.69 10.77-10.19 8.5-5.14 11-5.46 9.06 12.52a26.26 26.26 0 0 1-6.23 14.71c-5.09 6-11.57 8.76-13 12.73l-0.06 0.19a16.41 16.41 0 0 0-0.25 5.94l0.06 0.58c0.2 2.37 0.39 5.06 0.45 7.82v2.53"/>
 <path class="cls-13" d="m166.1 114.71s1.13 5.78 5.95 6.42 7.64-4.82 7.64-5.78-2-3.21-2-3.21l-7.08-1z"/>
 <path class="cls-14" d="m168.36 115.67a4.58 4.58 0 0 0 4.54 3.21 5.76 5.76 0 0 0 5.09-2.57l-4.24-5.14-3.12 1z"/>
 <path class="cls-13" d="m173.2 111.62v0.22a8.31 8.31 0 0 1-0.25 2.22 7.53 7.53 0 0 1-0.51 1.08 3.43 3.43 0 0 1-2.53 1.75h-0.16a4.26 4.26 0 0 1-0.72 0 5.29 5.29 0 0 1-1-0.13 5.45 5.45 0 0 1-1.39-0.5 2 2 0 0 1-0.25-0.14 5.08 5.08 0 0 1-0.77-0.54 3.59 3.59 0 0 1-0.4-0.38 6.49 6.49 0 0 1-0.67-0.79 9.62 9.62 0 0 1-1.52-6.16 3.67 3.67 0 0 1 0.36-1.34 3.76 3.76 0 0 1 0.79-1 5.8 5.8 0 0 1 2.23-1.17l0.22-0.06a6.68 6.68 0 0 1 1.18-0.21 43.47 43.47 0 0 0 3.24 3.56 4.14 4.14 0 0 0 1.25 0.9c0.27 0.07 0.46 0.36 0.58 0.76a3.93 3.93 0 0 1 0.18 0.93 5.36 5.36 0 0 1 0.05 0.7 0.76 0.76 0 0 1 0 0.15v0.11z"/>
 <path class="cls-14" d="m172.87 109.77a0.35 0.35 0 0 0 0.06-0.54 19.9 19.9 0 0 1-2.31-2.68c-1.42-1.92-3.59-3.85-4.2-2.24s4.92 6.2 6.45 5.46z"/>
 <path class="cls-13" d="m181.35 115-0.33 0.34a6.06 6.06 0 0 1-1.19 0.87l-0.31 0.16-0.17 0.07a5.66 5.66 0 0 1-1 0.32 5.44 5.44 0 0 1-0.75 0.11 4.26 4.26 0 0 1-1 0h-0.32l-0.42-0.11a3.49 3.49 0 0 1-1.91-1.62 8.87 8.87 0 0 1-0.49-1.06 8.31 8.31 0 0 1-0.25-2.22v-0.51c0-0.23 0-0.46 0.05-0.68a4.9 4.9 0 0 1 0.18-0.94c0.13-0.41 0.32-0.7 0.58-0.77a9.22 9.22 0 0 0 2.48-2.14 0.3 0.3 0 0 1 0.08-0.08c1.05-1.14 2-2.28 2-2.28a7.67 7.67 0 0 1 0.93 0.15l0.47 0.12a5.93 5.93 0 0 1 2.12 1.08h0.05a3.54 3.54 0 0 1 1.25 2.46 9.3 9.3 0 0 1-2.05 6.73z"/>
 <path class="cls-14" d="m173.43 109.77a0.34 0.34 0 0 1-0.06-0.54 21.52 21.52 0 0 0 2.31-2.68c1.42-1.92 3.58-3.85 4.2-2.24s-4.93 6.2-6.45 5.46z"/>
 <path class="cls-10" d="m184.2 91.258a4.64 4.64 0 0 1 1.22-0.79 5.29 5.29 0 0 1 1.42-0.42 3.82 3.82 0 0 1 1.5 0.09 2.42 2.42 0 0 1 1.24 0.8 4.53 4.53 0 0 0-1.33-0.35 6.59 6.59 0 0 0-1.33 0.06 13.35 13.35 0 0 0-1.35 0.26z"/>
 <path class="cls-10" d="m157.03 90.938a3.34 3.34 0 0 1 2.44-0.84 2.57 2.57 0 0 1 1.28 0.45 2.38 2.38 0 0 1 0.81 1 4.92 4.92 0 0 0-1-0.62 3.27 3.27 0 0 0-1.1-0.26 5.65 5.65 0 0 0-1.16 0 11.73 11.73 0 0 0-1.27 0.27z"/>
 <path class="cls-12" d="m164.5 114.44 0.67 0.79a6.49 6.49 0 0 1-0.67-0.79z"/>
 <path class="cls-12" d="m154.49 95.578v-0.35h0.06a32.54 32.54 0 0 0 1.87 8.61"/>
 <path class="cls-12" d="m159.2 108.13-0.57-0.69a4 4 0 0 1 0.57 0.69z"/>
 <path class="cls-12" d="m192.59 93.838s-0.08 0.59-0.25 1.51c-0.51 2.79-1.83 8.74-4.27 11.65"/>
 <path class="cls-2" d="m161.2 90.838a6.07 6.07 0 0 0-3.22-0.51 7.45 7.45 0 0 1-1.88-5c-0.12-3.35 1.46-6.13 3.51-6.22s3.81 2.54 3.93 5.89c0.04 2.66-0.95 4.97-2.34 5.84z"/>
 <ellipse class="cls-15" transform="rotate(-89.11)" cx="-83.485" cy="161.1" rx="3.48" ry="2.85"/>
 <ellipse class="cls-16" transform="rotate(-89.11)" cx="-84.003" cy="161.14" rx="2.12" ry="1.74"/>
 <ellipse class="cls-2" transform="rotate(-36.99)" cx="74.078" cy="164.94" rx=".22" ry=".26"/>
 <ellipse class="cls-2" transform="rotate(-22.75)" cx="113.35" cy="140.17" rx=".78" ry=".82"/>
 <path class="cls-2" d="m185.49 90.508a6 6 0 0 1 3.23-0.4 7.44 7.44 0 0 0 2-5c0.21-3.33-1.27-6.17-3.32-6.32s-3.89 2.43-4.11 5.77c-0.09 2.7 0.78 5.04 2.2 5.95z"/>
 <ellipse class="cls-15" transform="rotate(-89.11)" cx="-82.761" cy="188.33" rx="3.48" ry="2.85"/>
 <ellipse class="cls-16" transform="rotate(-89.11)" cx="-83.29" cy="188.27" rx="2.12" ry="1.74"/>
 <ellipse class="cls-2" transform="rotate(-51.23)" cx="50.177" cy="201.26" rx=".26" ry=".22"/>
 <ellipse class="cls-2" transform="rotate(-65.47)" cx=".59478" cy="206.44" rx=".82" ry=".78"/>
</svg>
