<?xml version="1.0" encoding="UTF-8"?>
<svg version="1.1" viewBox="0 0 318.38 140.65" xmlns="http://www.w3.org/2000/svg">
 <defs>
  <style>.cls-1{fill:#1c381b;}.cls-2{fill:#317138;}.cls-3{fill:#54a245;}.cls-4{fill:#b7d43c;}.cls-5{fill:#e3e87f;}.cls-6{fill:#9dcb3b;}.cls-7{fill:#aed137;}.cls-8{fill:#d0df59;}.cls-9{fill:#fff;}.cls-10{fill:#fee745;opacity:0.7;}</style>
 </defs>
 <g data-name="Layer 2">
  <g data-name="Layer 1">
   <path class="cls-1" d="M302.54,21C284.77,1.26,257.34,0,249.2.05,248.31.06,70,0,69.65.05,65.68-.14,35.56-.9,15.84,21,2.89,35.35-2.16,56.06.84,82.5A71,71,0,0,0,11.62,112c8.52,13.14,25.43,28.64,57.72,28.64l1.72,0,177.86,0c32.45,0,49.37-15.57,57.84-28.64a70.57,70.57,0,0,0,10.78-29.4C320.54,56.08,315.49,35.35,302.54,21Z" fill="#003349"/>
   <path class="cls-2" d="M301.29,25C284.1,6.72,257.76,5.39,249.42,5.46c-1,0-177.86,0-178.29.06-4.09-.2-34.8-1-54,19.5C4.5,38.43-.39,57.88,2.54,82.77A64.51,64.51,0,0,0,13,110.31c8.43,12.48,23,27.26,55.68,26.73h180.2c31.64,0,48.13-14.48,56.42-26.74a64.57,64.57,0,0,0,10.49-27.48C318.77,57.88,313.88,38.43,301.29,25Z"/>
   <path class="cls-3" d="M300.7,21.69h0C283.57,3.77,257.17,2.53,249.2,2.6l-179.32,0C66,2.47,36.74,1.75,17.67,21.69,5.13,34.81.24,53.7,3.14,77.81a62.24,62.24,0,0,0,10.44,27c8.24,12,24.6,26.12,55.81,26.12H248.86c31.37,0,47.74-14.21,55.94-26.12a62.08,62.08,0,0,0,10.43-26.85C318.13,53.72,313.24,34.81,300.7,21.69Z"/>
   <path class="cls-4" d="M71.12,5.52C66.54,5.27-1.38,2.91,7.4,76.05c0,0,4.67,50.15,63.72,49.22H249.65C306.44,124.84,311,76.05,311,76.05c7.87-65.61-46-70.46-60.45-70.59C248.87,5.44,71.6,5.49,71.12,5.52Z"/>
   <path class="cls-5" d="M29.9,19.44C47.35,8.29,68.63,9,71.12,9.17c.48,0,177.75-.07,179.41-.05,7.12.06,23.75,1.28,37.88,10.29a50.67,50.67,0,0,1,15.71,12.48C290.08,8,260.67,5.55,250.53,5.46c-1.66,0-178.93,0-179.41.06C67.77,5.34,30.58,4,14.24,31.92A50.64,50.64,0,0,1,29.9,19.44Z"/>
   <path class="cls-6" d="M71.12,103.08C37.17,103.53,18.39,92,8.05,79.93,10.57,91.68,22.14,126,71.12,125.27H249.66c47-.37,58.18-33.8,60.66-45.35-10.17,11.83-28.49,23.21-61.35,23.16Z"/>
   <path class="cls-7" d="m250.5 120.25h-180.19c-42.57 0.66-57.16-24.69-62-39.27 3 12.62 15.23 45.05 62.83 44.3h178.52c45.61-0.36 57.51-31.91 60.42-44.31-4.77 14.3-18.89 38.96-59.58 39.28z"/>
   <path class="cls-8" d="M276,64.68C310.71,54,304.09,22.57,266,17.8c-51.27-6.42-159.58-7.64-212.81-2.09-44.88,4.68-51,73.74-12.8,75.57C55,92,231.08,78.48,276,64.68Z"/>
   <path class="cls-9" d="m17.54 49.49c-3.06 3.33-3.87 8.95-1 11.59s7.67 2.08 10.73-1.25 3.24-8.17 0.37-10.81a6.84 6.84 0 0 0-10.1 0.47z"/>
   <path class="cls-9" d="M73.18,25C70.32,16.64,58,13.32,45.7,17.54s-20,14.4-17.15,22.73,12.77,4.68,25.1.46S76,33.28,73.18,25Z"/>
   <path class="cls-9" d="m252.94 108.15c1.65 8.82 17 7.48 28.44 0.81s20.62-16.43 16.09-24.18-10.84 5.4-24.56 12.22c-11.91 6-21.28 4.12-19.97 11.15z"/>
   <path class="cls-10" d="M127.33,59.21l8.2.08,3,0,0-3,.18-18.6,0-3-3,0-40-.35-3,0,0,3v.86a38,38,0,0,0-10.35-4.61,28.71,28.71,0,0,0-7.44-1,24,24,0,0,0-7.39,1.14A21.22,21.22,0,0,0,58.16,40a25.64,25.64,0,0,0-5.3,10.23A22.1,22.1,0,0,0,55.2,68.11a22.88,22.88,0,0,0,3.61,4.57,26.9,26.9,0,0,0,3.25,2.75h0l-9.19,16-1.4,2.44L53.8,95.4,56.15,97c.27.18.6.37,1.53.87.72.38,1.62.81,2.69,1.28s2.26.93,3.59,1.4a46.1,46.1,0,0,0,4.45,1.33,34.41,34.41,0,0,0,8.24,1c.67,0,1.35,0,2-.07s1.35-.13,2-.22a24,24,0,0,0,7.83-2.53A22.46,22.46,0,0,0,94.9,95a21.71,21.71,0,0,0,5.19-10.06,20.15,20.15,0,0,0,.49-5.69,22.26,22.26,0,0,0-1.06-5.58V73.6A24.24,24.24,0,0,0,92,62.84a26.18,26.18,0,0,0-2.78-2l3.4-4.37,0,2.48h3l7.23,0L104,97.41l.09,3,3-.1,18.53-.6,3-.1-.09-3Z"/>
   <path class="cls-10" d="M266,34.71l-40-.35-3,0,0,3,0,3.32A25.68,25.68,0,0,0,220.65,39,36.16,36.16,0,0,0,208,34.05a50,50,0,0,0-5.48-.85c-1.67-.17-3.19-.28-4.52-.34s-2.43-.1-3.3-.1h-1.33l-9.29.35-3,.11.07,3,.56,22.32h-3.45V64l-8.93-27.36-.69-2.1-2.22,0L150,34.9l-2.2,0-.61,2.11L130.07,95.78l-.84,2.89,2.89.83L150,104.65l2.88.83.83-2.88,2.73-9.45,5.56,0,3.35,10.25.93,2.85,2.85-.94,13.78-4.54v.64l3-.08,18.53-.52,3-.08-.08-3L207.13,90,214,100.89l1.61,2.53,2.53-1.6,15.69-9.95.16-.1.18,5.64.09,3,3-.1,18.53-.6,3-.1-.09-3-1.18-37.41,8.2.08,3,0,0-3,.18-18.6,0-3ZM225,72.32l.24-.26a21.38,21.38,0,0,0,4.66-8.35A22,22,0,0,0,230.7,59H233l.84,27.28Z"/>
   <path class="cls-1" d="M135.32,56.69l.18-18.6-40-.34-.06,6.58-.6-.46a38.32,38.32,0,0,0-13.46-7,23,23,0,0,0-13.14.08,18.28,18.28,0,0,0-8.08,5.38,22.57,22.57,0,0,0-4.66,9,19.18,19.18,0,0,0,2,15.58,20.29,20.29,0,0,0,3.13,4,24.53,24.53,0,0,0,3.6,2.94A32.85,32.85,0,0,0,67.86,76a33.61,33.61,0,0,0,3.27,1.41c1,.36,1.8.62,2.5.82s1.11.31,1.39.36a6.59,6.59,0,0,1,2.85,1.19,3.81,3.81,0,0,1,.91,1,1.72,1.72,0,0,1-.26.36,1.32,1.32,0,0,1-.69.43,5.55,5.55,0,0,1-1.82.16,13.22,13.22,0,0,1-2.51-.4c-1-.25-1.89-.53-2.76-.83s-1.61-.6-2.28-.91A15.17,15.17,0,0,1,67,78.87l-2.62-1.54-9.19,16,2.34,1.56c.15.1.38.23,1.29.72.66.35,1.49.75,2.48,1.18s2.13.88,3.39,1.33,2.68.87,4.18,1.24a31.31,31.31,0,0,0,7.51,1q.9,0,1.83-.06c.59,0,1.19-.12,1.8-.2a20.89,20.89,0,0,0,6.84-2.21,19.44,19.44,0,0,0,5.53-4.39,18.94,18.94,0,0,0,4.52-8.75,16.91,16.91,0,0,0,.42-4.87A18.81,18.81,0,0,0,96.43,75a21.34,21.34,0,0,0-2.6-5.1,21.64,21.64,0,0,0-4-4.35A25.21,25.21,0,0,0,79,60.39l-.18,0a6.09,6.09,0,0,1-.86-.27q-.84-.3-1.86-.78a10.37,10.37,0,0,1-1.78-1.07,3.22,3.22,0,0,1-.89-.93,1.52,1.52,0,0,1-.09-.3,3.61,3.61,0,0,1,.16-.71l0-.15A5.33,5.33,0,0,1,73.9,55a3,3,0,0,1,.24-.38l0,0,.09,0c.07,0,.76-.25,2.68.36a20.5,20.5,0,0,1,6.5,3.62l2.36,1.84L95.43,48l-.08,8.33,10.11.06,1.28,41.3,18.54-.6L124,56.58Z"/>
   <path class="cls-1" d="M265.69,38.09l-40-.34-.1,11.53a19.18,19.18,0,0,0-6.84-7.4,33.1,33.1,0,0,0-11.61-4.5,49.72,49.72,0,0,0-5.17-.81c-1.62-.16-3.08-.27-4.37-.33s-2.34-.09-3.16-.09h-1.22L184,36.5l.63,25.39h-3.52V80.48h4l.42,16.35L166.29,38l-16.44.32L132.71,97l17.84,5.15,3.35-11.6,10-.08,4,12.34L185.52,97l0,1.68,18.53-.52-.47-18.41h.06l12.63,19.94,15.69-10L220.91,72.29a19.32,19.32,0,0,0,1.81-1.81,18.43,18.43,0,0,0,4-7.21,19.85,19.85,0,0,0,.71-6.9l8.18,0,1.28,41.3,18.54-.6-1.28-40.53,11.32.11ZM208.93,58a1.28,1.28,0,0,1-.16.19A7.71,7.71,0,0,1,205.71,60a21.19,21.19,0,0,1-2.55.82l-.15-5.4.45.09,1.85.48a13.29,13.29,0,0,1,2,.71,7.18,7.18,0,0,1,1.58.94h0A2.47,2.47,0,0,1,208.93,58Z"/>
   <path class="cls-9" d="M76.43,97.7a28.53,28.53,0,0,1-6.8-.88c-1.4-.35-2.69-.73-3.89-1.16s-2.27-.84-3.2-1.25-1.68-.76-2.26-1.07-.93-.51-1.05-.58L65.5,81.89v0c.39.23,1,.52,1.72.87a27.14,27.14,0,0,0,2.55,1q1.42.5,3,.9a15.32,15.32,0,0,0,3.08.5,8.63,8.63,0,0,0,2.78-.26,4.33,4.33,0,0,0,2.15-1.34,3.23,3.23,0,0,0,.87-3.25,6,6,0,0,0-1.8-2.39A9.52,9.52,0,0,0,75.67,76l-1.22-.32c-.62-.18-1.38-.43-2.29-.76a28,28,0,0,1-3-1.28,27.71,27.71,0,0,1-3.25-1.89,21.59,21.59,0,0,1-3.17-2.58,17.75,17.75,0,0,1-2.67-3.4,16.23,16.23,0,0,1-1.68-13.24,19.63,19.63,0,0,1,4-7.88,15.21,15.21,0,0,1,6.77-4.5,20,20,0,0,1,11.42,0A35.48,35.48,0,0,1,93,46.63l-7.73,9.93a23.2,23.2,0,0,0-7.49-4.12,7.12,7.12,0,0,0-4.59-.29l-.49.2a2.34,2.34,0,0,0-.7.53A5,5,0,0,0,71.28,54a8,8,0,0,0-.66,1.86A4.46,4.46,0,0,0,70.38,58a4,4,0,0,0,.47,1.28A6.17,6.17,0,0,0,72.53,61,14.06,14.06,0,0,0,74.8,62.4a20.86,20.86,0,0,0,2.15.9,8.18,8.18,0,0,0,1.39.41,22.18,22.18,0,0,1,9.59,4.53,18.53,18.53,0,0,1,5.69,8.13,16,16,0,0,1,.76,4,14.21,14.21,0,0,1-.35,4,15.94,15.94,0,0,1-3.84,7.44,16.28,16.28,0,0,1-4.7,3.74,17.82,17.82,0,0,1-5.87,1.89c-.54.08-1.07.14-1.6.18S77,97.7,76.43,97.7Z"/>
   <path class="cls-9" d="M132.37,54.07,120.93,54l1.27,40.67-12.54.4-1.28-41.19-10,0,.11-12.61,34,.29Z"/>
   <path class="cls-9" d="m169.84 99.44-3.77-11.56-14.41 0.12-3.14 10.87-12.08-3.49 15.68-53.74 12-0.23 17.66 54.09zm-14.46-24.11h6.56l-3.43-10.63z"/>
   <path class="cls-9" d="M205.1,76.78a21,21,0,0,1-2.23.47c-.76.11-1.52.21-2.3.29L201,95.66,188.49,96,188,77.88h-4V65.28h3.61L187,39.77l6.21-.23h1.22c.78,0,1.78,0,3,.09s2.65.16,4.22.32a47,47,0,0,1,4.85.75,30.31,30.31,0,0,1,10.57,4.07,15.14,15.14,0,0,1,7.26,11.1,17.06,17.06,0,0,1-.49,7,15.39,15.39,0,0,1-3.4,6,17.34,17.34,0,0,1-1.66,1.66c-.6.52-1.23,1-1.89,1.48l10.93,17.19L217.25,96Zm-4.82-11.91a29.48,29.48,0,0,0,6.54-1.65A10.86,10.86,0,0,0,211,60.57a3.16,3.16,0,0,0,.81-1.39,4.62,4.62,0,0,0,.06-1.69,2.67,2.67,0,0,0-1.1-1.77,10.12,10.12,0,0,0-2.24-1.33,16.19,16.19,0,0,0-2.5-.88L204.17,53c-.73-.15-1.46-.28-2.17-.38l-2.07-.26Z"/>
   <path class="cls-9" d="M262.56,54.07,251.12,54l1.27,40.67-12.54.4-1.28-41.19-10,0,.12-12.61,34,.29Z"/>
  </g>
 </g>
</svg>
