<?xml version="1.0" encoding="UTF-8"?>
<!-- Created with Inkscape (http://www.inkscape.org/) -->
<svg width="229.87mm" height="103.35mm" version="1.1" viewBox="0 0 229.87 103.35" xmlns="http://www.w3.org/2000/svg">
 <defs>
  <clipPath id="clipPath1843">
   <path d="m179.8 196.39c-0.0326-0.33612 0.17529-0.62624 0.5238-0.55654 0.1557 0.0311 0.14649 0.26091 0.22916 0.36011 0.10682 0.12819 0.34066 0.24143 0.49106 0.32738 0.25825 0.14756 0.50844 0.14598 0.7857 0.22916 0.11257 0.0338 0.21212 0.1079 0.32737 0.13095 0.0535 0.0107 0.11001-0.01 0.16369 0 0.0679 0.0123 0.12852 0.0531 0.19642 0.0655 0.22199 0.0404 0.90919 0.0158 1.1458 0 0.11313-8e-3 0.77998-0.1265 0.85117-0.0655 0.0767 0.0657 0.28479 0.48603 0.29464 0.52379 0.0222 0.0852 0.0566 0.81233 0.0327 0.88391-0.29077 0.8723-0.99886 0.90889-1.7678 0.98212-0.55446 0.0528-1.0873 0.0653-1.6369-0.13095-0.67143-0.23979-1.3094-1.0475-1.6369-1.6696-0.10928-0.20764-0.238-0.98833-0.16369-1.2113 8e-3 -0.0232 0.0436-0.0218 0.0655-0.0327" display="none" fill="#fff" stroke="#000" stroke-width=".26458px"/>
   <path class="powerclip" d="m168.1 160.21h32.437v43.538h-32.437zm11.601 36.02c-0.0219 0.0109-0.0575 0.01-0.0655 0.0327-0.0743 0.22296 0.0544 1.0036 0.16369 1.2113 0.32744 0.62213 0.96544 1.4298 1.6369 1.6696 0.54954 0.19625 1.0824 0.18375 1.6369 0.13095 0.76896-0.0732 1.477-0.10982 1.7678-0.98212 0.0239-0.0716-0.0105-0.79871-0.0327-0.88391-0.01-0.0378-0.21794-0.45809-0.29464-0.52379-0.0712-0.061-0.73804 0.0575-0.85117 0.0655-0.23662 0.0158-0.92382 0.0404-1.1458 0-0.0679-0.0124-0.12852-0.0532-0.19642-0.0655-0.0537-0.01-0.11019 0.0107-0.16369 0-0.11525-0.023-0.2148-0.0971-0.32737-0.13095-0.27726-0.0832-0.52745-0.0816-0.7857-0.22916-0.1504-0.0859-0.38424-0.19919-0.49106-0.32738-0.0827-0.0992-0.0735-0.32901-0.22916-0.36011-0.34851-0.0697-0.5564 0.22042-0.5238 0.55654" fill="#fff" stroke="#000" stroke-width=".26458px"/>
  </clipPath>
 </defs>
 <g transform="translate(-281.41 -89.173)">
  <g transform="translate(221.85 -24.444)" fill="#fa0" stroke="#000">
   <path transform="matrix(1.3979,0,0,1.4388,-103.57,-104.52)" d="m182.23 198.46c-0.93334-1.1983-1.7084-2.1721-1.7084-3.7015 0-1.7743-0.14717-3.6439 0-5.4099 0.13785-1.6542 0.80536-6.0147 0.28473-7.4031-0.33325-0.88868-1.1257-1.5287-1.7084-2.2779-1.9268-2.4774-4.2405-4.8761-5.1252-7.9725-0.28901-1.0115-0.87202-4.5102 0.28473-5.4099 0.54542-0.42421 1.3133-0.44586 1.9931-0.56947 3.5478-0.64506 5.1527 6.3081 6.5489 8.542 0.2495 0.39921 2.2606 2.8646 3.1321 1.9931 2.7082-2.7082 2.4607-9.6809 7.6878-9.6809 0.28474 0 0.62642-0.17084 0.8542 0 1.1084 0.83131 0.4113 4.7076 0 5.6947-0.68185 1.6364-1.8818 3.3055-3.1321 4.5557-1.4833 1.4833-3.4368 2.9273-3.9863 5.1252-0.35227 1.4091-0.12469 3.1154-0.28473 4.5557-0.2071 1.8639-0.38 3.8-0.56947 5.6947-0.35231 3.5231-1.016 4.325-4.271 5.4099" clip-path="url(#clipPath1843)" stroke-width=".93281"/>
   <path d="m148.95 177.06c0.0795 0.40905-0.0193 0.0768 0.18306 0.42393 0.0527 0.0904 0.0786 0.19634 0.13727 0.28263 0.49373 0.72599 1.7907 0.83821 2.5627 0.89497 0.4593 0.0338 0.91052 0.047 1.3729 0.047 0.12203 0 0.24772 0.0305 0.3661 0 0.6613-0.17017 0.10974-0.0745 0.59493-0.28263 0.90806-0.38945 0.0506 0.0446 0.41186-0.1413" stroke-linecap="round" stroke-width="1.3229"/>
  </g>
  <g transform="matrix(.26438 0 0 .26458 258.8 138.54)">
   <path d="m177 181.15a11.44 11.44 0 0 1 0.83 3.89 6.33 6.33 0 0 1-2.36 4.86c-1.58 1.39-2.64 2-3.2 1.95q-6.79-1.26-8.61-11a106.17 106.17 0 0 0-4.58-17.63l-9.45 0.83a15.71 15.71 0 0 0-8.47 3.33 157.93 157.93 0 0 0-4 15.28 101.11 101.11 0 0 1-4.58 15.42c-0.74 1.66-2.31 2.13-4.72 1.39q-4.59-1.53-4.86-4.17-0.42-5.28 3.05-14.17 4.17-10.14 4.59-14.44c0.09-0.84-0.51-1.76-1.81-2.78s-1.94-1.81-1.94-2.36a2.39 2.39 0 0 1 0.62-1.46 5.43 5.43 0 0 1 2.92-1.25c1.53-0.32 2.38-0.81 2.57-1.46q2.49-6.94 7.91-25.83a237.14 237.14 0 0 1 8.2-25.14c0.55-1.3 1.71-2 3.47-2a5.34 5.34 0 0 1 3.47 1.25q3.89 3.34 5 10 0.84 5.7 1.53 11.39 6.94 32.86 14.42 54.1zm-20.28-26.53a88.36 88.36 0 0 0-1.81-11.52q-1.38-5.57-2.64-11.11-4.15 11.52-7.22 23a90.85 90.85 0 0 1 11.69-0.37z"/>
   <path d="m225.63 157.12c-0.93 2.14-1.81 4.26-2.64 6.39a23.84 23.84 0 0 1-3.61 6q-4.31 5.41-8.61 10.69-5.15 6.39-9.31 8.89c-0.93 1.11-1.94 2.27-3.05 3.47a4.72 4.72 0 0 1-3.34 1.81 5.62 5.62 0 0 1-1.94-0.42c-0.75-0.28-1.55-0.6-2.43-1a3.41 3.41 0 0 1-1.88-1.81q-0.42-5.84-0.42-12.5t0.56-20.28q0.56-13.47 0.56-20.27 0-9-0.7-16.53l-3-3.2a5 5 0 0 1-1.82-3.36 3.67 3.67 0 0 1 0.28-1.39 3.39 3.39 0 0 1 3-1.94c1.21-0.19 2.41-0.33 3.61-0.42q11.67 2.5 24.45 13.06a28.74 28.74 0 0 1 5.42 5.83q6.66 9.85 6.66 18.47a20.48 20.48 0 0 1-1.79 8.51zm-10-14.86q-1.26-8.74-14.86-15.41-1 23.19-0.56 49.16 15.69-15.69 15.7-29.86a28.39 28.39 0 0 0-0.28-3.89z"/>
   <path d="m299.1 108.1q-5.42 10.14-15.42 37.91-2.91 8.2-6.94 27.09-3.9 18-7.5 27.36a3.86 3.86 0 0 1-2.92 1.39c-1.3 0-3-0.7-5-2.09q-5.42-12.91-12.64-42.5-6.81-28.18-13.61-42.91 1.8-3.48 3.06-3.48a4.18 4.18 0 0 1 2.22-0.69q2.22 0 7.78 4.17a210.92 210.92 0 0 1 9.58 27.91q3.62 14.31 7.36 28.48 5.15-17 10.28-34a291.6 291.6 0 0 1 12.5-33.06q2.08-3.62 7.22-2.36a3.34 3.34 0 0 1 1.39 1 2.94 2.94 0 0 0 2.08 1c0.84 0 1.25 0.72 1.25 2a6.24 6.24 0 0 1-0.69 2.78z"/>
   <path d="m353 118.37a149.18 149.18 0 0 1-15.14 4.86 150.44 150.44 0 0 0-15.14 4.87c-0.83 2.41-1.44 7.77-1.81 16.11a14.74 14.74 0 0 0 5.09 0.79 47.54 47.54 0 0 0 6.53-0.69 46.36 46.36 0 0 1 6.53-0.7 12.77 12.77 0 0 1 6.67 1.67c1.29 1.85 1.94 3.05 1.94 3.61a1.69 1.69 0 0 1-1 1.53 15.51 15.51 0 0 0-1.95 1.94 3.13 3.13 0 0 1-2.77 1.11 57.81 57.81 0 0 1-10.7 0.84 31.18 31.18 0 0 0-10.35 1.69q-2.64 10.29-2.63 16.25a15.05 15.05 0 0 0 1.11 6.39q6.53 4.59 22.64 3.89a3.82 3.82 0 0 0 2.36-1 3.55 3.55 0 0 1 2.08-1q3.89-0.84 5.14 5.83a5.55 5.55 0 0 1-0.76 4.1 4.12 4.12 0 0 1-3.41 2q-16.8 0.56-29.16-2.64a14.73 14.73 0 0 1-7.09-4.3 12.44 12.44 0 0 1-3.61-7.5 94.29 94.29 0 0 1 0-21.67q-3.88-2.64-3.47-5.14c0.09-0.83 0.81-1.6 2.15-2.29s2.11-1.41 2.29-2.15 0.56-5.14 1.11-13.2q-7.77-1.51-7.63-5.83c0.09-2.69 1.71-4.81 4.86-6.39l8.89-3.61a69.57 69.57 0 0 1 13.05-4.74c4.45-1.21 8.94-2.36 13.47-3.48a9 9 0 0 1 1.67-0.13q3.75 0 8.75 2.91c0.09 0.37 0.32 1.07 0.69 2.09a7.58 7.58 0 0 1 0.56 2.22 2.11 2.11 0 0 1-0.96 1.76z"/>
   <path d="m418.41 103.65q-1.95 18.61-3.75 37.36a360.89 360.89 0 0 0-2.37 37.09c0 3.24 0.1 6.43 0.28 9.58a4.81 4.81 0 0 1-1.59 3.89 5.58 5.58 0 0 1-4 1.67q-4.31 0-7.23-5.84-8.84-17.4-22.04-54.4-0.29-0.84-0.69-0.84c-0.65 0-1.07 0.65-1.25 1.95a353.1 353.1 0 0 0-2.36 41.8q0 10.56 0.55 21.53c0.09 2.69-0.69 4.54-2.36 5.56a3 3 0 0 1-2.08 1 5.62 5.62 0 0 1-2.5-0.83l-2.64-1.25c-1.21-0.37-1.95-1.49-2.23-3.34-0.09-1.48-0.18-3-0.27-4.58q-0.42-7.78-0.42-16.25 0-14.72 1.67-36.81 2.64-33.6 2.91-37.22c0.09-2 1.81-3.05 5.14-3.05 1.58-0.19 3.89 1 6.95 3.47q4.44 8.48 11 27.5 6.25 18.19 11.39 27.64 2.08-18.48 6.53-55.84c0.27-1.85 1.62-2.77 4-2.77a12.06 12.06 0 0 1 2.95 0.33c1.48 0.37 2.36 0.61 2.64 0.7a2.94 2.94 0 0 1 1.77 1.95z"/>
   <path d="m499 101.29c-0.83 3.33-2.41 5.28-4.72 5.83q-9 2.23-31.39 5.84-2.78 34.58-2.78 57.64 0 8.75 0.28 17.22a12.55 12.55 0 0 1-0.28 4 2.55 2.55 0 0 1-2.78 2.08 8.63 8.63 0 0 1-6.66-3.4 12.82 12.82 0 0 1-2.92-7.29q-0.29-5.15-0.28-10.84 0-9.17 1.25-29 1.26-19 1.11-29a50.2 50.2 0 0 0-10.41 0.69 87.75 87.75 0 0 1-10.56 1.11q-6.79 0-11.11-3.64c-1.11-2.43-1.67-3.69-1.67-3.78a3.33 3.33 0 0 1 1-2.1q4.44-1.55 18.19-2.8 12.09-1.26 18.06-4.48a34.2 34.2 0 0 0 11.05 1.63 45.87 45.87 0 0 0 11.94-1.53 71.56 71.56 0 0 0 8.47-1.94 23.47 23.47 0 0 1 8.34-0.83c1.66 0 2.36 0.69 2.08 2.08q3.79 0.01 3.79 2.51z"/>
   <path d="m533.82 112.12q-1 9.73-5.55 26-6.27 21.77-7.27 26.37a65.39 65.39 0 0 1-11.62 25.51q-5.42 7.36-12.5 7.22-6.25-0.13-9.31-7.91-5.28-13.07-5.28-30.7a224.25 224.25 0 0 1 1.95-26.11c-0.1 0.93-0.14-1.94-0.14-8.61q0-8.61 6.67-8.61a6.92 6.92 0 0 1 3 0.76c1.07 0.51 2.11 1 3.13 1.6q0.14 7.08-0.42 20.83-0.69 14.73-0.69 21.25 0 6.94 0.41 12.64a83.41 83.41 0 0 0 2.5 11.11q5.83-6.52 9.17-17.36 1.11-3.6 4.44-19.72 2.64-12.23 6-19.17a26.45 26.45 0 0 0 1.66-7.36 28.74 28.74 0 0 1 1.67-7.5 5.37 5.37 0 0 1 5.28-3.33q4.82 0.04 6.9 3.09z"/>
   <path d="m598 188.79a2 2 0 0 1 0.42 1.25c0 2.13-2.23 3.75-6.67 4.86q-7.37-5.7-18.34-17.5-12.21-13.18-18.19-18.33-0.42 3.62-1.53 18.89a97.31 97.31 0 0 1-2.5 18.33 7.25 7.25 0 0 0-1.73 0.7 3.51 3.51 0 0 1-2.43 0.41q-6.12-1.38-6.12-8.47a37.28 37.28 0 0 1 0.56-5.56l0.69-5q0.55-8 0.7-19.16v-15.14a204.3 204.3 0 0 1 2.08-31.81q1.4-8.61 16.25-7.91 7.5 0.27 13.06 7.5a23.21 23.21 0 0 1 5.14 14.44q0 6.52-4.86 13.06a30.41 30.41 0 0 1-10.28 9.16c-1.67 0.93-2.5 2-2.5 3.06s1 2.64 2.92 4.3c1.47 1.21 3 2.41 4.44 3.62q0.14 0.13 15.28 13.88 9.61 8.63 13.61 15.42zm-29.31-62.36a19.08 19.08 0 0 0 0.31-4.43 10.25 10.25 0 0 0-2.43-5.28c-1.34-1.58-3.5-2.36-6.46-2.36q-3.33 0-4.17 2.08a40.82 40.82 0 0 0-0.69 7.92q0 1.8 0.42 9.3a79.32 79.32 0 0 1 0 9.31q11.48-8.62 13.01-16.54z"/>
   <path d="m642 118.37a148.83 148.83 0 0 1-15.13 4.86 150.44 150.44 0 0 0-15.14 4.87c-0.84 2.41-1.44 7.77-1.81 16.11a14.74 14.74 0 0 0 5.14 0.83 47.69 47.69 0 0 0 6.53-0.69 46.36 46.36 0 0 1 6.53-0.7 12.71 12.71 0 0 1 6.66 1.67c1.3 1.85 2 3.05 2 3.61a1.71 1.71 0 0 1-1 1.53 15.51 15.51 0 0 0-1.95 1.94 3.15 3.15 0 0 1-2.78 1.11 57.68 57.68 0 0 1-10.69 0.84 31.13 31.13 0 0 0-10.43 1.65q-2.64 10.29-2.64 16.25a15.21 15.21 0 0 0 1.11 6.39q6.52 4.59 22.64 3.89a3.8 3.8 0 0 0 2.36-1 3.6 3.6 0 0 1 2.09-1q3.88-0.84 5.14 5.83a5.55 5.55 0 0 1-0.77 4.1 4.09 4.09 0 0 1-3.4 2q-16.8 0.56-29.17-2.64a14.75 14.75 0 0 1-7.08-4.3 12.44 12.44 0 0 1-3.61-7.5 93.18 93.18 0 0 1 0-21.67c-2.6-1.76-3.75-3.47-3.47-5.14 0.09-0.83 0.8-1.6 2.15-2.29s2.1-1.41 2.29-2.15 0.56-5.14 1.11-13.2q-7.78-1.57-7.68-5.89c0.09-2.69 1.71-4.81 4.86-6.39l8.89-3.61a70 70 0 0 1 13.1-4.68c4.44-1.21 8.93-2.36 13.47-3.48a8.91 8.91 0 0 1 1.67-0.13c2.5 0 5.41 1 8.75 2.91 0.09 0.37 0.32 1.07 0.69 2.09a7.58 7.58 0 0 1 0.56 2.22 2.12 2.12 0 0 1-0.99 1.76z"/>
   <path d="m756.74 101.29c-0.83 3.33-2.41 5.28-4.72 5.83q-9 2.23-31.39 5.84-2.79 34.58-2.78 57.64 0 8.75 0.28 17.22a12.55 12.55 0 0 1-0.28 4 2.56 2.56 0 0 1-2.78 2.08 8.64 8.64 0 0 1-6.67-3.4 12.73 12.73 0 0 1-2.91-7.29q-0.29-5.15-0.28-10.84 0-9.17 1.25-29 1.24-19 1.11-29a50.33 50.33 0 0 0-10.42 0.69 87.65 87.65 0 0 1-10.55 1.11q-6.81 0-11.11-3.64c-1.11-2.43-1.67-3.69-1.67-3.78a3.37 3.37 0 0 1 1-2.1q4.46-1.55 18.2-2.8 12.07-1.26 18-4.48a34.24 34.24 0 0 0 11.13 1.63 45.89 45.89 0 0 0 12-1.53 72 72 0 0 0 8.47-1.94 23.45 23.45 0 0 1 8.34-0.83c1.66 0 2.36 0.69 2.08 2.08q3.7 0.01 3.7 2.51z"/>
   <path d="m798.27 188.79a2.08 2.08 0 0 1 0.41 1.25q0 3.19-6.66 4.86-7.37-5.7-18.34-17.5-12.23-13.18-18.19-18.33-0.42 3.62-1.53 18.89a97.31 97.31 0 0 1-2.5 18.33 7.24 7.24 0 0 0-1.74 0.7 3.5 3.5 0 0 1-2.43 0.41q-6.1-1.38-6.11-8.47a37.28 37.28 0 0 1 0.56-5.56l0.69-5q0.55-8 0.7-19.16v-15.14a204.3 204.3 0 0 1 2.08-31.81q1.38-8.61 16.25-7.91 7.5 0.27 13.06 7.5a23.21 23.21 0 0 1 5.14 14.44q0 6.52-4.87 13.06a30.29 30.29 0 0 1-10.27 9.16c-1.67 0.93-2.5 2-2.5 3.06s1 2.64 2.91 4.3l4.45 3.62q0.14 0.13 15.27 13.88 9.58 8.63 13.62 15.42zm-29.27-62.36a19.08 19.08 0 0 0 0.28-4.44 10.25 10.25 0 0 0-2.43-5.28c-1.35-1.58-3.5-2.36-6.46-2.36q-3.33 0-4.17 2.08a40.82 40.82 0 0 0-0.69 7.92q0 1.8 0.41 9.3a75.15 75.15 0 0 1 0 9.31q11.5-8.61 13.06-16.53z"/>
   <path d="m844.65 181.15a11.25 11.25 0 0 1 0.84 3.89 6.33 6.33 0 0 1-2.36 4.86c-1.58 1.39-2.64 2-3.2 1.95q-6.81-1.26-8.61-11a108.18 108.18 0 0 0-4.58-17.63l-9.45 0.83a15.71 15.71 0 0 0-8.47 3.33 157.93 157.93 0 0 0-4 15.28 101.11 101.11 0 0 1-4.58 15.42c-0.74 1.66-2.32 2.13-4.72 1.39q-4.59-1.53-4.86-4.17-0.42-5.28 3-14.17 4.17-10.14 4.58-14.44c0.1-0.84-0.51-1.76-1.8-2.78s-2-1.81-2-2.36a2.35 2.35 0 0 1 0.63-1.46 5.43 5.43 0 0 1 2.92-1.25c1.52-0.32 2.38-0.81 2.57-1.46q2.49-6.94 7.91-25.83a237.14 237.14 0 0 1 8.2-25.14c0.55-1.3 1.71-2 3.47-2a5.36 5.36 0 0 1 3.47 1.25q3.89 3.34 5 10c0.56 3.8 1.06 7.6 1.53 11.39q7.02 32.86 14.51 54.1zm-20.27-26.53a88.36 88.36 0 0 0-1.81-11.52q-1.4-5.57-2.64-11.11-4.17 11.52-7.22 23a90.85 90.85 0 0 1 11.67-0.37z"/>
   <path d="m868.82 117.54c0.19 2.69 0.28 5.46 0.28 8.33q0 9.45-2 28.48t-1.94 28.75c0 2.41 0 4.76 0.14 7.08a5 5 0 0 1-5.42 3.75q-6-0.28-6.53-5.14a90.77 90.77 0 0 1-0.55-10.28q0-9.44 2.29-28.19t2.29-28.06c0-2.4-0.09-4.77-0.28-7.08a4.91 4.91 0 0 1 4.73-2.64 10.44 10.44 0 0 1 5.27 1.53 1.67 1.67 0 0 1 0.84-0.42c0.28 0 0.41 0.47 0.41 1.39a6.11 6.11 0 0 0 0 1.94 0.87 0.87 0 0 0 0.47 0.56z"/>
   <path d="m920.21 171.74q-0.29 0.15-16.25 11.58a96.24 96.24 0 0 1-16.53 9.91 3.65 3.65 0 0 1-1.66 0.42q-1.95 0-3.62-2.5-2.49-3.35-2.64-3.48-0.27-12.24 1.53-34.08 2.09-23.24 2.09-33.53c0-4.72-0.19-9.18-0.56-13.35a6.18 6.18 0 0 1 4.58-1.81q5.28 0 6.12 3.89 0.4 11.38-1 34.1t-1.09 34.11a69 69 0 0 0 10.14-5.84 96.19 96.19 0 0 1 9.86-6.25 17.5 17.5 0 0 0 2.43-0.28 18.7 18.7 0 0 1 2.57-0.27 4.27 4.27 0 0 1 4 2.23q1.7 3.06 0.03 5.15z"/>
  </g>
  <g fill="#fa0" stroke="#000" stroke-linecap="round" stroke-linejoin="round">
   <path class="cls-1" d="m465.86 122.45s15.663-14.012 18.735-7.0073c3.072 7.0047 1.9116 10.011 1.9116 10.011s10.323-17.348 15.307-14.679c4.9836 2.6681-4.9836 19.015-13.381 21.684 0 0 21.793 16.012 22.174 20.351s-11.85 3.0005-15.663-2.3358c-3.8125-5.3363-9.177-10.343-11.089-7.6752-1.9116 2.6681 3.4422 7.6752-0.76533 14.012-4.2076 6.3364-9.5721-0.6647-9.5721-0.6647l-3.0578-20.683z" stroke-width="1.3229"/>
   <path class="cls-1" d="m465.98 121c-9.2524-0.34038-18.187 12.88-18.187 12.88s0.69918 4.4252 2.1045 12.624c1.4053 8.1986 11.932 10.103 21.762 3.4734 9.8305-6.6294 7.3729-24.619-2.8073-28.407-0.95439-0.3551-1.9152-0.53529-2.8724-0.5705zm-2.5264 16.907c0.8992-0.0187 1.7979 0.43349 2.0324 1.471 0.26472 1.1284-6e-3 2.2748-1.1962 3.0241-1.755 1.1049-2.5457-0.47367-2.8954-2.3279-0.25369-1.3406 0.90303-2.1431 2.0592-2.1672z" stroke-width="1.3229"/>
   <path class="cls-3" d="m453.87 136.62c-0.26458-4.84-1.9817-9.214-4.5561-12.303-4.2174-5.0611-10.76-6.665-17.155-1.1791a23.452 19.213 0 0 0-1.5875 1.5172l-3.5956 3.5698a35.599 29.164 0 0 0-1.1827 3.2252c-1.1853 4.0098-2.2727 10.861 2.2092 15.242 3.7041 3.6175 11.525 4.2504 17.608 1.786 3.0665-1.2376 5.6911-3.2642 7.1198-6.0906a14.75 12.084 0 0 0 0.92338-2.6487 17.396 14.251 0 0 0 0.21696-3.119zm-12.806 1.4674c-0.26458 2.7289-6.4028 2.0981-6.1488-0.63074 0.25399-2.7289 2.8204-2.0981 2.8204-2.0981s3.5851 0 3.3284 2.7289z" stroke-width="1.159px"/>
   <g stroke-width="1.3229">
    <path class="cls-1" d="m417.35 119.12c-2.954 7e-3 -6.1618 0.24691-9.5188 0.74463v33.247s23.87 3.4107 25.291-6.2518c1.4208-9.6625-15.626-9.9456-15.626-9.9456s16.203-4.2624 17.058-10.229c0.66351-4.6611-6.6534-7.5916-17.204-7.5654zm-0.71106 4.6675c0.56314-5e-3 1.215 0.12851 1.7518 0.27336a2.6881 2.6881 0 0 1 2.0236 2.4603c0.0317 0.73289-0.25092 1.5824-1.2087 2.437h3e-3c-2.5558 2.2754-3.7041-3.4107-3.7041-3.4107-0.49609-1.3609 0.19624-1.7522 1.1348-1.7601zm1.6087 18.387c0.35514 4e-3 0.75987 0.0884 1.22 0.28215a0.75141 0.75141 0 0 1 0.40979 0.44183c0.38628 1.1033 1.5398 4.8101-0.39428 4.8101-1.188 0-2.1403-0.7749-2.7834-1.5131a2.5267 2.5267 0 0 1 3e-3 -3.3496c0.36809-0.39068 0.86708-0.67862 1.5451-0.67126z"/>
    <path class="cls-3" d="m352.53 139.71s-2.3045 10.247 0 11.271c1.5875 0.71173 4.0613-0.0582 5.4212-0.5953a1.5346 1.5346 0 0 0 0.96572-1.4552l-0.24077-13.832z"/>
    <path class="cls-3" d="m363.27 134.59a0.14023 0.14023 0 0 0-0.0344-0.0873c0.79374-0.49741 7.3394-5.752 3.3655-13.229-3.0321-5.7043-8.2999-3.2173-11.218-1.1827a18.663 18.663 0 0 0-2.1034 1.696s2.7067 6.4399 5.1911 13.475l0.2196 0.61912c0.35189 1.008 0.69849 2.0267 1.0319 3.0347 0.55297 1.6827 1.0583 3.3443 1.4975 4.9 2.5638 9.2233 8.4666 2.8178 8.4666 0.76728-0.0106-1.5981-6.4161-7.0272-6.4161-9.9932zm-2.3045-7.4294c-0.81491-0.13494-0.90751-0.77257-0.8202-1.3414a1.6563 1.6563 0 0 1 1.3229-1.397c0.34924-0.0635 0.67732 0 0.79374 0.43391 0.24077 1.0239 0.24077 2.5638-1.2964 2.3045z"/>
    <path class="cls-3" d="m358.88 135.1c-0.26458-5.9081-1.9817-11.247-4.5561-15.018-4.2174-6.1779-10.76-8.1358-17.155-1.4393a23.452 23.452 0 0 0-1.5875 1.8521l-3.5956 4.3576a35.599 35.599 0 0 0-1.1827 3.937c-1.1853 4.8947-2.2727 13.258 2.2092 18.605 3.7041 4.4158 11.525 5.1884 17.608 2.1801 3.0665-1.5108 5.6911-3.9846 7.1198-7.4347a14.75 14.75 0 0 0 0.92338-3.2332 17.396 17.396 0 0 0 0.21696-3.8073zm-12.806 1.7912c-0.26458 3.3311-6.4028 2.5611-6.1488-0.76993s2.8204-2.5611 2.8204-2.5611 3.5851 0 3.3284 3.3311z"/>
    <path class="cls-3" d="m315.1 124.86s7.4082 1.0239 7.4082 2.5611-6.9161 13.832-5.6356 24.077c1.2806 10.245 8.9666 4.0983 9.4799 0 0.51329-4.0983-1.7939-24.847 5.8896-22.542 7.6834 2.3045 16.139 4.355 15.113-2.3045-1.0266-6.6595-35.472-19.994-37.584-10.258l-1.3441 3.593z"/>
    <path class="cls-3" d="m313 118.3 0.43656-0.71965a3.175 3.175 0 0 0-0.82814-4.2333c-3.6433-2.6458-11.433-6.7362-21.315-2.7119-13.832 5.6356-6.4055 18.701 4.0983 17.674 10.504-1.0266 16.907-2.0478 16.65 9.4773-0.25664 11.525-11.014 9.7339-17.42 4.355-6.4055-5.3789-16.404-3.5851-11.014 7.4294 5.3895 11.014 36.888 11.782 39.192-3.0744 2.3045-14.856-5.3789-16.907-14.856-21.259-8.4666-3.8946-5.8922-9.4243 0.79374-5.7969a3.2014 3.2014 0 0 0 4.2624-1.1403z"/>
   </g>
  </g>
  <g stroke-width=".26458">
   <path class="cls-4" d="m410.56 135.44c-0.38364 2.0875-1.3705 6.5325-3.1935 8.7126l-4.982 5.9901h-0.0556c-0.0767 0.0873-0.16139 0.17462-0.24606 0.26457a4.2015 4.2015 0 0 1-0.88899 0.65087c-0.0767 0.0423-0.1561 0.082-0.23547 0.11906l-0.10848 0.0212c-0.19314 0.045-0.381 0.0794-0.56356 0.11112-0.2196 0.0397-0.42862 0.0688-0.63234 0.0979-0.40216 0.0503-0.77787 0.0847-1.1218 0.10582a11.951 11.951 0 0 1-2.0875-0.037h-0.0794a3.0268 3.0268 0 0 1-0.33073 0.0767c-0.10847 0.0212-0.22224 0.0397-0.33866 0.0529l-0.18521 0.0185c-0.11376 0-0.23018 0.0159-0.3466 0.0185h-0.16139a9.0989 9.0989 0 0 1-1.3546-0.0847c-0.19579-0.0265-0.39951-0.0556-0.60324-0.0953a14.888 14.888 0 0 1-1.7462-0.41274l-0.16668-0.0503a3.8814 3.8814 0 0 1-0.57943-0.4101c-0.10319-0.0873-0.20637-0.17992-0.30162-0.2778a5.1276 5.1276 0 0 1-0.49741-0.59267l-3.9687-4.7201-0.42862-0.51328-0.62441-0.74347a9.419 9.419 0 0 1-1.0319-1.9526c-1.1642-2.9104-1.397-6.4293-1.397-6.4293h-0.045v-2.9421c0-0.28575 0.0185-0.5662 0.0291-0.84666 0.0106-0.28045 0.0265-0.6297 0.0423-0.93926 0.0159-0.30955 0.0397-0.6932 0.0609-1.0292q0.0238-0.381 0.0476-0.74612c0-0.12435 0.0185-0.24341 0.0265-0.36248 0.0185-0.24077 0.0344-0.47624 0.0556-0.70377l0.0132-0.14816c0-0.0767 0-0.15346 0.0212-0.22754 0.0212-0.0741 0.0132-0.14816 0.0212-0.22225 8e-3 -0.0741 0-0.10054 0.0132-0.15082 0-0.0952 0.0185-0.18785 0.0238-0.28045 0.082-0.82549 0.16404-1.5504 0.24077-2.1352a10.993 10.993 0 0 0 0.11642-1.2462 2.5849 2.5849 0 0 0-0.39423-1.1509c-0.93661-1.6986-3.4237-4.3312-6.0033-6.7838-1.7065-1.6166-3.4395-3.1591-4.8233-4.3074-4.0243-3.3628-6.5669-19.211-3.6036-21.132 1.688-1.0927 7.0749 2.3204 11.718 6.3076 3.5216 3.0215 6.6145 6.3737 7.3447 8.3396 1.6933 4.5614 10.168 14.65 13.758 7.4426 1.9262-3.847 5.5377-8.7311 9.1016-12.792 3.1088-3.5533 6.1806-6.4954 8.0538-7.6173 6.3499-3.8417 8.2602-4.0798 6.7759 9.3661-0.52916 4.9265-2.4236 8.3713-4.6593 10.993-3.8073 4.4661-8.6518 6.551-9.6969 9.5249l-0.0423 0.13758c-0.35189 1.1271-0.3466 2.6723-0.1852 4.4476 0 0.14288 0.0238 0.28311 0.037 0.43127 0.16404 1.8097 0.36512 3.81 0.47095 5.8472" fill="#c68e5e"/>
   <path class="cls-5" d="m410.56 135.44c-0.38364 2.0875-1.3705 6.5325-3.1935 8.7126l-4.982 5.9901-0.0397-0.0185-1.6536-0.74082-3.6115-1.6192-0.42332-0.1852-0.41539-0.18785h-0.0212l-7.3262-3.2808-5.1937-2.3204c-1.1642-2.9104-1.397-6.4293-1.397-6.4293h-0.045v-2.9448c0-0.28576 0.0185-0.56621 0.0291-0.84666 0.0106-0.28046 0.0265-0.6297 0.0423-0.93927 0.0159-0.30956 0.0397-0.69319 0.0609-1.0292q0.0238-0.381 0.0476-0.74611c0-0.12435 0.0185-0.24341 0.0265-0.36249 0.0185-0.24076 0.0344-0.47623 0.0556-0.70377 0.10319-1.2568 0.21696-2.3468 0.32279-3.175 1.8653-0.29104 3.8655-0.22225 5.1223 0.91809 0 0 3.765 6.0033-2.2966 10.803a3.8417 3.8417 0 0 0-1.2726 2.5056v0.14816c-0.10848 2.4341 2.2172 4.7968 4.9556 4.3285l0.11906-0.0212a4.2015 4.2015 0 0 0 0.79374-0.24077 6.9452 6.9452 0 0 1 0.85724-0.28839l0.082-0.0238h0.0265l0.0926-0.0212c1.6801-0.35983 1.5875 0.79374 1.2726 1.7224l-0.0344 0.0979a6.514 6.514 0 0 1-0.40746 0.90751v0.0132h0.0185l1.1589-0.26458 0.11112-0.0291 1.0266-0.23812 0.12964-0.0291 0.32808-0.0794 0.13494-0.0317 2.4897-0.58737 0.24341-0.0582 0.62176-0.14552 0.26458-0.0609 1.6774-0.39422h0.0397l0.25135-0.0582 0.68526-0.15875a6.9135 6.9135 0 0 0 1.2276-0.0397l0.23283-0.0291c1.6563-0.23018 4.2015-1.1245 4.7148-4.3682a0.034395 0.034395 0 0 0 0-0.0159c0-0.037 0-0.0741 0.0185-0.11642a2.0875 2.0875 0 0 0-0.10848-1.0927c-0.40745-1.0927-1.6589-1.9182-2.6855-3.0612l-0.0132-0.0159c-1.0927-1.2224-1.9288-2.8151-1.2171-5.4795 0.94719-3.5295 4.0534-3.5269 6.4266-2.9395 0.29633 2.7754 0.65352 6.0774 0.6297 9.2709z" fill="#b47f53"/>
   <path class="cls-5" d="m389.46 123.02s2.7516 6.723 3.3866 8.8846 1.4843 9.3661 2.5426 10.086 1.905 1.2012 2.7543-3.8417c0.8493-5.0429 1.6933-7.4453 3.175-10.319 1.4816-2.8733 1.4843-5.0429 1.4843-5.0429s-0.63764 4.8048-1.4843 7.686c-0.84666 2.8813 0.63499 8.6438-0.84666 13.927-1.4816 5.2837-8.8952 0.71966-8.8952 0.71966s-0.84665-8.7311-0.52916-10.252c0.3175-1.5213-1.2912-7.4612-1.4393-8.448-0.14817-0.98688-0.14817-3.3999-0.14817-3.3999z" fill="#b47f53"/>
  </g>
  <g fill="#56422e" stroke-width=".26458">
   <path class="cls-6" d="m391.03 129.63a7.5352 7.5352 0 0 1-0.89428-1.3229 8.4904 8.4904 0 0 1-0.61382-1.4949c-0.0873-0.26458-0.14288-0.52916-0.20902-0.79374a3.9872 3.9872 0 0 1-0.0794-0.81226 4.1724 4.1724 0 0 1 0.30956-1.5875h0.045c0.0423 0.54239 0.0318 1.0583 0.0953 1.5663a12.61 12.61 0 0 0 0.18785 1.5319 8.3792 8.3792 0 0 0 0.46831 1.4896 8.1517 8.1517 0 0 0 0.72759 1.397z"/>
   <path class="cls-6" d="m401.2 129.37a8.8687 8.8687 0 0 0 0.69055-1.2885 8.493 8.493 0 0 0 0.47625-1.3626 13.012 13.012 0 0 0 0.21166-1.4076c0.0688-0.47095 0.0635-0.93926 0.0979-1.4446h0.045c0.0529 0.11378 0.0953 0.23284 0.14023 0.35455l0.0582 0.17992 0.037 0.18785c0.0238 0.12435 0.045 0.25135 0.0582 0.37835l0.0132 0.381a4.5164 4.5164 0 0 1-0.3175 1.4843 8.6703 8.6703 0 0 1-0.61912 1.3626 7.9744 7.9744 0 0 1-0.85724 1.2144z"/>
   <path class="cls-6" d="m391.05 131.54c0.0741 0.88634 0.11377 1.7674 0.14288 2.6458 0.0291 0.8784 0.045 1.7647 0.0635 2.6458l0.0397 2.6458v0.65881c0 0.21959 0 0.44185 0.0238 0.6588s0.0159 0.44185 0.0423 0.65879c0 0.10848 0.0132 0.21961 0.0344 0.32808l0.0635 0.32279-0.12965-0.30691c-0.0397-0.10582-0.0609-0.21431-0.0926-0.32279-0.0635-0.21695-0.0953-0.43656-0.13759-0.65351-0.0741-0.43919-0.13229-0.88105-0.16933-1.3229-0.0873-0.88369-0.11906-1.77-0.13758-2.6458-0.0185-0.87575 0-1.77 0.037-2.6458s0.10848-1.7859 0.2196-2.667z"/>
   <path class="cls-6" d="m401.21 131.3c0.13229 0.91808 0.21167 1.8521 0.26458 2.7649 0.0529 0.9128 0.0873 1.8521 0.0953 2.7702 0 0.46302 0 0.92603-0.0132 1.389-0.0132 0.46297-0.0291 0.92338-0.0688 1.3864s-0.0794 0.92603-0.14552 1.3864c-0.0397 0.23017-0.0661 0.46037-0.12699 0.6879-0.0291 0.11113-0.0529 0.22754-0.0873 0.33866l-0.13229 0.32279 0.0661-0.33866c0.0159-0.11376 0.0185-0.23018 0.0291-0.34394 0.0238-0.2249 0.0238-0.45773 0.0318-0.68792 0.0132-0.45771 0.0132-0.91809 0.0132-1.3758l-0.0185-2.7622c0-1.8415-0.0106-3.6856 0.0926-5.5377z"/>
  </g>
  <g stroke-width=".26458">
   <path class="cls-5" d="m424.93 101.04c-0.52916 4.9265-2.4236 8.3713-4.6619 10.993-3.8073 4.4661-8.6518 6.551-9.6969 9.5249a24.016 24.016 0 0 0-2.2674-4.0639c-2.331-3.122-6.9902-5.5244-8.4666-3.3628s-1.3996 10.562-2.5479 10.562c-1.0583 0-0.84665-2.8813-1.6933-7.9242s-4.0243-3.8417-7.4082-1.4393c-2.4738 1.7542-4.6116 5.1778-5.5853 6.8923-0.93397-1.7012-3.4184-4.3312-6.0007-6.7838-1.7012-1.6192-3.4395-3.1617-4.8206-4.3074-4.0243-3.3628-6.5669-19.211-3.6009-21.132 1.6854-1.0927 7.0722 2.3204 11.716 6.3076 3.5189 3.0215 6.6145 6.3737 7.3447 8.3396 1.6933 4.564 10.165 14.647 13.758 7.4453 1.9235-3.847 5.5376-8.7311 9.1016-12.798 3.1088-3.5507 6.1806-6.4954 8.0538-7.6146 6.3499-3.8443 8.2575-4.0851 6.7759 9.3608z" fill="#b47f53"/>
   <path class="cls-7" d="m383.21 117.14c-0.93661 1.0583-3.6115 0.0291-6.6145-1.6933-1.7012-1.6192-3.4395-3.1617-4.8206-4.3074-4.0243-3.3628-6.5669-19.211-3.6009-21.132 1.6854-1.0927 7.0722 2.3204 11.716 6.3076 3.3602 5.5747 6.9108 13.994 3.3205 20.825z" fill="#926a46"/>
   <path class="cls-7" d="m424.93 101.04c-0.52916 4.9265-2.4236 8.3713-4.6619 10.993-4.5746 3.2438-10.361 6.7706-11.84 5.0958-2.995-5.7017-1.0213-12.501 1.6695-17.841 3.1088-3.5507 6.1806-6.4954 8.0538-7.6146 6.3526-3.8391 8.2602-4.0798 6.7785 9.3661z" fill="#926a46"/>
   <path class="cls-6" d="m407.78 139.47a3.63 3.63 0 0 0-0.46566-2.5611 4.0534 4.0534 0 0 0-0.85724-0.971c-0.16933-0.14024-0.34925-0.26459-0.52916-0.39158-0.17992-0.12701-0.39158-0.26458-0.56885-0.42069a5.8869 5.8869 0 0 1-0.97894-1.0239 5.2043 5.2043 0 0 1-0.67204-1.2462 4.5349 4.5349 0 0 1-0.16404-2.749 5.5297 5.5297 0 0 0 0.48948 2.6167 5.7361 5.7361 0 0 0 1.6113 2.0558c0.16139 0.1508 0.35189 0.26457 0.52916 0.40215s0.38893 0.26459 0.56355 0.43392a4.0639 4.0639 0 0 1 0.88635 1.1218 3.2887 3.2887 0 0 1 0.1561 2.7331z" fill="#56422e"/>
   <path class="cls-6" d="m384.55 139.47a3.2887 3.2887 0 0 1 0.15875-2.7331 3.9687 3.9687 0 0 1 0.88634-1.1218c0.17462-0.1614 0.37835-0.29369 0.56091-0.43392a6.5801 6.5801 0 0 0 0.52916-0.40215 5.744 5.744 0 0 0 1.6139-2.0558 5.5297 5.5297 0 0 0 0.48947-2.6167 4.5349 4.5349 0 0 1-0.16404 2.749 5.2043 5.2043 0 0 1-0.67203 1.2462 5.9848 5.9848 0 0 1-0.97895 1.0239c-0.17727 0.15875-0.38099 0.28047-0.56884 0.42069-0.18786 0.14023-0.35983 0.25135-0.52916 0.39158a4.0534 4.0534 0 0 0-0.85724 0.971 3.63 3.63 0 0 0-0.46831 2.5611z" fill="#56422e"/>
  </g>
  <path class="cls-8" d="m407.37 144.17-4.982 5.9901h-0.0556c-0.0767 0.0873-0.16139 0.17462-0.24606 0.26459a4.2015 4.2015 0 0 1-0.88899 0.65087l-0.32543 0.10318c-0.20108 0.0556-0.39422 0.10319-0.58208 0.14816-0.23018 0.0529-0.44714 0.0952-0.6588 0.13229-0.30162 0.0503-0.58472 0.0847-0.85459 0.11112a8.6253 8.6253 0 0 1-2.4077-0.082 3.0268 3.0268 0 0 1-0.33073 0.0767c-0.10847 0.0212-0.22224 0.0397-0.33866 0.0529l-0.18521 0.0185c-0.11376 0-0.23018 0.0159-0.3466 0.0185h-0.16139a8.2628 8.2628 0 0 1-1.2382-0.10054c-0.25135-0.0344-0.508-0.0847-0.76993-0.14287a13.597 13.597 0 0 1-1.7621-0.52916c-0.22754-0.082-0.44714-0.17462-0.67468-0.26458-0.10319-0.0873-0.20637-0.17992-0.30162-0.27781a5.1276 5.1276 0 0 1-0.49741-0.59266l-3.9687-4.7201-0.42862-0.51328-0.62441-0.74347a9.419 9.419 0 0 1-1.0319-1.9526c-1.1641-2.9104-1.3969-6.4293-1.3969-6.4293h-0.045v-2.9421c0-0.28575 0.0185-0.5662 0.0291-0.84666s0.0265-0.6297 0.0423-0.93926c0.0159-0.30956 0.0397-0.6932 0.0609-1.0292q0.0238-0.381 0.0476-0.74612c0-0.12435 0.0185-0.24341 0.0265-0.36247 0.0238-0.29104 0.0476-0.57678 0.0688-0.85195 0-0.0767 0-0.15346 0.0212-0.22754 0.0212-0.0741 0.0132-0.14816 0.0212-0.22225 8e-3 -0.0741 0-0.10054 0.0132-0.15081 0-0.0953 0.0185-0.18785 0.0238-0.28046 0.082-0.82549 0.16404-1.5504 0.24076-2.1352a10.993 10.993 0 0 0 0.11643-1.2462 2.5849 2.5849 0 0 0-0.39423-1.1509c-0.93666-1.6986-3.4211-4.3312-6.0034-6.7838-1.7065-1.6166-3.4395-3.1591-4.8233-4.3074-4.0243-3.3628-6.5669-19.211-3.6036-21.132 1.688-1.0927 7.0749 2.3204 11.718 6.3076 3.5216 3.0215 6.6145 6.3737 7.3447 8.3396 1.6933 4.5614 10.168 14.65 13.758 7.4426 1.9261-3.847 5.5377-8.7311 9.1016-12.792 3.1088-3.5533 6.1806-6.4954 8.0538-7.6173 6.3499-3.8417 8.2602-4.0798 6.7759 9.3661-0.52916 4.9265-2.4236 8.3713-4.6593 10.993-3.8073 4.4661-8.6518 6.551-9.6968 9.5249l-0.0423 0.13758c-0.35189 1.1271-0.3466 2.6723-0.1852 4.4476 0 0.14287 0.0238 0.2831 0.037 0.43126 0.15081 1.77 0.29897 3.7782 0.34395 5.8472 0.0159 0.62706 0.0212 1.2594 0.0159 1.8917" fill="none" stroke="#56422e" stroke-miterlimit="10" stroke-width=".52917"/>
  <path class="cls-9" d="m390.94 149.91s0.84665 4.3232 4.4476 4.8021c3.6009 0.47889 5.7176-3.6009 5.7176-4.3206 0-0.71966-1.4816-2.4024-1.4816-2.4024l-5.2916-0.71966z" fill="#dadad5" stroke="#56422e" stroke-miterlimit="10" stroke-width=".52917"/>
  <path class="cls-10" d="m392.63 150.63a3.421 3.421 0 0 0 3.3893 2.4024c2.7543 0 3.8126-1.9209 3.8126-1.9209l-3.175-3.8417-2.3283 0.71966z" fill="#48311f" stroke-width=".26458"/>
  <g stroke-miterlimit="10">
   <path class="cls-9" d="m396.21 147.61v0.16404a6.1012 6.1012 0 0 1-0.1905 1.6642 5.8922 5.8922 0 0 1-0.3757 0.79375 2.5558 2.5558 0 0 1-1.8944 1.3044c-0.037 0-0.0767 0.0132-0.11641 0.0159a2.9607 2.9607 0 0 1-0.52916 0 4.3841 4.3841 0 0 1-0.73818-0.10054 4.1195 4.1195 0 0 1-1.0424-0.37042c-0.0661-0.0317-0.12699-0.0661-0.1852-0.10054a3.8814 3.8814 0 0 1-0.57943-0.4101c-0.10319-0.0873-0.20637-0.17991-0.30162-0.2778a5.1276 5.1276 0 0 1-0.49741-0.59267c-0.90751-1.2753-1.262-3.0268-1.1377-4.6037a2.6273 2.6273 0 0 1 0.86253-1.7806l0.0238-0.0212a4.2571 4.2571 0 0 1 1.6616-0.87577l0.17198-0.045a5.0085 5.0085 0 0 1 0.87576-0.15875 33.102 33.102 0 0 0 2.4262 2.667l0.0318 0.0291a3.085 3.085 0 0 0 0.93132 0.66674c0.19844 0.0529 0.34131 0.26459 0.43656 0.57414a3.9687 3.9687 0 0 1 0.13494 0.69585c0.0185 0.16668 0.0317 0.34396 0.0344 0.52916v0.16404a0.39158 0.39158 0 0 0-3e-3 0.0688z" fill="#dadad5" stroke="#56422e" stroke-width=".52917"/>
   <path class="cls-10" d="m396.01 146.19a0.26458 0.26458 0 0 0 0.0397-0.40216 15.346 15.346 0 0 1-1.7251-1.9976c-1.0583-1.442-2.6802-2.8813-3.1406-1.6827-0.42597 1.1086 3.683 4.6645 4.8259 4.0825z" fill="#48311f" stroke-width="1.3229"/>
   <path class="cls-9" d="m402.34 150.13-0.0159 0.0185c-0.0767 0.0873-0.1614 0.17463-0.24606 0.26458a4.2015 4.2015 0 0 1-0.88899 0.65087c-0.0767 0.0423-0.1561 0.082-0.23548 0.11906l-0.12435 0.0556a4.0057 4.0057 0 0 1-0.7567 0.23548 3.7359 3.7359 0 0 1-0.55826 0.0873 3.4395 3.4395 0 0 1-0.7567 0c-0.0847-0.0132-0.16404-0.0238-0.24077-0.0397a2.6881 2.6881 0 0 1-0.31221-0.0847 2.5902 2.5902 0 0 1-1.4287-1.2065 6.2547 6.2547 0 0 1-0.36512-0.79373 6.0245 6.0245 0 0 1-0.18785-1.6642v-0.16669a0.39158 0.39158 0 0 1 0-0.0556 0.08202 0.08202 0 0 1 0-0.0238v-0.13494c0-0.17461 0.0159-0.3466 0.0344-0.51327a3.4845 3.4845 0 0 1 0.13758-0.70644c0.0952-0.30427 0.23547-0.52915 0.43391-0.57677 0.39422-0.11378 1.1509-0.84402 1.8521-1.5875 0.0212-0.0185 0.037-0.0423 0.0582-0.0609 0.79374-0.85195 1.4816-1.7039 1.4816-1.7039a5.2731 5.2731 0 0 1 0.6932 0.11377c0.10848 0.0238 0.23019 0.0529 0.35454 0.09a4.3973 4.3973 0 0 1 1.5875 0.80697 0.39687 0.39687 0 0 1 0.0344 0.0291 2.6246 2.6246 0 0 1 0.93132 1.8521c0.12964 1.7277-0.32544 3.6962-1.4816 4.9953z" fill="#dadad5" stroke="#56422e" stroke-width=".52917"/>
   <path class="cls-10" d="m396.42 146.19a0.26458 0.26458 0 0 1-0.0423-0.40216 15.515 15.515 0 0 0 1.7277-1.9976c1.0583-1.442 2.6802-2.8813 3.1406-1.6827 0.42333 1.1086-3.6856 4.6645-4.8259 4.0825z" fill="#48311f" stroke-width="1.3229"/>
  </g>
  <path class="cls-6" d="m404.5 132.38a3.3469 3.3469 0 0 1 0.91545-0.59001 3.9078 3.9078 0 0 1 1.0583-0.31219 2.8707 2.8707 0 0 1 1.1218 0.0582 1.8071 1.8071 0 0 1 0.92867 0.60324 3.4528 3.4528 0 0 0-0.99482-0.26459h-0.49741a4.0004 4.0004 0 0 0-0.49741 0.0476 9.7127 9.7127 0 0 0-1.0028 0.19578z" fill="#56422e" stroke-width=".26458"/>
  <path class="cls-6" d="m384.15 132.14a2.2357 2.2357 0 0 1 0.83608-0.49475 2.4288 2.4288 0 0 1 0.98688-0.13494 1.8891 1.8891 0 0 1 0.95778 0.3413 1.7171 1.7171 0 0 1 0.60853 0.76728 4.2518 4.2518 0 0 0-0.79374-0.46037 2.6035 2.6035 0 0 0-0.82019-0.19843 6.6489 6.6489 0 0 0-1.7753 0.1799z" fill="#56422e" stroke-width=".26458"/>
  <g fill="none" stroke="#56422e" stroke-miterlimit="10" stroke-width=".52917">
   <path class="cls-8" d="m389.75 149.73 0.49212 0.58208a5.1276 5.1276 0 0 1-0.49212-0.58208z"/>
   <path class="cls-8" d="m382.26 135.62v-0.26459h0.045s0.23283 3.5321 1.397 6.4293"/>
   <path class="cls-8" d="m385.78 144.99-0.42862-0.51327a2.8495 2.8495 0 0 1 0.42862 0.51327z"/>
   <path class="cls-8" d="m410.75 134.32s-0.0582 0.43657-0.18521 1.1298c-0.38364 2.0875-1.3705 6.5325-3.1935 8.7126"/>
  </g>
  <g stroke-width=".26458">
   <path class="cls-11" d="m387.24 132.07a4.482 4.482 0 0 0-2.4024-0.37836c-0.79374-0.76992-1.3546-2.151-1.4076-3.7517-0.0873-2.4976 1.0874-4.5799 2.6246-4.6434 1.5372-0.0635 2.8495 1.8997 2.9368 4.4 0.0661 1.9976-0.66939 3.7253-1.7515 4.3735z" fill="#fff"/>
   <ellipse class="cls-12" transform="rotate(-89.11)" cx="-122.41" cy="388.16" rx="2.6008" ry="2.1299" fill="#6295cc"/>
   <ellipse class="cls-13" transform="rotate(-89.11)" cx="-122.81" cy="388.2" rx="1.5875" ry="1.3017" fill="#00070b"/>
  </g>
  <g fill="#fff" stroke-width=".26458">
   <ellipse class="cls-11" transform="rotate(-36.99)" cx="229.85" cy="335.06" rx=".16139" ry=".19579"/>
   <ellipse class="cls-11" transform="rotate(-22.75)" cx="305.94" cy="267.12" rx=".58472" ry=".61118"/>
   <path class="cls-11" d="m405.44 131.83a4.482 4.482 0 0 1 2.413-0.30162c0.82285-0.74611 1.4208-2.1166 1.524-3.7041 0.16404-2.4923-0.94455-4.6116-2.4818-4.7254-1.5372-0.11378-2.9104 1.8124-3.0691 4.31-0.12964 1.9896 0.55298 3.7412 1.6139 4.4211z"/>
  </g>
  <g stroke-width=".26458">
   <ellipse class="cls-12" transform="rotate(-89.11)" cx="-121.89" cy="408.52" rx="2.6008" ry="2.1299" fill="#6295cc"/>
   <ellipse class="cls-13" transform="rotate(-89.11)" cx="-122.27" cy="408.48" rx="1.5875" ry="1.3017" fill="#00070b"/>
   <ellipse class="cls-11" transform="rotate(-51.23)" cx="154.54" cy="398.62" rx=".19579" ry=".16139" fill="#fff"/>
   <ellipse class="cls-11" transform="rotate(-65.47)" cx="52.828" cy="423.67" rx=".61118" ry=".58472" fill="#fff"/>
  </g>
 </g>
</svg>
