<?xml version="1.0" encoding="UTF-8"?>
<!-- Created with Inkscape (http://www.inkscape.org/) -->
<svg width="211mm" height="103.31mm" version="1.1" viewBox="0 0 211 103.31" xmlns="http://www.w3.org/2000/svg">
 <defs>
  <style>.cls-1,.cls-3{fill:#fa0;}.cls-1,.cls-2,.cls-3{stroke:#000;stroke-linecap:round;stroke-linejoin:round;}.cls-1,.cls-2{stroke-width:5.37px;}.cls-11,.cls-2{fill:#fff;}.cls-3{stroke-width:4.84px;}.cls-4{fill:#c68e5e;}.cls-5{fill:#b47f53;}.cls-6{fill:#56422e;}.cls-7{fill:#926a46;}.cls-8{fill:none;stroke-width:1.7px;}.cls-8,.cls-9{stroke:#56422e;stroke-miterlimit:10;}.cls-9{fill:#dadad5;stroke-width:2.56px;}.cls-10{fill:#48311f;}.cls-12{fill:#6295cc;}.cls-13{fill:#00070b;}</style>
 </defs>
 <g transform="translate(1.1328e-6 -34.736)">
  <g transform="matrix(.26438 0 0 .26458 -32.507 84.067)">
   <path d="m177 181.15a11.44 11.44 0 0 1 0.83 3.89 6.33 6.33 0 0 1-2.36 4.86c-1.58 1.39-2.64 2-3.2 1.95q-6.79-1.26-8.61-11a106.17 106.17 0 0 0-4.58-17.63l-9.45 0.83a15.71 15.71 0 0 0-8.47 3.33 157.93 157.93 0 0 0-4 15.28 101.11 101.11 0 0 1-4.58 15.42c-0.74 1.66-2.31 2.13-4.72 1.39q-4.59-1.53-4.86-4.17-0.42-5.28 3.05-14.17 4.17-10.14 4.59-14.44c0.09-0.84-0.51-1.76-1.81-2.78s-1.94-1.81-1.94-2.36a2.39 2.39 0 0 1 0.62-1.46 5.43 5.43 0 0 1 2.92-1.25c1.53-0.32 2.38-0.81 2.57-1.46q2.49-6.94 7.91-25.83a237.14 237.14 0 0 1 8.2-25.14c0.55-1.3 1.71-2 3.47-2a5.34 5.34 0 0 1 3.47 1.25q3.89 3.34 5 10 0.84 5.7 1.53 11.39 6.94 32.86 14.42 54.1zm-20.28-26.53a88.36 88.36 0 0 0-1.81-11.52q-1.38-5.57-2.64-11.11-4.15 11.52-7.22 23a90.85 90.85 0 0 1 11.69-0.37z"/>
   <path d="m225.63 157.12c-0.93 2.14-1.81 4.26-2.64 6.39a23.84 23.84 0 0 1-3.61 6q-4.31 5.41-8.61 10.69-5.15 6.39-9.31 8.89c-0.93 1.11-1.94 2.27-3.05 3.47a4.72 4.72 0 0 1-3.34 1.81 5.62 5.62 0 0 1-1.94-0.42c-0.75-0.28-1.55-0.6-2.43-1a3.41 3.41 0 0 1-1.88-1.81q-0.42-5.84-0.42-12.5t0.56-20.28q0.56-13.47 0.56-20.27 0-9-0.7-16.53l-3-3.2a5 5 0 0 1-1.82-3.36 3.67 3.67 0 0 1 0.28-1.39 3.39 3.39 0 0 1 3-1.94c1.21-0.19 2.41-0.33 3.61-0.42q11.67 2.5 24.45 13.06a28.74 28.74 0 0 1 5.42 5.83q6.66 9.85 6.66 18.47a20.48 20.48 0 0 1-1.79 8.51zm-10-14.86q-1.26-8.74-14.86-15.41-1 23.19-0.56 49.16 15.69-15.69 15.7-29.86a28.39 28.39 0 0 0-0.28-3.89z"/>
   <path d="m299.1 108.1q-5.42 10.14-15.42 37.91-2.91 8.2-6.94 27.09-3.9 18-7.5 27.36a3.86 3.86 0 0 1-2.92 1.39c-1.3 0-3-0.7-5-2.09q-5.42-12.91-12.64-42.5-6.81-28.18-13.61-42.91 1.8-3.48 3.06-3.48a4.18 4.18 0 0 1 2.22-0.69q2.22 0 7.78 4.17a210.92 210.92 0 0 1 9.58 27.91q3.62 14.31 7.36 28.48 5.15-17 10.28-34a291.6 291.6 0 0 1 12.5-33.06q2.08-3.62 7.22-2.36a3.34 3.34 0 0 1 1.39 1 2.94 2.94 0 0 0 2.08 1c0.84 0 1.25 0.72 1.25 2a6.24 6.24 0 0 1-0.69 2.78z"/>
   <path d="m353 118.37a149.18 149.18 0 0 1-15.14 4.86 150.44 150.44 0 0 0-15.14 4.87c-0.83 2.41-1.44 7.77-1.81 16.11a14.74 14.74 0 0 0 5.09 0.79 47.54 47.54 0 0 0 6.53-0.69 46.36 46.36 0 0 1 6.53-0.7 12.77 12.77 0 0 1 6.67 1.67c1.29 1.85 1.94 3.05 1.94 3.61a1.69 1.69 0 0 1-1 1.53 15.51 15.51 0 0 0-1.95 1.94 3.13 3.13 0 0 1-2.77 1.11 57.81 57.81 0 0 1-10.7 0.84 31.18 31.18 0 0 0-10.35 1.69q-2.64 10.29-2.63 16.25a15.05 15.05 0 0 0 1.11 6.39q6.53 4.59 22.64 3.89a3.82 3.82 0 0 0 2.36-1 3.55 3.55 0 0 1 2.08-1q3.89-0.84 5.14 5.83a5.55 5.55 0 0 1-0.76 4.1 4.12 4.12 0 0 1-3.41 2q-16.8 0.56-29.16-2.64a14.73 14.73 0 0 1-7.09-4.3 12.44 12.44 0 0 1-3.61-7.5 94.29 94.29 0 0 1 0-21.67q-3.88-2.64-3.47-5.14c0.09-0.83 0.81-1.6 2.15-2.29s2.11-1.41 2.29-2.15 0.56-5.14 1.11-13.2q-7.77-1.51-7.63-5.83c0.09-2.69 1.71-4.81 4.86-6.39l8.89-3.61a69.57 69.57 0 0 1 13.05-4.74c4.45-1.21 8.94-2.36 13.47-3.48a9 9 0 0 1 1.67-0.13q3.75 0 8.75 2.91c0.09 0.37 0.32 1.07 0.69 2.09a7.58 7.58 0 0 1 0.56 2.22 2.11 2.11 0 0 1-0.96 1.76z"/>
   <path d="m418.41 103.65q-1.95 18.61-3.75 37.36a360.89 360.89 0 0 0-2.37 37.09c0 3.24 0.1 6.43 0.28 9.58a4.81 4.81 0 0 1-1.59 3.89 5.58 5.58 0 0 1-4 1.67q-4.31 0-7.23-5.84-8.84-17.4-22.04-54.4-0.29-0.84-0.69-0.84c-0.65 0-1.07 0.65-1.25 1.95a353.1 353.1 0 0 0-2.36 41.8q0 10.56 0.55 21.53c0.09 2.69-0.69 4.54-2.36 5.56a3 3 0 0 1-2.08 1 5.62 5.62 0 0 1-2.5-0.83l-2.64-1.25c-1.21-0.37-1.95-1.49-2.23-3.34-0.09-1.48-0.18-3-0.27-4.58q-0.42-7.78-0.42-16.25 0-14.72 1.67-36.81 2.64-33.6 2.91-37.22c0.09-2 1.81-3.05 5.14-3.05 1.58-0.19 3.89 1 6.95 3.47q4.44 8.48 11 27.5 6.25 18.19 11.39 27.64 2.08-18.48 6.53-55.84c0.27-1.85 1.62-2.77 4-2.77a12.06 12.06 0 0 1 2.95 0.33c1.48 0.37 2.36 0.61 2.64 0.7a2.94 2.94 0 0 1 1.77 1.95z"/>
   <path d="m499 101.29c-0.83 3.33-2.41 5.28-4.72 5.83q-9 2.23-31.39 5.84-2.78 34.58-2.78 57.64 0 8.75 0.28 17.22a12.55 12.55 0 0 1-0.28 4 2.55 2.55 0 0 1-2.78 2.08 8.63 8.63 0 0 1-6.66-3.4 12.82 12.82 0 0 1-2.92-7.29q-0.29-5.15-0.28-10.84 0-9.17 1.25-29 1.26-19 1.11-29a50.2 50.2 0 0 0-10.41 0.69 87.75 87.75 0 0 1-10.56 1.11q-6.79 0-11.11-3.64c-1.11-2.43-1.67-3.69-1.67-3.78a3.33 3.33 0 0 1 1-2.1q4.44-1.55 18.19-2.8 12.09-1.26 18.06-4.48a34.2 34.2 0 0 0 11.05 1.63 45.87 45.87 0 0 0 11.94-1.53 71.56 71.56 0 0 0 8.47-1.94 23.47 23.47 0 0 1 8.34-0.83c1.66 0 2.36 0.69 2.08 2.08q3.79 0.01 3.79 2.51z"/>
   <path d="m533.82 112.12q-1 9.73-5.55 26-6.27 21.77-7.27 26.37a65.39 65.39 0 0 1-11.62 25.51q-5.42 7.36-12.5 7.22-6.25-0.13-9.31-7.91-5.28-13.07-5.28-30.7a224.25 224.25 0 0 1 1.95-26.11c-0.1 0.93-0.14-1.94-0.14-8.61q0-8.61 6.67-8.61a6.92 6.92 0 0 1 3 0.76c1.07 0.51 2.11 1 3.13 1.6q0.14 7.08-0.42 20.83-0.69 14.73-0.69 21.25 0 6.94 0.41 12.64a83.41 83.41 0 0 0 2.5 11.11q5.83-6.52 9.17-17.36 1.11-3.6 4.44-19.72 2.64-12.23 6-19.17a26.45 26.45 0 0 0 1.66-7.36 28.74 28.74 0 0 1 1.67-7.5 5.37 5.37 0 0 1 5.28-3.33q4.82 0.04 6.9 3.09z"/>
   <path d="m598 188.79a2 2 0 0 1 0.42 1.25c0 2.13-2.23 3.75-6.67 4.86q-7.37-5.7-18.34-17.5-12.21-13.18-18.19-18.33-0.42 3.62-1.53 18.89a97.31 97.31 0 0 1-2.5 18.33 7.25 7.25 0 0 0-1.73 0.7 3.51 3.51 0 0 1-2.43 0.41q-6.12-1.38-6.12-8.47a37.28 37.28 0 0 1 0.56-5.56l0.69-5q0.55-8 0.7-19.16v-15.14a204.3 204.3 0 0 1 2.08-31.81q1.4-8.61 16.25-7.91 7.5 0.27 13.06 7.5a23.21 23.21 0 0 1 5.14 14.44q0 6.52-4.86 13.06a30.41 30.41 0 0 1-10.28 9.16c-1.67 0.93-2.5 2-2.5 3.06s1 2.64 2.92 4.3c1.47 1.21 3 2.41 4.44 3.62q0.14 0.13 15.28 13.88 9.61 8.63 13.61 15.42zm-29.31-62.36a19.08 19.08 0 0 0 0.31-4.43 10.25 10.25 0 0 0-2.43-5.28c-1.34-1.58-3.5-2.36-6.46-2.36q-3.33 0-4.17 2.08a40.82 40.82 0 0 0-0.69 7.92q0 1.8 0.42 9.3a79.32 79.32 0 0 1 0 9.31q11.48-8.62 13.01-16.54z"/>
   <path d="m642 118.37a148.83 148.83 0 0 1-15.13 4.86 150.44 150.44 0 0 0-15.14 4.87c-0.84 2.41-1.44 7.77-1.81 16.11a14.74 14.74 0 0 0 5.14 0.83 47.69 47.69 0 0 0 6.53-0.69 46.36 46.36 0 0 1 6.53-0.7 12.71 12.71 0 0 1 6.66 1.67c1.3 1.85 2 3.05 2 3.61a1.71 1.71 0 0 1-1 1.53 15.51 15.51 0 0 0-1.95 1.94 3.15 3.15 0 0 1-2.78 1.11 57.68 57.68 0 0 1-10.69 0.84 31.13 31.13 0 0 0-10.43 1.65q-2.64 10.29-2.64 16.25a15.21 15.21 0 0 0 1.11 6.39q6.52 4.59 22.64 3.89a3.8 3.8 0 0 0 2.36-1 3.6 3.6 0 0 1 2.09-1q3.88-0.84 5.14 5.83a5.55 5.55 0 0 1-0.77 4.1 4.09 4.09 0 0 1-3.4 2q-16.8 0.56-29.17-2.64a14.75 14.75 0 0 1-7.08-4.3 12.44 12.44 0 0 1-3.61-7.5 93.18 93.18 0 0 1 0-21.67c-2.6-1.76-3.75-3.47-3.47-5.14 0.09-0.83 0.8-1.6 2.15-2.29s2.1-1.41 2.29-2.15 0.56-5.14 1.11-13.2q-7.78-1.57-7.68-5.89c0.09-2.69 1.71-4.81 4.86-6.39l8.89-3.61a70 70 0 0 1 13.1-4.68c4.44-1.21 8.93-2.36 13.47-3.48a8.91 8.91 0 0 1 1.67-0.13c2.5 0 5.41 1 8.75 2.91 0.09 0.37 0.32 1.07 0.69 2.09a7.58 7.58 0 0 1 0.56 2.22 2.12 2.12 0 0 1-0.99 1.76z"/>
   <path d="m756.74 101.29c-0.83 3.33-2.41 5.28-4.72 5.83q-9 2.23-31.39 5.84-2.79 34.58-2.78 57.64 0 8.75 0.28 17.22a12.55 12.55 0 0 1-0.28 4 2.56 2.56 0 0 1-2.78 2.08 8.64 8.64 0 0 1-6.67-3.4 12.73 12.73 0 0 1-2.91-7.29q-0.29-5.15-0.28-10.84 0-9.17 1.25-29 1.24-19 1.11-29a50.33 50.33 0 0 0-10.42 0.69 87.65 87.65 0 0 1-10.55 1.11q-6.81 0-11.11-3.64c-1.11-2.43-1.67-3.69-1.67-3.78a3.37 3.37 0 0 1 1-2.1q4.46-1.55 18.2-2.8 12.07-1.26 18-4.48a34.24 34.24 0 0 0 11.13 1.63 45.89 45.89 0 0 0 12-1.53 72 72 0 0 0 8.47-1.94 23.45 23.45 0 0 1 8.34-0.83c1.66 0 2.36 0.69 2.08 2.08q3.7 0.01 3.7 2.51z"/>
   <path d="m798.27 188.79a2.08 2.08 0 0 1 0.41 1.25q0 3.19-6.66 4.86-7.37-5.7-18.34-17.5-12.23-13.18-18.19-18.33-0.42 3.62-1.53 18.89a97.31 97.31 0 0 1-2.5 18.33 7.24 7.24 0 0 0-1.74 0.7 3.5 3.5 0 0 1-2.43 0.41q-6.1-1.38-6.11-8.47a37.28 37.28 0 0 1 0.56-5.56l0.69-5q0.55-8 0.7-19.16v-15.14a204.3 204.3 0 0 1 2.08-31.81q1.38-8.61 16.25-7.91 7.5 0.27 13.06 7.5a23.21 23.21 0 0 1 5.14 14.44q0 6.52-4.87 13.06a30.29 30.29 0 0 1-10.27 9.16c-1.67 0.93-2.5 2-2.5 3.06s1 2.64 2.91 4.3l4.45 3.62q0.14 0.13 15.27 13.88 9.58 8.63 13.62 15.42zm-29.27-62.36a19.08 19.08 0 0 0 0.28-4.44 10.25 10.25 0 0 0-2.43-5.28c-1.35-1.58-3.5-2.36-6.46-2.36q-3.33 0-4.17 2.08a40.82 40.82 0 0 0-0.69 7.92q0 1.8 0.41 9.3a75.15 75.15 0 0 1 0 9.31q11.5-8.61 13.06-16.53z"/>
   <path d="m844.65 181.15a11.25 11.25 0 0 1 0.84 3.89 6.33 6.33 0 0 1-2.36 4.86c-1.58 1.39-2.64 2-3.2 1.95q-6.81-1.26-8.61-11a108.18 108.18 0 0 0-4.58-17.63l-9.45 0.83a15.71 15.71 0 0 0-8.47 3.33 157.93 157.93 0 0 0-4 15.28 101.11 101.11 0 0 1-4.58 15.42c-0.74 1.66-2.32 2.13-4.72 1.39q-4.59-1.53-4.86-4.17-0.42-5.28 3-14.17 4.17-10.14 4.58-14.44c0.1-0.84-0.51-1.76-1.8-2.78s-2-1.81-2-2.36a2.35 2.35 0 0 1 0.63-1.46 5.43 5.43 0 0 1 2.92-1.25c1.52-0.32 2.38-0.81 2.57-1.46q2.49-6.94 7.91-25.83a237.14 237.14 0 0 1 8.2-25.14c0.55-1.3 1.71-2 3.47-2a5.36 5.36 0 0 1 3.47 1.25q3.89 3.34 5 10c0.56 3.8 1.06 7.6 1.53 11.39q7.02 32.86 14.51 54.1zm-20.27-26.53a88.36 88.36 0 0 0-1.81-11.52q-1.4-5.57-2.64-11.11-4.17 11.52-7.22 23a90.85 90.85 0 0 1 11.67-0.37z"/>
   <path d="m868.82 117.54c0.19 2.69 0.28 5.46 0.28 8.33q0 9.45-2 28.48t-1.94 28.75c0 2.41 0 4.76 0.14 7.08a5 5 0 0 1-5.42 3.75q-6-0.28-6.53-5.14a90.77 90.77 0 0 1-0.55-10.28q0-9.44 2.29-28.19t2.29-28.06c0-2.4-0.09-4.77-0.28-7.08a4.91 4.91 0 0 1 4.73-2.64 10.44 10.44 0 0 1 5.27 1.53 1.67 1.67 0 0 1 0.84-0.42c0.28 0 0.41 0.47 0.41 1.39a6.11 6.11 0 0 0 0 1.94 0.87 0.87 0 0 0 0.47 0.56z"/>
   <path d="m920.21 171.74q-0.29 0.15-16.25 11.58a96.24 96.24 0 0 1-16.53 9.91 3.65 3.65 0 0 1-1.66 0.42q-1.95 0-3.62-2.5-2.49-3.35-2.64-3.48-0.27-12.24 1.53-34.08 2.09-23.24 2.09-33.53c0-4.72-0.19-9.18-0.56-13.35a6.18 6.18 0 0 1 4.58-1.81q5.28 0 6.12 3.89 0.4 11.38-1 34.1t-1.09 34.11a69 69 0 0 0 10.14-5.84 96.19 96.19 0 0 1 9.86-6.25 17.5 17.5 0 0 0 2.43-0.28 18.7 18.7 0 0 1 2.57-0.27 4.27 4.27 0 0 1 4 2.23q1.7 3.06 0.03 5.15z"/>
  </g>
  <g transform="matrix(.26458 0 0 .26458 -33.621 -4.2316)">
   <path class="cls-1" d="m770.49 259.92s44-45.11 52.63-22.56 5.37 32.23 5.37 32.23 29-55.85 43-47.26-14 61.22-37.59 69.81c0 0 61.22 51.55 62.29 65.52s-33.29 9.66-44-7.52-25.78-33.3-31.15-24.71 9.67 24.71-2.15 45.11-26.89-2.14-26.89-2.14l-8.59-66.59z"/>
   <path class="cls-1" transform="translate(127.07 147.28)" d="m634.63 101.03c-28.311-1.1583-55.65 43.832-55.65 43.832s2.1394 15.059 6.4394 42.959 36.51 34.38 66.59 11.82c30.08-22.56 22.56-83.78-8.5898-96.67-2.9203-1.2084-5.8603-1.8216-8.7891-1.9414zm-7.7305 57.535c2.7514-0.06374 5.5012 1.4752 6.2188 5.0059 0.81 3.84-0.02016 7.741-3.6602 10.291-5.37 3.76-7.7894-1.6119-8.8594-7.9219-0.77625-4.5619 2.7632-7.293 6.3008-7.375z"/>
   <path class="cls-1" transform="translate(127.07 147.28)" d="m560.46 123.4c-17.473 0.41344-29.807 19.324-29.807 19.324l-74.15 45.109s42.92 12.901 68.74 33.301 73.08-14.01 72-48.34-15.83-44.33-29-48.33c-2.685-0.805-5.287-1.1235-7.7832-1.0645zm-3.8906 50.795c4.3214 0.08185 8.3594 4.7358 5.4844 9.3789-1.43 2.28-4.1216 3.96-8.8516 4.25-9.44 0.59-6.3495-5.5096-1.4395-11.35 1.3809-1.6425 3.1156-2.3113 4.8066-2.2793z"/>
   <path class="cls-1" transform="translate(127.07 147.28)" d="m476.38 113.05c-11.165 0.02767-23.289 0.9332-35.977 2.8144v125.66s90.22 12.891 95.59-23.629c5.37-36.52-59.061-37.59-59.061-37.59s61.241-16.11 64.471-38.66c2.5078-17.617-25.147-28.693-65.023-28.594zm-2.6875 17.641c2.1284-0.01799 4.5923 0.4857 6.6211 1.0332a10.16 10.16 0 0 1 7.6484 9.2988c0.12 2.77-0.94836 5.9809-4.5684 9.2109h0.00977c-9.66 8.6-14-12.891-14-12.891-1.875-5.1438 0.7417-6.6224 4.2891-6.6523zm6.0801 69.496c1.3423 0.01457 2.872 0.33422 4.6113 1.0664a2.84 2.84 0 0 1 1.5488 1.6699c1.46 4.17 5.8198 18.18-1.4902 18.18-4.49 0-8.0895-2.9288-10.52-5.7188a9.55 9.55 0 0 1 0.00976-12.66c1.3912-1.4766 3.2772-2.5649 5.8398-2.5371z"/>
   <path class="cls-3" d="m418.49 338.15s-8.71 38.73 0 42.6c6 2.69 15.35-0.22 20.49-2.25a5.8 5.8 0 0 0 3.65-5.5l-0.91-52.28z"/>
   <path class="cls-3" d="m459.08 318.79a0.53 0.53 0 0 0-0.13-0.33c3-1.88 27.74-21.74 12.72-50-11.46-21.56-31.37-12.16-42.4-4.47a70.54 70.54 0 0 0-7.95 6.41s10.23 24.34 19.62 50.93l0.83 2.34c1.33 3.81 2.64 7.66 3.9 11.47 2.09 6.36 4 12.64 5.66 18.52 9.69 34.86 32 10.65 32 2.9-0.04-6.04-24.25-26.56-24.25-37.77zm-8.71-28.08c-3.08-0.51-3.43-2.92-3.1-5.07a6.26 6.26 0 0 1 5-5.28c1.32-0.24 2.56 0 3 1.64 0.91 3.87 0.91 9.69-4.9 8.71z"/>
   <path class="cls-3" d="m446.49 320.73c-1-22.33-7.49-42.51-17.22-56.76-15.94-23.35-40.67-30.75-64.84-5.44a88.64 88.64 0 0 0-6 7l-13.59 16.47a134.55 134.55 0 0 0-4.47 14.88c-4.48 18.5-8.59 50.11 8.35 70.32 14 16.69 43.56 19.61 66.55 8.24 11.59-5.71 21.51-15.06 26.91-28.1a55.75 55.75 0 0 0 3.49-12.22 65.75 65.75 0 0 0 0.82-14.39zm-48.4 6.77c-1 12.59-24.2 9.68-23.24-2.91s10.66-9.68 10.66-9.68 13.55 0 12.58 12.59z"/>
   <path class="cls-3" d="m281 282s28 3.87 28 9.68-26.14 52.28-21.3 91 33.89 15.49 35.83 0-6.78-93.91 22.26-85.2 61 16.46 57.12-8.71-134.07-75.57-142.05-38.77l-5.08 13.58z"/>
   <path class="cls-3" d="m269.08 273.21 1.65-2.72a12 12 0 0 0-3.13-16c-13.77-10-43.21-25.46-80.56-10.25-52.28 21.3-24.21 70.68 15.49 66.8s63.9-7.74 62.93 35.82-41.63 36.79-65.84 16.46-62-13.55-41.63 28.08 139.42 44.53 148.13-11.62-20.33-63.9-56.15-80.35c-32-14.72-22.27-35.62 3-21.91a12.1 12.1 0 0 0 16.11-4.31z"/>
   <path class="cls-4" d="m577.8 322c-1.45 7.89-5.18 24.69-12.07 32.93l-18.83 22.64h-0.21c-0.29 0.33-0.61 0.66-0.93 1a15.88 15.88 0 0 1-3.36 2.46c-0.29 0.16-0.59 0.31-0.89 0.45l-0.41 0.08c-0.73 0.17-1.44 0.3-2.13 0.42-0.83 0.15-1.62 0.26-2.39 0.37-1.52 0.19-2.94 0.32-4.24 0.4a45.17 45.17 0 0 1-7.89-0.14h-0.3a11.44 11.44 0 0 1-1.25 0.29c-0.41 0.08-0.84 0.15-1.28 0.2l-0.7 0.07c-0.43 0-0.87 0.06-1.31 0.07h-0.61a34.39 34.39 0 0 1-5.12-0.32c-0.74-0.1-1.51-0.21-2.28-0.36a56.27 56.27 0 0 1-6.6-1.56l-0.63-0.19a14.67 14.67 0 0 1-2.19-1.55c-0.39-0.33-0.78-0.68-1.14-1.05a19.38 19.38 0 0 1-1.88-2.24l-15-17.84-1.62-1.94-2.36-2.81a35.6 35.6 0 0 1-3.9-7.38c-4.4-11-5.28-24.3-5.28-24.3h-0.17v-7-1.38-1.37-1.37c0-1.08 0.07-2.14 0.11-3.2s0.1-2.38 0.16-3.55 0.15-2.62 0.23-3.89q0.09-1.44 0.18-2.82c0-0.47 0.07-0.92 0.1-1.37 0.07-0.91 0.13-1.8 0.21-2.66l0.05-0.56c0-0.29 0-0.58 0.08-0.86s0.05-0.56 0.08-0.84 0-0.38 0.05-0.57c0-0.36 0.07-0.71 0.09-1.06 0.31-3.12 0.62-5.86 0.91-8.07a41.55 41.55 0 0 0 0.44-4.71 9.77 9.77 0 0 0-1.49-4.35c-3.54-6.42-12.94-16.37-22.69-25.64-6.45-6.11-13-11.94-18.23-16.28-15.21-12.71-24.82-72.61-13.62-79.87 6.38-4.13 26.74 8.77 44.29 23.84 13.31 11.42 25 24.09 27.76 31.52 6.4 17.24 38.43 55.37 52 28.13 7.28-14.54 20.93-33 34.4-48.35 11.75-13.43 23.36-24.55 30.44-28.79 24-14.52 31.22-15.42 25.61 35.4-2 18.62-9.16 31.64-17.61 41.55-14.39 16.88-32.7 24.76-36.65 36l-0.16 0.52c-1.33 4.26-1.31 10.1-0.7 16.81 0 0.54 0.09 1.07 0.14 1.63 0.62 6.84 1.38 14.4 1.78 22.1"/>
   <path class="cls-5" d="m577.8 322c-1.45 7.89-5.18 24.69-12.07 32.93l-18.83 22.64-0.15-0.07-6.25-2.8-13.65-6.12-1.6-0.7-1.57-0.71h-0.08l-27.69-12.4-19.63-8.77c-4.4-11-5.28-24.3-5.28-24.3h-0.17v-7-1.38-1.33-1.42c0-1.08 0.07-2.14 0.11-3.2s0.1-2.38 0.16-3.55 0.15-2.62 0.23-3.89q0.09-1.44 0.18-2.82c0-0.47 0.07-0.92 0.1-1.37 0.07-0.91 0.13-1.8 0.21-2.66 0.39-4.75 0.82-8.87 1.22-12 7.05-1.1 14.61-0.84 19.36 3.47 0 0 14.23 22.69-8.68 40.83a14.52 14.52 0 0 0-4.81 9.47v0.56c-0.41 9.2 8.38 18.13 18.73 16.36l0.45-0.08a15.88 15.88 0 0 0 3-0.91 26.25 26.25 0 0 1 3.24-1.09l0.31-0.09h0.1l0.35-0.08c6.35-1.36 6 3 4.81 6.51l-0.13 0.37a24.62 24.62 0 0 1-1.54 3.43v0.05h0.07l4.38-1 0.42-0.11 3.88-0.9 0.49-0.11 1.24-0.3 0.51-0.12 9.41-2.22 0.92-0.22 2.35-0.55 1-0.23 6.34-1.49h0.15l0.95-0.22 2.59-0.6a26.13 26.13 0 0 0 4.64-0.15l0.88-0.11c6.26-0.87 15.88-4.25 17.82-16.51a0.13 0.13 0 0 0 0-0.06c0-0.14 0-0.28 0.07-0.44a7.89 7.89 0 0 0-0.41-4.13c-1.54-4.13-6.27-7.25-10.15-11.57l-0.05-0.06c-4.13-4.62-7.29-10.64-4.6-20.71 3.58-13.34 15.32-13.33 24.29-11.11 1.12 10.49 2.47 22.97 2.38 35.04z"/>
   <path class="cls-5" d="m498.05 275.05s10.4 25.41 12.8 33.58 5.61 35.4 9.61 38.12 7.2 4.54 10.41-14.52 6.4-28.14 12-39 5.61-19.06 5.61-19.06-2.41 18.16-5.61 29.05 2.4 32.67-3.2 52.64-33.62 2.72-33.62 2.72-3.2-33-2-38.75-4.88-28.2-5.44-31.93-0.56-12.85-0.56-12.85z"/>
   <path class="cls-6" d="m504 300.06a28.48 28.48 0 0 1-3.38-5 32.09 32.09 0 0 1-2.32-5.65c-0.33-1-0.54-2-0.79-3a15.07 15.07 0 0 1-0.3-3.07 15.77 15.77 0 0 1 1.17-6h0.17c0.16 2.05 0.12 4 0.36 5.92a47.66 47.66 0 0 0 0.71 5.79 31.67 31.67 0 0 0 1.77 5.63 30.81 30.81 0 0 0 2.75 5.28z"/>
   <path class="cls-6" d="m542.41 299.05a33.52 33.52 0 0 0 2.61-4.87 32.1 32.1 0 0 0 1.8-5.15 49.18 49.18 0 0 0 0.8-5.32c0.26-1.78 0.24-3.55 0.37-5.46h0.17c0.2 0.43 0.36 0.88 0.53 1.34l0.22 0.68 0.14 0.71c0.09 0.47 0.17 0.95 0.22 1.43l0.05 1.44a17.07 17.07 0 0 1-1.2 5.61 32.77 32.77 0 0 1-2.34 5.15 30.14 30.14 0 0 1-3.24 4.59z"/>
   <path class="cls-6" d="m504.05 307.27c0.28 3.35 0.43 6.68 0.54 10s0.17 6.67 0.24 10l0.15 10v2.49c0 0.83 0 1.67 0.09 2.49s0.06 1.67 0.16 2.49c0 0.41 0.05 0.83 0.13 1.24l0.24 1.22-0.49-1.16c-0.15-0.4-0.23-0.81-0.35-1.22-0.24-0.82-0.36-1.65-0.52-2.47-0.28-1.66-0.5-3.33-0.64-5-0.33-3.34-0.45-6.69-0.52-10s0-6.69 0.14-10 0.41-6.75 0.83-10.08z"/>
   <path class="cls-6" d="m542.47 306.36c0.5 3.47 0.8 7 1 10.45s0.33 7 0.36 10.47c0 1.75 0 3.5-0.05 5.25s-0.11 3.49-0.26 5.24-0.3 3.5-0.55 5.24c-0.15 0.87-0.25 1.74-0.48 2.6-0.11 0.42-0.2 0.86-0.33 1.28l-0.5 1.22 0.25-1.28c0.06-0.43 0.07-0.87 0.11-1.3 0.09-0.85 0.09-1.73 0.12-2.6 0.05-1.73 0.05-3.47 0.05-5.2l-0.07-10.44c0-6.96-0.04-13.93 0.35-20.93z"/>
   <path class="cls-5" d="m632.13 192c-2 18.62-9.16 31.64-17.62 41.55-14.39 16.88-32.7 24.76-36.65 36a90.77 90.77 0 0 0-8.57-15.36c-8.81-11.8-26.42-20.88-32-12.71s-5.29 39.92-9.63 39.92c-4 0-3.2-10.89-6.4-29.95s-15.21-14.52-28-5.44c-9.35 6.63-17.43 19.57-21.11 26.05-3.53-6.43-12.92-16.37-22.68-25.64-6.43-6.12-13-11.95-18.22-16.28-15.21-12.71-24.82-72.61-13.61-79.87 6.37-4.13 26.73 8.77 44.28 23.84 13.3 11.42 25 24.09 27.76 31.52 6.4 17.25 38.42 55.36 52 28.14 7.27-14.54 20.93-33 34.4-48.37 11.75-13.42 23.36-24.55 30.44-28.78 24-14.53 31.21-15.44 25.61 35.38z"/>
   <path class="cls-7" d="m474.43 252.82c-3.54 4-13.65 0.11-25-6.4-6.43-6.12-13-11.95-18.22-16.28-15.21-12.71-24.82-72.61-13.61-79.87 6.37-4.13 26.73 8.77 44.28 23.84 12.7 21.07 26.12 52.89 12.55 78.71z"/>
   <path class="cls-7" d="m632.13 192c-2 18.62-9.16 31.64-17.62 41.55-17.29 12.26-39.16 25.59-44.75 19.26-11.32-21.55-3.86-47.25 6.31-67.43 11.75-13.42 23.36-24.55 30.44-28.78 24.01-14.51 31.22-15.42 25.62 35.4z"/>
   <path class="cls-6" d="m567.29 337.22a13.72 13.72 0 0 0-1.76-9.68 15.32 15.32 0 0 0-3.24-3.67c-0.64-0.53-1.32-1-2-1.48s-1.48-1-2.15-1.59a22.25 22.25 0 0 1-3.7-3.87 19.67 19.67 0 0 1-2.54-4.71 17.14 17.14 0 0 1-0.62-10.39 20.9 20.9 0 0 0 1.85 9.89 21.68 21.68 0 0 0 6.09 7.77c0.61 0.57 1.33 1 2 1.52s1.47 1 2.13 1.64a15.36 15.36 0 0 1 3.35 4.24 12.43 12.43 0 0 1 0.59 10.33z"/>
   <path class="cls-6" d="m479.51 337.22a12.43 12.43 0 0 1 0.6-10.33 15 15 0 0 1 3.35-4.24c0.66-0.61 1.43-1.11 2.12-1.64a24.87 24.87 0 0 0 2-1.52 21.71 21.71 0 0 0 6.1-7.77 20.9 20.9 0 0 0 1.85-9.89 17.14 17.14 0 0 1-0.62 10.39 19.67 19.67 0 0 1-2.54 4.71 22.62 22.62 0 0 1-3.7 3.87c-0.67 0.6-1.44 1.06-2.15 1.59s-1.36 0.95-2 1.48a15.32 15.32 0 0 0-3.24 3.67 13.72 13.72 0 0 0-1.77 9.68z"/>
   <path class="cls-8" d="m565.73 355-18.83 22.64h-0.21c-0.29 0.33-0.61 0.66-0.93 1a15.88 15.88 0 0 1-3.36 2.46l-1.23 0.39c-0.76 0.21-1.49 0.39-2.2 0.56-0.87 0.2-1.69 0.36-2.49 0.5-1.14 0.19-2.21 0.32-3.23 0.42a32.6 32.6 0 0 1-9.1-0.31 11.44 11.44 0 0 1-1.25 0.29c-0.41 0.08-0.84 0.15-1.28 0.2l-0.7 0.07c-0.43 0-0.87 0.06-1.31 0.07h-0.61a31.23 31.23 0 0 1-4.68-0.38c-0.95-0.13-1.92-0.32-2.91-0.54a51.39 51.39 0 0 1-6.66-2c-0.86-0.31-1.69-0.66-2.55-1-0.39-0.33-0.78-0.68-1.14-1.05a19.38 19.38 0 0 1-1.88-2.24l-15-17.84-1.62-1.94-2.36-2.81a35.6 35.6 0 0 1-3.9-7.38c-4.4-11-5.28-24.3-5.28-24.3h-0.17v-7-1.38-1.37-1.37c0-1.08 0.07-2.14 0.11-3.2s0.1-2.38 0.16-3.55 0.15-2.62 0.23-3.89q0.09-1.44 0.18-2.82c0-0.47 0.07-0.92 0.1-1.37 0.09-1.1 0.18-2.18 0.26-3.22 0-0.29 0-0.58 0.08-0.86s0.05-0.56 0.08-0.84 0-0.38 0.05-0.57c0-0.36 0.07-0.71 0.09-1.06 0.31-3.12 0.62-5.86 0.91-8.07a41.55 41.55 0 0 0 0.44-4.71 9.77 9.77 0 0 0-1.49-4.35c-3.54-6.42-12.93-16.37-22.69-25.64-6.45-6.11-13-11.94-18.23-16.28-15.21-12.71-24.82-72.61-13.62-79.87 6.38-4.13 26.74 8.77 44.29 23.84 13.31 11.42 25 24.09 27.76 31.52 6.4 17.24 38.43 55.37 52 28.13 7.28-14.54 20.93-33 34.4-48.35 11.75-13.43 23.36-24.55 30.44-28.79 24-14.52 31.22-15.42 25.61 35.4-2 18.62-9.16 31.64-17.61 41.55-14.39 16.88-32.7 24.76-36.65 36l-0.16 0.52c-1.33 4.26-1.31 10.1-0.7 16.81 0 0.54 0.09 1.07 0.14 1.63 0.57 6.69 1.13 14.28 1.3 22.1 0.06 2.37 0.08 4.76 0.06 7.15"/>
   <path class="cls-9" d="m503.65 376.7s3.2 16.34 16.81 18.15 21.61-13.61 21.61-16.33-5.6-9.08-5.6-9.08l-20-2.72z"/>
   <path class="cls-10" d="m510.05 379.42a12.93 12.93 0 0 0 12.81 9.08c10.41 0 14.41-7.26 14.41-7.26l-12-14.52-8.8 2.72z"/>
   <path class="cls-9" d="m523.58 368v0.62a23.06 23.06 0 0 1-0.72 6.29 22.27 22.27 0 0 1-1.42 3 9.66 9.66 0 0 1-7.16 4.93c-0.14 0-0.29 0.05-0.44 0.06a11.19 11.19 0 0 1-2 0 16.57 16.57 0 0 1-2.79-0.38 15.57 15.57 0 0 1-3.94-1.4c-0.25-0.12-0.48-0.25-0.7-0.38a14.67 14.67 0 0 1-2.19-1.55c-0.39-0.33-0.78-0.68-1.14-1.05a19.38 19.38 0 0 1-1.88-2.24c-3.43-4.82-4.77-11.44-4.3-17.4a9.93 9.93 0 0 1 3.26-6.73l0.09-0.08a16.09 16.09 0 0 1 6.28-3.31l0.65-0.17a18.93 18.93 0 0 1 3.31-0.6 125.11 125.11 0 0 0 9.17 10.08l0.12 0.11a11.66 11.66 0 0 0 3.52 2.52c0.75 0.2 1.29 1 1.65 2.17a15 15 0 0 1 0.51 2.63c0.07 0.63 0.12 1.3 0.13 2v0.09 0.44 0.09a1.48 1.48 0 0 0-0.01 0.26z"/>
   <path class="cls-10" d="m522.79 362.63a1 1 0 0 0 0.15-1.52 58 58 0 0 1-6.52-7.55c-4-5.45-10.13-10.89-11.87-6.36-1.61 4.19 13.92 17.63 18.24 15.43z"/>
   <path class="cls-9" d="m546.74 377.54-0.06 0.07c-0.29 0.33-0.61 0.66-0.93 1a15.88 15.88 0 0 1-3.36 2.46c-0.29 0.16-0.59 0.31-0.89 0.45l-0.47 0.21a15.14 15.14 0 0 1-2.86 0.89 14.12 14.12 0 0 1-2.11 0.33 13 13 0 0 1-2.86 0c-0.32-0.05-0.62-0.09-0.91-0.15a10.16 10.16 0 0 1-1.18-0.32 9.79 9.79 0 0 1-5.4-4.56 23.64 23.64 0 0 1-1.38-3 22.77 22.77 0 0 1-0.71-6.29v-0.63a1.48 1.48 0 0 1 0-0.21 0.31 0.31 0 0 1 0-0.09v-0.44-0.07c0-0.66 0.06-1.31 0.13-1.94a13.17 13.17 0 0 1 0.52-2.67c0.36-1.15 0.89-2 1.64-2.18 1.49-0.43 4.35-3.19 7-6 0.08-0.07 0.14-0.16 0.22-0.23 3-3.22 5.6-6.44 5.6-6.44a19.93 19.93 0 0 1 2.62 0.43c0.41 0.09 0.87 0.2 1.34 0.34a16.62 16.62 0 0 1 6 3.05 1.5 1.5 0 0 1 0.13 0.11 9.92 9.92 0 0 1 3.52 7c0.49 6.53-1.23 13.97-5.6 18.88z"/>
   <path class="cls-10" d="m524.36 362.63a1 1 0 0 1-0.16-1.52 58.64 58.64 0 0 0 6.53-7.55c4-5.45 10.13-10.89 11.87-6.36 1.6 4.19-13.93 17.63-18.24 15.43z"/>
   <path class="cls-6" d="m554.88 310.45a12.65 12.65 0 0 1 3.46-2.23 14.77 14.77 0 0 1 4-1.18 10.85 10.85 0 0 1 4.24 0.22 6.83 6.83 0 0 1 3.51 2.28 13.05 13.05 0 0 0-3.76-1h-0.93-0.95a15.12 15.12 0 0 0-1.88 0.18 36.71 36.71 0 0 0-3.79 0.74z"/>
   <path class="cls-6" d="m478 309.54a8.45 8.45 0 0 1 3.16-1.87 9.18 9.18 0 0 1 3.73-0.51 7.14 7.14 0 0 1 3.62 1.29 6.49 6.49 0 0 1 2.3 2.9 16.07 16.07 0 0 0-3-1.74 9.84 9.84 0 0 0-3.1-0.75 25.13 25.13 0 0 0-6.71 0.68z"/>
   <path class="cls-8" d="m499.14 376 1.86 2.2a19.38 19.38 0 0 1-1.86-2.2z"/>
   <path class="cls-8" d="m470.84 322.67v-1h0.17s0.88 13.35 5.28 24.3"/>
   <path class="cls-8" d="m484.16 358.11-1.62-1.94a10.77 10.77 0 0 1 1.62 1.94z"/>
   <path class="cls-8" d="m578.5 317.75s-0.22 1.65-0.7 4.27c-1.45 7.89-5.18 24.69-12.07 32.93"/>
   <path class="cls-11" d="m489.66 309.26a16.94 16.94 0 0 0-9.08-1.43c-3-2.91-5.12-8.13-5.32-14.18-0.33-9.44 4.11-17.31 9.92-17.55s10.77 7.18 11.1 16.63c0.25 7.55-2.53 14.08-6.62 16.53z"/>
   <ellipse class="cls-12" transform="rotate(-89.11 485.77 295.48)" cx="485.75" cy="295.49" rx="9.83" ry="8.05"/>
   <ellipse class="cls-13" transform="rotate(-89.11 485.91 296.96)" cx="485.88" cy="296.97" rx="6" ry="4.92"/>
   <ellipse class="cls-11" transform="rotate(-36.99 482 298.89)" cx="481.92" cy="298.87" rx=".61" ry=".74"/>
   <ellipse class="cls-11" transform="rotate(-22.75 482.92 293.97)" cx="482.86" cy="293.95" rx="2.21" ry="2.31"/>
   <path class="cls-11" d="m558.45 308.34a16.94 16.94 0 0 1 9.12-1.14c3.11-2.82 5.37-8 5.76-14 0.62-9.42-3.57-17.43-9.38-17.86s-11 6.85-11.6 16.29c-0.49 7.52 2.09 14.14 6.1 16.71z"/>
   <ellipse class="cls-12" transform="rotate(-89.11 562.78 294.71)" cx="562.79" cy="294.71" rx="9.83" ry="8.05"/>
   <ellipse class="cls-13" transform="rotate(-89.11 562.59 296.18)" cx="562.61" cy="296.18" rx="6" ry="4.92"/>
   <ellipse class="cls-11" transform="rotate(-51.23 566.46 298.2)" cx="566.51" cy="298.2" rx=".74" ry=".61"/>
   <ellipse class="cls-11" transform="rotate(-65.47 565.71 293.26)" cx="565.72" cy="293.25" rx="2.31" ry="2.21"/>
  </g>
 </g>
</svg>
