<?xml version="1.0" encoding="UTF-8"?>
<svg width="480.55" height="250.64" data-name="Layer 1" version="1.1" viewBox="0 0 480.55 250.64" xmlns="http://www.w3.org/2000/svg">
 <defs>
  <style>.cls-1{fill:#eaeaea;stroke-width:6.68px;}.cls-1,.cls-3,.cls-4{stroke:#000;stroke-miterlimit:10;}.cls-2{fill:#231f20;}.cls-3,.cls-4{fill:#fcfcfc;}.cls-3{stroke-width:2.17px;}.cls-4{stroke-width:0.9px;}.cls-5{fill:#efad93;}</style>
 </defs>
 <path d="m406.53 44.5h10.25v4.7h4.28v-4.7h4.83v-4.88h4.78v-9.07h-4.69v-19.92h5.28v4.79h4.86v10.24h-4.7v4.26h4.73v10.28h-4.73v4.22h14.4v9.66h9.6v10.28h-14.36v4.26h4.74v4.8h4.26v-4.71h10.26v4.71h4.84v4.85h4.81v10.22h-10.19v-14.39h-9v4.2h4.64v10.2h-5.32v-9.56h-4.27v9.57h-10.23v-9.57h-4.26v9.58h-5.37v-10.19h4.7v-4.28h-4.69v-5.4h9.55v-4.23h-9.58v-9.67h-9.67v-4.83h-9.12v4.73h-15v-10.14h10.18v4.7h4.24zm20 9.55h9v-4.23h-4.81v-4.73h-4.15zm9.66 24.2h9v-4.22h-4.77v-4.72h-4.17zm9-23.49h-9v9h4.23v-4.83h4.78z"/>
 <path d="m469.98 40.18h-29.51v-29.53h29.51zm-5.45-5.43v-18.66h-18.63v18.66z"/>
 <path d="m392.07 88.5v-29.49h29.54v29.49zm5.47-24.08v18.66h18.64v-18.66z"/>
 <path d="m392.1 40.14v-29.49h29.52v29.5zm5.41-5.41h18.68v-18.66h-18.67z"/>
 <path d="m450.15 44.49h19.81v10.17h-10.19v-4.8h-9.62z"/>
 <path d="m459.79 64.42v-5.4h10.17v10.16h-5.37v-4.76z"/>
 <path d="m460.3 20.34v10.13h-10.15v-10.13z"/>
 <path d="m411.94 78.84h-10.14v-10.15h10.14z"/>
 <path d="m401.82 20.32h10.12v10.15h-10.12z"/>
 <path d="m387.42 94.06v-11.13h-5.59v16.71h15.47v-5.58zm87.51-11.12v11.13h-10.41v5.58h16v-16.71zm-10.46-82.93v5.58h10.5v10.72h5.58v-16.3zm-82.58 0v16.3h5.53v-10.73h9.88v-5.58z"/>
 <polygon class="cls-1" transform="translate(-4.58,-29.58)" points="86.72 67.73 305.69 66.6 311.56 232.63 92.59 233.76"/>
 <path class="cls-2" d="m114.82 187.1v0.07z"/>
 <path d="m164.77 114.33h10.37l0.17 4.75h4.32l-0.16-4.76h4.89l-0.18-4.93h4.84l-0.32-9.17h-4.75l-0.71-20.12h5.34l0.17 4.83h4.91l0.36 10.34h-4.8l0.2 4.15h4.79l0.37 10.39h-4.79l0.15 4.29 14.62-0.08 0.35 9.76 9.72-0.05 0.37 10.36-14.54 0.08 0.15 4.3h4.8l0.18 4.83h4.3l-0.17-4.73 10.38-0.06 0.17 4.79h4.9l0.17 4.9h4.86l0.37 10.33-10.31 0.05-0.51-14.57-9.14 0.05 0.15 4.24h4.76l0.37 10.3h-5.38l-0.34-9.66h-4.32l0.34 9.67-10.39 0.05-0.34-9.67h-4.31l0.34 9.68h-5.44l-0.41-10.25h4.75l-0.15-4.32h-4.75l-0.19-5.46 9.66-0.05-0.15-4.31-9.69 0.05-0.34-9.74-9.79 0.05-0.17-4.88h-9.22l0.16 4.78-15.21 0.08-0.36-10.2 10.29-0.06 0.17 4.75h4.29zm20.59 9.54h9.06l-0.15-4.26h-4.86l-0.17-4.78h-4.2zm10.64 24.41 9.1-0.05-0.15-4.27h-4.88l-0.17-4.77h-4.22zm8.28-23.79-9.1 0.05 0.32 9.07h4.26l-0.17-4.86h4.84z"/>
 <path d="m228.79 109.62-29.85 0.16-1.05-29.84 29.85-0.15zm-5.7-5.45-0.67-18.85-18.84 0.09 0.67 18.85z"/>
 <path d="m151.72 158.87-1.05-29.8 29.88-0.15 1.05 29.8zm4.7-24.37 0.67 18.86 18.85-0.1-0.7-18.84z"/>
 <path d="m150.02 110-1.06-29.8 29.86-0.15 1.06 29.8zm5.28-5.5 18.89-0.09-0.66-18.86-18.89 0.1z"/>
 <path d="m208.9 114.09 20-0.1 0.37 10.27h-10.31l-0.18-4.85-9.72 0.05z"/>
 <path d="m219.36 134.15-0.19-5.43 10.29-0.05 0.36 10.26h-5.43l-0.17-4.84z"/>
 <path d="m218.29 89.63 0.36 10.23-10.23 0.06-0.36-10.24z"/>
 <path d="m171.47 149h-10.25l-0.36-10.25 10.25-0.06z"/>
 <path d="m159.14 89.92h10.23l0.37 10.26h-10.24z"/>
 <path d="m147.25 164.51-0.39-11.25h-5.65l0.6 16.89 15.64-0.09-0.2-5.64zm88.17-11.7 0.4 11.24-10.56 0.05 0.2 5.64 16.21-0.08-0.6-16.88zm-13.64-83.74 0.21 5.64 10.62-0.06 0.38 10.83h5.65l-0.58-16.47zm-83.53 0.43 0.58 16.46h5.65l-0.39-10.82h10l-0.2-5.64z"/>
 <path class="cls-3" d="m307.29 29.94-231.76 1.2a13.15 13.15 0 0 0-13.18 13.71l5.41 152.92a14.15 14.15 0 0 0 14.14 13.57l231.77-1.2a13.16 13.16 0 0 0 13.17-13.72l-5.42-152.91a14.15 14.15 0 0 0-14.13-13.57zm-229 101.07a0.74 0.74 0 0 1 0.74-0.78 0.79 0.79 0 0 1 0.79 0.77 0.73 0.73 0 0 1-0.74 0.77 0.79 0.79 0 0 1-0.79-0.76zm0.46-6.93a2.46 2.46 0 0 1-2.46-2.35 2.29 2.29 0 0 1 2.29-2.39 2.47 2.47 0 0 1 2.46 2.36 2.29 2.29 0 0 1-2.29 2.38zm217.91-84.61 5.7 161.37-209.83 1.09-5.7-161.37z"/>
 <path class="cls-4" d="m305.32 31.87-227.63 1.18a12.9 12.9 0 0 0-12.91 13.44l5.29 149.61a13.87 13.87 0 0 0 13.86 13.32l227.62-1.17a12.91 12.91 0 0 0 12.92-13.44l-5.29-149.63a13.89 13.89 0 0 0-13.86-13.31zm-226.24 99.9a0.79 0.79 0 0 1-0.79-0.76 0.74 0.74 0 0 1 0.74-0.78 0.79 0.79 0 0 1 0.79 0.77 0.73 0.73 0 0 1-0.74 0.77zm-0.33-7.69a2.46 2.46 0 0 1-2.46-2.35 2.29 2.29 0 0 1 2.29-2.39 2.47 2.47 0 0 1 2.46 2.36 2.29 2.29 0 0 1-2.29 2.38zm223.61 76.76-209.83 1.09-5.7-161.37 209.83-1.09z"/>
 <ellipse class="cls-4" transform="rotate(-77.71)" cx="-50.593" cy="329.52" rx="6.73" ry="7.19"/>
 <path class="cls-5" d="m94.12 133.2c-8.81 11.41-9.83 13-9.83 13s10.51 23.43-6.34 34.62c0.43 11.09 1.64 53.74-4.63 68.78l-69.9-0.41s39.73-40.77 39.82-61.35-24.82-57.5-12.82-87.32 32.1-41.29 32.1-41.29l2.09 59.05c7-9.82 18.16-22.63 28.18-22.68 16.25-0.09 10.13 26.19 1.33 37.6z"/>
 <path d="m60.52 186.42a48.51 48.51 0 0 0 13.82-3.68 22.4 22.4 0 0 0 10.3-9.07 23.94 23.94 0 0 0 2.65-13.34 41.32 41.32 0 0 0-1.08-6.91 42.77 42.77 0 0 0-2.18-6.59l-0.33-0.74 0.43-0.64c0.39-0.61 0.7-1 1.05-1.53l1-1.43 2.08-2.83 4.24-5.6a42.55 42.55 0 0 0 3.86-5.58 49.52 49.52 0 0 0 2.9-6.11 42.82 42.82 0 0 0 3.1-13.08 19.74 19.74 0 0 0-0.58-6.42 7.73 7.73 0 0 0-3.3-4.71 7.59 7.59 0 0 0-2.77-1 10.8 10.8 0 0 0-3.11-0.08 17.58 17.58 0 0 0-6.13 2 48 48 0 0 0-10.69 8.34 141.2 141.2 0 0 0-17.28 21.9 120.75 120.75 0 0 1 7.24-12 98.34 98.34 0 0 1 8.68-11.2 47.18 47.18 0 0 1 10.93-9.25 19.55 19.55 0 0 1 7-2.53 13.63 13.63 0 0 1 3.88 0 10.27 10.27 0 0 1 3.8 1.29 10.73 10.73 0 0 1 4.75 6.33 21.43 21.43 0 0 1 0.79 7.46 45.75 45.75 0 0 1-3.23 14.11 48.82 48.82 0 0 1-3.14 6.52c-0.6 1.05-1.26 2.07-2 3.07s-1.45 1.91-2.16 2.84l-4.28 5.54-2.12 2.76-1 1.39-1 1.33 0.1-1.38a45.38 45.38 0 0 1 2.21 7.16 40 40 0 0 1 0.92 7.4c0.15 5-0.76 10.18-3.51 14.47a21.24 21.24 0 0 1-5.06 5.54 26.83 26.83 0 0 1-6.49 3.55 44 44 0 0 1-14.29 2.7z"/>
 <path d="m64.61 118.28q-0.82-14.76-1.52-29.51l-1.42-29.51 1.28 0.72a62.61 62.61 0 0 0-10.32 8.44 90 90 0 0 0-8.74 10.16 98.47 98.47 0 0 0-12.66 23.53 47.37 47.37 0 0 0-2.57 12.88 66.94 66.94 0 0 0 0.69 13.25c1.27 8.82 3.92 17.42 6.75 26l4.32 12.84a116.46 116.46 0 0 1 3.63 13.28 38.69 38.69 0 0 1 0.79 7 26.18 26.18 0 0 1-1 7.15 62.32 62.32 0 0 1-5.64 12.74 176 176 0 0 1-15.68 22.49c-5.7 7.11-11.71 13.91-18 20.48l-1.1-2.5c11.65 0.13 23.3 0.23 35 0.43l34.94 0.52-0.9 0.6a47.59 47.59 0 0 0 2.38-8.45l0.43-2.19 0.33-2.2c0.23-1.47 0.44-2.95 0.59-4.43 0.71-5.92 1.14-11.89 1.42-17.87s0.39-12 0.42-18 0-12-0.16-18c0.38 6 0.67 12 0.79 18s0.18 12 0.08 18-0.36 12-0.93 18c-0.12 1.5-0.31 3-0.52 4.49l-0.3 2.24-0.39 2.24a49.44 49.44 0 0 1-2.35 8.87l-0.21 0.59h-0.69l-34.95 0.08h-34.94-3.46l2.42-2.48c6.18-6.51 12.08-13.36 17.7-20.38a172.54 172.54 0 0 0 15.29-22.09 60.43 60.43 0 0 0 5.32-12.05 23.15 23.15 0 0 0 0.93-6.22 36.72 36.72 0 0 0-0.72-6.46 112.12 112.12 0 0 0-3.5-12.9l-4.26-12.88c-2.84-8.62-5.43-17.43-6.68-26.56a69.41 69.41 0 0 1-0.59-13.83 47.55 47.55 0 0 1 2.9-13.61 100.88 100.88 0 0 1 13.38-23.93 92.46 92.46 0 0 1 9.14-10.24 63.43 63.43 0 0 1 10.82-8.53l1.25-0.75v1.47l0.66 29.54q0.36 14.76 0.55 29.54z"/>
 <path class="cls-5" d="m296.42 132.16c9.61 11.31 10.75 12.93 10.75 12.93s-8.85 23.53 8.79 34.54c0.35 11.09 2.15 53.74 9.49 68.71l69.83-1.17s-42.59-40.36-44.13-60.92 20.71-57.73 6.66-87.42-35-40.94-35-40.94l2.08 59.05c-7.74-9.74-19.75-22.44-29.77-22.38-16.32 0.08-8.36 26.28 1.3 37.6z"/>
 <path d="m332.79 127.91a156 156 0 0 0-18.63-21.49 69.55 69.55 0 0 0-5.37-4.53 38 38 0 0 0-5.81-3.75 19.6 19.6 0 0 0-6.29-2.13 9.81 9.81 0 0 0-6 1 7.1 7.1 0 0 0-3.1 4.85 19.73 19.73 0 0 0-0.08 6.56 45 45 0 0 0 4.12 13.09 52.13 52.13 0 0 0 3.34 6 48.73 48.73 0 0 0 4.25 5.49l4.58 5.49 2.25 2.78 1.13 1.41c0.38 0.49 0.71 0.9 1.14 1.49l0.45 0.61-0.27 0.75a38.6 38.6 0 0 0-1.73 6.79 40.3 40.3 0 0 0-0.57 7 29.27 29.27 0 0 0 0.93 6.92 22.68 22.68 0 0 0 2.82 6.34 24.43 24.43 0 0 0 10.82 8.84 50.39 50.39 0 0 0 14 3.54 45.9 45.9 0 0 1-14.44-2.5 29 29 0 0 1-6.65-3.39 23 23 0 0 1-5.39-5.31 23.52 23.52 0 0 1-3.39-6.82 30.69 30.69 0 0 1-1.28-7.48 38.65 38.65 0 0 1 0.36-7.53 42.52 42.52 0 0 1 1.73-7.39l0.18 1.36-1.06-1.31-1.14-1.36-2.3-2.72-4.61-5.43a51.36 51.36 0 0 1-4.51-5.77 50.6 50.6 0 0 1-3.6-6.42 48.39 48.39 0 0 1-4.25-14.04 21.89 21.89 0 0 1 0.22-7.64 10.07 10.07 0 0 1 4.61-6.67 10.86 10.86 0 0 1 3.91-1.26c0.66-0.09 1.31-0.09 2-0.12l2 0.16a22.19 22.19 0 0 1 7.1 2.64 51.86 51.86 0 0 1 11.34 9.11 106.18 106.18 0 0 1 9.28 11 131.1 131.1 0 0 1 7.91 11.84z"/>
 <path d="m315.83 176.97c0.26 6 0.68 12 1.12 18s1 12 1.7 18 1.55 11.94 2.69 17.83c0.25 1.48 0.57 2.94 0.9 4.4 0.17 0.73 0.31 1.47 0.49 2.19l0.58 2.16a50.55 50.55 0 0 0 2.95 8.34l-0.84-0.47 34.91-0.88 17.46-0.42 17.46-0.37-1 2.52c-6.68-6.39-13.07-13-19.18-19.92a195 195 0 0 1-17-21.88 69.16 69.16 0 0 1-6.65-12.45 26.4 26.4 0 0 1-1.83-7 36 36 0 0 1 0.09-7.2 104.5 104.5 0 0 1 2.68-13.71c1.12-4.48 2.35-8.9 3.5-13.32 2.28-8.84 4.36-17.73 5-26.74s-0.43-18.09-4.09-26.23a108.47 108.47 0 0 0-14.35-23.11 99.21 99.21 0 0 0-9.35-9.88 68.23 68.23 0 0 0-10.76-8.19l1.26-0.78 0.66 29.54q0.35 14.76 0.57 29.54-0.81-14.76-1.51-29.51l-1.42-29.51-0.07-1.5 1.33 0.76a68.72 68.72 0 0 1 11.29 8.24 99.06 99.06 0 0 1 9.72 9.93 110.57 110.57 0 0 1 15 23.34c4.05 8.58 5.2 18.25 4.6 27.53s-2.56 18.43-4.86 27.33c-1.15 4.46-2.36 8.88-3.46 13.3a101.9 101.9 0 0 0-2.56 13.28 33.23 33.23 0 0 0-0.07 6.53 23.88 23.88 0 0 0 1.65 6.22 65.74 65.74 0 0 0 6.29 11.84 193.63 193.63 0 0 0 16.69 21.53c6 6.83 12.31 13.52 18.84 19.86l2.56 2.48-3.54 0.05-17.46 0.21-17.46 0.17-34.93 0.29h-0.64l-0.24-0.54a52.13 52.13 0 0 1-2.94-8.73l-0.55-2.22c-0.17-0.74-0.31-1.49-0.46-2.23-0.31-1.49-0.61-3-0.84-4.47-1-6-1.68-12-2.21-18s-0.92-12-1.21-18.07-0.46-12.05-0.51-18.08z"/>
</svg>
