<?xml version="1.0" encoding="UTF-8"?>
<!-- Created with Inkscape (http://www.inkscape.org/) -->
<svg width="4.8708mm" height="4.8712mm" version="1.1" viewBox="0 0 4.8708 4.8712" xmlns="http://www.w3.org/2000/svg">
 <g transform="translate(-84.49 -187.8)">
  <path d="m88.762 192.43h-3.6721c-0.19791 0-0.35948-0.16193-0.35948-0.35948v-3.6721c0-0.1979 0.16157-0.35983 0.35948-0.35983h3.6721c0.19791 0 0.35948 0.16193 0.35948 0.35983v3.6721c0 0.19755-0.16157 0.35948-0.35948 0.35948m0.09278-4.6313h-3.8576c-0.2794 0-0.50659 0.22754-0.50659 0.50694v3.8576c0 0.2794 0.22719 0.50659 0.50659 0.50659h3.8576c0.2794 0 0.50659-0.22719 0.50659-0.50659v-3.8576c0-0.2794-0.22719-0.50694-0.50659-0.50694" fill="#fff"/>
  <path d="m89.122 188.4c0-0.1979-0.16192-0.35948-0.35948-0.35948h-3.6721c-0.19791 0-0.35983 0.16158-0.35983 0.35948v3.6721c0 0.19791 0.16192 0.35948 0.35983 0.35948h3.6721c0.19756 0 0.35948-0.16157 0.35948-0.35948z" fill="#2c5135"/>
  <path d="m88.903 191.38h-3.53e-4c-0.37042 0.10195-0.63218 0.12347-0.83961 0.13123-0.19403 7e-3 -0.6417 0.0173-0.92957 0.0173-0.15099 0-0.29351-0.0106-0.44415-0.0215-0.17639-0.0127-0.35878-0.0261-0.5581-0.0215-0.10936 2e-3 -0.23107 9e-3 -0.35948 0.0166-0.22049 0.0123-0.4699 0.0264-0.76659 0.0264-0.03881 0-0.07056-0.0317-0.07056-0.0709s0.0314-0.0709 0.07056-0.0709c0.29245 0 0.5401-0.0138 0.75882-0.0261 0.12982-7e-3 0.25224-0.0141 0.36407-0.0166 0.20532-5e-3 0.39158 8e-3 0.5715 0.0219 0.14817 0.0106 0.28822 0.0208 0.43392 0.0208 0.26035 0 0.71049-9e-3 0.92428-0.0169 0.19932-7e-3 0.45085-0.0282 0.80786-0.12629 0.03775-0.0106 0.07655 0.0116 0.08678 0.0494 0.01058 0.0378-0.01164 0.0769-0.04939 0.0871" fill="#2c5135"/>
  <g fill="#fff">
   <path d="m88.368 189.64c0.09313-0.01 0.16051-0.0935 0.15064-0.18662-0.0099-0.0931-0.09384-0.16087-0.18697-0.15064-0.09313 0.01-0.16051 0.0935-0.15064 0.18662 0.01023 0.0931 0.09384 0.16052 0.18697 0.15064"/>
   <path d="m88.865 191.25c-0.35666 0.0981-0.60854 0.11889-0.80751 0.12629-0.21378 8e-3 -0.66428 0.0169-0.92428 0.0169-0.14605 0-0.2861-0.0102-0.43427-0.0208-0.17992-0.0131-0.36583-0.0265-0.5715-0.0219-0.11183 2e-3 -0.23424 0.01-0.36407 0.0166-0.21837 0.0123-0.46602 0.0261-0.75847 0.0261-0.03916 3.5e-4 -0.07091 0.0317-0.07091 0.0709s0.03175 0.0709 0.07091 0.0709c0.29633 0 0.5461-0.0141 0.76623-0.0264 0.12876-7e-3 0.25012-0.0138 0.35948-0.0166 0.19932-5e-3 0.3817 9e-3 0.55809 0.0215 0.15099 0.0113 0.29351 0.0215 0.4445 0.0215 0.28787 0 0.73519-0.01 0.92922-0.0173 0.20743-8e-3 0.46919-0.0293 0.83996-0.13124 0.03775-0.0102 0.05997-0.0494 0.04974-0.0868-0.01058-0.0377-0.04939-0.06-0.08714-0.0497"/>
   <path d="m88.659 190.95c-0.02716 0.0258-0.06138 0.0413-0.09737 0.0455l0.01905 0.066c0.01482 0.0501 0.06033 0.0825 0.11007 0.0825 0.01058 0 0.02152-1e-3 0.0321-4e-3 0.06068-0.0176 0.0956-0.0815 0.07796-0.14217l-0.0381-0.13123z"/>
   <path d="m87.866 191.07c-0.02469 0.0582 0.0021 0.12559 0.06032 0.15029 0.01482 6e-3 0.02999 9e-3 0.04516 9e-3 0.04445 0 0.08678-0.0261 0.10513-0.0695l0.11077-0.25964-0.22296-0.061z"/>
   <path d="m88.747 190.6 0.02822 0.0977c7.06e-4 2e-3 0.0014 4e-3 0.0025 6e-3l-0.19403 0.15593c-0.0011 7.1e-4 -0.0018 1e-3 -0.0025 2e-3 -0.01341 0.0138-0.03281 0.0197-0.05151 0.0159l-0.4505-0.12276zm0.14958-0.0889c0.01658 0.0106 0.02611 0.0286 0.02611 0.048 0 0.0176-0.0078 0.0342-0.02187 0.0452l-0.07655 0.0617-0.07232-0.25012zm-3.8661 0.72778c0.01446 6e-3 0.02963 9e-3 0.0448 9e-3 0.04445 0 0.08678-0.0261 0.10548-0.0695l0.13159-0.30903c0.0046-0.0102 0.0074-0.0212 0.0085-0.0325l0.0314-0.28011 0.18274 0.22931 0.03881 0.33796c0.0071 0.0582 0.05644 0.10124 0.11395 0.10124 0.0042 0 0.0088 0 0.01305-7e-4 0.06315-7e-3 0.10795-0.0642 0.10089-0.127l-0.04304-0.37042c-0.0025-0.0215-0.01094-0.0416-0.02434-0.0586l-0.23954-0.30021 0.02364-0.20885 0.11994-0.0399c0.04057-0.0134 0.0628-0.0575 0.04939-0.0984-0.0011-3e-3 -0.0021-6e-3 -0.0035-9e-3l0.10442-0.11006 0.20461 0.21801c0 1e-3 0 3e-3 3.53e-4 5e-3l0.04762 0.19297c0.0078 0.0314 0.02364 0.0603 0.04586 0.084l0.43639 0.46531c0.0074-0.018 0.01693-0.0353 0.02787-0.0515l-0.42375-0.45191c-0.01552-0.0166-0.02681-0.0374-0.0321-0.0593l-0.02505-0.1016 0.47554 0.50695c7.05e-4 7e-4 0.0014 1e-3 0.0021 2e-3 0.01305 0.0113 0.03069 0.0155 0.04727 0.0109l0.62442-0.14464c0.0011 0 0.0025 0 0.0035 3.5e-4l0.62759 0.1711-0.74612 0.17286c0.0039 0.018 6e-3 0.0367 0.0067 0.0557l0.85302-0.19756 0.55104 0.15064c7.05e-4 0 0.0014 3.5e-4 0.0018 3.5e-4 0.0078 2e-3 0.01552 2e-3 0.02328 2e-3 0.02928 0 0.0575-0.0116 0.07902-0.0325l0.31609-0.254c0.02716-0.0215 0.04304-0.054 0.04304-0.0889 0-0.0385-0.0194-0.0741-0.0515-0.0949l-0.37677-0.24765c7.05e-4 -3e-3 0.0014-6e-3 0.0018-9e-3 0.0049-0.0427-0.0254-0.0815-0.06844-0.0864l-0.06632-8e-3 0.02646-0.23566c0.01094-0.096-0.05821-0.18239-0.15381-0.19332-0.0755-8e-3 -0.14464 0.0321-0.17639 0.0963-3.53e-4 7e-4 -7.06e-4 1e-3 -0.0011 2e-3l-0.16051 0.32844c-0.01129 0.0229-0.01058 0.0494 0.0014 0.0716 0.01199 0.0222 0.03422 0.0374 0.05927 0.0402l0.03986 5e-3 -0.0099 0.0893c-0.0011 4e-3 -0.0014 7e-3 -0.0018 0.0113l-0.03669 0.32632 0.23671-0.0547 0.0071-0.0628 0.05891 0.0473 0.28399-0.0656-0.20108-0.16157 0.0099-0.0889 0.06597 8e-3c0.0032 3.5e-4 6e-3 3.5e-4 0.0092 3.5e-4 0.01623 0 0.0314-5e-3 0.0441-0.0138l0.16087 0.10619 0.05151 0.1778-0.76588 0.17709-0.72743-0.19861c-0.01023-3e-3 -0.02081-3e-3 -0.03105-7.1e-4l-0.62371 0.14429-0.75636-0.80645 0.03175-0.0335c0.0042-5e-3 0.0067-0.01 0.0078-0.0159l0.02469-0.19967c0.0018-0.0152-0.0092-0.0293-0.02434-0.0311-0.01517-2e-3 -0.02928 9e-3 -0.03104 0.0243l-0.02364 0.1905-0.16863 0.17745c-0.01658-7e-3 -0.03563-8e-3 -0.05433-2e-3l-0.0515 0.0169 0.01058-0.0953c0.01094-0.096-0.05821-0.18239-0.15381-0.19332-0.08502-0.01-0.16298 0.0437-0.18697 0.12276l-0.11112 0.34537c-0.0088 0.0279-0.0014 0.0586 0.0194 0.079 0.01094 0.0109 0.02434 0.018 0.03845 0.0208l-0.0071 0.0646c-7.06e-4 4e-3 -0.0014 7e-3 -0.0018 0.0113l-0.05045 0.45085-0.12524 0.29351c-0.02469 0.0582 0.0025 0.12559 0.06068 0.15028"/>
   <path d="m86.941 190.99c0 0.0748-0.06103 0.13582-0.13582 0.13582-0.07479 0-0.13582-0.061-0.13582-0.13582 0-0.0748 0.06103-0.13582 0.13582-0.13582s0.13582 0.061 0.13582 0.13582m-0.38312 0c0 0.13652 0.11077 0.24729 0.2473 0.24729s0.24765-0.11077 0.24765-0.24729c0-0.13653-0.11112-0.2473-0.24765-0.2473s-0.2473 0.11077-0.2473 0.2473"/>
   <path d="m86.464 189.73h-0.1457l-0.02857 0.061c-0.01199 0.0261-0.03845 0.043-0.06738 0.043h-0.06279c0.03493 0.0455 0.09172 0.0727 0.15275 0.066 0.08784-0.01 0.1524-0.0836 0.15169-0.17004"/>
   <path d="m86.296 189.98c-0.07055 0.066-0.07408 0.17639-0.0081 0.24695l0.27693 0.29562c0.03457 0.0367 0.08079 0.055 0.12771 0.055 0.0056 0 0.01164-3.6e-4 0.02575-2e-3 0.0014 0 0.502-0.11606 0.502-0.11606l0.28998 0.078c0.06138 0.0166 0.12418-0.0197 0.1404-0.0808 0.01658-0.061-0.01976-0.12383-0.08079-0.14041l-0.31785-0.0854c-0.01799-5e-3 -0.03704-5e-3 -0.05539-1e-3l-0.35066 0.0811-0.0635-0.0677 0.20285-0.0469c0.04163-0.01 0.06773-0.0515 0.05821-0.0935-0.0095-0.0416-0.05151-0.0677-0.09349-0.0582l-0.29069 0.0674-0.11642-0.12417c-0.06597-0.0706-0.17639-0.0741-0.24694-8e-3"/>
   <path d="m86.101 189.8h0.12065c0.0127 0 0.02399-7e-3 0.02963-0.0187l0.03069-0.0667c0.0056-0.0113 0.01693-0.0187 0.02963-0.0187h0.17956c-0.02011-0.0917-0.10125-0.1584-0.1972-0.1584-0.0071 0-0.01446 3.5e-4 -0.02187 1e-3 -0.11077 0.012-0.19121 0.11183-0.17921 0.2226 0.0014 0.0134 0.0042 0.0265 0.0081 0.0388"/>
   <path d="m85.476 189.66c0.09313-0.01 0.16051-0.0935 0.15064-0.18697-0.0099-0.0931-0.09384-0.16052-0.18697-0.15029-0.09313 0.01-0.16051 0.0935-0.15064 0.18662 0.01023 0.0931 0.09384 0.16052 0.18697 0.15064"/>
   <path d="m88.547 190.81 0.16334-0.13123-0.0035-0.0127-0.22366 0.0519 0.02611 0.0896 0.03105 8e-3c0.0021-2e-3 0.0042-4e-3 0.0067-6e-3"/>
  </g>
 </g>
</svg>
