<?xml version="1.0" encoding="UTF-8"?>
<svg width="40" height="55.582" version="1.1" viewBox="0 0 200 277.91" xmlns="http://www.w3.org/2000/svg">
 <defs>
  <style>.cls-1{isolation:isolate;}.cls-2,.cls-3,.cls-4{fill:#2db34a;}.cls-3,.cls-5{opacity:0.5;mix-blend-mode:multiply;}.cls-10,.cls-4{mix-blend-mode:screen;}.cls-10,.cls-5{fill:#f79033;}.cls-6{fill:#72bf44;}.cls-7{fill:url(#linear-gradient);}.cls-8{fill:#ad5726;}.cls-9{fill:#5d2e10;}</style>
  <linearGradient id="linear-gradient" x1="11.65" x2="204.63" y1="203.98" y2="203.98" gradientUnits="userSpaceOnUse">
   <stop stop-color="#b6d435" offset="0"/>
   <stop stop-color="#31b34a" offset="1"/>
  </linearGradient>
 </defs>
 <g class="cls-1" transform="matrix(.91697 0 0 .91697 0 -.0034967)">
  <g data-name="Layer 2">
   <g data-name="Layer 1">
    <path class="cls-2" d="m64.62 139.44-5.34-10.32c-14.9-28.78-12.53-72.43 12.85-85.56l6.68-3.46c25.39-13.1 62.39 10.13 77.29 38.9l5.34 10.32 27.13-14-13.13-25.4c-9.86-19-27.5-34.85-48.39-43.35-22.46-9.13-45.3-8.73-64.34 1.12l-7.74 4c-19.04 9.86-32.55 28.31-38.06 51.89-5.13 22-2.41 45.49 7.45 64.54l13.13 25.36z"/>
    <path class="cls-3" d="m127.05 6.57c-1.92-0.77-3.83-1.48-5.75-2.12a16.3 16.3 0 0 1 3.75 4.23 16.3 16.3 0 0 1 1 14.52c-1.88 4.23-5.8 6.26-10.28 6.6-3.19 0.24-6.27-0.3-9.44-0.56a54.79 54.79 0 0 0-10.79 0.13 60 60 0 0 0-20.13 6c-11.35 5.71-21.34 14.63-27.15 26.05-5.38 10.58-7.26 22.58-6.92 34.35 0.23 8.19 3 16.51 1 24.69-0.8 3.4-2.71 6.57-6.28 7.55a11.4 11.4 0 0 1-10.7-2.46 24.72 24.72 0 0 1-4.7-5.53 85.54 85.54 0 0 0 3.65 8.1l13.13 25.36 27.13-14-5.34-10.32c-14.9-28.78-12.53-72.43 12.85-85.56l6.68-3.46c25.44-13.14 62.44 10.09 77.34 38.86l5.34 10.32 27.13-14-13.13-25.4c-9.86-19.04-27.5-34.85-48.39-43.35z"/>
    <path class="cls-4" d="m22.47 116.21s-24.08-74.83 48.81-109.21c0 0-61.1 37.57-48.81 109.21z"/>
    <rect class="cls-5" x="23.9" y="121.92" width="30.55" height="10.25"/>
    <path class="cls-2" d="m217.5 135.75a11.18 11.18 0 0 0-3.29-4.54 16.75 16.75 0 0 0-7-2.88h-197.16a13.27 13.27 0 0 0-7.1 3 8.76 8.76 0 0 0-2.86 5.51c0 0.33 0 0.75-0.09 1.16v42.21c0 161.79 218.11 165.84 218.11 0v-42.36a14 14 0 0 0-0.61-2.1z"/>
    <path class="cls-6" d="m213 138.2a10.45 10.45 0 0 0-3.16-4.2 16.36 16.36 0 0 0-6.74-2.67h-189.4a12.86 12.86 0 0 0-6.81 2.83 8 8 0 0 0-2.76 5.09c0 0.31 0 0.7-0.08 1.08v39.07c0 149.75 209.51 153.5 209.51 0v-39.26a13.52 13.52 0 0 0-0.56-1.94z"/>
    <path class="cls-7" d="m204.08 140.86a8.9 8.9 0 0 0-2.9-3.59 15.84 15.84 0 0 0-6.18-2.27h-174.46a12.43 12.43 0 0 0-6.28 2.41 6.71 6.71 0 0 0-2.54 4.34c0 0.27 0 0.6-0.07 0.92v33.33c0 127.68 193 130.88 193 0v-33.49a9.68 9.68 0 0 0-0.57-1.65z" fill="url(#linear-gradient)"/>
    <path class="cls-8" d="m134.78 183.18c0-13.42-11.53-24.31-25.72-24.31s-25.73 10.89-25.73 24.31c0 10.28 6.76 19 16.31 22.6l-18.54 55.51h53.66l-16.82-55.29c9.82-3.45 16.84-12.35 16.84-22.82z"/>
    <path class="cls-8" d="m90.34 183.18c0-12.3 9.67-22.46 22.21-24.08a28.68 28.68 0 0 0-3.49-0.23c-14.21 0-25.73 10.89-25.73 24.31 0 10.28 6.76 19 16.31 22.6l-18.54 55.51h7l18.54-55.51c-9.54-3.56-16.3-12.32-16.3-22.6z"/>
    <path class="cls-9" d="m134.78 183.18c0-12.3-9.68-22.46-22.23-24.08-12.54 1.62-22.21 11.78-22.21 24.08 0 10.28 6.76 19 16.3 22.6l-18.54 55.51h46.66l-16.82-55.29c9.82-3.45 16.84-12.35 16.84-22.82z"/>
    <path class="cls-10" d="m18.34 144.28s-2.55 6.5 0.39 12.2 35.51-2.74 34.73-10.48-30.23-13.52-35.12-1.72z"/>
    <path class="cls-10" d="m17.54 171.81a25.64 25.64 0 0 0 0.2 10.88c1.46 5.08 17.66-2.45 17.27-9.34s-15.01-12.07-17.47-1.54z"/>
   </g>
  </g>
 </g>
</svg>
