<?xml version="1.0" encoding="UTF-8"?>
<svg width="55" height="67" fill="none" version="1.1" viewBox="0 0 55 67" xmlns="http://www.w3.org/2000/svg">
 <rect x=".75" y=".68" width="53.5" height="65.64" rx="9.5" fill="#eaeaea" stroke="#003349"/>
 <g transform="translate(.87045 .61324)">
  <path d="m19.04 30.82-0.9122-1.763c-2.5454-4.9164-2.1405-12.373 2.1951-14.616l1.1411-0.5911c4.3373-2.2378 10.658 1.7305 13.203 6.6452l0.9122 1.7629 4.6345-2.3916-2.2429-4.339c-1.6844-3.2457-4.6978-5.9533-8.2664-7.4054-3.8367-1.5596-7.7384-1.4913-10.991 0.19133l-1.3222 0.68331c-3.2526 1.6843-5.5604 4.8361-6.5017 8.8642-0.8763 3.7582-0.4117 7.7709 1.2727 11.025l2.2429 4.3322z" fill="#2db34a"/>
  <g opacity=".5" style="mix-blend-mode:multiply">
   <path d="m29.704 8.1222c-0.328-0.13153-0.6543-0.25282-0.9823-0.36215 0.254 0.20172 0.4708 0.44626 0.6407 0.7226 0.2187 0.37194 0.3479 0.78962 0.3776 1.2201 0.0296 0.43041-0.0412 0.86191-0.2068 1.2603-0.3212 0.7226-0.9908 1.0694-1.7561 1.1275-0.545 0.041-1.0711-0.0513-1.6126-0.0957-0.6137-0.0532-1.2311-0.0458-1.8433 0.0222-1.1976 0.1368-2.3617 0.4838-3.4387 1.025-1.9389 0.9754-3.6455 2.4992-4.638 4.45-0.919 1.8074-1.2402 3.8573-1.1821 5.868 0.0393 1.399 0.5125 2.8203 0.1708 4.2177-0.1366 0.5808-0.4629 1.1223-1.0728 1.2897-0.3154 0.0895-0.6483 0.0979-0.9678 0.0244-0.3196-0.0734-0.6154-0.2264-0.86-0.4446-0.3127-0.2737-0.5832-0.592-0.8029-0.9447 0.1837 0.4717 0.3918 0.9336 0.6235 1.3837l2.243 4.3322 4.6345-2.3916-0.9122-1.7629c-2.5453-4.9164-2.1405-12.373 2.1951-14.616l1.1412-0.5911c4.3458-2.2446 10.666 1.7237 13.212 6.6384l0.9123 1.7629 4.6345-2.3916-2.243-4.339c-1.6843-3.2525-4.6977-5.9533-8.2663-7.4053z" fill="#2db34a"/>
  </g>
  <g style="mix-blend-mode:screen">
   <path d="m11.839 26.852s-4.1135-12.783 8.3381-18.656c0 0-10.438 6.418-8.3381 18.656z" fill="#2db34a"/>
  </g>
  <g opacity=".5" style="mix-blend-mode:multiply">
   <path d="m17.302 27.827h-5.2193v1.7512h5.2193z" fill="#f79033"/>
  </g>
  <path d="m45.155 30.19c-0.1184-0.3021-0.3118-0.569-0.562-0.7756-0.3558-0.2531-0.7649-0.4214-1.1958-0.492h-33.68c-0.44609 0.0471-0.86819 0.2254-1.2129 0.5125-0.2723 0.2436-0.44607 0.5784-0.48857 0.9413 0 0.0563 0 0.1281-0.01537 0.1981v7.2106c0 27.638 37.259 28.33 37.259 0v-7.2362c-0.0253-0.1221-0.0601-0.2421-0.1042-0.3587z" fill="#2db34a"/>
  <path d="m44.387 30.608c-0.1158-0.2813-0.3017-0.5283-0.5398-0.7175-0.3448-0.2362-0.7383-0.3921-1.1514-0.4561h-32.355c-0.42669 0.0441-0.8311 0.2121-1.1634 0.4834-0.26021 0.2208-0.4284 0.531-0.47148 0.8695 0 0.053 0 0.1196-0.01367 0.1845v6.6742c0 25.581 35.79 26.222 35.79 0v-6.7066c-0.0236-0.1127-0.0556-0.2235-0.0957-0.3314z" fill="#72bf44"/>
  <path d="m42.862 31.063c-0.1084-0.2445-0.2793-0.456-0.4954-0.6133-0.3209-0.2018-0.6806-0.3339-1.0558-0.3878h-29.802c-0.3886 0.036-0.7598 0.1785-1.0728 0.4117-0.2353 0.1816-0.3908 0.4474-0.4339 0.7414 0 0.0461 0 0.1025-0.01195 0.1572v5.6936c0 21.811 32.97 22.358 32.97 0v-5.721c-0.0239-0.0967-0.0565-0.191-0.0973-0.2818z" fill="url(#paint0_linear_706:3294)"/>
  <path d="m31.024 38.292c0-2.2925-1.9696-4.1528-4.3937-4.1528-2.424 0-4.3954 1.8603-4.3954 4.1528 0 1.7561 1.1548 3.2457 2.7862 3.8607l-3.1671 9.4826h9.1666l-2.8733-9.4451c1.6775-0.5893 2.8767-2.1097 2.8767-3.8982z" fill="#ad5726"/>
  <path d="m23.432 38.292c0-2.1012 1.6519-3.8368 3.7941-4.1135-0.1977-0.0253-0.3968-0.0384-0.5962-0.0393-2.4274 0-4.3954 1.8603-4.3954 4.1528 0 1.7561 1.1548 3.2457 2.7862 3.8607l-3.1671 9.4826h1.1958l3.1671-9.4826c-1.6297-0.6082-2.7845-2.1046-2.7845-3.8607z" fill="#ad5726"/>
  <path d="m31.024 38.292c0-2.1012-1.6536-3.8368-3.7975-4.1135-2.1422 0.2767-3.7941 2.0123-3.7941 4.1135 0 1.7561 1.1548 3.2457 2.7845 3.8607l-3.1671 9.4826h7.9708l-2.8733-9.445c1.6775-0.5894 2.8767-2.1097 2.8767-3.8983z" fill="#5d2e10"/>
  <g fill="#f79033" style="mix-blend-mode:screen">
   <path d="m11.133 31.647s-0.4356 1.1105 0.0666 2.0843c0.5023 0.9738 6.0667-0.4681 5.9334-1.7905-0.1332-1.3223-5.1646-2.3098-6-0.2938z"/>
   <path d="m10.996 36.35c-0.1217 0.6149-0.1101 1.2488 0.0342 1.8588 0.2494 0.8679 3.0171-0.4186 2.9504-1.5957-0.0666-1.1771-2.5643-2.0621-2.9846-0.2631z"/>
  </g>
 </g>
 <defs>
  <linearGradient id="paint0_linear_706:3294" x1="9.9898" x2="42.956" y1="41.845" y2="41.845" gradientUnits="userSpaceOnUse">
   <stop stop-color="#B6D435" offset="0"/>
   <stop stop-color="#31B34A" offset="1"/>
  </linearGradient>
 </defs>
</svg>
