<?xml version="1.0" encoding="UTF-8"?>
<!-- Created with Inkscape (http://www.inkscape.org/) -->
<svg width="18.645mm" height="9.4063mm" version="1.1" viewBox="0 0 18.645 9.4063" xmlns="http://www.w3.org/2000/svg">
 <defs>
  <clipPath id="clipPath167-0">
   <path d="m0 0h850.39v425.2h-850.39z"/>
  </clipPath>
  <clipPath id="clipPath171-0">
   <path d="m0 0h851v426h-851z"/>
  </clipPath>
 </defs>
 <g transform="translate(-68.066 -163.97)">
  <path d="m75.792 167.35c0 1.8027-1.4616 3.2642-3.2643 3.2642-1.8027 0-3.2639-1.4616-3.2639-3.2642 0-1.8027 1.4612-3.2643 3.2639-3.2643 1.8027 0 3.2643 1.4616 3.2643 3.2643" fill="#0498d1"/>
  <path d="m75.792 167.35c0 1.8027-1.4616 3.2642-3.2643 3.2642-1.8027 0-3.2639-1.4616-3.2639-3.2642 0-1.8027 1.4612-3.2643 3.2639-3.2643 1.8027 0 3.2643 1.4616 3.2643 3.2643" fill="#64abda"/>
  <g transform="matrix(.35278 0 0 -.35278 75.792 167.35)">
   <path d="m0 0c0-5.11-4.143-9.253-9.253-9.253s-9.252 4.143-9.252 9.253 4.142 9.253 9.252 9.253 9.253-4.143 9.253-9.253z" fill="none" stroke="#fff" stroke-miterlimit="10" stroke-width=".707"/>
  </g>
  <path d="m70.791 166.17c0.02928 0.12559 0.06279 0.25012 0.10019 0.3736 0.03634 0.11994 0.07514 0.23953 0.1203 0.3563 0.0254 0.066 0.05398 0.13088 0.08326 0.19509 0.02787 0.0614 0.0568 0.12664 0.1083 0.1718 0.01623 0.0141 0.03493 0.0226 0.05398 0.0261 0.18521 0.56232 0.39405 1.1165 0.62794 1.6602-0.17004-0.26635-0.34043-0.53234-0.51047-0.79869-0.13053-0.20426-0.27905-0.39546-0.42369-0.58985-0.01799-0.0243-0.05362-4e-3 -0.04057 0.0236 0.09313 0.2025 0.17992 0.40958 0.28751 0.60501 0.10548 0.19192 0.21096 0.38383 0.31644 0.57574 0.21272 0.387 0.42369 0.7747 0.62689 1.167 0.01305 0.0247 0.0254 0.0497 0.0381 0.0751 0.2674-0.0183 0.53552-0.0296 0.80328-0.0399 0.0049-0.0198 0.01023-0.0395 0.01552-0.0589 0.02822-0.10125 0.05891-0.20214 0.09137-0.30198 0.06421-0.19649 0.13547-0.39087 0.20743-0.5849 0.14852-0.40146 0.30868-0.79869 0.46355-1.198 0.05256-0.13582 0.10795-0.27093 0.15804-0.40781 0.01341 0.0296 0.02611 0.0589 0.03916 0.0889 0.05292 0.12348 0.10266 0.24871 0.14922 0.37465 0.09454 0.25577 0.18803 0.51083 0.26529 0.77223 0.01446 0.0498 0.08361 0.0282 0.07585-0.0208-0.04339-0.27199-0.09596-0.54398-0.17498-0.80821-0.03881-0.12983-0.08079-0.25859-0.12594-0.38665-0.02328-0.0653-0.04727-0.13053-0.07232-0.19544-0.01129-0.0289-0.02258-0.0582-0.03422-0.0871-0.01446-0.0367-0.01305-0.073-0.02434-0.11113-0.03281-0.10971-0.18627-0.13335-0.24518-0.0321-0.11254 0.19226-0.19826 0.39617-0.28963 0.59937-0.09137 0.20285-0.18239 0.40605-0.27376 0.60889-0.01094 0.0243-0.02187 0.0487-0.03281 0.0734 0.02469-0.19791 0.04798-0.39582 0.06985-0.59372 0.0314-0.28717 0.04727-0.5768 0.06738-0.86502 0.02293-0.3249 0.03316-0.64946 0.04516-0.97437 0.0014-0.0437-0.06809-0.0543-0.07726-0.0106-0.05856 0.28257-0.1203 0.56409-0.1718 0.84808-0.05186 0.28434-0.10513 0.56867-0.16087 0.85231-0.05574 0.28434-0.10125 0.57044-0.15628 0.85513-0.05009 0.25894-0.10407 0.51753-0.1584 0.77576-0.02787-0.1083-0.05503-0.21696-0.08079-0.32561 0.04798-0.35243 0.09208-0.70521 0.12806-1.059 0.04868-0.47273 0.08396-0.94686 0.09455-1.4217 0.06844-0.0155 0.10478-0.0699 0.11289-0.13935 0.01411-0.11606 3.52e-4 -0.23565-0.0067-0.35207-0.0074-0.11712-0.01482-0.23459-0.02222-0.35172-0.0074-0.11782-0.01693-0.23459-0.03105-0.35207-0.0074-0.0632-0.01799-0.12594-0.0314-0.18838-6e-3 -0.0275-0.01305-0.0564-0.02223-0.0833-0.01376-0.0395-0.03775-0.0515-0.06597-0.0765-0.01799-0.1524-0.03951-0.30445-0.06491-0.45614-0.0014-0.01-0.01835-7e-3 -0.01729 2e-3 0.01587 0.14464 0.02893 0.28927 0.03951 0.43391-0.01693-1e-3 -0.03422 4e-3 -0.04621 0.0173-0.02293 0.0265-0.05115 0.043-0.06138 0.079-0.0078 0.0289-0.01235 0.0663-0.01482 0.096-0.0056 0.0582-0.0099 0.11747-0.0099 0.17568 0 0.12136 0.0046 0.24201 0.01164 0.36301 0.0067 0.11712 0.01341 0.2346 0.01976 0.35172 0.0074 0.12629 0.0099 0.25647 0.03986 0.37923 0.01023 0.0416 0.04092 0.0744 0.07867 0.0917-0.03105 0.7179-0.10901 1.4351-0.20849 2.1466-0.07161-0.33479-0.13406-0.67134-0.19579-1.0086-0.04551-0.24554-0.08714-0.49177-0.1337-0.73731-0.0035-0.0183-0.02999-0.0127-0.03069 4e-3 -0.03493 0.69567 0.02364 1.3966 0.11748 2.0892-0.05433-0.1584-0.10619-0.3175-0.15487-0.47767-0.17921-0.58808-0.33549-1.185-0.4505-1.7889-0.03246-0.16933-0.05821-0.33973-0.0949-0.508-0.03598-0.16722-0.06915-0.33514-0.09948-0.50377-0.0028-0.0148-0.02575-0.0109-0.02575 4e-3 -3.53e-4 0.1584 0.0014 0.31679 0.0063 0.47484 0.0046 0.15205 0.02011 0.30162 0.03845 0.45261 0.0381 0.31009 0.08572 0.61913 0.14288 0.9264 0.07655 0.40922 0.17568 0.81244 0.29351 1.2111-0.0321-0.0727-0.06421-0.14569-0.09596-0.21872-0.1651-0.37888-0.31997-0.762-0.4632-1.1497 0.0314-0.0159 0.05468-0.0473 0.05468-0.0907 3.53e-4 -0.0667-0.02434-0.12594-0.04762-0.18732-0.02223-0.0586-0.0441-0.11748-0.06632-0.17568-0.04657-0.12065-0.09172-0.2413-0.13194-0.36407-0.0388-0.11959-0.07408-0.23989-0.10583-0.3616-0.01623-0.0628-0.02575-0.13158-0.05362-0.1905-0.02187-0.0451-0.07338-0.11853-0.13441-0.10195-0.02575-0.0882-0.0508-0.17639-0.07514-0.26458-0.0014-5e-3 -0.0081-3e-3 -0.0071 2e-3 0.02152 0.0896 0.0441 0.17921 0.06667 0.26882-0.12629 0.0586-0.06032 0.24976-0.03634 0.35277" fill="#fff"/>
  <path d="m76.842 167.97h9.8686" fill="none" stroke="#d99746" stroke-miterlimit="10" stroke-width="2.4694"/>
  <g transform="matrix(.35278 0 0 -.35278 76.842 167.97)">
   <path d="m0 0h27.974" fill="none" stroke="#64abda" stroke-miterlimit="10" stroke-width="3"/>
  </g>
  <g transform="matrix(.35278 0 0 -.35278 -131.01 188.1)">
   <g clip-path="url(#clipPath167-0)">
    <path d="m574.24 46.906c0-2.648-2.146-4.794-4.794-4.794s-4.795 2.146-4.795 4.794 2.147 4.794 4.795 4.794 4.794-2.146 4.794-4.794" fill="#64abda"/>
    <g transform="translate(574.24 46.906)">
     <path d="m0 0c0-2.648-2.146-4.794-4.794-4.794s-4.795 2.146-4.795 4.794 2.147 4.794 4.795 4.794 4.794-2.146 4.794-4.794z" fill="none" stroke="#fff" stroke-miterlimit="10" stroke-width=".707"/>
    </g>
   </g>
  </g>
  <g transform="matrix(.35278 0 0 -.35278 -131.01 188.1)">
   <g clip-path="url(#clipPath171-0)">
    <text transform="matrix(.97 0 0 -1 567.88 44.697)" fill="#ffffff" font-family="FrutigerLT" font-size="6px" font-weight="bold"><tspan x="0" y="0">2</tspan></text>
   </g>
  </g>
 </g>
</svg>
